%TF.GenerationSoftware,KiCad,Pcbnew,7.0.9*%
%TF.CreationDate,2024-12-09T19:17:55-07:00*%
%TF.ProjectId,Extender_Board,45787465-6e64-4657-925f-426f6172642e,rev?*%
%TF.SameCoordinates,Original*%
%TF.FileFunction,Soldermask,Top*%
%TF.FilePolarity,Negative*%
%FSLAX46Y46*%
G04 Gerber Fmt 4.6, Leading zero omitted, Abs format (unit mm)*
G04 Created by KiCad (PCBNEW 7.0.9) date 2024-12-09 19:17:55*
%MOMM*%
%LPD*%
G01*
G04 APERTURE LIST*
%ADD10C,1.397000*%
%ADD11R,1.397000X1.397000*%
G04 APERTURE END LIST*
D10*
%TO.C,J2*%
X160782000Y-98806000D03*
X158242000Y-98806000D03*
X155702000Y-98806000D03*
X153162000Y-98806000D03*
X160782000Y-96266000D03*
X158242000Y-96266000D03*
X155702000Y-96266000D03*
X153162000Y-96266000D03*
X160782000Y-93726000D03*
X158242000Y-93726000D03*
X155702000Y-93726000D03*
X153162000Y-93726000D03*
X160782000Y-91186000D03*
X158242000Y-91186000D03*
X155702000Y-91186000D03*
X153162000Y-91186000D03*
X160782000Y-88646000D03*
X158242000Y-88646000D03*
X155702000Y-88646000D03*
X153162000Y-88646000D03*
X160782000Y-86106000D03*
X158242000Y-86106000D03*
X155702000Y-86106000D03*
X153162000Y-86106000D03*
X160782000Y-83566000D03*
X158242000Y-83566000D03*
X155702000Y-83566000D03*
X153162000Y-83566000D03*
X160782000Y-81026000D03*
X158242000Y-81026000D03*
X155702000Y-81026000D03*
X153162000Y-81026000D03*
X160782000Y-78486000D03*
X158242000Y-78486000D03*
X155702000Y-78486000D03*
X153162000Y-78486000D03*
X160782000Y-75946000D03*
X158242000Y-75946000D03*
X155702000Y-75946000D03*
X153162000Y-75946000D03*
X160782000Y-73406000D03*
X158242000Y-73406000D03*
X155702000Y-73406000D03*
X153162000Y-73406000D03*
X160782000Y-70866000D03*
X158242000Y-70866000D03*
X155702000Y-70866000D03*
X153162000Y-70866000D03*
X160782000Y-68326000D03*
X158242000Y-68326000D03*
X155702000Y-68326000D03*
X153162000Y-68326000D03*
X160782000Y-65786000D03*
X158242000Y-65786000D03*
X155702000Y-65786000D03*
X153162000Y-65786000D03*
X160782000Y-63246000D03*
X158242000Y-63246000D03*
X155702000Y-63246000D03*
X153162000Y-63246000D03*
X160782000Y-60706000D03*
X158242000Y-60706000D03*
X155702000Y-60706000D03*
X153162000Y-60706000D03*
X160782000Y-58166000D03*
X158242000Y-58166000D03*
X155702000Y-58166000D03*
X153162000Y-58166000D03*
X160782000Y-55626000D03*
X158242000Y-55626000D03*
X155702000Y-55626000D03*
D11*
X153162000Y-55626000D03*
%TD*%
D10*
%TO.C,J1*%
X122936000Y-98806000D03*
X125476000Y-98806000D03*
X128016000Y-98806000D03*
X130556000Y-98806000D03*
X122936000Y-96266000D03*
X125476000Y-96266000D03*
X128016000Y-96266000D03*
X130556000Y-96266000D03*
X122936000Y-93726000D03*
X125476000Y-93726000D03*
X128016000Y-93726000D03*
X130556000Y-93726000D03*
X122936000Y-91186000D03*
X125476000Y-91186000D03*
X128016000Y-91186000D03*
X130556000Y-91186000D03*
X122936000Y-88646000D03*
X125476000Y-88646000D03*
X128016000Y-88646000D03*
X130556000Y-88646000D03*
X122936000Y-86106000D03*
X125476000Y-86106000D03*
X128016000Y-86106000D03*
X130556000Y-86106000D03*
X122936000Y-83566000D03*
X125476000Y-83566000D03*
X128016000Y-83566000D03*
X130556000Y-83566000D03*
X122936000Y-81026000D03*
X125476000Y-81026000D03*
X128016000Y-81026000D03*
X130556000Y-81026000D03*
X122936000Y-78486000D03*
X125476000Y-78486000D03*
X128016000Y-78486000D03*
X130556000Y-78486000D03*
X122936000Y-75946000D03*
X125476000Y-75946000D03*
X128016000Y-75946000D03*
X130556000Y-75946000D03*
X122936000Y-73406000D03*
X125476000Y-73406000D03*
X128016000Y-73406000D03*
X130556000Y-73406000D03*
X122936000Y-70866000D03*
X125476000Y-70866000D03*
X128016000Y-70866000D03*
X130556000Y-70866000D03*
X122936000Y-68326000D03*
X125476000Y-68326000D03*
X128016000Y-68326000D03*
X130556000Y-68326000D03*
X122936000Y-65786000D03*
X125476000Y-65786000D03*
X128016000Y-65786000D03*
X130556000Y-65786000D03*
X122936000Y-63246000D03*
X125476000Y-63246000D03*
X128016000Y-63246000D03*
X130556000Y-63246000D03*
X122936000Y-60706000D03*
X125476000Y-60706000D03*
X128016000Y-60706000D03*
X130556000Y-60706000D03*
X122936000Y-58166000D03*
X125476000Y-58166000D03*
X128016000Y-58166000D03*
X130556000Y-58166000D03*
X122936000Y-55626000D03*
X125476000Y-55626000D03*
X128016000Y-55626000D03*
D11*
X130556000Y-55626000D03*
%TD*%
M02*
