%TF.GenerationSoftware,KiCad,Pcbnew,7.0.9*%
%TF.CreationDate,2024-12-09T19:17:55-07:00*%
%TF.ProjectId,Extender_Board,45787465-6e64-4657-925f-426f6172642e,rev?*%
%TF.SameCoordinates,Original*%
%TF.FileFunction,Legend,Bot*%
%TF.FilePolarity,Positive*%
%FSLAX46Y46*%
G04 Gerber Fmt 4.6, Leading zero omitted, Abs format (unit mm)*
G04 Created by KiCad (PCBNEW 7.0.9) date 2024-12-09 19:17:55*
%MOMM*%
%LPD*%
G01*
G04 APERTURE LIST*
%ADD10C,0.300000*%
%ADD11C,0.100000*%
G04 APERTURE END LIST*
D10*
X114904346Y-77802828D02*
X113975774Y-77802828D01*
X113975774Y-77802828D02*
X114475774Y-78374257D01*
X114475774Y-78374257D02*
X114261489Y-78374257D01*
X114261489Y-78374257D02*
X114118632Y-78445685D01*
X114118632Y-78445685D02*
X114047203Y-78517114D01*
X114047203Y-78517114D02*
X113975774Y-78659971D01*
X113975774Y-78659971D02*
X113975774Y-79017114D01*
X113975774Y-79017114D02*
X114047203Y-79159971D01*
X114047203Y-79159971D02*
X114118632Y-79231400D01*
X114118632Y-79231400D02*
X114261489Y-79302828D01*
X114261489Y-79302828D02*
X114690060Y-79302828D01*
X114690060Y-79302828D02*
X114832917Y-79231400D01*
X114832917Y-79231400D02*
X114904346Y-79159971D01*
X113547203Y-77802828D02*
X113047203Y-79302828D01*
X113047203Y-79302828D02*
X112547203Y-77802828D01*
X119587489Y-93757114D02*
X119087489Y-93757114D01*
X118873203Y-94542828D02*
X119587489Y-94542828D01*
X119587489Y-94542828D02*
X119587489Y-93042828D01*
X119587489Y-93042828D02*
X118873203Y-93042828D01*
X117444631Y-94542828D02*
X118301774Y-94542828D01*
X117873203Y-94542828D02*
X117873203Y-93042828D01*
X117873203Y-93042828D02*
X118016060Y-93257114D01*
X118016060Y-93257114D02*
X118158917Y-93399971D01*
X118158917Y-93399971D02*
X118301774Y-93471400D01*
X116158918Y-93542828D02*
X116158918Y-94542828D01*
X116516060Y-92971400D02*
X116873203Y-94042828D01*
X116873203Y-94042828D02*
X115944632Y-94042828D01*
X118801774Y-77874257D02*
X118944632Y-77802828D01*
X118944632Y-77802828D02*
X119158917Y-77802828D01*
X119158917Y-77802828D02*
X119373203Y-77874257D01*
X119373203Y-77874257D02*
X119516060Y-78017114D01*
X119516060Y-78017114D02*
X119587489Y-78159971D01*
X119587489Y-78159971D02*
X119658917Y-78445685D01*
X119658917Y-78445685D02*
X119658917Y-78659971D01*
X119658917Y-78659971D02*
X119587489Y-78945685D01*
X119587489Y-78945685D02*
X119516060Y-79088542D01*
X119516060Y-79088542D02*
X119373203Y-79231400D01*
X119373203Y-79231400D02*
X119158917Y-79302828D01*
X119158917Y-79302828D02*
X119016060Y-79302828D01*
X119016060Y-79302828D02*
X118801774Y-79231400D01*
X118801774Y-79231400D02*
X118730346Y-79159971D01*
X118730346Y-79159971D02*
X118730346Y-78659971D01*
X118730346Y-78659971D02*
X119016060Y-78659971D01*
X118801774Y-62634257D02*
X118944632Y-62562828D01*
X118944632Y-62562828D02*
X119158917Y-62562828D01*
X119158917Y-62562828D02*
X119373203Y-62634257D01*
X119373203Y-62634257D02*
X119516060Y-62777114D01*
X119516060Y-62777114D02*
X119587489Y-62919971D01*
X119587489Y-62919971D02*
X119658917Y-63205685D01*
X119658917Y-63205685D02*
X119658917Y-63419971D01*
X119658917Y-63419971D02*
X119587489Y-63705685D01*
X119587489Y-63705685D02*
X119516060Y-63848542D01*
X119516060Y-63848542D02*
X119373203Y-63991400D01*
X119373203Y-63991400D02*
X119158917Y-64062828D01*
X119158917Y-64062828D02*
X119016060Y-64062828D01*
X119016060Y-64062828D02*
X118801774Y-63991400D01*
X118801774Y-63991400D02*
X118730346Y-63919971D01*
X118730346Y-63919971D02*
X118730346Y-63419971D01*
X118730346Y-63419971D02*
X119016060Y-63419971D01*
X117301774Y-64062828D02*
X118158917Y-64062828D01*
X117730346Y-64062828D02*
X117730346Y-62562828D01*
X117730346Y-62562828D02*
X117873203Y-62777114D01*
X117873203Y-62777114D02*
X118016060Y-62919971D01*
X118016060Y-62919971D02*
X118158917Y-62991400D01*
X104903203Y-54942828D02*
X105617489Y-54942828D01*
X105617489Y-54942828D02*
X105688917Y-55657114D01*
X105688917Y-55657114D02*
X105617489Y-55585685D01*
X105617489Y-55585685D02*
X105474632Y-55514257D01*
X105474632Y-55514257D02*
X105117489Y-55514257D01*
X105117489Y-55514257D02*
X104974632Y-55585685D01*
X104974632Y-55585685D02*
X104903203Y-55657114D01*
X104903203Y-55657114D02*
X104831774Y-55799971D01*
X104831774Y-55799971D02*
X104831774Y-56157114D01*
X104831774Y-56157114D02*
X104903203Y-56299971D01*
X104903203Y-56299971D02*
X104974632Y-56371400D01*
X104974632Y-56371400D02*
X105117489Y-56442828D01*
X105117489Y-56442828D02*
X105474632Y-56442828D01*
X105474632Y-56442828D02*
X105617489Y-56371400D01*
X105617489Y-56371400D02*
X105688917Y-56299971D01*
X104403203Y-54942828D02*
X103903203Y-56442828D01*
X103903203Y-56442828D02*
X103403203Y-54942828D01*
X119087489Y-96297114D02*
X119587489Y-96297114D01*
X119587489Y-97082828D02*
X119587489Y-95582828D01*
X119587489Y-95582828D02*
X118873203Y-95582828D01*
X117516060Y-97082828D02*
X118373203Y-97082828D01*
X117944632Y-97082828D02*
X117944632Y-95582828D01*
X117944632Y-95582828D02*
X118087489Y-95797114D01*
X118087489Y-95797114D02*
X118230346Y-95939971D01*
X118230346Y-95939971D02*
X118373203Y-96011400D01*
X116944632Y-95725685D02*
X116873204Y-95654257D01*
X116873204Y-95654257D02*
X116730347Y-95582828D01*
X116730347Y-95582828D02*
X116373204Y-95582828D01*
X116373204Y-95582828D02*
X116230347Y-95654257D01*
X116230347Y-95654257D02*
X116158918Y-95725685D01*
X116158918Y-95725685D02*
X116087489Y-95868542D01*
X116087489Y-95868542D02*
X116087489Y-96011400D01*
X116087489Y-96011400D02*
X116158918Y-96225685D01*
X116158918Y-96225685D02*
X117016061Y-97082828D01*
X117016061Y-97082828D02*
X116087489Y-97082828D01*
X110189489Y-58982828D02*
X110189489Y-57482828D01*
X110189489Y-57482828D02*
X109618060Y-57482828D01*
X109618060Y-57482828D02*
X109475203Y-57554257D01*
X109475203Y-57554257D02*
X109403774Y-57625685D01*
X109403774Y-57625685D02*
X109332346Y-57768542D01*
X109332346Y-57768542D02*
X109332346Y-57982828D01*
X109332346Y-57982828D02*
X109403774Y-58125685D01*
X109403774Y-58125685D02*
X109475203Y-58197114D01*
X109475203Y-58197114D02*
X109618060Y-58268542D01*
X109618060Y-58268542D02*
X110189489Y-58268542D01*
X107903774Y-58982828D02*
X108760917Y-58982828D01*
X108332346Y-58982828D02*
X108332346Y-57482828D01*
X108332346Y-57482828D02*
X108475203Y-57697114D01*
X108475203Y-57697114D02*
X108618060Y-57839971D01*
X108618060Y-57839971D02*
X108760917Y-57911400D01*
X118730346Y-68999971D02*
X118801774Y-69071400D01*
X118801774Y-69071400D02*
X119016060Y-69142828D01*
X119016060Y-69142828D02*
X119158917Y-69142828D01*
X119158917Y-69142828D02*
X119373203Y-69071400D01*
X119373203Y-69071400D02*
X119516060Y-68928542D01*
X119516060Y-68928542D02*
X119587489Y-68785685D01*
X119587489Y-68785685D02*
X119658917Y-68499971D01*
X119658917Y-68499971D02*
X119658917Y-68285685D01*
X119658917Y-68285685D02*
X119587489Y-67999971D01*
X119587489Y-67999971D02*
X119516060Y-67857114D01*
X119516060Y-67857114D02*
X119373203Y-67714257D01*
X119373203Y-67714257D02*
X119158917Y-67642828D01*
X119158917Y-67642828D02*
X119016060Y-67642828D01*
X119016060Y-67642828D02*
X118801774Y-67714257D01*
X118801774Y-67714257D02*
X118730346Y-67785685D01*
X117301774Y-69142828D02*
X118158917Y-69142828D01*
X117730346Y-69142828D02*
X117730346Y-67642828D01*
X117730346Y-67642828D02*
X117873203Y-67857114D01*
X117873203Y-67857114D02*
X118016060Y-67999971D01*
X118016060Y-67999971D02*
X118158917Y-68071400D01*
X109403774Y-77874257D02*
X109546632Y-77802828D01*
X109546632Y-77802828D02*
X109760917Y-77802828D01*
X109760917Y-77802828D02*
X109975203Y-77874257D01*
X109975203Y-77874257D02*
X110118060Y-78017114D01*
X110118060Y-78017114D02*
X110189489Y-78159971D01*
X110189489Y-78159971D02*
X110260917Y-78445685D01*
X110260917Y-78445685D02*
X110260917Y-78659971D01*
X110260917Y-78659971D02*
X110189489Y-78945685D01*
X110189489Y-78945685D02*
X110118060Y-79088542D01*
X110118060Y-79088542D02*
X109975203Y-79231400D01*
X109975203Y-79231400D02*
X109760917Y-79302828D01*
X109760917Y-79302828D02*
X109618060Y-79302828D01*
X109618060Y-79302828D02*
X109403774Y-79231400D01*
X109403774Y-79231400D02*
X109332346Y-79159971D01*
X109332346Y-79159971D02*
X109332346Y-78659971D01*
X109332346Y-78659971D02*
X109618060Y-78659971D01*
X119658917Y-76334257D02*
X118944632Y-76334257D01*
X119801774Y-76762828D02*
X119301774Y-75262828D01*
X119301774Y-75262828D02*
X118801774Y-76762828D01*
X118444632Y-75262828D02*
X117516060Y-75262828D01*
X117516060Y-75262828D02*
X118016060Y-75834257D01*
X118016060Y-75834257D02*
X117801775Y-75834257D01*
X117801775Y-75834257D02*
X117658918Y-75905685D01*
X117658918Y-75905685D02*
X117587489Y-75977114D01*
X117587489Y-75977114D02*
X117516060Y-76119971D01*
X117516060Y-76119971D02*
X117516060Y-76477114D01*
X117516060Y-76477114D02*
X117587489Y-76619971D01*
X117587489Y-76619971D02*
X117658918Y-76691400D01*
X117658918Y-76691400D02*
X117801775Y-76762828D01*
X117801775Y-76762828D02*
X118230346Y-76762828D01*
X118230346Y-76762828D02*
X118373203Y-76691400D01*
X118373203Y-76691400D02*
X118444632Y-76619971D01*
X105617489Y-58982828D02*
X105617489Y-57482828D01*
X105617489Y-57482828D02*
X104760346Y-58982828D01*
X104760346Y-58982828D02*
X104760346Y-57482828D01*
X103260345Y-58982828D02*
X104117488Y-58982828D01*
X103688917Y-58982828D02*
X103688917Y-57482828D01*
X103688917Y-57482828D02*
X103831774Y-57697114D01*
X103831774Y-57697114D02*
X103974631Y-57839971D01*
X103974631Y-57839971D02*
X104117488Y-57911400D01*
X104903203Y-77802828D02*
X105617489Y-77802828D01*
X105617489Y-77802828D02*
X105688917Y-78517114D01*
X105688917Y-78517114D02*
X105617489Y-78445685D01*
X105617489Y-78445685D02*
X105474632Y-78374257D01*
X105474632Y-78374257D02*
X105117489Y-78374257D01*
X105117489Y-78374257D02*
X104974632Y-78445685D01*
X104974632Y-78445685D02*
X104903203Y-78517114D01*
X104903203Y-78517114D02*
X104831774Y-78659971D01*
X104831774Y-78659971D02*
X104831774Y-79017114D01*
X104831774Y-79017114D02*
X104903203Y-79159971D01*
X104903203Y-79159971D02*
X104974632Y-79231400D01*
X104974632Y-79231400D02*
X105117489Y-79302828D01*
X105117489Y-79302828D02*
X105474632Y-79302828D01*
X105474632Y-79302828D02*
X105617489Y-79231400D01*
X105617489Y-79231400D02*
X105688917Y-79159971D01*
X104403203Y-77802828D02*
X103903203Y-79302828D01*
X103903203Y-79302828D02*
X103403203Y-77802828D01*
X119587489Y-99622828D02*
X119587489Y-98122828D01*
X119587489Y-98837114D02*
X118730346Y-98837114D01*
X118730346Y-99622828D02*
X118730346Y-98122828D01*
X117230345Y-99622828D02*
X118087488Y-99622828D01*
X117658917Y-99622828D02*
X117658917Y-98122828D01*
X117658917Y-98122828D02*
X117801774Y-98337114D01*
X117801774Y-98337114D02*
X117944631Y-98479971D01*
X117944631Y-98479971D02*
X118087488Y-98551400D01*
X116658917Y-98265685D02*
X116587489Y-98194257D01*
X116587489Y-98194257D02*
X116444632Y-98122828D01*
X116444632Y-98122828D02*
X116087489Y-98122828D01*
X116087489Y-98122828D02*
X115944632Y-98194257D01*
X115944632Y-98194257D02*
X115873203Y-98265685D01*
X115873203Y-98265685D02*
X115801774Y-98408542D01*
X115801774Y-98408542D02*
X115801774Y-98551400D01*
X115801774Y-98551400D02*
X115873203Y-98765685D01*
X115873203Y-98765685D02*
X116730346Y-99622828D01*
X116730346Y-99622828D02*
X115801774Y-99622828D01*
X119658917Y-81414257D02*
X118944632Y-81414257D01*
X119801774Y-81842828D02*
X119301774Y-80342828D01*
X119301774Y-80342828D02*
X118801774Y-81842828D01*
X117658918Y-80342828D02*
X117944632Y-80342828D01*
X117944632Y-80342828D02*
X118087489Y-80414257D01*
X118087489Y-80414257D02*
X118158918Y-80485685D01*
X118158918Y-80485685D02*
X118301775Y-80699971D01*
X118301775Y-80699971D02*
X118373203Y-80985685D01*
X118373203Y-80985685D02*
X118373203Y-81557114D01*
X118373203Y-81557114D02*
X118301775Y-81699971D01*
X118301775Y-81699971D02*
X118230346Y-81771400D01*
X118230346Y-81771400D02*
X118087489Y-81842828D01*
X118087489Y-81842828D02*
X117801775Y-81842828D01*
X117801775Y-81842828D02*
X117658918Y-81771400D01*
X117658918Y-81771400D02*
X117587489Y-81699971D01*
X117587489Y-81699971D02*
X117516060Y-81557114D01*
X117516060Y-81557114D02*
X117516060Y-81199971D01*
X117516060Y-81199971D02*
X117587489Y-81057114D01*
X117587489Y-81057114D02*
X117658918Y-80985685D01*
X117658918Y-80985685D02*
X117801775Y-80914257D01*
X117801775Y-80914257D02*
X118087489Y-80914257D01*
X118087489Y-80914257D02*
X118230346Y-80985685D01*
X118230346Y-80985685D02*
X118301775Y-81057114D01*
X118301775Y-81057114D02*
X118373203Y-81199971D01*
X119587489Y-65817114D02*
X119087489Y-65817114D01*
X118873203Y-66602828D02*
X119587489Y-66602828D01*
X119587489Y-66602828D02*
X119587489Y-65102828D01*
X119587489Y-65102828D02*
X118873203Y-65102828D01*
X117444631Y-66602828D02*
X118301774Y-66602828D01*
X117873203Y-66602828D02*
X117873203Y-65102828D01*
X117873203Y-65102828D02*
X118016060Y-65317114D01*
X118016060Y-65317114D02*
X118158917Y-65459971D01*
X118158917Y-65459971D02*
X118301774Y-65531400D01*
X109403774Y-55014257D02*
X109546632Y-54942828D01*
X109546632Y-54942828D02*
X109760917Y-54942828D01*
X109760917Y-54942828D02*
X109975203Y-55014257D01*
X109975203Y-55014257D02*
X110118060Y-55157114D01*
X110118060Y-55157114D02*
X110189489Y-55299971D01*
X110189489Y-55299971D02*
X110260917Y-55585685D01*
X110260917Y-55585685D02*
X110260917Y-55799971D01*
X110260917Y-55799971D02*
X110189489Y-56085685D01*
X110189489Y-56085685D02*
X110118060Y-56228542D01*
X110118060Y-56228542D02*
X109975203Y-56371400D01*
X109975203Y-56371400D02*
X109760917Y-56442828D01*
X109760917Y-56442828D02*
X109618060Y-56442828D01*
X109618060Y-56442828D02*
X109403774Y-56371400D01*
X109403774Y-56371400D02*
X109332346Y-56299971D01*
X109332346Y-56299971D02*
X109332346Y-55799971D01*
X109332346Y-55799971D02*
X109618060Y-55799971D01*
X119658917Y-89034257D02*
X118944632Y-89034257D01*
X119801774Y-89462828D02*
X119301774Y-87962828D01*
X119301774Y-87962828D02*
X118801774Y-89462828D01*
X117516060Y-89462828D02*
X118373203Y-89462828D01*
X117944632Y-89462828D02*
X117944632Y-87962828D01*
X117944632Y-87962828D02*
X118087489Y-88177114D01*
X118087489Y-88177114D02*
X118230346Y-88319971D01*
X118230346Y-88319971D02*
X118373203Y-88391400D01*
X116944632Y-88105685D02*
X116873204Y-88034257D01*
X116873204Y-88034257D02*
X116730347Y-87962828D01*
X116730347Y-87962828D02*
X116373204Y-87962828D01*
X116373204Y-87962828D02*
X116230347Y-88034257D01*
X116230347Y-88034257D02*
X116158918Y-88105685D01*
X116158918Y-88105685D02*
X116087489Y-88248542D01*
X116087489Y-88248542D02*
X116087489Y-88391400D01*
X116087489Y-88391400D02*
X116158918Y-88605685D01*
X116158918Y-88605685D02*
X117016061Y-89462828D01*
X117016061Y-89462828D02*
X116087489Y-89462828D01*
X114904346Y-54942828D02*
X113975774Y-54942828D01*
X113975774Y-54942828D02*
X114475774Y-55514257D01*
X114475774Y-55514257D02*
X114261489Y-55514257D01*
X114261489Y-55514257D02*
X114118632Y-55585685D01*
X114118632Y-55585685D02*
X114047203Y-55657114D01*
X114047203Y-55657114D02*
X113975774Y-55799971D01*
X113975774Y-55799971D02*
X113975774Y-56157114D01*
X113975774Y-56157114D02*
X114047203Y-56299971D01*
X114047203Y-56299971D02*
X114118632Y-56371400D01*
X114118632Y-56371400D02*
X114261489Y-56442828D01*
X114261489Y-56442828D02*
X114690060Y-56442828D01*
X114690060Y-56442828D02*
X114832917Y-56371400D01*
X114832917Y-56371400D02*
X114904346Y-56299971D01*
X113547203Y-54942828D02*
X113047203Y-56442828D01*
X113047203Y-56442828D02*
X112547203Y-54942828D01*
X119658917Y-73794257D02*
X118944632Y-73794257D01*
X119801774Y-74222828D02*
X119301774Y-72722828D01*
X119301774Y-72722828D02*
X118801774Y-74222828D01*
X117516060Y-74222828D02*
X118373203Y-74222828D01*
X117944632Y-74222828D02*
X117944632Y-72722828D01*
X117944632Y-72722828D02*
X118087489Y-72937114D01*
X118087489Y-72937114D02*
X118230346Y-73079971D01*
X118230346Y-73079971D02*
X118373203Y-73151400D01*
X119158917Y-60022828D02*
X119158917Y-61094257D01*
X119158917Y-61094257D02*
X119230346Y-61308542D01*
X119230346Y-61308542D02*
X119373203Y-61451400D01*
X119373203Y-61451400D02*
X119587489Y-61522828D01*
X119587489Y-61522828D02*
X119730346Y-61522828D01*
X117658917Y-61522828D02*
X118516060Y-61522828D01*
X118087489Y-61522828D02*
X118087489Y-60022828D01*
X118087489Y-60022828D02*
X118230346Y-60237114D01*
X118230346Y-60237114D02*
X118373203Y-60379971D01*
X118373203Y-60379971D02*
X118516060Y-60451400D01*
X118730346Y-91859971D02*
X118801774Y-91931400D01*
X118801774Y-91931400D02*
X119016060Y-92002828D01*
X119016060Y-92002828D02*
X119158917Y-92002828D01*
X119158917Y-92002828D02*
X119373203Y-91931400D01*
X119373203Y-91931400D02*
X119516060Y-91788542D01*
X119516060Y-91788542D02*
X119587489Y-91645685D01*
X119587489Y-91645685D02*
X119658917Y-91359971D01*
X119658917Y-91359971D02*
X119658917Y-91145685D01*
X119658917Y-91145685D02*
X119587489Y-90859971D01*
X119587489Y-90859971D02*
X119516060Y-90717114D01*
X119516060Y-90717114D02*
X119373203Y-90574257D01*
X119373203Y-90574257D02*
X119158917Y-90502828D01*
X119158917Y-90502828D02*
X119016060Y-90502828D01*
X119016060Y-90502828D02*
X118801774Y-90574257D01*
X118801774Y-90574257D02*
X118730346Y-90645685D01*
X117301774Y-92002828D02*
X118158917Y-92002828D01*
X117730346Y-92002828D02*
X117730346Y-90502828D01*
X117730346Y-90502828D02*
X117873203Y-90717114D01*
X117873203Y-90717114D02*
X118016060Y-90859971D01*
X118016060Y-90859971D02*
X118158917Y-90931400D01*
X116016061Y-91002828D02*
X116016061Y-92002828D01*
X116373203Y-90431400D02*
X116730346Y-91502828D01*
X116730346Y-91502828D02*
X115801775Y-91502828D01*
X118730346Y-86779971D02*
X118801774Y-86851400D01*
X118801774Y-86851400D02*
X119016060Y-86922828D01*
X119016060Y-86922828D02*
X119158917Y-86922828D01*
X119158917Y-86922828D02*
X119373203Y-86851400D01*
X119373203Y-86851400D02*
X119516060Y-86708542D01*
X119516060Y-86708542D02*
X119587489Y-86565685D01*
X119587489Y-86565685D02*
X119658917Y-86279971D01*
X119658917Y-86279971D02*
X119658917Y-86065685D01*
X119658917Y-86065685D02*
X119587489Y-85779971D01*
X119587489Y-85779971D02*
X119516060Y-85637114D01*
X119516060Y-85637114D02*
X119373203Y-85494257D01*
X119373203Y-85494257D02*
X119158917Y-85422828D01*
X119158917Y-85422828D02*
X119016060Y-85422828D01*
X119016060Y-85422828D02*
X118801774Y-85494257D01*
X118801774Y-85494257D02*
X118730346Y-85565685D01*
X118016060Y-86922828D02*
X117730346Y-86922828D01*
X117730346Y-86922828D02*
X117587489Y-86851400D01*
X117587489Y-86851400D02*
X117516060Y-86779971D01*
X117516060Y-86779971D02*
X117373203Y-86565685D01*
X117373203Y-86565685D02*
X117301774Y-86279971D01*
X117301774Y-86279971D02*
X117301774Y-85708542D01*
X117301774Y-85708542D02*
X117373203Y-85565685D01*
X117373203Y-85565685D02*
X117444632Y-85494257D01*
X117444632Y-85494257D02*
X117587489Y-85422828D01*
X117587489Y-85422828D02*
X117873203Y-85422828D01*
X117873203Y-85422828D02*
X118016060Y-85494257D01*
X118016060Y-85494257D02*
X118087489Y-85565685D01*
X118087489Y-85565685D02*
X118158917Y-85708542D01*
X118158917Y-85708542D02*
X118158917Y-86065685D01*
X118158917Y-86065685D02*
X118087489Y-86208542D01*
X118087489Y-86208542D02*
X118016060Y-86279971D01*
X118016060Y-86279971D02*
X117873203Y-86351400D01*
X117873203Y-86351400D02*
X117587489Y-86351400D01*
X117587489Y-86351400D02*
X117444632Y-86279971D01*
X117444632Y-86279971D02*
X117373203Y-86208542D01*
X117373203Y-86208542D02*
X117301774Y-86065685D01*
X119587489Y-71682828D02*
X119587489Y-70182828D01*
X119587489Y-70182828D02*
X119230346Y-70182828D01*
X119230346Y-70182828D02*
X119016060Y-70254257D01*
X119016060Y-70254257D02*
X118873203Y-70397114D01*
X118873203Y-70397114D02*
X118801774Y-70539971D01*
X118801774Y-70539971D02*
X118730346Y-70825685D01*
X118730346Y-70825685D02*
X118730346Y-71039971D01*
X118730346Y-71039971D02*
X118801774Y-71325685D01*
X118801774Y-71325685D02*
X118873203Y-71468542D01*
X118873203Y-71468542D02*
X119016060Y-71611400D01*
X119016060Y-71611400D02*
X119230346Y-71682828D01*
X119230346Y-71682828D02*
X119587489Y-71682828D01*
X118230346Y-70182828D02*
X117301774Y-70182828D01*
X117301774Y-70182828D02*
X117801774Y-70754257D01*
X117801774Y-70754257D02*
X117587489Y-70754257D01*
X117587489Y-70754257D02*
X117444632Y-70825685D01*
X117444632Y-70825685D02*
X117373203Y-70897114D01*
X117373203Y-70897114D02*
X117301774Y-71039971D01*
X117301774Y-71039971D02*
X117301774Y-71397114D01*
X117301774Y-71397114D02*
X117373203Y-71539971D01*
X117373203Y-71539971D02*
X117444632Y-71611400D01*
X117444632Y-71611400D02*
X117587489Y-71682828D01*
X117587489Y-71682828D02*
X118016060Y-71682828D01*
X118016060Y-71682828D02*
X118158917Y-71611400D01*
X118158917Y-71611400D02*
X118230346Y-71539971D01*
X119587489Y-58982828D02*
X119587489Y-57482828D01*
X119587489Y-57482828D02*
X119087489Y-58554257D01*
X119087489Y-58554257D02*
X118587489Y-57482828D01*
X118587489Y-57482828D02*
X118587489Y-58982828D01*
X117087488Y-58982828D02*
X117944631Y-58982828D01*
X117516060Y-58982828D02*
X117516060Y-57482828D01*
X117516060Y-57482828D02*
X117658917Y-57697114D01*
X117658917Y-57697114D02*
X117801774Y-57839971D01*
X117801774Y-57839971D02*
X117944631Y-57911400D01*
X114047203Y-58982828D02*
X114761489Y-58982828D01*
X114761489Y-58982828D02*
X114761489Y-57482828D01*
X112761488Y-58982828D02*
X113618631Y-58982828D01*
X113190060Y-58982828D02*
X113190060Y-57482828D01*
X113190060Y-57482828D02*
X113332917Y-57697114D01*
X113332917Y-57697114D02*
X113475774Y-57839971D01*
X113475774Y-57839971D02*
X113618631Y-57911400D01*
X119658917Y-83954257D02*
X118944632Y-83954257D01*
X119801774Y-84382828D02*
X119301774Y-82882828D01*
X119301774Y-82882828D02*
X118801774Y-84382828D01*
X117516060Y-84382828D02*
X118373203Y-84382828D01*
X117944632Y-84382828D02*
X117944632Y-82882828D01*
X117944632Y-82882828D02*
X118087489Y-83097114D01*
X118087489Y-83097114D02*
X118230346Y-83239971D01*
X118230346Y-83239971D02*
X118373203Y-83311400D01*
X116587489Y-82882828D02*
X116444632Y-82882828D01*
X116444632Y-82882828D02*
X116301775Y-82954257D01*
X116301775Y-82954257D02*
X116230347Y-83025685D01*
X116230347Y-83025685D02*
X116158918Y-83168542D01*
X116158918Y-83168542D02*
X116087489Y-83454257D01*
X116087489Y-83454257D02*
X116087489Y-83811400D01*
X116087489Y-83811400D02*
X116158918Y-84097114D01*
X116158918Y-84097114D02*
X116230347Y-84239971D01*
X116230347Y-84239971D02*
X116301775Y-84311400D01*
X116301775Y-84311400D02*
X116444632Y-84382828D01*
X116444632Y-84382828D02*
X116587489Y-84382828D01*
X116587489Y-84382828D02*
X116730347Y-84311400D01*
X116730347Y-84311400D02*
X116801775Y-84239971D01*
X116801775Y-84239971D02*
X116873204Y-84097114D01*
X116873204Y-84097114D02*
X116944632Y-83811400D01*
X116944632Y-83811400D02*
X116944632Y-83454257D01*
X116944632Y-83454257D02*
X116873204Y-83168542D01*
X116873204Y-83168542D02*
X116801775Y-83025685D01*
X116801775Y-83025685D02*
X116730347Y-82954257D01*
X116730347Y-82954257D02*
X116587489Y-82882828D01*
X118801774Y-55014257D02*
X118944632Y-54942828D01*
X118944632Y-54942828D02*
X119158917Y-54942828D01*
X119158917Y-54942828D02*
X119373203Y-55014257D01*
X119373203Y-55014257D02*
X119516060Y-55157114D01*
X119516060Y-55157114D02*
X119587489Y-55299971D01*
X119587489Y-55299971D02*
X119658917Y-55585685D01*
X119658917Y-55585685D02*
X119658917Y-55799971D01*
X119658917Y-55799971D02*
X119587489Y-56085685D01*
X119587489Y-56085685D02*
X119516060Y-56228542D01*
X119516060Y-56228542D02*
X119373203Y-56371400D01*
X119373203Y-56371400D02*
X119158917Y-56442828D01*
X119158917Y-56442828D02*
X119016060Y-56442828D01*
X119016060Y-56442828D02*
X118801774Y-56371400D01*
X118801774Y-56371400D02*
X118730346Y-56299971D01*
X118730346Y-56299971D02*
X118730346Y-55799971D01*
X118730346Y-55799971D02*
X119016060Y-55799971D01*
X109403774Y-98194257D02*
X109546632Y-98122828D01*
X109546632Y-98122828D02*
X109760917Y-98122828D01*
X109760917Y-98122828D02*
X109975203Y-98194257D01*
X109975203Y-98194257D02*
X110118060Y-98337114D01*
X110118060Y-98337114D02*
X110189489Y-98479971D01*
X110189489Y-98479971D02*
X110260917Y-98765685D01*
X110260917Y-98765685D02*
X110260917Y-98979971D01*
X110260917Y-98979971D02*
X110189489Y-99265685D01*
X110189489Y-99265685D02*
X110118060Y-99408542D01*
X110118060Y-99408542D02*
X109975203Y-99551400D01*
X109975203Y-99551400D02*
X109760917Y-99622828D01*
X109760917Y-99622828D02*
X109618060Y-99622828D01*
X109618060Y-99622828D02*
X109403774Y-99551400D01*
X109403774Y-99551400D02*
X109332346Y-99479971D01*
X109332346Y-99479971D02*
X109332346Y-98979971D01*
X109332346Y-98979971D02*
X109618060Y-98979971D01*
X107903774Y-99622828D02*
X108760917Y-99622828D01*
X108332346Y-99622828D02*
X108332346Y-98122828D01*
X108332346Y-98122828D02*
X108475203Y-98337114D01*
X108475203Y-98337114D02*
X108618060Y-98479971D01*
X108618060Y-98479971D02*
X108760917Y-98551400D01*
X106475203Y-99622828D02*
X107332346Y-99622828D01*
X106903775Y-99622828D02*
X106903775Y-98122828D01*
X106903775Y-98122828D02*
X107046632Y-98337114D01*
X107046632Y-98337114D02*
X107189489Y-98479971D01*
X107189489Y-98479971D02*
X107332346Y-98551400D01*
X110189489Y-84382828D02*
X110189489Y-82882828D01*
X110189489Y-82882828D02*
X109832346Y-82882828D01*
X109832346Y-82882828D02*
X109618060Y-82954257D01*
X109618060Y-82954257D02*
X109475203Y-83097114D01*
X109475203Y-83097114D02*
X109403774Y-83239971D01*
X109403774Y-83239971D02*
X109332346Y-83525685D01*
X109332346Y-83525685D02*
X109332346Y-83739971D01*
X109332346Y-83739971D02*
X109403774Y-84025685D01*
X109403774Y-84025685D02*
X109475203Y-84168542D01*
X109475203Y-84168542D02*
X109618060Y-84311400D01*
X109618060Y-84311400D02*
X109832346Y-84382828D01*
X109832346Y-84382828D02*
X110189489Y-84382828D01*
X108046632Y-82882828D02*
X108332346Y-82882828D01*
X108332346Y-82882828D02*
X108475203Y-82954257D01*
X108475203Y-82954257D02*
X108546632Y-83025685D01*
X108546632Y-83025685D02*
X108689489Y-83239971D01*
X108689489Y-83239971D02*
X108760917Y-83525685D01*
X108760917Y-83525685D02*
X108760917Y-84097114D01*
X108760917Y-84097114D02*
X108689489Y-84239971D01*
X108689489Y-84239971D02*
X108618060Y-84311400D01*
X108618060Y-84311400D02*
X108475203Y-84382828D01*
X108475203Y-84382828D02*
X108189489Y-84382828D01*
X108189489Y-84382828D02*
X108046632Y-84311400D01*
X108046632Y-84311400D02*
X107975203Y-84239971D01*
X107975203Y-84239971D02*
X107903774Y-84097114D01*
X107903774Y-84097114D02*
X107903774Y-83739971D01*
X107903774Y-83739971D02*
X107975203Y-83597114D01*
X107975203Y-83597114D02*
X108046632Y-83525685D01*
X108046632Y-83525685D02*
X108189489Y-83454257D01*
X108189489Y-83454257D02*
X108475203Y-83454257D01*
X108475203Y-83454257D02*
X108618060Y-83525685D01*
X108618060Y-83525685D02*
X108689489Y-83597114D01*
X108689489Y-83597114D02*
X108760917Y-83739971D01*
X104863489Y-68357114D02*
X105363489Y-68357114D01*
X105363489Y-69142828D02*
X105363489Y-67642828D01*
X105363489Y-67642828D02*
X104649203Y-67642828D01*
X103434918Y-68142828D02*
X103434918Y-69142828D01*
X103792060Y-67571400D02*
X104149203Y-68642828D01*
X104149203Y-68642828D02*
X103220632Y-68642828D01*
X114332917Y-98122828D02*
X114332917Y-99194257D01*
X114332917Y-99194257D02*
X114404346Y-99408542D01*
X114404346Y-99408542D02*
X114547203Y-99551400D01*
X114547203Y-99551400D02*
X114761489Y-99622828D01*
X114761489Y-99622828D02*
X114904346Y-99622828D01*
X112832917Y-99622828D02*
X113690060Y-99622828D01*
X113261489Y-99622828D02*
X113261489Y-98122828D01*
X113261489Y-98122828D02*
X113404346Y-98337114D01*
X113404346Y-98337114D02*
X113547203Y-98479971D01*
X113547203Y-98479971D02*
X113690060Y-98551400D01*
X112261489Y-98265685D02*
X112190061Y-98194257D01*
X112190061Y-98194257D02*
X112047204Y-98122828D01*
X112047204Y-98122828D02*
X111690061Y-98122828D01*
X111690061Y-98122828D02*
X111547204Y-98194257D01*
X111547204Y-98194257D02*
X111475775Y-98265685D01*
X111475775Y-98265685D02*
X111404346Y-98408542D01*
X111404346Y-98408542D02*
X111404346Y-98551400D01*
X111404346Y-98551400D02*
X111475775Y-98765685D01*
X111475775Y-98765685D02*
X112332918Y-99622828D01*
X112332918Y-99622828D02*
X111404346Y-99622828D01*
X105363489Y-61522828D02*
X105363489Y-60022828D01*
X104506346Y-61522828D02*
X105149203Y-60665685D01*
X104506346Y-60022828D02*
X105363489Y-60879971D01*
X104006346Y-60022828D02*
X103077774Y-60022828D01*
X103077774Y-60022828D02*
X103577774Y-60594257D01*
X103577774Y-60594257D02*
X103363489Y-60594257D01*
X103363489Y-60594257D02*
X103220632Y-60665685D01*
X103220632Y-60665685D02*
X103149203Y-60737114D01*
X103149203Y-60737114D02*
X103077774Y-60879971D01*
X103077774Y-60879971D02*
X103077774Y-61237114D01*
X103077774Y-61237114D02*
X103149203Y-61379971D01*
X103149203Y-61379971D02*
X103220632Y-61451400D01*
X103220632Y-61451400D02*
X103363489Y-61522828D01*
X103363489Y-61522828D02*
X103792060Y-61522828D01*
X103792060Y-61522828D02*
X103934917Y-61451400D01*
X103934917Y-61451400D02*
X104006346Y-61379971D01*
X104760346Y-81699971D02*
X104831774Y-81771400D01*
X104831774Y-81771400D02*
X105046060Y-81842828D01*
X105046060Y-81842828D02*
X105188917Y-81842828D01*
X105188917Y-81842828D02*
X105403203Y-81771400D01*
X105403203Y-81771400D02*
X105546060Y-81628542D01*
X105546060Y-81628542D02*
X105617489Y-81485685D01*
X105617489Y-81485685D02*
X105688917Y-81199971D01*
X105688917Y-81199971D02*
X105688917Y-80985685D01*
X105688917Y-80985685D02*
X105617489Y-80699971D01*
X105617489Y-80699971D02*
X105546060Y-80557114D01*
X105546060Y-80557114D02*
X105403203Y-80414257D01*
X105403203Y-80414257D02*
X105188917Y-80342828D01*
X105188917Y-80342828D02*
X105046060Y-80342828D01*
X105046060Y-80342828D02*
X104831774Y-80414257D01*
X104831774Y-80414257D02*
X104760346Y-80485685D01*
X104260346Y-80342828D02*
X103260346Y-80342828D01*
X103260346Y-80342828D02*
X103903203Y-81842828D01*
X109332346Y-81699971D02*
X109403774Y-81771400D01*
X109403774Y-81771400D02*
X109618060Y-81842828D01*
X109618060Y-81842828D02*
X109760917Y-81842828D01*
X109760917Y-81842828D02*
X109975203Y-81771400D01*
X109975203Y-81771400D02*
X110118060Y-81628542D01*
X110118060Y-81628542D02*
X110189489Y-81485685D01*
X110189489Y-81485685D02*
X110260917Y-81199971D01*
X110260917Y-81199971D02*
X110260917Y-80985685D01*
X110260917Y-80985685D02*
X110189489Y-80699971D01*
X110189489Y-80699971D02*
X110118060Y-80557114D01*
X110118060Y-80557114D02*
X109975203Y-80414257D01*
X109975203Y-80414257D02*
X109760917Y-80342828D01*
X109760917Y-80342828D02*
X109618060Y-80342828D01*
X109618060Y-80342828D02*
X109403774Y-80414257D01*
X109403774Y-80414257D02*
X109332346Y-80485685D01*
X108046632Y-80342828D02*
X108332346Y-80342828D01*
X108332346Y-80342828D02*
X108475203Y-80414257D01*
X108475203Y-80414257D02*
X108546632Y-80485685D01*
X108546632Y-80485685D02*
X108689489Y-80699971D01*
X108689489Y-80699971D02*
X108760917Y-80985685D01*
X108760917Y-80985685D02*
X108760917Y-81557114D01*
X108760917Y-81557114D02*
X108689489Y-81699971D01*
X108689489Y-81699971D02*
X108618060Y-81771400D01*
X108618060Y-81771400D02*
X108475203Y-81842828D01*
X108475203Y-81842828D02*
X108189489Y-81842828D01*
X108189489Y-81842828D02*
X108046632Y-81771400D01*
X108046632Y-81771400D02*
X107975203Y-81699971D01*
X107975203Y-81699971D02*
X107903774Y-81557114D01*
X107903774Y-81557114D02*
X107903774Y-81199971D01*
X107903774Y-81199971D02*
X107975203Y-81057114D01*
X107975203Y-81057114D02*
X108046632Y-80985685D01*
X108046632Y-80985685D02*
X108189489Y-80914257D01*
X108189489Y-80914257D02*
X108475203Y-80914257D01*
X108475203Y-80914257D02*
X108618060Y-80985685D01*
X108618060Y-80985685D02*
X108689489Y-81057114D01*
X108689489Y-81057114D02*
X108760917Y-81199971D01*
X114261489Y-88677114D02*
X114047203Y-88748542D01*
X114047203Y-88748542D02*
X113975774Y-88819971D01*
X113975774Y-88819971D02*
X113904346Y-88962828D01*
X113904346Y-88962828D02*
X113904346Y-89177114D01*
X113904346Y-89177114D02*
X113975774Y-89319971D01*
X113975774Y-89319971D02*
X114047203Y-89391400D01*
X114047203Y-89391400D02*
X114190060Y-89462828D01*
X114190060Y-89462828D02*
X114761489Y-89462828D01*
X114761489Y-89462828D02*
X114761489Y-87962828D01*
X114761489Y-87962828D02*
X114261489Y-87962828D01*
X114261489Y-87962828D02*
X114118632Y-88034257D01*
X114118632Y-88034257D02*
X114047203Y-88105685D01*
X114047203Y-88105685D02*
X113975774Y-88248542D01*
X113975774Y-88248542D02*
X113975774Y-88391400D01*
X113975774Y-88391400D02*
X114047203Y-88534257D01*
X114047203Y-88534257D02*
X114118632Y-88605685D01*
X114118632Y-88605685D02*
X114261489Y-88677114D01*
X114261489Y-88677114D02*
X114761489Y-88677114D01*
X112475774Y-89462828D02*
X113332917Y-89462828D01*
X112904346Y-89462828D02*
X112904346Y-87962828D01*
X112904346Y-87962828D02*
X113047203Y-88177114D01*
X113047203Y-88177114D02*
X113190060Y-88319971D01*
X113190060Y-88319971D02*
X113332917Y-88391400D01*
X111190061Y-88462828D02*
X111190061Y-89462828D01*
X111547203Y-87891400D02*
X111904346Y-88962828D01*
X111904346Y-88962828D02*
X110975775Y-88962828D01*
X105363489Y-74222828D02*
X105363489Y-72722828D01*
X105363489Y-72722828D02*
X105006346Y-72722828D01*
X105006346Y-72722828D02*
X104792060Y-72794257D01*
X104792060Y-72794257D02*
X104649203Y-72937114D01*
X104649203Y-72937114D02*
X104577774Y-73079971D01*
X104577774Y-73079971D02*
X104506346Y-73365685D01*
X104506346Y-73365685D02*
X104506346Y-73579971D01*
X104506346Y-73579971D02*
X104577774Y-73865685D01*
X104577774Y-73865685D02*
X104649203Y-74008542D01*
X104649203Y-74008542D02*
X104792060Y-74151400D01*
X104792060Y-74151400D02*
X105006346Y-74222828D01*
X105006346Y-74222828D02*
X105363489Y-74222828D01*
X103149203Y-72722828D02*
X103863489Y-72722828D01*
X103863489Y-72722828D02*
X103934917Y-73437114D01*
X103934917Y-73437114D02*
X103863489Y-73365685D01*
X103863489Y-73365685D02*
X103720632Y-73294257D01*
X103720632Y-73294257D02*
X103363489Y-73294257D01*
X103363489Y-73294257D02*
X103220632Y-73365685D01*
X103220632Y-73365685D02*
X103149203Y-73437114D01*
X103149203Y-73437114D02*
X103077774Y-73579971D01*
X103077774Y-73579971D02*
X103077774Y-73937114D01*
X103077774Y-73937114D02*
X103149203Y-74079971D01*
X103149203Y-74079971D02*
X103220632Y-74151400D01*
X103220632Y-74151400D02*
X103363489Y-74222828D01*
X103363489Y-74222828D02*
X103720632Y-74222828D01*
X103720632Y-74222828D02*
X103863489Y-74151400D01*
X103863489Y-74151400D02*
X103934917Y-74079971D01*
X114832917Y-83954257D02*
X114118632Y-83954257D01*
X114975774Y-84382828D02*
X114475774Y-82882828D01*
X114475774Y-82882828D02*
X113975774Y-84382828D01*
X112690060Y-84382828D02*
X113547203Y-84382828D01*
X113118632Y-84382828D02*
X113118632Y-82882828D01*
X113118632Y-82882828D02*
X113261489Y-83097114D01*
X113261489Y-83097114D02*
X113404346Y-83239971D01*
X113404346Y-83239971D02*
X113547203Y-83311400D01*
X111261489Y-84382828D02*
X112118632Y-84382828D01*
X111690061Y-84382828D02*
X111690061Y-82882828D01*
X111690061Y-82882828D02*
X111832918Y-83097114D01*
X111832918Y-83097114D02*
X111975775Y-83239971D01*
X111975775Y-83239971D02*
X112118632Y-83311400D01*
X113975774Y-95654257D02*
X114118632Y-95582828D01*
X114118632Y-95582828D02*
X114332917Y-95582828D01*
X114332917Y-95582828D02*
X114547203Y-95654257D01*
X114547203Y-95654257D02*
X114690060Y-95797114D01*
X114690060Y-95797114D02*
X114761489Y-95939971D01*
X114761489Y-95939971D02*
X114832917Y-96225685D01*
X114832917Y-96225685D02*
X114832917Y-96439971D01*
X114832917Y-96439971D02*
X114761489Y-96725685D01*
X114761489Y-96725685D02*
X114690060Y-96868542D01*
X114690060Y-96868542D02*
X114547203Y-97011400D01*
X114547203Y-97011400D02*
X114332917Y-97082828D01*
X114332917Y-97082828D02*
X114190060Y-97082828D01*
X114190060Y-97082828D02*
X113975774Y-97011400D01*
X113975774Y-97011400D02*
X113904346Y-96939971D01*
X113904346Y-96939971D02*
X113904346Y-96439971D01*
X113904346Y-96439971D02*
X114190060Y-96439971D01*
X112475774Y-97082828D02*
X113332917Y-97082828D01*
X112904346Y-97082828D02*
X112904346Y-95582828D01*
X112904346Y-95582828D02*
X113047203Y-95797114D01*
X113047203Y-95797114D02*
X113190060Y-95939971D01*
X113190060Y-95939971D02*
X113332917Y-96011400D01*
X111190061Y-96082828D02*
X111190061Y-97082828D01*
X111547203Y-95511400D02*
X111904346Y-96582828D01*
X111904346Y-96582828D02*
X110975775Y-96582828D01*
X104831774Y-95654257D02*
X104974632Y-95582828D01*
X104974632Y-95582828D02*
X105188917Y-95582828D01*
X105188917Y-95582828D02*
X105403203Y-95654257D01*
X105403203Y-95654257D02*
X105546060Y-95797114D01*
X105546060Y-95797114D02*
X105617489Y-95939971D01*
X105617489Y-95939971D02*
X105688917Y-96225685D01*
X105688917Y-96225685D02*
X105688917Y-96439971D01*
X105688917Y-96439971D02*
X105617489Y-96725685D01*
X105617489Y-96725685D02*
X105546060Y-96868542D01*
X105546060Y-96868542D02*
X105403203Y-97011400D01*
X105403203Y-97011400D02*
X105188917Y-97082828D01*
X105188917Y-97082828D02*
X105046060Y-97082828D01*
X105046060Y-97082828D02*
X104831774Y-97011400D01*
X104831774Y-97011400D02*
X104760346Y-96939971D01*
X104760346Y-96939971D02*
X104760346Y-96439971D01*
X104760346Y-96439971D02*
X105046060Y-96439971D01*
X103331774Y-97082828D02*
X104188917Y-97082828D01*
X103760346Y-97082828D02*
X103760346Y-95582828D01*
X103760346Y-95582828D02*
X103903203Y-95797114D01*
X103903203Y-95797114D02*
X104046060Y-95939971D01*
X104046060Y-95939971D02*
X104188917Y-96011400D01*
X102760346Y-95725685D02*
X102688918Y-95654257D01*
X102688918Y-95654257D02*
X102546061Y-95582828D01*
X102546061Y-95582828D02*
X102188918Y-95582828D01*
X102188918Y-95582828D02*
X102046061Y-95654257D01*
X102046061Y-95654257D02*
X101974632Y-95725685D01*
X101974632Y-95725685D02*
X101903203Y-95868542D01*
X101903203Y-95868542D02*
X101903203Y-96011400D01*
X101903203Y-96011400D02*
X101974632Y-96225685D01*
X101974632Y-96225685D02*
X102831775Y-97082828D01*
X102831775Y-97082828D02*
X101903203Y-97082828D01*
X105617489Y-99622828D02*
X105617489Y-98122828D01*
X105617489Y-98837114D02*
X104760346Y-98837114D01*
X104760346Y-99622828D02*
X104760346Y-98122828D01*
X103260345Y-99622828D02*
X104117488Y-99622828D01*
X103688917Y-99622828D02*
X103688917Y-98122828D01*
X103688917Y-98122828D02*
X103831774Y-98337114D01*
X103831774Y-98337114D02*
X103974631Y-98479971D01*
X103974631Y-98479971D02*
X104117488Y-98551400D01*
X101831774Y-99622828D02*
X102688917Y-99622828D01*
X102260346Y-99622828D02*
X102260346Y-98122828D01*
X102260346Y-98122828D02*
X102403203Y-98337114D01*
X102403203Y-98337114D02*
X102546060Y-98479971D01*
X102546060Y-98479971D02*
X102688917Y-98551400D01*
X110189489Y-93757114D02*
X109689489Y-93757114D01*
X109475203Y-94542828D02*
X110189489Y-94542828D01*
X110189489Y-94542828D02*
X110189489Y-93042828D01*
X110189489Y-93042828D02*
X109475203Y-93042828D01*
X108046631Y-94542828D02*
X108903774Y-94542828D01*
X108475203Y-94542828D02*
X108475203Y-93042828D01*
X108475203Y-93042828D02*
X108618060Y-93257114D01*
X108618060Y-93257114D02*
X108760917Y-93399971D01*
X108760917Y-93399971D02*
X108903774Y-93471400D01*
X106618060Y-94542828D02*
X107475203Y-94542828D01*
X107046632Y-94542828D02*
X107046632Y-93042828D01*
X107046632Y-93042828D02*
X107189489Y-93257114D01*
X107189489Y-93257114D02*
X107332346Y-93399971D01*
X107332346Y-93399971D02*
X107475203Y-93471400D01*
X105617489Y-86922828D02*
X105617489Y-85422828D01*
X105617489Y-85422828D02*
X105260346Y-85422828D01*
X105260346Y-85422828D02*
X105046060Y-85494257D01*
X105046060Y-85494257D02*
X104903203Y-85637114D01*
X104903203Y-85637114D02*
X104831774Y-85779971D01*
X104831774Y-85779971D02*
X104760346Y-86065685D01*
X104760346Y-86065685D02*
X104760346Y-86279971D01*
X104760346Y-86279971D02*
X104831774Y-86565685D01*
X104831774Y-86565685D02*
X104903203Y-86708542D01*
X104903203Y-86708542D02*
X105046060Y-86851400D01*
X105046060Y-86851400D02*
X105260346Y-86922828D01*
X105260346Y-86922828D02*
X105617489Y-86922828D01*
X103331774Y-86922828D02*
X104188917Y-86922828D01*
X103760346Y-86922828D02*
X103760346Y-85422828D01*
X103760346Y-85422828D02*
X103903203Y-85637114D01*
X103903203Y-85637114D02*
X104046060Y-85779971D01*
X104046060Y-85779971D02*
X104188917Y-85851400D01*
X102403203Y-85422828D02*
X102260346Y-85422828D01*
X102260346Y-85422828D02*
X102117489Y-85494257D01*
X102117489Y-85494257D02*
X102046061Y-85565685D01*
X102046061Y-85565685D02*
X101974632Y-85708542D01*
X101974632Y-85708542D02*
X101903203Y-85994257D01*
X101903203Y-85994257D02*
X101903203Y-86351400D01*
X101903203Y-86351400D02*
X101974632Y-86637114D01*
X101974632Y-86637114D02*
X102046061Y-86779971D01*
X102046061Y-86779971D02*
X102117489Y-86851400D01*
X102117489Y-86851400D02*
X102260346Y-86922828D01*
X102260346Y-86922828D02*
X102403203Y-86922828D01*
X102403203Y-86922828D02*
X102546061Y-86851400D01*
X102546061Y-86851400D02*
X102617489Y-86779971D01*
X102617489Y-86779971D02*
X102688918Y-86637114D01*
X102688918Y-86637114D02*
X102760346Y-86351400D01*
X102760346Y-86351400D02*
X102760346Y-85994257D01*
X102760346Y-85994257D02*
X102688918Y-85708542D01*
X102688918Y-85708542D02*
X102617489Y-85565685D01*
X102617489Y-85565685D02*
X102546061Y-85494257D01*
X102546061Y-85494257D02*
X102403203Y-85422828D01*
X114761489Y-93757114D02*
X114261489Y-93757114D01*
X114047203Y-94542828D02*
X114761489Y-94542828D01*
X114761489Y-94542828D02*
X114761489Y-93042828D01*
X114761489Y-93042828D02*
X114047203Y-93042828D01*
X112618631Y-94542828D02*
X113475774Y-94542828D01*
X113047203Y-94542828D02*
X113047203Y-93042828D01*
X113047203Y-93042828D02*
X113190060Y-93257114D01*
X113190060Y-93257114D02*
X113332917Y-93399971D01*
X113332917Y-93399971D02*
X113475774Y-93471400D01*
X112047203Y-93185685D02*
X111975775Y-93114257D01*
X111975775Y-93114257D02*
X111832918Y-93042828D01*
X111832918Y-93042828D02*
X111475775Y-93042828D01*
X111475775Y-93042828D02*
X111332918Y-93114257D01*
X111332918Y-93114257D02*
X111261489Y-93185685D01*
X111261489Y-93185685D02*
X111190060Y-93328542D01*
X111190060Y-93328542D02*
X111190060Y-93471400D01*
X111190060Y-93471400D02*
X111261489Y-93685685D01*
X111261489Y-93685685D02*
X112118632Y-94542828D01*
X112118632Y-94542828D02*
X111190060Y-94542828D01*
X110189489Y-92002828D02*
X110189489Y-90502828D01*
X110189489Y-90502828D02*
X109832346Y-90502828D01*
X109832346Y-90502828D02*
X109618060Y-90574257D01*
X109618060Y-90574257D02*
X109475203Y-90717114D01*
X109475203Y-90717114D02*
X109403774Y-90859971D01*
X109403774Y-90859971D02*
X109332346Y-91145685D01*
X109332346Y-91145685D02*
X109332346Y-91359971D01*
X109332346Y-91359971D02*
X109403774Y-91645685D01*
X109403774Y-91645685D02*
X109475203Y-91788542D01*
X109475203Y-91788542D02*
X109618060Y-91931400D01*
X109618060Y-91931400D02*
X109832346Y-92002828D01*
X109832346Y-92002828D02*
X110189489Y-92002828D01*
X107903774Y-92002828D02*
X108760917Y-92002828D01*
X108332346Y-92002828D02*
X108332346Y-90502828D01*
X108332346Y-90502828D02*
X108475203Y-90717114D01*
X108475203Y-90717114D02*
X108618060Y-90859971D01*
X108618060Y-90859971D02*
X108760917Y-90931400D01*
X106475203Y-92002828D02*
X107332346Y-92002828D01*
X106903775Y-92002828D02*
X106903775Y-90502828D01*
X106903775Y-90502828D02*
X107046632Y-90717114D01*
X107046632Y-90717114D02*
X107189489Y-90859971D01*
X107189489Y-90859971D02*
X107332346Y-90931400D01*
X105117489Y-93757114D02*
X105617489Y-93757114D01*
X105617489Y-94542828D02*
X105617489Y-93042828D01*
X105617489Y-93042828D02*
X104903203Y-93042828D01*
X103546060Y-94542828D02*
X104403203Y-94542828D01*
X103974632Y-94542828D02*
X103974632Y-93042828D01*
X103974632Y-93042828D02*
X104117489Y-93257114D01*
X104117489Y-93257114D02*
X104260346Y-93399971D01*
X104260346Y-93399971D02*
X104403203Y-93471400D01*
X102117489Y-94542828D02*
X102974632Y-94542828D01*
X102546061Y-94542828D02*
X102546061Y-93042828D01*
X102546061Y-93042828D02*
X102688918Y-93257114D01*
X102688918Y-93257114D02*
X102831775Y-93399971D01*
X102831775Y-93399971D02*
X102974632Y-93471400D01*
X114832917Y-81414257D02*
X114118632Y-81414257D01*
X114975774Y-81842828D02*
X114475774Y-80342828D01*
X114475774Y-80342828D02*
X113975774Y-81842828D01*
X113618632Y-80342828D02*
X112618632Y-80342828D01*
X112618632Y-80342828D02*
X113261489Y-81842828D01*
X105363489Y-71682828D02*
X105363489Y-70182828D01*
X105363489Y-70182828D02*
X105006346Y-70182828D01*
X105006346Y-70182828D02*
X104792060Y-70254257D01*
X104792060Y-70254257D02*
X104649203Y-70397114D01*
X104649203Y-70397114D02*
X104577774Y-70539971D01*
X104577774Y-70539971D02*
X104506346Y-70825685D01*
X104506346Y-70825685D02*
X104506346Y-71039971D01*
X104506346Y-71039971D02*
X104577774Y-71325685D01*
X104577774Y-71325685D02*
X104649203Y-71468542D01*
X104649203Y-71468542D02*
X104792060Y-71611400D01*
X104792060Y-71611400D02*
X105006346Y-71682828D01*
X105006346Y-71682828D02*
X105363489Y-71682828D01*
X103220632Y-70682828D02*
X103220632Y-71682828D01*
X103577774Y-70111400D02*
X103934917Y-71182828D01*
X103934917Y-71182828D02*
X103006346Y-71182828D01*
X105617489Y-92002828D02*
X105617489Y-90502828D01*
X105617489Y-90502828D02*
X105260346Y-90502828D01*
X105260346Y-90502828D02*
X105046060Y-90574257D01*
X105046060Y-90574257D02*
X104903203Y-90717114D01*
X104903203Y-90717114D02*
X104831774Y-90859971D01*
X104831774Y-90859971D02*
X104760346Y-91145685D01*
X104760346Y-91145685D02*
X104760346Y-91359971D01*
X104760346Y-91359971D02*
X104831774Y-91645685D01*
X104831774Y-91645685D02*
X104903203Y-91788542D01*
X104903203Y-91788542D02*
X105046060Y-91931400D01*
X105046060Y-91931400D02*
X105260346Y-92002828D01*
X105260346Y-92002828D02*
X105617489Y-92002828D01*
X103331774Y-92002828D02*
X104188917Y-92002828D01*
X103760346Y-92002828D02*
X103760346Y-90502828D01*
X103760346Y-90502828D02*
X103903203Y-90717114D01*
X103903203Y-90717114D02*
X104046060Y-90859971D01*
X104046060Y-90859971D02*
X104188917Y-90931400D01*
X102760346Y-90645685D02*
X102688918Y-90574257D01*
X102688918Y-90574257D02*
X102546061Y-90502828D01*
X102546061Y-90502828D02*
X102188918Y-90502828D01*
X102188918Y-90502828D02*
X102046061Y-90574257D01*
X102046061Y-90574257D02*
X101974632Y-90645685D01*
X101974632Y-90645685D02*
X101903203Y-90788542D01*
X101903203Y-90788542D02*
X101903203Y-90931400D01*
X101903203Y-90931400D02*
X101974632Y-91145685D01*
X101974632Y-91145685D02*
X102831775Y-92002828D01*
X102831775Y-92002828D02*
X101903203Y-92002828D01*
X109332346Y-89319971D02*
X109403774Y-89391400D01*
X109403774Y-89391400D02*
X109618060Y-89462828D01*
X109618060Y-89462828D02*
X109760917Y-89462828D01*
X109760917Y-89462828D02*
X109975203Y-89391400D01*
X109975203Y-89391400D02*
X110118060Y-89248542D01*
X110118060Y-89248542D02*
X110189489Y-89105685D01*
X110189489Y-89105685D02*
X110260917Y-88819971D01*
X110260917Y-88819971D02*
X110260917Y-88605685D01*
X110260917Y-88605685D02*
X110189489Y-88319971D01*
X110189489Y-88319971D02*
X110118060Y-88177114D01*
X110118060Y-88177114D02*
X109975203Y-88034257D01*
X109975203Y-88034257D02*
X109760917Y-87962828D01*
X109760917Y-87962828D02*
X109618060Y-87962828D01*
X109618060Y-87962828D02*
X109403774Y-88034257D01*
X109403774Y-88034257D02*
X109332346Y-88105685D01*
X107903774Y-89462828D02*
X108760917Y-89462828D01*
X108332346Y-89462828D02*
X108332346Y-87962828D01*
X108332346Y-87962828D02*
X108475203Y-88177114D01*
X108475203Y-88177114D02*
X108618060Y-88319971D01*
X108618060Y-88319971D02*
X108760917Y-88391400D01*
X106475203Y-89462828D02*
X107332346Y-89462828D01*
X106903775Y-89462828D02*
X106903775Y-87962828D01*
X106903775Y-87962828D02*
X107046632Y-88177114D01*
X107046632Y-88177114D02*
X107189489Y-88319971D01*
X107189489Y-88319971D02*
X107332346Y-88391400D01*
X110189489Y-86922828D02*
X110189489Y-85422828D01*
X110189489Y-85422828D02*
X109832346Y-85422828D01*
X109832346Y-85422828D02*
X109618060Y-85494257D01*
X109618060Y-85494257D02*
X109475203Y-85637114D01*
X109475203Y-85637114D02*
X109403774Y-85779971D01*
X109403774Y-85779971D02*
X109332346Y-86065685D01*
X109332346Y-86065685D02*
X109332346Y-86279971D01*
X109332346Y-86279971D02*
X109403774Y-86565685D01*
X109403774Y-86565685D02*
X109475203Y-86708542D01*
X109475203Y-86708542D02*
X109618060Y-86851400D01*
X109618060Y-86851400D02*
X109832346Y-86922828D01*
X109832346Y-86922828D02*
X110189489Y-86922828D01*
X108618060Y-86922828D02*
X108332346Y-86922828D01*
X108332346Y-86922828D02*
X108189489Y-86851400D01*
X108189489Y-86851400D02*
X108118060Y-86779971D01*
X108118060Y-86779971D02*
X107975203Y-86565685D01*
X107975203Y-86565685D02*
X107903774Y-86279971D01*
X107903774Y-86279971D02*
X107903774Y-85708542D01*
X107903774Y-85708542D02*
X107975203Y-85565685D01*
X107975203Y-85565685D02*
X108046632Y-85494257D01*
X108046632Y-85494257D02*
X108189489Y-85422828D01*
X108189489Y-85422828D02*
X108475203Y-85422828D01*
X108475203Y-85422828D02*
X108618060Y-85494257D01*
X108618060Y-85494257D02*
X108689489Y-85565685D01*
X108689489Y-85565685D02*
X108760917Y-85708542D01*
X108760917Y-85708542D02*
X108760917Y-86065685D01*
X108760917Y-86065685D02*
X108689489Y-86208542D01*
X108689489Y-86208542D02*
X108618060Y-86279971D01*
X108618060Y-86279971D02*
X108475203Y-86351400D01*
X108475203Y-86351400D02*
X108189489Y-86351400D01*
X108189489Y-86351400D02*
X108046632Y-86279971D01*
X108046632Y-86279971D02*
X107975203Y-86208542D01*
X107975203Y-86208542D02*
X107903774Y-86065685D01*
X105363489Y-64062828D02*
X105363489Y-62562828D01*
X105363489Y-63277114D02*
X104506346Y-63277114D01*
X104506346Y-64062828D02*
X104506346Y-62562828D01*
X103006345Y-64062828D02*
X103863488Y-64062828D01*
X103434917Y-64062828D02*
X103434917Y-62562828D01*
X103434917Y-62562828D02*
X103577774Y-62777114D01*
X103577774Y-62777114D02*
X103720631Y-62919971D01*
X103720631Y-62919971D02*
X103863488Y-62991400D01*
X113904346Y-86779971D02*
X113975774Y-86851400D01*
X113975774Y-86851400D02*
X114190060Y-86922828D01*
X114190060Y-86922828D02*
X114332917Y-86922828D01*
X114332917Y-86922828D02*
X114547203Y-86851400D01*
X114547203Y-86851400D02*
X114690060Y-86708542D01*
X114690060Y-86708542D02*
X114761489Y-86565685D01*
X114761489Y-86565685D02*
X114832917Y-86279971D01*
X114832917Y-86279971D02*
X114832917Y-86065685D01*
X114832917Y-86065685D02*
X114761489Y-85779971D01*
X114761489Y-85779971D02*
X114690060Y-85637114D01*
X114690060Y-85637114D02*
X114547203Y-85494257D01*
X114547203Y-85494257D02*
X114332917Y-85422828D01*
X114332917Y-85422828D02*
X114190060Y-85422828D01*
X114190060Y-85422828D02*
X113975774Y-85494257D01*
X113975774Y-85494257D02*
X113904346Y-85565685D01*
X112475774Y-86922828D02*
X113332917Y-86922828D01*
X112904346Y-86922828D02*
X112904346Y-85422828D01*
X112904346Y-85422828D02*
X113047203Y-85637114D01*
X113047203Y-85637114D02*
X113190060Y-85779971D01*
X113190060Y-85779971D02*
X113332917Y-85851400D01*
X111547203Y-85422828D02*
X111404346Y-85422828D01*
X111404346Y-85422828D02*
X111261489Y-85494257D01*
X111261489Y-85494257D02*
X111190061Y-85565685D01*
X111190061Y-85565685D02*
X111118632Y-85708542D01*
X111118632Y-85708542D02*
X111047203Y-85994257D01*
X111047203Y-85994257D02*
X111047203Y-86351400D01*
X111047203Y-86351400D02*
X111118632Y-86637114D01*
X111118632Y-86637114D02*
X111190061Y-86779971D01*
X111190061Y-86779971D02*
X111261489Y-86851400D01*
X111261489Y-86851400D02*
X111404346Y-86922828D01*
X111404346Y-86922828D02*
X111547203Y-86922828D01*
X111547203Y-86922828D02*
X111690061Y-86851400D01*
X111690061Y-86851400D02*
X111761489Y-86779971D01*
X111761489Y-86779971D02*
X111832918Y-86637114D01*
X111832918Y-86637114D02*
X111904346Y-86351400D01*
X111904346Y-86351400D02*
X111904346Y-85994257D01*
X111904346Y-85994257D02*
X111832918Y-85708542D01*
X111832918Y-85708542D02*
X111761489Y-85565685D01*
X111761489Y-85565685D02*
X111690061Y-85494257D01*
X111690061Y-85494257D02*
X111547203Y-85422828D01*
X114761489Y-92002828D02*
X114761489Y-90502828D01*
X114761489Y-90502828D02*
X114404346Y-90502828D01*
X114404346Y-90502828D02*
X114190060Y-90574257D01*
X114190060Y-90574257D02*
X114047203Y-90717114D01*
X114047203Y-90717114D02*
X113975774Y-90859971D01*
X113975774Y-90859971D02*
X113904346Y-91145685D01*
X113904346Y-91145685D02*
X113904346Y-91359971D01*
X113904346Y-91359971D02*
X113975774Y-91645685D01*
X113975774Y-91645685D02*
X114047203Y-91788542D01*
X114047203Y-91788542D02*
X114190060Y-91931400D01*
X114190060Y-91931400D02*
X114404346Y-92002828D01*
X114404346Y-92002828D02*
X114761489Y-92002828D01*
X112475774Y-92002828D02*
X113332917Y-92002828D01*
X112904346Y-92002828D02*
X112904346Y-90502828D01*
X112904346Y-90502828D02*
X113047203Y-90717114D01*
X113047203Y-90717114D02*
X113190060Y-90859971D01*
X113190060Y-90859971D02*
X113332917Y-90931400D01*
X111190061Y-91002828D02*
X111190061Y-92002828D01*
X111547203Y-90431400D02*
X111904346Y-91502828D01*
X111904346Y-91502828D02*
X110975775Y-91502828D01*
X104760346Y-89319971D02*
X104831774Y-89391400D01*
X104831774Y-89391400D02*
X105046060Y-89462828D01*
X105046060Y-89462828D02*
X105188917Y-89462828D01*
X105188917Y-89462828D02*
X105403203Y-89391400D01*
X105403203Y-89391400D02*
X105546060Y-89248542D01*
X105546060Y-89248542D02*
X105617489Y-89105685D01*
X105617489Y-89105685D02*
X105688917Y-88819971D01*
X105688917Y-88819971D02*
X105688917Y-88605685D01*
X105688917Y-88605685D02*
X105617489Y-88319971D01*
X105617489Y-88319971D02*
X105546060Y-88177114D01*
X105546060Y-88177114D02*
X105403203Y-88034257D01*
X105403203Y-88034257D02*
X105188917Y-87962828D01*
X105188917Y-87962828D02*
X105046060Y-87962828D01*
X105046060Y-87962828D02*
X104831774Y-88034257D01*
X104831774Y-88034257D02*
X104760346Y-88105685D01*
X103331774Y-89462828D02*
X104188917Y-89462828D01*
X103760346Y-89462828D02*
X103760346Y-87962828D01*
X103760346Y-87962828D02*
X103903203Y-88177114D01*
X103903203Y-88177114D02*
X104046060Y-88319971D01*
X104046060Y-88319971D02*
X104188917Y-88391400D01*
X102760346Y-88105685D02*
X102688918Y-88034257D01*
X102688918Y-88034257D02*
X102546061Y-87962828D01*
X102546061Y-87962828D02*
X102188918Y-87962828D01*
X102188918Y-87962828D02*
X102046061Y-88034257D01*
X102046061Y-88034257D02*
X101974632Y-88105685D01*
X101974632Y-88105685D02*
X101903203Y-88248542D01*
X101903203Y-88248542D02*
X101903203Y-88391400D01*
X101903203Y-88391400D02*
X101974632Y-88605685D01*
X101974632Y-88605685D02*
X102831775Y-89462828D01*
X102831775Y-89462828D02*
X101903203Y-89462828D01*
X105434917Y-76334257D02*
X104720632Y-76334257D01*
X105577774Y-76762828D02*
X105077774Y-75262828D01*
X105077774Y-75262828D02*
X104577774Y-76762828D01*
X103363489Y-75262828D02*
X104077775Y-75262828D01*
X104077775Y-75262828D02*
X104149203Y-75977114D01*
X104149203Y-75977114D02*
X104077775Y-75905685D01*
X104077775Y-75905685D02*
X103934918Y-75834257D01*
X103934918Y-75834257D02*
X103577775Y-75834257D01*
X103577775Y-75834257D02*
X103434918Y-75905685D01*
X103434918Y-75905685D02*
X103363489Y-75977114D01*
X103363489Y-75977114D02*
X103292060Y-76119971D01*
X103292060Y-76119971D02*
X103292060Y-76477114D01*
X103292060Y-76477114D02*
X103363489Y-76619971D01*
X103363489Y-76619971D02*
X103434918Y-76691400D01*
X103434918Y-76691400D02*
X103577775Y-76762828D01*
X103577775Y-76762828D02*
X103934918Y-76762828D01*
X103934918Y-76762828D02*
X104077775Y-76691400D01*
X104077775Y-76691400D02*
X104149203Y-76619971D01*
X105617489Y-84382828D02*
X105617489Y-82882828D01*
X105617489Y-82882828D02*
X105260346Y-82882828D01*
X105260346Y-82882828D02*
X105046060Y-82954257D01*
X105046060Y-82954257D02*
X104903203Y-83097114D01*
X104903203Y-83097114D02*
X104831774Y-83239971D01*
X104831774Y-83239971D02*
X104760346Y-83525685D01*
X104760346Y-83525685D02*
X104760346Y-83739971D01*
X104760346Y-83739971D02*
X104831774Y-84025685D01*
X104831774Y-84025685D02*
X104903203Y-84168542D01*
X104903203Y-84168542D02*
X105046060Y-84311400D01*
X105046060Y-84311400D02*
X105260346Y-84382828D01*
X105260346Y-84382828D02*
X105617489Y-84382828D01*
X104260346Y-82882828D02*
X103260346Y-82882828D01*
X103260346Y-82882828D02*
X103903203Y-84382828D01*
X109689489Y-96297114D02*
X110189489Y-96297114D01*
X110189489Y-97082828D02*
X110189489Y-95582828D01*
X110189489Y-95582828D02*
X109475203Y-95582828D01*
X108118060Y-97082828D02*
X108975203Y-97082828D01*
X108546632Y-97082828D02*
X108546632Y-95582828D01*
X108546632Y-95582828D02*
X108689489Y-95797114D01*
X108689489Y-95797114D02*
X108832346Y-95939971D01*
X108832346Y-95939971D02*
X108975203Y-96011400D01*
X107546632Y-95725685D02*
X107475204Y-95654257D01*
X107475204Y-95654257D02*
X107332347Y-95582828D01*
X107332347Y-95582828D02*
X106975204Y-95582828D01*
X106975204Y-95582828D02*
X106832347Y-95654257D01*
X106832347Y-95654257D02*
X106760918Y-95725685D01*
X106760918Y-95725685D02*
X106689489Y-95868542D01*
X106689489Y-95868542D02*
X106689489Y-96011400D01*
X106689489Y-96011400D02*
X106760918Y-96225685D01*
X106760918Y-96225685D02*
X107618061Y-97082828D01*
X107618061Y-97082828D02*
X106689489Y-97082828D01*
X105363489Y-66602828D02*
X105363489Y-65102828D01*
X105363489Y-65817114D02*
X104506346Y-65817114D01*
X104506346Y-66602828D02*
X104506346Y-65102828D01*
X103149203Y-65602828D02*
X103149203Y-66602828D01*
X103506345Y-65031400D02*
X103863488Y-66102828D01*
X103863488Y-66102828D02*
X102934917Y-66102828D01*
X113904346Y-71539971D02*
X113975774Y-71611400D01*
X113975774Y-71611400D02*
X114190060Y-71682828D01*
X114190060Y-71682828D02*
X114332917Y-71682828D01*
X114332917Y-71682828D02*
X114547203Y-71611400D01*
X114547203Y-71611400D02*
X114690060Y-71468542D01*
X114690060Y-71468542D02*
X114761489Y-71325685D01*
X114761489Y-71325685D02*
X114832917Y-71039971D01*
X114832917Y-71039971D02*
X114832917Y-70825685D01*
X114832917Y-70825685D02*
X114761489Y-70539971D01*
X114761489Y-70539971D02*
X114690060Y-70397114D01*
X114690060Y-70397114D02*
X114547203Y-70254257D01*
X114547203Y-70254257D02*
X114332917Y-70182828D01*
X114332917Y-70182828D02*
X114190060Y-70182828D01*
X114190060Y-70182828D02*
X113975774Y-70254257D01*
X113975774Y-70254257D02*
X113904346Y-70325685D01*
X113404346Y-70182828D02*
X112475774Y-70182828D01*
X112475774Y-70182828D02*
X112975774Y-70754257D01*
X112975774Y-70754257D02*
X112761489Y-70754257D01*
X112761489Y-70754257D02*
X112618632Y-70825685D01*
X112618632Y-70825685D02*
X112547203Y-70897114D01*
X112547203Y-70897114D02*
X112475774Y-71039971D01*
X112475774Y-71039971D02*
X112475774Y-71397114D01*
X112475774Y-71397114D02*
X112547203Y-71539971D01*
X112547203Y-71539971D02*
X112618632Y-71611400D01*
X112618632Y-71611400D02*
X112761489Y-71682828D01*
X112761489Y-71682828D02*
X113190060Y-71682828D01*
X113190060Y-71682828D02*
X113332917Y-71611400D01*
X113332917Y-71611400D02*
X113404346Y-71539971D01*
X114832917Y-73794257D02*
X114118632Y-73794257D01*
X114975774Y-74222828D02*
X114475774Y-72722828D01*
X114475774Y-72722828D02*
X113975774Y-74222828D01*
X113547203Y-72865685D02*
X113475775Y-72794257D01*
X113475775Y-72794257D02*
X113332918Y-72722828D01*
X113332918Y-72722828D02*
X112975775Y-72722828D01*
X112975775Y-72722828D02*
X112832918Y-72794257D01*
X112832918Y-72794257D02*
X112761489Y-72865685D01*
X112761489Y-72865685D02*
X112690060Y-73008542D01*
X112690060Y-73008542D02*
X112690060Y-73151400D01*
X112690060Y-73151400D02*
X112761489Y-73365685D01*
X112761489Y-73365685D02*
X113618632Y-74222828D01*
X113618632Y-74222828D02*
X112690060Y-74222828D01*
X114261489Y-68357114D02*
X114047203Y-68428542D01*
X114047203Y-68428542D02*
X113975774Y-68499971D01*
X113975774Y-68499971D02*
X113904346Y-68642828D01*
X113904346Y-68642828D02*
X113904346Y-68857114D01*
X113904346Y-68857114D02*
X113975774Y-68999971D01*
X113975774Y-68999971D02*
X114047203Y-69071400D01*
X114047203Y-69071400D02*
X114190060Y-69142828D01*
X114190060Y-69142828D02*
X114761489Y-69142828D01*
X114761489Y-69142828D02*
X114761489Y-67642828D01*
X114761489Y-67642828D02*
X114261489Y-67642828D01*
X114261489Y-67642828D02*
X114118632Y-67714257D01*
X114118632Y-67714257D02*
X114047203Y-67785685D01*
X114047203Y-67785685D02*
X113975774Y-67928542D01*
X113975774Y-67928542D02*
X113975774Y-68071400D01*
X113975774Y-68071400D02*
X114047203Y-68214257D01*
X114047203Y-68214257D02*
X114118632Y-68285685D01*
X114118632Y-68285685D02*
X114261489Y-68357114D01*
X114261489Y-68357114D02*
X114761489Y-68357114D01*
X112475774Y-69142828D02*
X113332917Y-69142828D01*
X112904346Y-69142828D02*
X112904346Y-67642828D01*
X112904346Y-67642828D02*
X113047203Y-67857114D01*
X113047203Y-67857114D02*
X113190060Y-67999971D01*
X113190060Y-67999971D02*
X113332917Y-68071400D01*
X113975774Y-62634257D02*
X114118632Y-62562828D01*
X114118632Y-62562828D02*
X114332917Y-62562828D01*
X114332917Y-62562828D02*
X114547203Y-62634257D01*
X114547203Y-62634257D02*
X114690060Y-62777114D01*
X114690060Y-62777114D02*
X114761489Y-62919971D01*
X114761489Y-62919971D02*
X114832917Y-63205685D01*
X114832917Y-63205685D02*
X114832917Y-63419971D01*
X114832917Y-63419971D02*
X114761489Y-63705685D01*
X114761489Y-63705685D02*
X114690060Y-63848542D01*
X114690060Y-63848542D02*
X114547203Y-63991400D01*
X114547203Y-63991400D02*
X114332917Y-64062828D01*
X114332917Y-64062828D02*
X114190060Y-64062828D01*
X114190060Y-64062828D02*
X113975774Y-63991400D01*
X113975774Y-63991400D02*
X113904346Y-63919971D01*
X113904346Y-63919971D02*
X113904346Y-63419971D01*
X113904346Y-63419971D02*
X114190060Y-63419971D01*
X113404346Y-62562828D02*
X112475774Y-62562828D01*
X112475774Y-62562828D02*
X112975774Y-63134257D01*
X112975774Y-63134257D02*
X112761489Y-63134257D01*
X112761489Y-63134257D02*
X112618632Y-63205685D01*
X112618632Y-63205685D02*
X112547203Y-63277114D01*
X112547203Y-63277114D02*
X112475774Y-63419971D01*
X112475774Y-63419971D02*
X112475774Y-63777114D01*
X112475774Y-63777114D02*
X112547203Y-63919971D01*
X112547203Y-63919971D02*
X112618632Y-63991400D01*
X112618632Y-63991400D02*
X112761489Y-64062828D01*
X112761489Y-64062828D02*
X113190060Y-64062828D01*
X113190060Y-64062828D02*
X113332917Y-63991400D01*
X113332917Y-63991400D02*
X113404346Y-63919971D01*
X114332917Y-60022828D02*
X114332917Y-61094257D01*
X114332917Y-61094257D02*
X114404346Y-61308542D01*
X114404346Y-61308542D02*
X114547203Y-61451400D01*
X114547203Y-61451400D02*
X114761489Y-61522828D01*
X114761489Y-61522828D02*
X114904346Y-61522828D01*
X113761489Y-60022828D02*
X112832917Y-60022828D01*
X112832917Y-60022828D02*
X113332917Y-60594257D01*
X113332917Y-60594257D02*
X113118632Y-60594257D01*
X113118632Y-60594257D02*
X112975775Y-60665685D01*
X112975775Y-60665685D02*
X112904346Y-60737114D01*
X112904346Y-60737114D02*
X112832917Y-60879971D01*
X112832917Y-60879971D02*
X112832917Y-61237114D01*
X112832917Y-61237114D02*
X112904346Y-61379971D01*
X112904346Y-61379971D02*
X112975775Y-61451400D01*
X112975775Y-61451400D02*
X113118632Y-61522828D01*
X113118632Y-61522828D02*
X113547203Y-61522828D01*
X113547203Y-61522828D02*
X113690060Y-61451400D01*
X113690060Y-61451400D02*
X113761489Y-61379971D01*
X109149774Y-65174257D02*
X109292632Y-65102828D01*
X109292632Y-65102828D02*
X109506917Y-65102828D01*
X109506917Y-65102828D02*
X109721203Y-65174257D01*
X109721203Y-65174257D02*
X109864060Y-65317114D01*
X109864060Y-65317114D02*
X109935489Y-65459971D01*
X109935489Y-65459971D02*
X110006917Y-65745685D01*
X110006917Y-65745685D02*
X110006917Y-65959971D01*
X110006917Y-65959971D02*
X109935489Y-66245685D01*
X109935489Y-66245685D02*
X109864060Y-66388542D01*
X109864060Y-66388542D02*
X109721203Y-66531400D01*
X109721203Y-66531400D02*
X109506917Y-66602828D01*
X109506917Y-66602828D02*
X109364060Y-66602828D01*
X109364060Y-66602828D02*
X109149774Y-66531400D01*
X109149774Y-66531400D02*
X109078346Y-66459971D01*
X109078346Y-66459971D02*
X109078346Y-65959971D01*
X109078346Y-65959971D02*
X109364060Y-65959971D01*
X107792632Y-65602828D02*
X107792632Y-66602828D01*
X108149774Y-65031400D02*
X108506917Y-66102828D01*
X108506917Y-66102828D02*
X107578346Y-66102828D01*
X114832917Y-76334257D02*
X114118632Y-76334257D01*
X114975774Y-76762828D02*
X114475774Y-75262828D01*
X114475774Y-75262828D02*
X113975774Y-76762828D01*
X112832918Y-75762828D02*
X112832918Y-76762828D01*
X113190060Y-75191400D02*
X113547203Y-76262828D01*
X113547203Y-76262828D02*
X112618632Y-76262828D01*
X114761489Y-66602828D02*
X114761489Y-65102828D01*
X114761489Y-65102828D02*
X114404346Y-65102828D01*
X114404346Y-65102828D02*
X114190060Y-65174257D01*
X114190060Y-65174257D02*
X114047203Y-65317114D01*
X114047203Y-65317114D02*
X113975774Y-65459971D01*
X113975774Y-65459971D02*
X113904346Y-65745685D01*
X113904346Y-65745685D02*
X113904346Y-65959971D01*
X113904346Y-65959971D02*
X113975774Y-66245685D01*
X113975774Y-66245685D02*
X114047203Y-66388542D01*
X114047203Y-66388542D02*
X114190060Y-66531400D01*
X114190060Y-66531400D02*
X114404346Y-66602828D01*
X114404346Y-66602828D02*
X114761489Y-66602828D01*
X112475774Y-66602828D02*
X113332917Y-66602828D01*
X112904346Y-66602828D02*
X112904346Y-65102828D01*
X112904346Y-65102828D02*
X113047203Y-65317114D01*
X113047203Y-65317114D02*
X113190060Y-65459971D01*
X113190060Y-65459971D02*
X113332917Y-65531400D01*
X109935489Y-61522828D02*
X109935489Y-60022828D01*
X109078346Y-61522828D02*
X109721203Y-60665685D01*
X109078346Y-60022828D02*
X109935489Y-60879971D01*
X107792632Y-60522828D02*
X107792632Y-61522828D01*
X108149774Y-59951400D02*
X108506917Y-61022828D01*
X108506917Y-61022828D02*
X107578346Y-61022828D01*
X109935489Y-70897114D02*
X109435489Y-70897114D01*
X109221203Y-71682828D02*
X109935489Y-71682828D01*
X109935489Y-71682828D02*
X109935489Y-70182828D01*
X109935489Y-70182828D02*
X109221203Y-70182828D01*
X107935489Y-70682828D02*
X107935489Y-71682828D01*
X108292631Y-70111400D02*
X108649774Y-71182828D01*
X108649774Y-71182828D02*
X107721203Y-71182828D01*
X109078346Y-74079971D02*
X109149774Y-74151400D01*
X109149774Y-74151400D02*
X109364060Y-74222828D01*
X109364060Y-74222828D02*
X109506917Y-74222828D01*
X109506917Y-74222828D02*
X109721203Y-74151400D01*
X109721203Y-74151400D02*
X109864060Y-74008542D01*
X109864060Y-74008542D02*
X109935489Y-73865685D01*
X109935489Y-73865685D02*
X110006917Y-73579971D01*
X110006917Y-73579971D02*
X110006917Y-73365685D01*
X110006917Y-73365685D02*
X109935489Y-73079971D01*
X109935489Y-73079971D02*
X109864060Y-72937114D01*
X109864060Y-72937114D02*
X109721203Y-72794257D01*
X109721203Y-72794257D02*
X109506917Y-72722828D01*
X109506917Y-72722828D02*
X109364060Y-72722828D01*
X109364060Y-72722828D02*
X109149774Y-72794257D01*
X109149774Y-72794257D02*
X109078346Y-72865685D01*
X107792632Y-73222828D02*
X107792632Y-74222828D01*
X108149774Y-72651400D02*
X108506917Y-73722828D01*
X108506917Y-73722828D02*
X107578346Y-73722828D01*
X109435489Y-68357114D02*
X109935489Y-68357114D01*
X109935489Y-69142828D02*
X109935489Y-67642828D01*
X109935489Y-67642828D02*
X109221203Y-67642828D01*
X108792632Y-67642828D02*
X107864060Y-67642828D01*
X107864060Y-67642828D02*
X108364060Y-68214257D01*
X108364060Y-68214257D02*
X108149775Y-68214257D01*
X108149775Y-68214257D02*
X108006918Y-68285685D01*
X108006918Y-68285685D02*
X107935489Y-68357114D01*
X107935489Y-68357114D02*
X107864060Y-68499971D01*
X107864060Y-68499971D02*
X107864060Y-68857114D01*
X107864060Y-68857114D02*
X107935489Y-68999971D01*
X107935489Y-68999971D02*
X108006918Y-69071400D01*
X108006918Y-69071400D02*
X108149775Y-69142828D01*
X108149775Y-69142828D02*
X108578346Y-69142828D01*
X108578346Y-69142828D02*
X108721203Y-69071400D01*
X108721203Y-69071400D02*
X108792632Y-68999971D01*
X109935489Y-64062828D02*
X109935489Y-62562828D01*
X109935489Y-63277114D02*
X109078346Y-63277114D01*
X109078346Y-64062828D02*
X109078346Y-62562828D01*
X108506917Y-62562828D02*
X107578345Y-62562828D01*
X107578345Y-62562828D02*
X108078345Y-63134257D01*
X108078345Y-63134257D02*
X107864060Y-63134257D01*
X107864060Y-63134257D02*
X107721203Y-63205685D01*
X107721203Y-63205685D02*
X107649774Y-63277114D01*
X107649774Y-63277114D02*
X107578345Y-63419971D01*
X107578345Y-63419971D02*
X107578345Y-63777114D01*
X107578345Y-63777114D02*
X107649774Y-63919971D01*
X107649774Y-63919971D02*
X107721203Y-63991400D01*
X107721203Y-63991400D02*
X107864060Y-64062828D01*
X107864060Y-64062828D02*
X108292631Y-64062828D01*
X108292631Y-64062828D02*
X108435488Y-63991400D01*
X108435488Y-63991400D02*
X108506917Y-63919971D01*
X109078346Y-76619971D02*
X109149774Y-76691400D01*
X109149774Y-76691400D02*
X109364060Y-76762828D01*
X109364060Y-76762828D02*
X109506917Y-76762828D01*
X109506917Y-76762828D02*
X109721203Y-76691400D01*
X109721203Y-76691400D02*
X109864060Y-76548542D01*
X109864060Y-76548542D02*
X109935489Y-76405685D01*
X109935489Y-76405685D02*
X110006917Y-76119971D01*
X110006917Y-76119971D02*
X110006917Y-75905685D01*
X110006917Y-75905685D02*
X109935489Y-75619971D01*
X109935489Y-75619971D02*
X109864060Y-75477114D01*
X109864060Y-75477114D02*
X109721203Y-75334257D01*
X109721203Y-75334257D02*
X109506917Y-75262828D01*
X109506917Y-75262828D02*
X109364060Y-75262828D01*
X109364060Y-75262828D02*
X109149774Y-75334257D01*
X109149774Y-75334257D02*
X109078346Y-75405685D01*
X107721203Y-75262828D02*
X108435489Y-75262828D01*
X108435489Y-75262828D02*
X108506917Y-75977114D01*
X108506917Y-75977114D02*
X108435489Y-75905685D01*
X108435489Y-75905685D02*
X108292632Y-75834257D01*
X108292632Y-75834257D02*
X107935489Y-75834257D01*
X107935489Y-75834257D02*
X107792632Y-75905685D01*
X107792632Y-75905685D02*
X107721203Y-75977114D01*
X107721203Y-75977114D02*
X107649774Y-76119971D01*
X107649774Y-76119971D02*
X107649774Y-76477114D01*
X107649774Y-76477114D02*
X107721203Y-76619971D01*
X107721203Y-76619971D02*
X107792632Y-76691400D01*
X107792632Y-76691400D02*
X107935489Y-76762828D01*
X107935489Y-76762828D02*
X108292632Y-76762828D01*
X108292632Y-76762828D02*
X108435489Y-76691400D01*
X108435489Y-76691400D02*
X108506917Y-76619971D01*
D11*
%TO.C,J1*%
X133096000Y-53086000D02*
X120396000Y-53086000D01*
X120396000Y-53086000D02*
X120396000Y-101346000D01*
X120396000Y-101346000D02*
X133096000Y-101346000D01*
X133096000Y-101346000D02*
X133096000Y-53086000D01*
%TD*%
M02*
