%TF.GenerationSoftware,KiCad,Pcbnew,7.0.9*%
%TF.CreationDate,2024-12-09T19:17:55-07:00*%
%TF.ProjectId,Extender_Board,45787465-6e64-4657-925f-426f6172642e,rev?*%
%TF.SameCoordinates,Original*%
%TF.FileFunction,Legend,Top*%
%TF.FilePolarity,Positive*%
%FSLAX46Y46*%
G04 Gerber Fmt 4.6, Leading zero omitted, Abs format (unit mm)*
G04 Created by KiCad (PCBNEW 7.0.9) date 2024-12-09 19:17:55*
%MOMM*%
%LPD*%
G01*
G04 APERTURE LIST*
%ADD10C,0.300000*%
%ADD11C,0.100000*%
G04 APERTURE END LIST*
D10*
X115870510Y-99622828D02*
X115870510Y-98122828D01*
X115870510Y-98837114D02*
X116727653Y-98837114D01*
X116727653Y-99622828D02*
X116727653Y-98122828D01*
X118227654Y-99622828D02*
X117370511Y-99622828D01*
X117799082Y-99622828D02*
X117799082Y-98122828D01*
X117799082Y-98122828D02*
X117656225Y-98337114D01*
X117656225Y-98337114D02*
X117513368Y-98479971D01*
X117513368Y-98479971D02*
X117370511Y-98551400D01*
X119656225Y-99622828D02*
X118799082Y-99622828D01*
X119227653Y-99622828D02*
X119227653Y-98122828D01*
X119227653Y-98122828D02*
X119084796Y-98337114D01*
X119084796Y-98337114D02*
X118941939Y-98479971D01*
X118941939Y-98479971D02*
X118799082Y-98551400D01*
X116727653Y-89319971D02*
X116656225Y-89391400D01*
X116656225Y-89391400D02*
X116441939Y-89462828D01*
X116441939Y-89462828D02*
X116299082Y-89462828D01*
X116299082Y-89462828D02*
X116084796Y-89391400D01*
X116084796Y-89391400D02*
X115941939Y-89248542D01*
X115941939Y-89248542D02*
X115870510Y-89105685D01*
X115870510Y-89105685D02*
X115799082Y-88819971D01*
X115799082Y-88819971D02*
X115799082Y-88605685D01*
X115799082Y-88605685D02*
X115870510Y-88319971D01*
X115870510Y-88319971D02*
X115941939Y-88177114D01*
X115941939Y-88177114D02*
X116084796Y-88034257D01*
X116084796Y-88034257D02*
X116299082Y-87962828D01*
X116299082Y-87962828D02*
X116441939Y-87962828D01*
X116441939Y-87962828D02*
X116656225Y-88034257D01*
X116656225Y-88034257D02*
X116727653Y-88105685D01*
X118156225Y-89462828D02*
X117299082Y-89462828D01*
X117727653Y-89462828D02*
X117727653Y-87962828D01*
X117727653Y-87962828D02*
X117584796Y-88177114D01*
X117584796Y-88177114D02*
X117441939Y-88319971D01*
X117441939Y-88319971D02*
X117299082Y-88391400D01*
X118727653Y-88105685D02*
X118799081Y-88034257D01*
X118799081Y-88034257D02*
X118941939Y-87962828D01*
X118941939Y-87962828D02*
X119299081Y-87962828D01*
X119299081Y-87962828D02*
X119441939Y-88034257D01*
X119441939Y-88034257D02*
X119513367Y-88105685D01*
X119513367Y-88105685D02*
X119584796Y-88248542D01*
X119584796Y-88248542D02*
X119584796Y-88391400D01*
X119584796Y-88391400D02*
X119513367Y-88605685D01*
X119513367Y-88605685D02*
X118656224Y-89462828D01*
X118656224Y-89462828D02*
X119584796Y-89462828D01*
X115870510Y-84382828D02*
X115870510Y-82882828D01*
X115870510Y-82882828D02*
X116227653Y-82882828D01*
X116227653Y-82882828D02*
X116441939Y-82954257D01*
X116441939Y-82954257D02*
X116584796Y-83097114D01*
X116584796Y-83097114D02*
X116656225Y-83239971D01*
X116656225Y-83239971D02*
X116727653Y-83525685D01*
X116727653Y-83525685D02*
X116727653Y-83739971D01*
X116727653Y-83739971D02*
X116656225Y-84025685D01*
X116656225Y-84025685D02*
X116584796Y-84168542D01*
X116584796Y-84168542D02*
X116441939Y-84311400D01*
X116441939Y-84311400D02*
X116227653Y-84382828D01*
X116227653Y-84382828D02*
X115870510Y-84382828D01*
X117227653Y-82882828D02*
X118227653Y-82882828D01*
X118227653Y-82882828D02*
X117584796Y-84382828D01*
X116656225Y-95654257D02*
X116513368Y-95582828D01*
X116513368Y-95582828D02*
X116299082Y-95582828D01*
X116299082Y-95582828D02*
X116084796Y-95654257D01*
X116084796Y-95654257D02*
X115941939Y-95797114D01*
X115941939Y-95797114D02*
X115870510Y-95939971D01*
X115870510Y-95939971D02*
X115799082Y-96225685D01*
X115799082Y-96225685D02*
X115799082Y-96439971D01*
X115799082Y-96439971D02*
X115870510Y-96725685D01*
X115870510Y-96725685D02*
X115941939Y-96868542D01*
X115941939Y-96868542D02*
X116084796Y-97011400D01*
X116084796Y-97011400D02*
X116299082Y-97082828D01*
X116299082Y-97082828D02*
X116441939Y-97082828D01*
X116441939Y-97082828D02*
X116656225Y-97011400D01*
X116656225Y-97011400D02*
X116727653Y-96939971D01*
X116727653Y-96939971D02*
X116727653Y-96439971D01*
X116727653Y-96439971D02*
X116441939Y-96439971D01*
X118156225Y-97082828D02*
X117299082Y-97082828D01*
X117727653Y-97082828D02*
X117727653Y-95582828D01*
X117727653Y-95582828D02*
X117584796Y-95797114D01*
X117584796Y-95797114D02*
X117441939Y-95939971D01*
X117441939Y-95939971D02*
X117299082Y-96011400D01*
X118727653Y-95725685D02*
X118799081Y-95654257D01*
X118799081Y-95654257D02*
X118941939Y-95582828D01*
X118941939Y-95582828D02*
X119299081Y-95582828D01*
X119299081Y-95582828D02*
X119441939Y-95654257D01*
X119441939Y-95654257D02*
X119513367Y-95725685D01*
X119513367Y-95725685D02*
X119584796Y-95868542D01*
X119584796Y-95868542D02*
X119584796Y-96011400D01*
X119584796Y-96011400D02*
X119513367Y-96225685D01*
X119513367Y-96225685D02*
X118656224Y-97082828D01*
X118656224Y-97082828D02*
X119584796Y-97082828D01*
X116370510Y-93757114D02*
X115870510Y-93757114D01*
X115870510Y-94542828D02*
X115870510Y-93042828D01*
X115870510Y-93042828D02*
X116584796Y-93042828D01*
X117941939Y-94542828D02*
X117084796Y-94542828D01*
X117513367Y-94542828D02*
X117513367Y-93042828D01*
X117513367Y-93042828D02*
X117370510Y-93257114D01*
X117370510Y-93257114D02*
X117227653Y-93399971D01*
X117227653Y-93399971D02*
X117084796Y-93471400D01*
X119370510Y-94542828D02*
X118513367Y-94542828D01*
X118941938Y-94542828D02*
X118941938Y-93042828D01*
X118941938Y-93042828D02*
X118799081Y-93257114D01*
X118799081Y-93257114D02*
X118656224Y-93399971D01*
X118656224Y-93399971D02*
X118513367Y-93471400D01*
X116727653Y-81699971D02*
X116656225Y-81771400D01*
X116656225Y-81771400D02*
X116441939Y-81842828D01*
X116441939Y-81842828D02*
X116299082Y-81842828D01*
X116299082Y-81842828D02*
X116084796Y-81771400D01*
X116084796Y-81771400D02*
X115941939Y-81628542D01*
X115941939Y-81628542D02*
X115870510Y-81485685D01*
X115870510Y-81485685D02*
X115799082Y-81199971D01*
X115799082Y-81199971D02*
X115799082Y-80985685D01*
X115799082Y-80985685D02*
X115870510Y-80699971D01*
X115870510Y-80699971D02*
X115941939Y-80557114D01*
X115941939Y-80557114D02*
X116084796Y-80414257D01*
X116084796Y-80414257D02*
X116299082Y-80342828D01*
X116299082Y-80342828D02*
X116441939Y-80342828D01*
X116441939Y-80342828D02*
X116656225Y-80414257D01*
X116656225Y-80414257D02*
X116727653Y-80485685D01*
X117227653Y-80342828D02*
X118227653Y-80342828D01*
X118227653Y-80342828D02*
X117584796Y-81842828D01*
X115870510Y-86922828D02*
X115870510Y-85422828D01*
X115870510Y-85422828D02*
X116227653Y-85422828D01*
X116227653Y-85422828D02*
X116441939Y-85494257D01*
X116441939Y-85494257D02*
X116584796Y-85637114D01*
X116584796Y-85637114D02*
X116656225Y-85779971D01*
X116656225Y-85779971D02*
X116727653Y-86065685D01*
X116727653Y-86065685D02*
X116727653Y-86279971D01*
X116727653Y-86279971D02*
X116656225Y-86565685D01*
X116656225Y-86565685D02*
X116584796Y-86708542D01*
X116584796Y-86708542D02*
X116441939Y-86851400D01*
X116441939Y-86851400D02*
X116227653Y-86922828D01*
X116227653Y-86922828D02*
X115870510Y-86922828D01*
X118156225Y-86922828D02*
X117299082Y-86922828D01*
X117727653Y-86922828D02*
X117727653Y-85422828D01*
X117727653Y-85422828D02*
X117584796Y-85637114D01*
X117584796Y-85637114D02*
X117441939Y-85779971D01*
X117441939Y-85779971D02*
X117299082Y-85851400D01*
X119084796Y-85422828D02*
X119227653Y-85422828D01*
X119227653Y-85422828D02*
X119370510Y-85494257D01*
X119370510Y-85494257D02*
X119441939Y-85565685D01*
X119441939Y-85565685D02*
X119513367Y-85708542D01*
X119513367Y-85708542D02*
X119584796Y-85994257D01*
X119584796Y-85994257D02*
X119584796Y-86351400D01*
X119584796Y-86351400D02*
X119513367Y-86637114D01*
X119513367Y-86637114D02*
X119441939Y-86779971D01*
X119441939Y-86779971D02*
X119370510Y-86851400D01*
X119370510Y-86851400D02*
X119227653Y-86922828D01*
X119227653Y-86922828D02*
X119084796Y-86922828D01*
X119084796Y-86922828D02*
X118941939Y-86851400D01*
X118941939Y-86851400D02*
X118870510Y-86779971D01*
X118870510Y-86779971D02*
X118799081Y-86637114D01*
X118799081Y-86637114D02*
X118727653Y-86351400D01*
X118727653Y-86351400D02*
X118727653Y-85994257D01*
X118727653Y-85994257D02*
X118799081Y-85708542D01*
X118799081Y-85708542D02*
X118870510Y-85565685D01*
X118870510Y-85565685D02*
X118941939Y-85494257D01*
X118941939Y-85494257D02*
X119084796Y-85422828D01*
X115870510Y-92002828D02*
X115870510Y-90502828D01*
X115870510Y-90502828D02*
X116227653Y-90502828D01*
X116227653Y-90502828D02*
X116441939Y-90574257D01*
X116441939Y-90574257D02*
X116584796Y-90717114D01*
X116584796Y-90717114D02*
X116656225Y-90859971D01*
X116656225Y-90859971D02*
X116727653Y-91145685D01*
X116727653Y-91145685D02*
X116727653Y-91359971D01*
X116727653Y-91359971D02*
X116656225Y-91645685D01*
X116656225Y-91645685D02*
X116584796Y-91788542D01*
X116584796Y-91788542D02*
X116441939Y-91931400D01*
X116441939Y-91931400D02*
X116227653Y-92002828D01*
X116227653Y-92002828D02*
X115870510Y-92002828D01*
X118156225Y-92002828D02*
X117299082Y-92002828D01*
X117727653Y-92002828D02*
X117727653Y-90502828D01*
X117727653Y-90502828D02*
X117584796Y-90717114D01*
X117584796Y-90717114D02*
X117441939Y-90859971D01*
X117441939Y-90859971D02*
X117299082Y-90931400D01*
X118727653Y-90645685D02*
X118799081Y-90574257D01*
X118799081Y-90574257D02*
X118941939Y-90502828D01*
X118941939Y-90502828D02*
X119299081Y-90502828D01*
X119299081Y-90502828D02*
X119441939Y-90574257D01*
X119441939Y-90574257D02*
X119513367Y-90645685D01*
X119513367Y-90645685D02*
X119584796Y-90788542D01*
X119584796Y-90788542D02*
X119584796Y-90931400D01*
X119584796Y-90931400D02*
X119513367Y-91145685D01*
X119513367Y-91145685D02*
X118656224Y-92002828D01*
X118656224Y-92002828D02*
X119584796Y-92002828D01*
X112084225Y-98194257D02*
X111941368Y-98122828D01*
X111941368Y-98122828D02*
X111727082Y-98122828D01*
X111727082Y-98122828D02*
X111512796Y-98194257D01*
X111512796Y-98194257D02*
X111369939Y-98337114D01*
X111369939Y-98337114D02*
X111298510Y-98479971D01*
X111298510Y-98479971D02*
X111227082Y-98765685D01*
X111227082Y-98765685D02*
X111227082Y-98979971D01*
X111227082Y-98979971D02*
X111298510Y-99265685D01*
X111298510Y-99265685D02*
X111369939Y-99408542D01*
X111369939Y-99408542D02*
X111512796Y-99551400D01*
X111512796Y-99551400D02*
X111727082Y-99622828D01*
X111727082Y-99622828D02*
X111869939Y-99622828D01*
X111869939Y-99622828D02*
X112084225Y-99551400D01*
X112084225Y-99551400D02*
X112155653Y-99479971D01*
X112155653Y-99479971D02*
X112155653Y-98979971D01*
X112155653Y-98979971D02*
X111869939Y-98979971D01*
X113584225Y-99622828D02*
X112727082Y-99622828D01*
X113155653Y-99622828D02*
X113155653Y-98122828D01*
X113155653Y-98122828D02*
X113012796Y-98337114D01*
X113012796Y-98337114D02*
X112869939Y-98479971D01*
X112869939Y-98479971D02*
X112727082Y-98551400D01*
X115012796Y-99622828D02*
X114155653Y-99622828D01*
X114584224Y-99622828D02*
X114584224Y-98122828D01*
X114584224Y-98122828D02*
X114441367Y-98337114D01*
X114441367Y-98337114D02*
X114298510Y-98479971D01*
X114298510Y-98479971D02*
X114155653Y-98551400D01*
X112155653Y-89319971D02*
X112084225Y-89391400D01*
X112084225Y-89391400D02*
X111869939Y-89462828D01*
X111869939Y-89462828D02*
X111727082Y-89462828D01*
X111727082Y-89462828D02*
X111512796Y-89391400D01*
X111512796Y-89391400D02*
X111369939Y-89248542D01*
X111369939Y-89248542D02*
X111298510Y-89105685D01*
X111298510Y-89105685D02*
X111227082Y-88819971D01*
X111227082Y-88819971D02*
X111227082Y-88605685D01*
X111227082Y-88605685D02*
X111298510Y-88319971D01*
X111298510Y-88319971D02*
X111369939Y-88177114D01*
X111369939Y-88177114D02*
X111512796Y-88034257D01*
X111512796Y-88034257D02*
X111727082Y-87962828D01*
X111727082Y-87962828D02*
X111869939Y-87962828D01*
X111869939Y-87962828D02*
X112084225Y-88034257D01*
X112084225Y-88034257D02*
X112155653Y-88105685D01*
X113584225Y-89462828D02*
X112727082Y-89462828D01*
X113155653Y-89462828D02*
X113155653Y-87962828D01*
X113155653Y-87962828D02*
X113012796Y-88177114D01*
X113012796Y-88177114D02*
X112869939Y-88319971D01*
X112869939Y-88319971D02*
X112727082Y-88391400D01*
X115012796Y-89462828D02*
X114155653Y-89462828D01*
X114584224Y-89462828D02*
X114584224Y-87962828D01*
X114584224Y-87962828D02*
X114441367Y-88177114D01*
X114441367Y-88177114D02*
X114298510Y-88319971D01*
X114298510Y-88319971D02*
X114155653Y-88391400D01*
X111298510Y-84382828D02*
X111298510Y-82882828D01*
X111298510Y-82882828D02*
X111655653Y-82882828D01*
X111655653Y-82882828D02*
X111869939Y-82954257D01*
X111869939Y-82954257D02*
X112012796Y-83097114D01*
X112012796Y-83097114D02*
X112084225Y-83239971D01*
X112084225Y-83239971D02*
X112155653Y-83525685D01*
X112155653Y-83525685D02*
X112155653Y-83739971D01*
X112155653Y-83739971D02*
X112084225Y-84025685D01*
X112084225Y-84025685D02*
X112012796Y-84168542D01*
X112012796Y-84168542D02*
X111869939Y-84311400D01*
X111869939Y-84311400D02*
X111655653Y-84382828D01*
X111655653Y-84382828D02*
X111298510Y-84382828D01*
X113441368Y-82882828D02*
X113155653Y-82882828D01*
X113155653Y-82882828D02*
X113012796Y-82954257D01*
X113012796Y-82954257D02*
X112941368Y-83025685D01*
X112941368Y-83025685D02*
X112798510Y-83239971D01*
X112798510Y-83239971D02*
X112727082Y-83525685D01*
X112727082Y-83525685D02*
X112727082Y-84097114D01*
X112727082Y-84097114D02*
X112798510Y-84239971D01*
X112798510Y-84239971D02*
X112869939Y-84311400D01*
X112869939Y-84311400D02*
X113012796Y-84382828D01*
X113012796Y-84382828D02*
X113298510Y-84382828D01*
X113298510Y-84382828D02*
X113441368Y-84311400D01*
X113441368Y-84311400D02*
X113512796Y-84239971D01*
X113512796Y-84239971D02*
X113584225Y-84097114D01*
X113584225Y-84097114D02*
X113584225Y-83739971D01*
X113584225Y-83739971D02*
X113512796Y-83597114D01*
X113512796Y-83597114D02*
X113441368Y-83525685D01*
X113441368Y-83525685D02*
X113298510Y-83454257D01*
X113298510Y-83454257D02*
X113012796Y-83454257D01*
X113012796Y-83454257D02*
X112869939Y-83525685D01*
X112869939Y-83525685D02*
X112798510Y-83597114D01*
X112798510Y-83597114D02*
X112727082Y-83739971D01*
X111798510Y-96297114D02*
X111298510Y-96297114D01*
X111298510Y-97082828D02*
X111298510Y-95582828D01*
X111298510Y-95582828D02*
X112012796Y-95582828D01*
X113369939Y-97082828D02*
X112512796Y-97082828D01*
X112941367Y-97082828D02*
X112941367Y-95582828D01*
X112941367Y-95582828D02*
X112798510Y-95797114D01*
X112798510Y-95797114D02*
X112655653Y-95939971D01*
X112655653Y-95939971D02*
X112512796Y-96011400D01*
X113941367Y-95725685D02*
X114012795Y-95654257D01*
X114012795Y-95654257D02*
X114155653Y-95582828D01*
X114155653Y-95582828D02*
X114512795Y-95582828D01*
X114512795Y-95582828D02*
X114655653Y-95654257D01*
X114655653Y-95654257D02*
X114727081Y-95725685D01*
X114727081Y-95725685D02*
X114798510Y-95868542D01*
X114798510Y-95868542D02*
X114798510Y-96011400D01*
X114798510Y-96011400D02*
X114727081Y-96225685D01*
X114727081Y-96225685D02*
X113869938Y-97082828D01*
X113869938Y-97082828D02*
X114798510Y-97082828D01*
X111298510Y-93757114D02*
X111798510Y-93757114D01*
X112012796Y-94542828D02*
X111298510Y-94542828D01*
X111298510Y-94542828D02*
X111298510Y-93042828D01*
X111298510Y-93042828D02*
X112012796Y-93042828D01*
X113441368Y-94542828D02*
X112584225Y-94542828D01*
X113012796Y-94542828D02*
X113012796Y-93042828D01*
X113012796Y-93042828D02*
X112869939Y-93257114D01*
X112869939Y-93257114D02*
X112727082Y-93399971D01*
X112727082Y-93399971D02*
X112584225Y-93471400D01*
X114869939Y-94542828D02*
X114012796Y-94542828D01*
X114441367Y-94542828D02*
X114441367Y-93042828D01*
X114441367Y-93042828D02*
X114298510Y-93257114D01*
X114298510Y-93257114D02*
X114155653Y-93399971D01*
X114155653Y-93399971D02*
X114012796Y-93471400D01*
X112155653Y-81699971D02*
X112084225Y-81771400D01*
X112084225Y-81771400D02*
X111869939Y-81842828D01*
X111869939Y-81842828D02*
X111727082Y-81842828D01*
X111727082Y-81842828D02*
X111512796Y-81771400D01*
X111512796Y-81771400D02*
X111369939Y-81628542D01*
X111369939Y-81628542D02*
X111298510Y-81485685D01*
X111298510Y-81485685D02*
X111227082Y-81199971D01*
X111227082Y-81199971D02*
X111227082Y-80985685D01*
X111227082Y-80985685D02*
X111298510Y-80699971D01*
X111298510Y-80699971D02*
X111369939Y-80557114D01*
X111369939Y-80557114D02*
X111512796Y-80414257D01*
X111512796Y-80414257D02*
X111727082Y-80342828D01*
X111727082Y-80342828D02*
X111869939Y-80342828D01*
X111869939Y-80342828D02*
X112084225Y-80414257D01*
X112084225Y-80414257D02*
X112155653Y-80485685D01*
X113441368Y-80342828D02*
X113155653Y-80342828D01*
X113155653Y-80342828D02*
X113012796Y-80414257D01*
X113012796Y-80414257D02*
X112941368Y-80485685D01*
X112941368Y-80485685D02*
X112798510Y-80699971D01*
X112798510Y-80699971D02*
X112727082Y-80985685D01*
X112727082Y-80985685D02*
X112727082Y-81557114D01*
X112727082Y-81557114D02*
X112798510Y-81699971D01*
X112798510Y-81699971D02*
X112869939Y-81771400D01*
X112869939Y-81771400D02*
X113012796Y-81842828D01*
X113012796Y-81842828D02*
X113298510Y-81842828D01*
X113298510Y-81842828D02*
X113441368Y-81771400D01*
X113441368Y-81771400D02*
X113512796Y-81699971D01*
X113512796Y-81699971D02*
X113584225Y-81557114D01*
X113584225Y-81557114D02*
X113584225Y-81199971D01*
X113584225Y-81199971D02*
X113512796Y-81057114D01*
X113512796Y-81057114D02*
X113441368Y-80985685D01*
X113441368Y-80985685D02*
X113298510Y-80914257D01*
X113298510Y-80914257D02*
X113012796Y-80914257D01*
X113012796Y-80914257D02*
X112869939Y-80985685D01*
X112869939Y-80985685D02*
X112798510Y-81057114D01*
X112798510Y-81057114D02*
X112727082Y-81199971D01*
X111298510Y-86922828D02*
X111298510Y-85422828D01*
X111298510Y-85422828D02*
X111655653Y-85422828D01*
X111655653Y-85422828D02*
X111869939Y-85494257D01*
X111869939Y-85494257D02*
X112012796Y-85637114D01*
X112012796Y-85637114D02*
X112084225Y-85779971D01*
X112084225Y-85779971D02*
X112155653Y-86065685D01*
X112155653Y-86065685D02*
X112155653Y-86279971D01*
X112155653Y-86279971D02*
X112084225Y-86565685D01*
X112084225Y-86565685D02*
X112012796Y-86708542D01*
X112012796Y-86708542D02*
X111869939Y-86851400D01*
X111869939Y-86851400D02*
X111655653Y-86922828D01*
X111655653Y-86922828D02*
X111298510Y-86922828D01*
X112869939Y-86922828D02*
X113155653Y-86922828D01*
X113155653Y-86922828D02*
X113298510Y-86851400D01*
X113298510Y-86851400D02*
X113369939Y-86779971D01*
X113369939Y-86779971D02*
X113512796Y-86565685D01*
X113512796Y-86565685D02*
X113584225Y-86279971D01*
X113584225Y-86279971D02*
X113584225Y-85708542D01*
X113584225Y-85708542D02*
X113512796Y-85565685D01*
X113512796Y-85565685D02*
X113441368Y-85494257D01*
X113441368Y-85494257D02*
X113298510Y-85422828D01*
X113298510Y-85422828D02*
X113012796Y-85422828D01*
X113012796Y-85422828D02*
X112869939Y-85494257D01*
X112869939Y-85494257D02*
X112798510Y-85565685D01*
X112798510Y-85565685D02*
X112727082Y-85708542D01*
X112727082Y-85708542D02*
X112727082Y-86065685D01*
X112727082Y-86065685D02*
X112798510Y-86208542D01*
X112798510Y-86208542D02*
X112869939Y-86279971D01*
X112869939Y-86279971D02*
X113012796Y-86351400D01*
X113012796Y-86351400D02*
X113298510Y-86351400D01*
X113298510Y-86351400D02*
X113441368Y-86279971D01*
X113441368Y-86279971D02*
X113512796Y-86208542D01*
X113512796Y-86208542D02*
X113584225Y-86065685D01*
X111298510Y-92002828D02*
X111298510Y-90502828D01*
X111298510Y-90502828D02*
X111655653Y-90502828D01*
X111655653Y-90502828D02*
X111869939Y-90574257D01*
X111869939Y-90574257D02*
X112012796Y-90717114D01*
X112012796Y-90717114D02*
X112084225Y-90859971D01*
X112084225Y-90859971D02*
X112155653Y-91145685D01*
X112155653Y-91145685D02*
X112155653Y-91359971D01*
X112155653Y-91359971D02*
X112084225Y-91645685D01*
X112084225Y-91645685D02*
X112012796Y-91788542D01*
X112012796Y-91788542D02*
X111869939Y-91931400D01*
X111869939Y-91931400D02*
X111655653Y-92002828D01*
X111655653Y-92002828D02*
X111298510Y-92002828D01*
X113584225Y-92002828D02*
X112727082Y-92002828D01*
X113155653Y-92002828D02*
X113155653Y-90502828D01*
X113155653Y-90502828D02*
X113012796Y-90717114D01*
X113012796Y-90717114D02*
X112869939Y-90859971D01*
X112869939Y-90859971D02*
X112727082Y-90931400D01*
X115012796Y-92002828D02*
X114155653Y-92002828D01*
X114584224Y-92002828D02*
X114584224Y-90502828D01*
X114584224Y-90502828D02*
X114441367Y-90717114D01*
X114441367Y-90717114D02*
X114298510Y-90859971D01*
X114298510Y-90859971D02*
X114155653Y-90931400D01*
X106655082Y-81414257D02*
X107369368Y-81414257D01*
X106512225Y-81842828D02*
X107012225Y-80342828D01*
X107012225Y-80342828D02*
X107512225Y-81842828D01*
X107869367Y-80342828D02*
X108869367Y-80342828D01*
X108869367Y-80342828D02*
X108226510Y-81842828D01*
X106726510Y-93757114D02*
X107226510Y-93757114D01*
X107440796Y-94542828D02*
X106726510Y-94542828D01*
X106726510Y-94542828D02*
X106726510Y-93042828D01*
X106726510Y-93042828D02*
X107440796Y-93042828D01*
X108869368Y-94542828D02*
X108012225Y-94542828D01*
X108440796Y-94542828D02*
X108440796Y-93042828D01*
X108440796Y-93042828D02*
X108297939Y-93257114D01*
X108297939Y-93257114D02*
X108155082Y-93399971D01*
X108155082Y-93399971D02*
X108012225Y-93471400D01*
X109440796Y-93185685D02*
X109512224Y-93114257D01*
X109512224Y-93114257D02*
X109655082Y-93042828D01*
X109655082Y-93042828D02*
X110012224Y-93042828D01*
X110012224Y-93042828D02*
X110155082Y-93114257D01*
X110155082Y-93114257D02*
X110226510Y-93185685D01*
X110226510Y-93185685D02*
X110297939Y-93328542D01*
X110297939Y-93328542D02*
X110297939Y-93471400D01*
X110297939Y-93471400D02*
X110226510Y-93685685D01*
X110226510Y-93685685D02*
X109369367Y-94542828D01*
X109369367Y-94542828D02*
X110297939Y-94542828D01*
X107512225Y-95654257D02*
X107369368Y-95582828D01*
X107369368Y-95582828D02*
X107155082Y-95582828D01*
X107155082Y-95582828D02*
X106940796Y-95654257D01*
X106940796Y-95654257D02*
X106797939Y-95797114D01*
X106797939Y-95797114D02*
X106726510Y-95939971D01*
X106726510Y-95939971D02*
X106655082Y-96225685D01*
X106655082Y-96225685D02*
X106655082Y-96439971D01*
X106655082Y-96439971D02*
X106726510Y-96725685D01*
X106726510Y-96725685D02*
X106797939Y-96868542D01*
X106797939Y-96868542D02*
X106940796Y-97011400D01*
X106940796Y-97011400D02*
X107155082Y-97082828D01*
X107155082Y-97082828D02*
X107297939Y-97082828D01*
X107297939Y-97082828D02*
X107512225Y-97011400D01*
X107512225Y-97011400D02*
X107583653Y-96939971D01*
X107583653Y-96939971D02*
X107583653Y-96439971D01*
X107583653Y-96439971D02*
X107297939Y-96439971D01*
X109012225Y-97082828D02*
X108155082Y-97082828D01*
X108583653Y-97082828D02*
X108583653Y-95582828D01*
X108583653Y-95582828D02*
X108440796Y-95797114D01*
X108440796Y-95797114D02*
X108297939Y-95939971D01*
X108297939Y-95939971D02*
X108155082Y-96011400D01*
X110297939Y-96082828D02*
X110297939Y-97082828D01*
X109940796Y-95511400D02*
X109583653Y-96582828D01*
X109583653Y-96582828D02*
X110512224Y-96582828D01*
X106726510Y-92002828D02*
X106726510Y-90502828D01*
X106726510Y-90502828D02*
X107083653Y-90502828D01*
X107083653Y-90502828D02*
X107297939Y-90574257D01*
X107297939Y-90574257D02*
X107440796Y-90717114D01*
X107440796Y-90717114D02*
X107512225Y-90859971D01*
X107512225Y-90859971D02*
X107583653Y-91145685D01*
X107583653Y-91145685D02*
X107583653Y-91359971D01*
X107583653Y-91359971D02*
X107512225Y-91645685D01*
X107512225Y-91645685D02*
X107440796Y-91788542D01*
X107440796Y-91788542D02*
X107297939Y-91931400D01*
X107297939Y-91931400D02*
X107083653Y-92002828D01*
X107083653Y-92002828D02*
X106726510Y-92002828D01*
X109012225Y-92002828D02*
X108155082Y-92002828D01*
X108583653Y-92002828D02*
X108583653Y-90502828D01*
X108583653Y-90502828D02*
X108440796Y-90717114D01*
X108440796Y-90717114D02*
X108297939Y-90859971D01*
X108297939Y-90859971D02*
X108155082Y-90931400D01*
X110297939Y-91002828D02*
X110297939Y-92002828D01*
X109940796Y-90431400D02*
X109583653Y-91502828D01*
X109583653Y-91502828D02*
X110512224Y-91502828D01*
X107583653Y-86779971D02*
X107512225Y-86851400D01*
X107512225Y-86851400D02*
X107297939Y-86922828D01*
X107297939Y-86922828D02*
X107155082Y-86922828D01*
X107155082Y-86922828D02*
X106940796Y-86851400D01*
X106940796Y-86851400D02*
X106797939Y-86708542D01*
X106797939Y-86708542D02*
X106726510Y-86565685D01*
X106726510Y-86565685D02*
X106655082Y-86279971D01*
X106655082Y-86279971D02*
X106655082Y-86065685D01*
X106655082Y-86065685D02*
X106726510Y-85779971D01*
X106726510Y-85779971D02*
X106797939Y-85637114D01*
X106797939Y-85637114D02*
X106940796Y-85494257D01*
X106940796Y-85494257D02*
X107155082Y-85422828D01*
X107155082Y-85422828D02*
X107297939Y-85422828D01*
X107297939Y-85422828D02*
X107512225Y-85494257D01*
X107512225Y-85494257D02*
X107583653Y-85565685D01*
X109012225Y-86922828D02*
X108155082Y-86922828D01*
X108583653Y-86922828D02*
X108583653Y-85422828D01*
X108583653Y-85422828D02*
X108440796Y-85637114D01*
X108440796Y-85637114D02*
X108297939Y-85779971D01*
X108297939Y-85779971D02*
X108155082Y-85851400D01*
X109940796Y-85422828D02*
X110083653Y-85422828D01*
X110083653Y-85422828D02*
X110226510Y-85494257D01*
X110226510Y-85494257D02*
X110297939Y-85565685D01*
X110297939Y-85565685D02*
X110369367Y-85708542D01*
X110369367Y-85708542D02*
X110440796Y-85994257D01*
X110440796Y-85994257D02*
X110440796Y-86351400D01*
X110440796Y-86351400D02*
X110369367Y-86637114D01*
X110369367Y-86637114D02*
X110297939Y-86779971D01*
X110297939Y-86779971D02*
X110226510Y-86851400D01*
X110226510Y-86851400D02*
X110083653Y-86922828D01*
X110083653Y-86922828D02*
X109940796Y-86922828D01*
X109940796Y-86922828D02*
X109797939Y-86851400D01*
X109797939Y-86851400D02*
X109726510Y-86779971D01*
X109726510Y-86779971D02*
X109655081Y-86637114D01*
X109655081Y-86637114D02*
X109583653Y-86351400D01*
X109583653Y-86351400D02*
X109583653Y-85994257D01*
X109583653Y-85994257D02*
X109655081Y-85708542D01*
X109655081Y-85708542D02*
X109726510Y-85565685D01*
X109726510Y-85565685D02*
X109797939Y-85494257D01*
X109797939Y-85494257D02*
X109940796Y-85422828D01*
X106655082Y-83954257D02*
X107369368Y-83954257D01*
X106512225Y-84382828D02*
X107012225Y-82882828D01*
X107012225Y-82882828D02*
X107512225Y-84382828D01*
X108797939Y-84382828D02*
X107940796Y-84382828D01*
X108369367Y-84382828D02*
X108369367Y-82882828D01*
X108369367Y-82882828D02*
X108226510Y-83097114D01*
X108226510Y-83097114D02*
X108083653Y-83239971D01*
X108083653Y-83239971D02*
X107940796Y-83311400D01*
X110226510Y-84382828D02*
X109369367Y-84382828D01*
X109797938Y-84382828D02*
X109797938Y-82882828D01*
X109797938Y-82882828D02*
X109655081Y-83097114D01*
X109655081Y-83097114D02*
X109512224Y-83239971D01*
X109512224Y-83239971D02*
X109369367Y-83311400D01*
X107155082Y-98122828D02*
X107155082Y-99194257D01*
X107155082Y-99194257D02*
X107083653Y-99408542D01*
X107083653Y-99408542D02*
X106940796Y-99551400D01*
X106940796Y-99551400D02*
X106726510Y-99622828D01*
X106726510Y-99622828D02*
X106583653Y-99622828D01*
X108655082Y-99622828D02*
X107797939Y-99622828D01*
X108226510Y-99622828D02*
X108226510Y-98122828D01*
X108226510Y-98122828D02*
X108083653Y-98337114D01*
X108083653Y-98337114D02*
X107940796Y-98479971D01*
X107940796Y-98479971D02*
X107797939Y-98551400D01*
X109226510Y-98265685D02*
X109297938Y-98194257D01*
X109297938Y-98194257D02*
X109440796Y-98122828D01*
X109440796Y-98122828D02*
X109797938Y-98122828D01*
X109797938Y-98122828D02*
X109940796Y-98194257D01*
X109940796Y-98194257D02*
X110012224Y-98265685D01*
X110012224Y-98265685D02*
X110083653Y-98408542D01*
X110083653Y-98408542D02*
X110083653Y-98551400D01*
X110083653Y-98551400D02*
X110012224Y-98765685D01*
X110012224Y-98765685D02*
X109155081Y-99622828D01*
X109155081Y-99622828D02*
X110083653Y-99622828D01*
X107226510Y-88677114D02*
X107440796Y-88748542D01*
X107440796Y-88748542D02*
X107512225Y-88819971D01*
X107512225Y-88819971D02*
X107583653Y-88962828D01*
X107583653Y-88962828D02*
X107583653Y-89177114D01*
X107583653Y-89177114D02*
X107512225Y-89319971D01*
X107512225Y-89319971D02*
X107440796Y-89391400D01*
X107440796Y-89391400D02*
X107297939Y-89462828D01*
X107297939Y-89462828D02*
X106726510Y-89462828D01*
X106726510Y-89462828D02*
X106726510Y-87962828D01*
X106726510Y-87962828D02*
X107226510Y-87962828D01*
X107226510Y-87962828D02*
X107369368Y-88034257D01*
X107369368Y-88034257D02*
X107440796Y-88105685D01*
X107440796Y-88105685D02*
X107512225Y-88248542D01*
X107512225Y-88248542D02*
X107512225Y-88391400D01*
X107512225Y-88391400D02*
X107440796Y-88534257D01*
X107440796Y-88534257D02*
X107369368Y-88605685D01*
X107369368Y-88605685D02*
X107226510Y-88677114D01*
X107226510Y-88677114D02*
X106726510Y-88677114D01*
X109012225Y-89462828D02*
X108155082Y-89462828D01*
X108583653Y-89462828D02*
X108583653Y-87962828D01*
X108583653Y-87962828D02*
X108440796Y-88177114D01*
X108440796Y-88177114D02*
X108297939Y-88319971D01*
X108297939Y-88319971D02*
X108155082Y-88391400D01*
X110297939Y-88462828D02*
X110297939Y-89462828D01*
X109940796Y-87891400D02*
X109583653Y-88962828D01*
X109583653Y-88962828D02*
X110512224Y-88962828D01*
X116124510Y-71682828D02*
X116124510Y-70182828D01*
X116124510Y-70182828D02*
X116481653Y-70182828D01*
X116481653Y-70182828D02*
X116695939Y-70254257D01*
X116695939Y-70254257D02*
X116838796Y-70397114D01*
X116838796Y-70397114D02*
X116910225Y-70539971D01*
X116910225Y-70539971D02*
X116981653Y-70825685D01*
X116981653Y-70825685D02*
X116981653Y-71039971D01*
X116981653Y-71039971D02*
X116910225Y-71325685D01*
X116910225Y-71325685D02*
X116838796Y-71468542D01*
X116838796Y-71468542D02*
X116695939Y-71611400D01*
X116695939Y-71611400D02*
X116481653Y-71682828D01*
X116481653Y-71682828D02*
X116124510Y-71682828D01*
X118267368Y-70682828D02*
X118267368Y-71682828D01*
X117910225Y-70111400D02*
X117553082Y-71182828D01*
X117553082Y-71182828D02*
X118481653Y-71182828D01*
X116124510Y-74222828D02*
X116124510Y-72722828D01*
X116124510Y-72722828D02*
X116481653Y-72722828D01*
X116481653Y-72722828D02*
X116695939Y-72794257D01*
X116695939Y-72794257D02*
X116838796Y-72937114D01*
X116838796Y-72937114D02*
X116910225Y-73079971D01*
X116910225Y-73079971D02*
X116981653Y-73365685D01*
X116981653Y-73365685D02*
X116981653Y-73579971D01*
X116981653Y-73579971D02*
X116910225Y-73865685D01*
X116910225Y-73865685D02*
X116838796Y-74008542D01*
X116838796Y-74008542D02*
X116695939Y-74151400D01*
X116695939Y-74151400D02*
X116481653Y-74222828D01*
X116481653Y-74222828D02*
X116124510Y-74222828D01*
X118338796Y-72722828D02*
X117624510Y-72722828D01*
X117624510Y-72722828D02*
X117553082Y-73437114D01*
X117553082Y-73437114D02*
X117624510Y-73365685D01*
X117624510Y-73365685D02*
X117767368Y-73294257D01*
X117767368Y-73294257D02*
X118124510Y-73294257D01*
X118124510Y-73294257D02*
X118267368Y-73365685D01*
X118267368Y-73365685D02*
X118338796Y-73437114D01*
X118338796Y-73437114D02*
X118410225Y-73579971D01*
X118410225Y-73579971D02*
X118410225Y-73937114D01*
X118410225Y-73937114D02*
X118338796Y-74079971D01*
X118338796Y-74079971D02*
X118267368Y-74151400D01*
X118267368Y-74151400D02*
X118124510Y-74222828D01*
X118124510Y-74222828D02*
X117767368Y-74222828D01*
X117767368Y-74222828D02*
X117624510Y-74151400D01*
X117624510Y-74151400D02*
X117553082Y-74079971D01*
X116624510Y-68357114D02*
X116124510Y-68357114D01*
X116124510Y-69142828D02*
X116124510Y-67642828D01*
X116124510Y-67642828D02*
X116838796Y-67642828D01*
X118053082Y-68142828D02*
X118053082Y-69142828D01*
X117695939Y-67571400D02*
X117338796Y-68642828D01*
X117338796Y-68642828D02*
X118267367Y-68642828D01*
X116124510Y-64062828D02*
X116124510Y-62562828D01*
X116124510Y-63277114D02*
X116981653Y-63277114D01*
X116981653Y-64062828D02*
X116981653Y-62562828D01*
X118481654Y-64062828D02*
X117624511Y-64062828D01*
X118053082Y-64062828D02*
X118053082Y-62562828D01*
X118053082Y-62562828D02*
X117910225Y-62777114D01*
X117910225Y-62777114D02*
X117767368Y-62919971D01*
X117767368Y-62919971D02*
X117624511Y-62991400D01*
X116124510Y-61522828D02*
X116124510Y-60022828D01*
X116981653Y-61522828D02*
X116338796Y-60665685D01*
X116981653Y-60022828D02*
X116124510Y-60879971D01*
X117481653Y-60022828D02*
X118410225Y-60022828D01*
X118410225Y-60022828D02*
X117910225Y-60594257D01*
X117910225Y-60594257D02*
X118124510Y-60594257D01*
X118124510Y-60594257D02*
X118267368Y-60665685D01*
X118267368Y-60665685D02*
X118338796Y-60737114D01*
X118338796Y-60737114D02*
X118410225Y-60879971D01*
X118410225Y-60879971D02*
X118410225Y-61237114D01*
X118410225Y-61237114D02*
X118338796Y-61379971D01*
X118338796Y-61379971D02*
X118267368Y-61451400D01*
X118267368Y-61451400D02*
X118124510Y-61522828D01*
X118124510Y-61522828D02*
X117695939Y-61522828D01*
X117695939Y-61522828D02*
X117553082Y-61451400D01*
X117553082Y-61451400D02*
X117481653Y-61379971D01*
X116053082Y-76334257D02*
X116767368Y-76334257D01*
X115910225Y-76762828D02*
X116410225Y-75262828D01*
X116410225Y-75262828D02*
X116910225Y-76762828D01*
X118124510Y-75262828D02*
X117410224Y-75262828D01*
X117410224Y-75262828D02*
X117338796Y-75977114D01*
X117338796Y-75977114D02*
X117410224Y-75905685D01*
X117410224Y-75905685D02*
X117553082Y-75834257D01*
X117553082Y-75834257D02*
X117910224Y-75834257D01*
X117910224Y-75834257D02*
X118053082Y-75905685D01*
X118053082Y-75905685D02*
X118124510Y-75977114D01*
X118124510Y-75977114D02*
X118195939Y-76119971D01*
X118195939Y-76119971D02*
X118195939Y-76477114D01*
X118195939Y-76477114D02*
X118124510Y-76619971D01*
X118124510Y-76619971D02*
X118053082Y-76691400D01*
X118053082Y-76691400D02*
X117910224Y-76762828D01*
X117910224Y-76762828D02*
X117553082Y-76762828D01*
X117553082Y-76762828D02*
X117410224Y-76691400D01*
X117410224Y-76691400D02*
X117338796Y-76619971D01*
X116124510Y-66602828D02*
X116124510Y-65102828D01*
X116124510Y-65817114D02*
X116981653Y-65817114D01*
X116981653Y-66602828D02*
X116981653Y-65102828D01*
X118338797Y-65602828D02*
X118338797Y-66602828D01*
X117981654Y-65031400D02*
X117624511Y-66102828D01*
X117624511Y-66102828D02*
X118553082Y-66102828D01*
X111552510Y-70897114D02*
X112052510Y-70897114D01*
X112266796Y-71682828D02*
X111552510Y-71682828D01*
X111552510Y-71682828D02*
X111552510Y-70182828D01*
X111552510Y-70182828D02*
X112266796Y-70182828D01*
X113552511Y-70682828D02*
X113552511Y-71682828D01*
X113195368Y-70111400D02*
X112838225Y-71182828D01*
X112838225Y-71182828D02*
X113766796Y-71182828D01*
X112409653Y-74079971D02*
X112338225Y-74151400D01*
X112338225Y-74151400D02*
X112123939Y-74222828D01*
X112123939Y-74222828D02*
X111981082Y-74222828D01*
X111981082Y-74222828D02*
X111766796Y-74151400D01*
X111766796Y-74151400D02*
X111623939Y-74008542D01*
X111623939Y-74008542D02*
X111552510Y-73865685D01*
X111552510Y-73865685D02*
X111481082Y-73579971D01*
X111481082Y-73579971D02*
X111481082Y-73365685D01*
X111481082Y-73365685D02*
X111552510Y-73079971D01*
X111552510Y-73079971D02*
X111623939Y-72937114D01*
X111623939Y-72937114D02*
X111766796Y-72794257D01*
X111766796Y-72794257D02*
X111981082Y-72722828D01*
X111981082Y-72722828D02*
X112123939Y-72722828D01*
X112123939Y-72722828D02*
X112338225Y-72794257D01*
X112338225Y-72794257D02*
X112409653Y-72865685D01*
X113695368Y-73222828D02*
X113695368Y-74222828D01*
X113338225Y-72651400D02*
X112981082Y-73722828D01*
X112981082Y-73722828D02*
X113909653Y-73722828D01*
X112052510Y-68357114D02*
X111552510Y-68357114D01*
X111552510Y-69142828D02*
X111552510Y-67642828D01*
X111552510Y-67642828D02*
X112266796Y-67642828D01*
X112695367Y-67642828D02*
X113623939Y-67642828D01*
X113623939Y-67642828D02*
X113123939Y-68214257D01*
X113123939Y-68214257D02*
X113338224Y-68214257D01*
X113338224Y-68214257D02*
X113481082Y-68285685D01*
X113481082Y-68285685D02*
X113552510Y-68357114D01*
X113552510Y-68357114D02*
X113623939Y-68499971D01*
X113623939Y-68499971D02*
X113623939Y-68857114D01*
X113623939Y-68857114D02*
X113552510Y-68999971D01*
X113552510Y-68999971D02*
X113481082Y-69071400D01*
X113481082Y-69071400D02*
X113338224Y-69142828D01*
X113338224Y-69142828D02*
X112909653Y-69142828D01*
X112909653Y-69142828D02*
X112766796Y-69071400D01*
X112766796Y-69071400D02*
X112695367Y-68999971D01*
X111552510Y-64062828D02*
X111552510Y-62562828D01*
X111552510Y-63277114D02*
X112409653Y-63277114D01*
X112409653Y-64062828D02*
X112409653Y-62562828D01*
X112981082Y-62562828D02*
X113909654Y-62562828D01*
X113909654Y-62562828D02*
X113409654Y-63134257D01*
X113409654Y-63134257D02*
X113623939Y-63134257D01*
X113623939Y-63134257D02*
X113766797Y-63205685D01*
X113766797Y-63205685D02*
X113838225Y-63277114D01*
X113838225Y-63277114D02*
X113909654Y-63419971D01*
X113909654Y-63419971D02*
X113909654Y-63777114D01*
X113909654Y-63777114D02*
X113838225Y-63919971D01*
X113838225Y-63919971D02*
X113766797Y-63991400D01*
X113766797Y-63991400D02*
X113623939Y-64062828D01*
X113623939Y-64062828D02*
X113195368Y-64062828D01*
X113195368Y-64062828D02*
X113052511Y-63991400D01*
X113052511Y-63991400D02*
X112981082Y-63919971D01*
X111552510Y-61522828D02*
X111552510Y-60022828D01*
X112409653Y-61522828D02*
X111766796Y-60665685D01*
X112409653Y-60022828D02*
X111552510Y-60879971D01*
X113695368Y-60522828D02*
X113695368Y-61522828D01*
X113338225Y-59951400D02*
X112981082Y-61022828D01*
X112981082Y-61022828D02*
X113909653Y-61022828D01*
X112409653Y-76619971D02*
X112338225Y-76691400D01*
X112338225Y-76691400D02*
X112123939Y-76762828D01*
X112123939Y-76762828D02*
X111981082Y-76762828D01*
X111981082Y-76762828D02*
X111766796Y-76691400D01*
X111766796Y-76691400D02*
X111623939Y-76548542D01*
X111623939Y-76548542D02*
X111552510Y-76405685D01*
X111552510Y-76405685D02*
X111481082Y-76119971D01*
X111481082Y-76119971D02*
X111481082Y-75905685D01*
X111481082Y-75905685D02*
X111552510Y-75619971D01*
X111552510Y-75619971D02*
X111623939Y-75477114D01*
X111623939Y-75477114D02*
X111766796Y-75334257D01*
X111766796Y-75334257D02*
X111981082Y-75262828D01*
X111981082Y-75262828D02*
X112123939Y-75262828D01*
X112123939Y-75262828D02*
X112338225Y-75334257D01*
X112338225Y-75334257D02*
X112409653Y-75405685D01*
X113766796Y-75262828D02*
X113052510Y-75262828D01*
X113052510Y-75262828D02*
X112981082Y-75977114D01*
X112981082Y-75977114D02*
X113052510Y-75905685D01*
X113052510Y-75905685D02*
X113195368Y-75834257D01*
X113195368Y-75834257D02*
X113552510Y-75834257D01*
X113552510Y-75834257D02*
X113695368Y-75905685D01*
X113695368Y-75905685D02*
X113766796Y-75977114D01*
X113766796Y-75977114D02*
X113838225Y-76119971D01*
X113838225Y-76119971D02*
X113838225Y-76477114D01*
X113838225Y-76477114D02*
X113766796Y-76619971D01*
X113766796Y-76619971D02*
X113695368Y-76691400D01*
X113695368Y-76691400D02*
X113552510Y-76762828D01*
X113552510Y-76762828D02*
X113195368Y-76762828D01*
X113195368Y-76762828D02*
X113052510Y-76691400D01*
X113052510Y-76691400D02*
X112981082Y-76619971D01*
X112338225Y-65174257D02*
X112195368Y-65102828D01*
X112195368Y-65102828D02*
X111981082Y-65102828D01*
X111981082Y-65102828D02*
X111766796Y-65174257D01*
X111766796Y-65174257D02*
X111623939Y-65317114D01*
X111623939Y-65317114D02*
X111552510Y-65459971D01*
X111552510Y-65459971D02*
X111481082Y-65745685D01*
X111481082Y-65745685D02*
X111481082Y-65959971D01*
X111481082Y-65959971D02*
X111552510Y-66245685D01*
X111552510Y-66245685D02*
X111623939Y-66388542D01*
X111623939Y-66388542D02*
X111766796Y-66531400D01*
X111766796Y-66531400D02*
X111981082Y-66602828D01*
X111981082Y-66602828D02*
X112123939Y-66602828D01*
X112123939Y-66602828D02*
X112338225Y-66531400D01*
X112338225Y-66531400D02*
X112409653Y-66459971D01*
X112409653Y-66459971D02*
X112409653Y-65959971D01*
X112409653Y-65959971D02*
X112123939Y-65959971D01*
X113695368Y-65602828D02*
X113695368Y-66602828D01*
X113338225Y-65031400D02*
X112981082Y-66102828D01*
X112981082Y-66102828D02*
X113909653Y-66102828D01*
X106655082Y-76334257D02*
X107369368Y-76334257D01*
X106512225Y-76762828D02*
X107012225Y-75262828D01*
X107012225Y-75262828D02*
X107512225Y-76762828D01*
X108655082Y-75762828D02*
X108655082Y-76762828D01*
X108297939Y-75191400D02*
X107940796Y-76262828D01*
X107940796Y-76262828D02*
X108869367Y-76262828D01*
X106655082Y-73794257D02*
X107369368Y-73794257D01*
X106512225Y-74222828D02*
X107012225Y-72722828D01*
X107012225Y-72722828D02*
X107512225Y-74222828D01*
X107940796Y-72865685D02*
X108012224Y-72794257D01*
X108012224Y-72794257D02*
X108155082Y-72722828D01*
X108155082Y-72722828D02*
X108512224Y-72722828D01*
X108512224Y-72722828D02*
X108655082Y-72794257D01*
X108655082Y-72794257D02*
X108726510Y-72865685D01*
X108726510Y-72865685D02*
X108797939Y-73008542D01*
X108797939Y-73008542D02*
X108797939Y-73151400D01*
X108797939Y-73151400D02*
X108726510Y-73365685D01*
X108726510Y-73365685D02*
X107869367Y-74222828D01*
X107869367Y-74222828D02*
X108797939Y-74222828D01*
X107583653Y-71539971D02*
X107512225Y-71611400D01*
X107512225Y-71611400D02*
X107297939Y-71682828D01*
X107297939Y-71682828D02*
X107155082Y-71682828D01*
X107155082Y-71682828D02*
X106940796Y-71611400D01*
X106940796Y-71611400D02*
X106797939Y-71468542D01*
X106797939Y-71468542D02*
X106726510Y-71325685D01*
X106726510Y-71325685D02*
X106655082Y-71039971D01*
X106655082Y-71039971D02*
X106655082Y-70825685D01*
X106655082Y-70825685D02*
X106726510Y-70539971D01*
X106726510Y-70539971D02*
X106797939Y-70397114D01*
X106797939Y-70397114D02*
X106940796Y-70254257D01*
X106940796Y-70254257D02*
X107155082Y-70182828D01*
X107155082Y-70182828D02*
X107297939Y-70182828D01*
X107297939Y-70182828D02*
X107512225Y-70254257D01*
X107512225Y-70254257D02*
X107583653Y-70325685D01*
X108083653Y-70182828D02*
X109012225Y-70182828D01*
X109012225Y-70182828D02*
X108512225Y-70754257D01*
X108512225Y-70754257D02*
X108726510Y-70754257D01*
X108726510Y-70754257D02*
X108869368Y-70825685D01*
X108869368Y-70825685D02*
X108940796Y-70897114D01*
X108940796Y-70897114D02*
X109012225Y-71039971D01*
X109012225Y-71039971D02*
X109012225Y-71397114D01*
X109012225Y-71397114D02*
X108940796Y-71539971D01*
X108940796Y-71539971D02*
X108869368Y-71611400D01*
X108869368Y-71611400D02*
X108726510Y-71682828D01*
X108726510Y-71682828D02*
X108297939Y-71682828D01*
X108297939Y-71682828D02*
X108155082Y-71611400D01*
X108155082Y-71611400D02*
X108083653Y-71539971D01*
X107226510Y-68357114D02*
X107440796Y-68428542D01*
X107440796Y-68428542D02*
X107512225Y-68499971D01*
X107512225Y-68499971D02*
X107583653Y-68642828D01*
X107583653Y-68642828D02*
X107583653Y-68857114D01*
X107583653Y-68857114D02*
X107512225Y-68999971D01*
X107512225Y-68999971D02*
X107440796Y-69071400D01*
X107440796Y-69071400D02*
X107297939Y-69142828D01*
X107297939Y-69142828D02*
X106726510Y-69142828D01*
X106726510Y-69142828D02*
X106726510Y-67642828D01*
X106726510Y-67642828D02*
X107226510Y-67642828D01*
X107226510Y-67642828D02*
X107369368Y-67714257D01*
X107369368Y-67714257D02*
X107440796Y-67785685D01*
X107440796Y-67785685D02*
X107512225Y-67928542D01*
X107512225Y-67928542D02*
X107512225Y-68071400D01*
X107512225Y-68071400D02*
X107440796Y-68214257D01*
X107440796Y-68214257D02*
X107369368Y-68285685D01*
X107369368Y-68285685D02*
X107226510Y-68357114D01*
X107226510Y-68357114D02*
X106726510Y-68357114D01*
X109012225Y-69142828D02*
X108155082Y-69142828D01*
X108583653Y-69142828D02*
X108583653Y-67642828D01*
X108583653Y-67642828D02*
X108440796Y-67857114D01*
X108440796Y-67857114D02*
X108297939Y-67999971D01*
X108297939Y-67999971D02*
X108155082Y-68071400D01*
X106726510Y-66602828D02*
X106726510Y-65102828D01*
X106726510Y-65102828D02*
X107083653Y-65102828D01*
X107083653Y-65102828D02*
X107297939Y-65174257D01*
X107297939Y-65174257D02*
X107440796Y-65317114D01*
X107440796Y-65317114D02*
X107512225Y-65459971D01*
X107512225Y-65459971D02*
X107583653Y-65745685D01*
X107583653Y-65745685D02*
X107583653Y-65959971D01*
X107583653Y-65959971D02*
X107512225Y-66245685D01*
X107512225Y-66245685D02*
X107440796Y-66388542D01*
X107440796Y-66388542D02*
X107297939Y-66531400D01*
X107297939Y-66531400D02*
X107083653Y-66602828D01*
X107083653Y-66602828D02*
X106726510Y-66602828D01*
X109012225Y-66602828D02*
X108155082Y-66602828D01*
X108583653Y-66602828D02*
X108583653Y-65102828D01*
X108583653Y-65102828D02*
X108440796Y-65317114D01*
X108440796Y-65317114D02*
X108297939Y-65459971D01*
X108297939Y-65459971D02*
X108155082Y-65531400D01*
X107512225Y-62634257D02*
X107369368Y-62562828D01*
X107369368Y-62562828D02*
X107155082Y-62562828D01*
X107155082Y-62562828D02*
X106940796Y-62634257D01*
X106940796Y-62634257D02*
X106797939Y-62777114D01*
X106797939Y-62777114D02*
X106726510Y-62919971D01*
X106726510Y-62919971D02*
X106655082Y-63205685D01*
X106655082Y-63205685D02*
X106655082Y-63419971D01*
X106655082Y-63419971D02*
X106726510Y-63705685D01*
X106726510Y-63705685D02*
X106797939Y-63848542D01*
X106797939Y-63848542D02*
X106940796Y-63991400D01*
X106940796Y-63991400D02*
X107155082Y-64062828D01*
X107155082Y-64062828D02*
X107297939Y-64062828D01*
X107297939Y-64062828D02*
X107512225Y-63991400D01*
X107512225Y-63991400D02*
X107583653Y-63919971D01*
X107583653Y-63919971D02*
X107583653Y-63419971D01*
X107583653Y-63419971D02*
X107297939Y-63419971D01*
X108083653Y-62562828D02*
X109012225Y-62562828D01*
X109012225Y-62562828D02*
X108512225Y-63134257D01*
X108512225Y-63134257D02*
X108726510Y-63134257D01*
X108726510Y-63134257D02*
X108869368Y-63205685D01*
X108869368Y-63205685D02*
X108940796Y-63277114D01*
X108940796Y-63277114D02*
X109012225Y-63419971D01*
X109012225Y-63419971D02*
X109012225Y-63777114D01*
X109012225Y-63777114D02*
X108940796Y-63919971D01*
X108940796Y-63919971D02*
X108869368Y-63991400D01*
X108869368Y-63991400D02*
X108726510Y-64062828D01*
X108726510Y-64062828D02*
X108297939Y-64062828D01*
X108297939Y-64062828D02*
X108155082Y-63991400D01*
X108155082Y-63991400D02*
X108083653Y-63919971D01*
X107155082Y-60022828D02*
X107155082Y-61094257D01*
X107155082Y-61094257D02*
X107083653Y-61308542D01*
X107083653Y-61308542D02*
X106940796Y-61451400D01*
X106940796Y-61451400D02*
X106726510Y-61522828D01*
X106726510Y-61522828D02*
X106583653Y-61522828D01*
X107726510Y-60022828D02*
X108655082Y-60022828D01*
X108655082Y-60022828D02*
X108155082Y-60594257D01*
X108155082Y-60594257D02*
X108369367Y-60594257D01*
X108369367Y-60594257D02*
X108512225Y-60665685D01*
X108512225Y-60665685D02*
X108583653Y-60737114D01*
X108583653Y-60737114D02*
X108655082Y-60879971D01*
X108655082Y-60879971D02*
X108655082Y-61237114D01*
X108655082Y-61237114D02*
X108583653Y-61379971D01*
X108583653Y-61379971D02*
X108512225Y-61451400D01*
X108512225Y-61451400D02*
X108369367Y-61522828D01*
X108369367Y-61522828D02*
X107940796Y-61522828D01*
X107940796Y-61522828D02*
X107797939Y-61451400D01*
X107797939Y-61451400D02*
X107726510Y-61379971D01*
X101829082Y-73794257D02*
X102543368Y-73794257D01*
X101686225Y-74222828D02*
X102186225Y-72722828D01*
X102186225Y-72722828D02*
X102686225Y-74222828D01*
X103971939Y-74222828D02*
X103114796Y-74222828D01*
X103543367Y-74222828D02*
X103543367Y-72722828D01*
X103543367Y-72722828D02*
X103400510Y-72937114D01*
X103400510Y-72937114D02*
X103257653Y-73079971D01*
X103257653Y-73079971D02*
X103114796Y-73151400D01*
X101829082Y-81414257D02*
X102543368Y-81414257D01*
X101686225Y-81842828D02*
X102186225Y-80342828D01*
X102186225Y-80342828D02*
X102686225Y-81842828D01*
X103829082Y-80342828D02*
X103543367Y-80342828D01*
X103543367Y-80342828D02*
X103400510Y-80414257D01*
X103400510Y-80414257D02*
X103329082Y-80485685D01*
X103329082Y-80485685D02*
X103186224Y-80699971D01*
X103186224Y-80699971D02*
X103114796Y-80985685D01*
X103114796Y-80985685D02*
X103114796Y-81557114D01*
X103114796Y-81557114D02*
X103186224Y-81699971D01*
X103186224Y-81699971D02*
X103257653Y-81771400D01*
X103257653Y-81771400D02*
X103400510Y-81842828D01*
X103400510Y-81842828D02*
X103686224Y-81842828D01*
X103686224Y-81842828D02*
X103829082Y-81771400D01*
X103829082Y-81771400D02*
X103900510Y-81699971D01*
X103900510Y-81699971D02*
X103971939Y-81557114D01*
X103971939Y-81557114D02*
X103971939Y-81199971D01*
X103971939Y-81199971D02*
X103900510Y-81057114D01*
X103900510Y-81057114D02*
X103829082Y-80985685D01*
X103829082Y-80985685D02*
X103686224Y-80914257D01*
X103686224Y-80914257D02*
X103400510Y-80914257D01*
X103400510Y-80914257D02*
X103257653Y-80985685D01*
X103257653Y-80985685D02*
X103186224Y-81057114D01*
X103186224Y-81057114D02*
X103114796Y-81199971D01*
X115870510Y-58982828D02*
X115870510Y-57482828D01*
X115870510Y-57482828D02*
X116727653Y-58982828D01*
X116727653Y-58982828D02*
X116727653Y-57482828D01*
X118227654Y-58982828D02*
X117370511Y-58982828D01*
X117799082Y-58982828D02*
X117799082Y-57482828D01*
X117799082Y-57482828D02*
X117656225Y-57697114D01*
X117656225Y-57697114D02*
X117513368Y-57839971D01*
X117513368Y-57839971D02*
X117370511Y-57911400D01*
X101829082Y-89034257D02*
X102543368Y-89034257D01*
X101686225Y-89462828D02*
X102186225Y-87962828D01*
X102186225Y-87962828D02*
X102686225Y-89462828D01*
X103971939Y-89462828D02*
X103114796Y-89462828D01*
X103543367Y-89462828D02*
X103543367Y-87962828D01*
X103543367Y-87962828D02*
X103400510Y-88177114D01*
X103400510Y-88177114D02*
X103257653Y-88319971D01*
X103257653Y-88319971D02*
X103114796Y-88391400D01*
X104543367Y-88105685D02*
X104614795Y-88034257D01*
X104614795Y-88034257D02*
X104757653Y-87962828D01*
X104757653Y-87962828D02*
X105114795Y-87962828D01*
X105114795Y-87962828D02*
X105257653Y-88034257D01*
X105257653Y-88034257D02*
X105329081Y-88105685D01*
X105329081Y-88105685D02*
X105400510Y-88248542D01*
X105400510Y-88248542D02*
X105400510Y-88391400D01*
X105400510Y-88391400D02*
X105329081Y-88605685D01*
X105329081Y-88605685D02*
X104471938Y-89462828D01*
X104471938Y-89462828D02*
X105400510Y-89462828D01*
X101900510Y-99622828D02*
X101900510Y-98122828D01*
X101900510Y-98837114D02*
X102757653Y-98837114D01*
X102757653Y-99622828D02*
X102757653Y-98122828D01*
X104257654Y-99622828D02*
X103400511Y-99622828D01*
X103829082Y-99622828D02*
X103829082Y-98122828D01*
X103829082Y-98122828D02*
X103686225Y-98337114D01*
X103686225Y-98337114D02*
X103543368Y-98479971D01*
X103543368Y-98479971D02*
X103400511Y-98551400D01*
X104829082Y-98265685D02*
X104900510Y-98194257D01*
X104900510Y-98194257D02*
X105043368Y-98122828D01*
X105043368Y-98122828D02*
X105400510Y-98122828D01*
X105400510Y-98122828D02*
X105543368Y-98194257D01*
X105543368Y-98194257D02*
X105614796Y-98265685D01*
X105614796Y-98265685D02*
X105686225Y-98408542D01*
X105686225Y-98408542D02*
X105686225Y-98551400D01*
X105686225Y-98551400D02*
X105614796Y-98765685D01*
X105614796Y-98765685D02*
X104757653Y-99622828D01*
X104757653Y-99622828D02*
X105686225Y-99622828D01*
X112084225Y-55014257D02*
X111941368Y-54942828D01*
X111941368Y-54942828D02*
X111727082Y-54942828D01*
X111727082Y-54942828D02*
X111512796Y-55014257D01*
X111512796Y-55014257D02*
X111369939Y-55157114D01*
X111369939Y-55157114D02*
X111298510Y-55299971D01*
X111298510Y-55299971D02*
X111227082Y-55585685D01*
X111227082Y-55585685D02*
X111227082Y-55799971D01*
X111227082Y-55799971D02*
X111298510Y-56085685D01*
X111298510Y-56085685D02*
X111369939Y-56228542D01*
X111369939Y-56228542D02*
X111512796Y-56371400D01*
X111512796Y-56371400D02*
X111727082Y-56442828D01*
X111727082Y-56442828D02*
X111869939Y-56442828D01*
X111869939Y-56442828D02*
X112084225Y-56371400D01*
X112084225Y-56371400D02*
X112155653Y-56299971D01*
X112155653Y-56299971D02*
X112155653Y-55799971D01*
X112155653Y-55799971D02*
X111869939Y-55799971D01*
X116584796Y-77802828D02*
X115870510Y-77802828D01*
X115870510Y-77802828D02*
X115799082Y-78517114D01*
X115799082Y-78517114D02*
X115870510Y-78445685D01*
X115870510Y-78445685D02*
X116013368Y-78374257D01*
X116013368Y-78374257D02*
X116370510Y-78374257D01*
X116370510Y-78374257D02*
X116513368Y-78445685D01*
X116513368Y-78445685D02*
X116584796Y-78517114D01*
X116584796Y-78517114D02*
X116656225Y-78659971D01*
X116656225Y-78659971D02*
X116656225Y-79017114D01*
X116656225Y-79017114D02*
X116584796Y-79159971D01*
X116584796Y-79159971D02*
X116513368Y-79231400D01*
X116513368Y-79231400D02*
X116370510Y-79302828D01*
X116370510Y-79302828D02*
X116013368Y-79302828D01*
X116013368Y-79302828D02*
X115870510Y-79231400D01*
X115870510Y-79231400D02*
X115799082Y-79159971D01*
X117084796Y-77802828D02*
X117584796Y-79302828D01*
X117584796Y-79302828D02*
X118084796Y-77802828D01*
X101900510Y-65817114D02*
X102400510Y-65817114D01*
X102614796Y-66602828D02*
X101900510Y-66602828D01*
X101900510Y-66602828D02*
X101900510Y-65102828D01*
X101900510Y-65102828D02*
X102614796Y-65102828D01*
X104043368Y-66602828D02*
X103186225Y-66602828D01*
X103614796Y-66602828D02*
X103614796Y-65102828D01*
X103614796Y-65102828D02*
X103471939Y-65317114D01*
X103471939Y-65317114D02*
X103329082Y-65459971D01*
X103329082Y-65459971D02*
X103186225Y-65531400D01*
X106583653Y-54942828D02*
X107512225Y-54942828D01*
X107512225Y-54942828D02*
X107012225Y-55514257D01*
X107012225Y-55514257D02*
X107226510Y-55514257D01*
X107226510Y-55514257D02*
X107369368Y-55585685D01*
X107369368Y-55585685D02*
X107440796Y-55657114D01*
X107440796Y-55657114D02*
X107512225Y-55799971D01*
X107512225Y-55799971D02*
X107512225Y-56157114D01*
X107512225Y-56157114D02*
X107440796Y-56299971D01*
X107440796Y-56299971D02*
X107369368Y-56371400D01*
X107369368Y-56371400D02*
X107226510Y-56442828D01*
X107226510Y-56442828D02*
X106797939Y-56442828D01*
X106797939Y-56442828D02*
X106655082Y-56371400D01*
X106655082Y-56371400D02*
X106583653Y-56299971D01*
X107940796Y-54942828D02*
X108440796Y-56442828D01*
X108440796Y-56442828D02*
X108940796Y-54942828D01*
X102757653Y-86779971D02*
X102686225Y-86851400D01*
X102686225Y-86851400D02*
X102471939Y-86922828D01*
X102471939Y-86922828D02*
X102329082Y-86922828D01*
X102329082Y-86922828D02*
X102114796Y-86851400D01*
X102114796Y-86851400D02*
X101971939Y-86708542D01*
X101971939Y-86708542D02*
X101900510Y-86565685D01*
X101900510Y-86565685D02*
X101829082Y-86279971D01*
X101829082Y-86279971D02*
X101829082Y-86065685D01*
X101829082Y-86065685D02*
X101900510Y-85779971D01*
X101900510Y-85779971D02*
X101971939Y-85637114D01*
X101971939Y-85637114D02*
X102114796Y-85494257D01*
X102114796Y-85494257D02*
X102329082Y-85422828D01*
X102329082Y-85422828D02*
X102471939Y-85422828D01*
X102471939Y-85422828D02*
X102686225Y-85494257D01*
X102686225Y-85494257D02*
X102757653Y-85565685D01*
X103471939Y-86922828D02*
X103757653Y-86922828D01*
X103757653Y-86922828D02*
X103900510Y-86851400D01*
X103900510Y-86851400D02*
X103971939Y-86779971D01*
X103971939Y-86779971D02*
X104114796Y-86565685D01*
X104114796Y-86565685D02*
X104186225Y-86279971D01*
X104186225Y-86279971D02*
X104186225Y-85708542D01*
X104186225Y-85708542D02*
X104114796Y-85565685D01*
X104114796Y-85565685D02*
X104043368Y-85494257D01*
X104043368Y-85494257D02*
X103900510Y-85422828D01*
X103900510Y-85422828D02*
X103614796Y-85422828D01*
X103614796Y-85422828D02*
X103471939Y-85494257D01*
X103471939Y-85494257D02*
X103400510Y-85565685D01*
X103400510Y-85565685D02*
X103329082Y-85708542D01*
X103329082Y-85708542D02*
X103329082Y-86065685D01*
X103329082Y-86065685D02*
X103400510Y-86208542D01*
X103400510Y-86208542D02*
X103471939Y-86279971D01*
X103471939Y-86279971D02*
X103614796Y-86351400D01*
X103614796Y-86351400D02*
X103900510Y-86351400D01*
X103900510Y-86351400D02*
X104043368Y-86279971D01*
X104043368Y-86279971D02*
X104114796Y-86208542D01*
X104114796Y-86208542D02*
X104186225Y-86065685D01*
X101900510Y-58982828D02*
X101900510Y-57482828D01*
X101900510Y-57482828D02*
X102400510Y-58554257D01*
X102400510Y-58554257D02*
X102900510Y-57482828D01*
X102900510Y-57482828D02*
X102900510Y-58982828D01*
X104400511Y-58982828D02*
X103543368Y-58982828D01*
X103971939Y-58982828D02*
X103971939Y-57482828D01*
X103971939Y-57482828D02*
X103829082Y-57697114D01*
X103829082Y-57697114D02*
X103686225Y-57839971D01*
X103686225Y-57839971D02*
X103543368Y-57911400D01*
X107440796Y-58982828D02*
X106726510Y-58982828D01*
X106726510Y-58982828D02*
X106726510Y-57482828D01*
X108726511Y-58982828D02*
X107869368Y-58982828D01*
X108297939Y-58982828D02*
X108297939Y-57482828D01*
X108297939Y-57482828D02*
X108155082Y-57697114D01*
X108155082Y-57697114D02*
X108012225Y-57839971D01*
X108012225Y-57839971D02*
X107869368Y-57911400D01*
X102686225Y-55014257D02*
X102543368Y-54942828D01*
X102543368Y-54942828D02*
X102329082Y-54942828D01*
X102329082Y-54942828D02*
X102114796Y-55014257D01*
X102114796Y-55014257D02*
X101971939Y-55157114D01*
X101971939Y-55157114D02*
X101900510Y-55299971D01*
X101900510Y-55299971D02*
X101829082Y-55585685D01*
X101829082Y-55585685D02*
X101829082Y-55799971D01*
X101829082Y-55799971D02*
X101900510Y-56085685D01*
X101900510Y-56085685D02*
X101971939Y-56228542D01*
X101971939Y-56228542D02*
X102114796Y-56371400D01*
X102114796Y-56371400D02*
X102329082Y-56442828D01*
X102329082Y-56442828D02*
X102471939Y-56442828D01*
X102471939Y-56442828D02*
X102686225Y-56371400D01*
X102686225Y-56371400D02*
X102757653Y-56299971D01*
X102757653Y-56299971D02*
X102757653Y-55799971D01*
X102757653Y-55799971D02*
X102471939Y-55799971D01*
X102329082Y-60022828D02*
X102329082Y-61094257D01*
X102329082Y-61094257D02*
X102257653Y-61308542D01*
X102257653Y-61308542D02*
X102114796Y-61451400D01*
X102114796Y-61451400D02*
X101900510Y-61522828D01*
X101900510Y-61522828D02*
X101757653Y-61522828D01*
X103829082Y-61522828D02*
X102971939Y-61522828D01*
X103400510Y-61522828D02*
X103400510Y-60022828D01*
X103400510Y-60022828D02*
X103257653Y-60237114D01*
X103257653Y-60237114D02*
X103114796Y-60379971D01*
X103114796Y-60379971D02*
X102971939Y-60451400D01*
X102757653Y-91859971D02*
X102686225Y-91931400D01*
X102686225Y-91931400D02*
X102471939Y-92002828D01*
X102471939Y-92002828D02*
X102329082Y-92002828D01*
X102329082Y-92002828D02*
X102114796Y-91931400D01*
X102114796Y-91931400D02*
X101971939Y-91788542D01*
X101971939Y-91788542D02*
X101900510Y-91645685D01*
X101900510Y-91645685D02*
X101829082Y-91359971D01*
X101829082Y-91359971D02*
X101829082Y-91145685D01*
X101829082Y-91145685D02*
X101900510Y-90859971D01*
X101900510Y-90859971D02*
X101971939Y-90717114D01*
X101971939Y-90717114D02*
X102114796Y-90574257D01*
X102114796Y-90574257D02*
X102329082Y-90502828D01*
X102329082Y-90502828D02*
X102471939Y-90502828D01*
X102471939Y-90502828D02*
X102686225Y-90574257D01*
X102686225Y-90574257D02*
X102757653Y-90645685D01*
X104186225Y-92002828D02*
X103329082Y-92002828D01*
X103757653Y-92002828D02*
X103757653Y-90502828D01*
X103757653Y-90502828D02*
X103614796Y-90717114D01*
X103614796Y-90717114D02*
X103471939Y-90859971D01*
X103471939Y-90859971D02*
X103329082Y-90931400D01*
X105471939Y-91002828D02*
X105471939Y-92002828D01*
X105114796Y-90431400D02*
X104757653Y-91502828D01*
X104757653Y-91502828D02*
X105686224Y-91502828D01*
X101829082Y-83954257D02*
X102543368Y-83954257D01*
X101686225Y-84382828D02*
X102186225Y-82882828D01*
X102186225Y-82882828D02*
X102686225Y-84382828D01*
X103971939Y-84382828D02*
X103114796Y-84382828D01*
X103543367Y-84382828D02*
X103543367Y-82882828D01*
X103543367Y-82882828D02*
X103400510Y-83097114D01*
X103400510Y-83097114D02*
X103257653Y-83239971D01*
X103257653Y-83239971D02*
X103114796Y-83311400D01*
X104900510Y-82882828D02*
X105043367Y-82882828D01*
X105043367Y-82882828D02*
X105186224Y-82954257D01*
X105186224Y-82954257D02*
X105257653Y-83025685D01*
X105257653Y-83025685D02*
X105329081Y-83168542D01*
X105329081Y-83168542D02*
X105400510Y-83454257D01*
X105400510Y-83454257D02*
X105400510Y-83811400D01*
X105400510Y-83811400D02*
X105329081Y-84097114D01*
X105329081Y-84097114D02*
X105257653Y-84239971D01*
X105257653Y-84239971D02*
X105186224Y-84311400D01*
X105186224Y-84311400D02*
X105043367Y-84382828D01*
X105043367Y-84382828D02*
X104900510Y-84382828D01*
X104900510Y-84382828D02*
X104757653Y-84311400D01*
X104757653Y-84311400D02*
X104686224Y-84239971D01*
X104686224Y-84239971D02*
X104614795Y-84097114D01*
X104614795Y-84097114D02*
X104543367Y-83811400D01*
X104543367Y-83811400D02*
X104543367Y-83454257D01*
X104543367Y-83454257D02*
X104614795Y-83168542D01*
X104614795Y-83168542D02*
X104686224Y-83025685D01*
X104686224Y-83025685D02*
X104757653Y-82954257D01*
X104757653Y-82954257D02*
X104900510Y-82882828D01*
X101900510Y-71682828D02*
X101900510Y-70182828D01*
X101900510Y-70182828D02*
X102257653Y-70182828D01*
X102257653Y-70182828D02*
X102471939Y-70254257D01*
X102471939Y-70254257D02*
X102614796Y-70397114D01*
X102614796Y-70397114D02*
X102686225Y-70539971D01*
X102686225Y-70539971D02*
X102757653Y-70825685D01*
X102757653Y-70825685D02*
X102757653Y-71039971D01*
X102757653Y-71039971D02*
X102686225Y-71325685D01*
X102686225Y-71325685D02*
X102614796Y-71468542D01*
X102614796Y-71468542D02*
X102471939Y-71611400D01*
X102471939Y-71611400D02*
X102257653Y-71682828D01*
X102257653Y-71682828D02*
X101900510Y-71682828D01*
X103257653Y-70182828D02*
X104186225Y-70182828D01*
X104186225Y-70182828D02*
X103686225Y-70754257D01*
X103686225Y-70754257D02*
X103900510Y-70754257D01*
X103900510Y-70754257D02*
X104043368Y-70825685D01*
X104043368Y-70825685D02*
X104114796Y-70897114D01*
X104114796Y-70897114D02*
X104186225Y-71039971D01*
X104186225Y-71039971D02*
X104186225Y-71397114D01*
X104186225Y-71397114D02*
X104114796Y-71539971D01*
X104114796Y-71539971D02*
X104043368Y-71611400D01*
X104043368Y-71611400D02*
X103900510Y-71682828D01*
X103900510Y-71682828D02*
X103471939Y-71682828D01*
X103471939Y-71682828D02*
X103329082Y-71611400D01*
X103329082Y-71611400D02*
X103257653Y-71539971D01*
X102686225Y-62634257D02*
X102543368Y-62562828D01*
X102543368Y-62562828D02*
X102329082Y-62562828D01*
X102329082Y-62562828D02*
X102114796Y-62634257D01*
X102114796Y-62634257D02*
X101971939Y-62777114D01*
X101971939Y-62777114D02*
X101900510Y-62919971D01*
X101900510Y-62919971D02*
X101829082Y-63205685D01*
X101829082Y-63205685D02*
X101829082Y-63419971D01*
X101829082Y-63419971D02*
X101900510Y-63705685D01*
X101900510Y-63705685D02*
X101971939Y-63848542D01*
X101971939Y-63848542D02*
X102114796Y-63991400D01*
X102114796Y-63991400D02*
X102329082Y-64062828D01*
X102329082Y-64062828D02*
X102471939Y-64062828D01*
X102471939Y-64062828D02*
X102686225Y-63991400D01*
X102686225Y-63991400D02*
X102757653Y-63919971D01*
X102757653Y-63919971D02*
X102757653Y-63419971D01*
X102757653Y-63419971D02*
X102471939Y-63419971D01*
X104186225Y-64062828D02*
X103329082Y-64062828D01*
X103757653Y-64062828D02*
X103757653Y-62562828D01*
X103757653Y-62562828D02*
X103614796Y-62777114D01*
X103614796Y-62777114D02*
X103471939Y-62919971D01*
X103471939Y-62919971D02*
X103329082Y-62991400D01*
X102400510Y-96297114D02*
X101900510Y-96297114D01*
X101900510Y-97082828D02*
X101900510Y-95582828D01*
X101900510Y-95582828D02*
X102614796Y-95582828D01*
X103971939Y-97082828D02*
X103114796Y-97082828D01*
X103543367Y-97082828D02*
X103543367Y-95582828D01*
X103543367Y-95582828D02*
X103400510Y-95797114D01*
X103400510Y-95797114D02*
X103257653Y-95939971D01*
X103257653Y-95939971D02*
X103114796Y-96011400D01*
X104543367Y-95725685D02*
X104614795Y-95654257D01*
X104614795Y-95654257D02*
X104757653Y-95582828D01*
X104757653Y-95582828D02*
X105114795Y-95582828D01*
X105114795Y-95582828D02*
X105257653Y-95654257D01*
X105257653Y-95654257D02*
X105329081Y-95725685D01*
X105329081Y-95725685D02*
X105400510Y-95868542D01*
X105400510Y-95868542D02*
X105400510Y-96011400D01*
X105400510Y-96011400D02*
X105329081Y-96225685D01*
X105329081Y-96225685D02*
X104471938Y-97082828D01*
X104471938Y-97082828D02*
X105400510Y-97082828D01*
X112084225Y-77874257D02*
X111941368Y-77802828D01*
X111941368Y-77802828D02*
X111727082Y-77802828D01*
X111727082Y-77802828D02*
X111512796Y-77874257D01*
X111512796Y-77874257D02*
X111369939Y-78017114D01*
X111369939Y-78017114D02*
X111298510Y-78159971D01*
X111298510Y-78159971D02*
X111227082Y-78445685D01*
X111227082Y-78445685D02*
X111227082Y-78659971D01*
X111227082Y-78659971D02*
X111298510Y-78945685D01*
X111298510Y-78945685D02*
X111369939Y-79088542D01*
X111369939Y-79088542D02*
X111512796Y-79231400D01*
X111512796Y-79231400D02*
X111727082Y-79302828D01*
X111727082Y-79302828D02*
X111869939Y-79302828D01*
X111869939Y-79302828D02*
X112084225Y-79231400D01*
X112084225Y-79231400D02*
X112155653Y-79159971D01*
X112155653Y-79159971D02*
X112155653Y-78659971D01*
X112155653Y-78659971D02*
X111869939Y-78659971D01*
X116584796Y-54942828D02*
X115870510Y-54942828D01*
X115870510Y-54942828D02*
X115799082Y-55657114D01*
X115799082Y-55657114D02*
X115870510Y-55585685D01*
X115870510Y-55585685D02*
X116013368Y-55514257D01*
X116013368Y-55514257D02*
X116370510Y-55514257D01*
X116370510Y-55514257D02*
X116513368Y-55585685D01*
X116513368Y-55585685D02*
X116584796Y-55657114D01*
X116584796Y-55657114D02*
X116656225Y-55799971D01*
X116656225Y-55799971D02*
X116656225Y-56157114D01*
X116656225Y-56157114D02*
X116584796Y-56299971D01*
X116584796Y-56299971D02*
X116513368Y-56371400D01*
X116513368Y-56371400D02*
X116370510Y-56442828D01*
X116370510Y-56442828D02*
X116013368Y-56442828D01*
X116013368Y-56442828D02*
X115870510Y-56371400D01*
X115870510Y-56371400D02*
X115799082Y-56299971D01*
X117084796Y-54942828D02*
X117584796Y-56442828D01*
X117584796Y-56442828D02*
X118084796Y-54942828D01*
X102686225Y-77874257D02*
X102543368Y-77802828D01*
X102543368Y-77802828D02*
X102329082Y-77802828D01*
X102329082Y-77802828D02*
X102114796Y-77874257D01*
X102114796Y-77874257D02*
X101971939Y-78017114D01*
X101971939Y-78017114D02*
X101900510Y-78159971D01*
X101900510Y-78159971D02*
X101829082Y-78445685D01*
X101829082Y-78445685D02*
X101829082Y-78659971D01*
X101829082Y-78659971D02*
X101900510Y-78945685D01*
X101900510Y-78945685D02*
X101971939Y-79088542D01*
X101971939Y-79088542D02*
X102114796Y-79231400D01*
X102114796Y-79231400D02*
X102329082Y-79302828D01*
X102329082Y-79302828D02*
X102471939Y-79302828D01*
X102471939Y-79302828D02*
X102686225Y-79231400D01*
X102686225Y-79231400D02*
X102757653Y-79159971D01*
X102757653Y-79159971D02*
X102757653Y-78659971D01*
X102757653Y-78659971D02*
X102471939Y-78659971D01*
X101829082Y-76334257D02*
X102543368Y-76334257D01*
X101686225Y-76762828D02*
X102186225Y-75262828D01*
X102186225Y-75262828D02*
X102686225Y-76762828D01*
X103043367Y-75262828D02*
X103971939Y-75262828D01*
X103971939Y-75262828D02*
X103471939Y-75834257D01*
X103471939Y-75834257D02*
X103686224Y-75834257D01*
X103686224Y-75834257D02*
X103829082Y-75905685D01*
X103829082Y-75905685D02*
X103900510Y-75977114D01*
X103900510Y-75977114D02*
X103971939Y-76119971D01*
X103971939Y-76119971D02*
X103971939Y-76477114D01*
X103971939Y-76477114D02*
X103900510Y-76619971D01*
X103900510Y-76619971D02*
X103829082Y-76691400D01*
X103829082Y-76691400D02*
X103686224Y-76762828D01*
X103686224Y-76762828D02*
X103257653Y-76762828D01*
X103257653Y-76762828D02*
X103114796Y-76691400D01*
X103114796Y-76691400D02*
X103043367Y-76619971D01*
X102757653Y-68999971D02*
X102686225Y-69071400D01*
X102686225Y-69071400D02*
X102471939Y-69142828D01*
X102471939Y-69142828D02*
X102329082Y-69142828D01*
X102329082Y-69142828D02*
X102114796Y-69071400D01*
X102114796Y-69071400D02*
X101971939Y-68928542D01*
X101971939Y-68928542D02*
X101900510Y-68785685D01*
X101900510Y-68785685D02*
X101829082Y-68499971D01*
X101829082Y-68499971D02*
X101829082Y-68285685D01*
X101829082Y-68285685D02*
X101900510Y-67999971D01*
X101900510Y-67999971D02*
X101971939Y-67857114D01*
X101971939Y-67857114D02*
X102114796Y-67714257D01*
X102114796Y-67714257D02*
X102329082Y-67642828D01*
X102329082Y-67642828D02*
X102471939Y-67642828D01*
X102471939Y-67642828D02*
X102686225Y-67714257D01*
X102686225Y-67714257D02*
X102757653Y-67785685D01*
X104186225Y-69142828D02*
X103329082Y-69142828D01*
X103757653Y-69142828D02*
X103757653Y-67642828D01*
X103757653Y-67642828D02*
X103614796Y-67857114D01*
X103614796Y-67857114D02*
X103471939Y-67999971D01*
X103471939Y-67999971D02*
X103329082Y-68071400D01*
X111298510Y-58982828D02*
X111298510Y-57482828D01*
X111298510Y-57482828D02*
X111869939Y-57482828D01*
X111869939Y-57482828D02*
X112012796Y-57554257D01*
X112012796Y-57554257D02*
X112084225Y-57625685D01*
X112084225Y-57625685D02*
X112155653Y-57768542D01*
X112155653Y-57768542D02*
X112155653Y-57982828D01*
X112155653Y-57982828D02*
X112084225Y-58125685D01*
X112084225Y-58125685D02*
X112012796Y-58197114D01*
X112012796Y-58197114D02*
X111869939Y-58268542D01*
X111869939Y-58268542D02*
X111298510Y-58268542D01*
X113584225Y-58982828D02*
X112727082Y-58982828D01*
X113155653Y-58982828D02*
X113155653Y-57482828D01*
X113155653Y-57482828D02*
X113012796Y-57697114D01*
X113012796Y-57697114D02*
X112869939Y-57839971D01*
X112869939Y-57839971D02*
X112727082Y-57911400D01*
X101900510Y-93757114D02*
X102400510Y-93757114D01*
X102614796Y-94542828D02*
X101900510Y-94542828D01*
X101900510Y-94542828D02*
X101900510Y-93042828D01*
X101900510Y-93042828D02*
X102614796Y-93042828D01*
X104043368Y-94542828D02*
X103186225Y-94542828D01*
X103614796Y-94542828D02*
X103614796Y-93042828D01*
X103614796Y-93042828D02*
X103471939Y-93257114D01*
X103471939Y-93257114D02*
X103329082Y-93399971D01*
X103329082Y-93399971D02*
X103186225Y-93471400D01*
X105329082Y-93542828D02*
X105329082Y-94542828D01*
X104971939Y-92971400D02*
X104614796Y-94042828D01*
X104614796Y-94042828D02*
X105543367Y-94042828D01*
X106583653Y-77802828D02*
X107512225Y-77802828D01*
X107512225Y-77802828D02*
X107012225Y-78374257D01*
X107012225Y-78374257D02*
X107226510Y-78374257D01*
X107226510Y-78374257D02*
X107369368Y-78445685D01*
X107369368Y-78445685D02*
X107440796Y-78517114D01*
X107440796Y-78517114D02*
X107512225Y-78659971D01*
X107512225Y-78659971D02*
X107512225Y-79017114D01*
X107512225Y-79017114D02*
X107440796Y-79159971D01*
X107440796Y-79159971D02*
X107369368Y-79231400D01*
X107369368Y-79231400D02*
X107226510Y-79302828D01*
X107226510Y-79302828D02*
X106797939Y-79302828D01*
X106797939Y-79302828D02*
X106655082Y-79231400D01*
X106655082Y-79231400D02*
X106583653Y-79159971D01*
X107940796Y-77802828D02*
X108440796Y-79302828D01*
X108440796Y-79302828D02*
X108940796Y-77802828D01*
D11*
%TO.C,J2*%
X150622000Y-53086000D02*
X163322000Y-53086000D01*
X163322000Y-53086000D02*
X163322000Y-101346000D01*
X163322000Y-101346000D02*
X150622000Y-101346000D01*
X150622000Y-101346000D02*
X150622000Y-53086000D01*
%TD*%
M02*
