M48
; DRILL file {KiCad 7.0.9} date Mon Dec  9 19:17:58 2024
; FORMAT={-:-/ absolute / inch / decimal}
; #@! TF.CreationDate,2024-12-09T19:17:58-07:00
; #@! TF.GenerationSoftware,Kicad,Pcbnew,7.0.9
; #@! TF.FileFunction,Plated,1,2,PTH
FMAT,2
INCH
; #@! TA.AperFunction,Plated,PTH,ComponentDrill
T1C0.0400
%
G90
G05
T1
X4.84Y-2.19
X4.84Y-2.29
X4.84Y-2.39
X4.84Y-2.49
X4.84Y-2.59
X4.84Y-2.69
X4.84Y-2.79
X4.84Y-2.89
X4.84Y-2.99
X4.84Y-3.09
X4.84Y-3.19
X4.84Y-3.29
X4.84Y-3.39
X4.84Y-3.49
X4.84Y-3.59
X4.84Y-3.69
X4.84Y-3.79
X4.84Y-3.89
X4.94Y-2.19
X4.94Y-2.29
X4.94Y-2.39
X4.94Y-2.49
X4.94Y-2.59
X4.94Y-2.69
X4.94Y-2.79
X4.94Y-2.89
X4.94Y-2.99
X4.94Y-3.09
X4.94Y-3.19
X4.94Y-3.29
X4.94Y-3.39
X4.94Y-3.49
X4.94Y-3.59
X4.94Y-3.69
X4.94Y-3.79
X4.94Y-3.89
X5.04Y-2.19
X5.04Y-2.29
X5.04Y-2.39
X5.04Y-2.49
X5.04Y-2.59
X5.04Y-2.69
X5.04Y-2.79
X5.04Y-2.89
X5.04Y-2.99
X5.04Y-3.09
X5.04Y-3.19
X5.04Y-3.29
X5.04Y-3.39
X5.04Y-3.49
X5.04Y-3.59
X5.04Y-3.69
X5.04Y-3.79
X5.04Y-3.89
X5.14Y-2.19
X5.14Y-2.29
X5.14Y-2.39
X5.14Y-2.49
X5.14Y-2.59
X5.14Y-2.69
X5.14Y-2.79
X5.14Y-2.89
X5.14Y-2.99
X5.14Y-3.09
X5.14Y-3.19
X5.14Y-3.29
X5.14Y-3.39
X5.14Y-3.49
X5.14Y-3.59
X5.14Y-3.69
X5.14Y-3.79
X5.14Y-3.89
X6.03Y-2.19
X6.03Y-2.29
X6.03Y-2.39
X6.03Y-2.49
X6.03Y-2.59
X6.03Y-2.69
X6.03Y-2.79
X6.03Y-2.89
X6.03Y-2.99
X6.03Y-3.09
X6.03Y-3.19
X6.03Y-3.29
X6.03Y-3.39
X6.03Y-3.49
X6.03Y-3.59
X6.03Y-3.69
X6.03Y-3.79
X6.03Y-3.89
X6.13Y-2.19
X6.13Y-2.29
X6.13Y-2.39
X6.13Y-2.49
X6.13Y-2.59
X6.13Y-2.69
X6.13Y-2.79
X6.13Y-2.89
X6.13Y-2.99
X6.13Y-3.09
X6.13Y-3.19
X6.13Y-3.29
X6.13Y-3.39
X6.13Y-3.49
X6.13Y-3.59
X6.13Y-3.69
X6.13Y-3.79
X6.13Y-3.89
X6.23Y-2.19
X6.23Y-2.29
X6.23Y-2.39
X6.23Y-2.49
X6.23Y-2.59
X6.23Y-2.69
X6.23Y-2.79
X6.23Y-2.89
X6.23Y-2.99
X6.23Y-3.09
X6.23Y-3.19
X6.23Y-3.29
X6.23Y-3.39
X6.23Y-3.49
X6.23Y-3.59
X6.23Y-3.69
X6.23Y-3.79
X6.23Y-3.89
X6.33Y-2.19
X6.33Y-2.29
X6.33Y-2.39
X6.33Y-2.49
X6.33Y-2.59
X6.33Y-2.69
X6.33Y-2.79
X6.33Y-2.89
X6.33Y-2.99
X6.33Y-3.09
X6.33Y-3.19
X6.33Y-3.29
X6.33Y-3.39
X6.33Y-3.49
X6.33Y-3.59
X6.33Y-3.69
X6.33Y-3.79
X6.33Y-3.89
T0
M30
