%TF.GenerationSoftware,KiCad,Pcbnew,7.0.9*%
%TF.CreationDate,2024-10-20T15:28:43-06:00*%
%TF.ProjectId,Prototype2,50726f74-6f74-4797-9065-322e6b696361,rev?*%
%TF.SameCoordinates,Original*%
%TF.FileFunction,Copper,L4,Bot*%
%TF.FilePolarity,Positive*%
%FSLAX46Y46*%
G04 Gerber Fmt 4.6, Leading zero omitted, Abs format (unit mm)*
G04 Created by KiCad (PCBNEW 7.0.9) date 2024-10-20 15:28:43*
%MOMM*%
%LPD*%
G01*
G04 APERTURE LIST*
%TA.AperFunction,ComponentPad*%
%ADD10C,1.524000*%
%TD*%
%TA.AperFunction,ComponentPad*%
%ADD11R,1.700000X1.700000*%
%TD*%
%TA.AperFunction,ComponentPad*%
%ADD12O,1.700000X1.700000*%
%TD*%
%TA.AperFunction,ComponentPad*%
%ADD13R,1.524000X1.524000*%
%TD*%
%TA.AperFunction,ComponentPad*%
%ADD14C,1.270000*%
%TD*%
%TA.AperFunction,ViaPad*%
%ADD15C,0.400000*%
%TD*%
%TA.AperFunction,ViaPad*%
%ADD16C,0.800000*%
%TD*%
%TA.AperFunction,Conductor*%
%ADD17C,0.203200*%
%TD*%
G04 APERTURE END LIST*
D10*
%TO.P,TP28,1,1*%
%TO.N,~{CS0}*%
X180086000Y-93980000D03*
%TD*%
%TO.P,TP10,1,1*%
%TO.N,P5*%
X157226000Y-93980000D03*
%TD*%
%TO.P,TP19,1,1*%
%TO.N,~{K2}*%
X180086000Y-116840000D03*
%TD*%
%TO.P,TP42,1,1*%
%TO.N,GND*%
X200914000Y-118618000D03*
%TD*%
%TO.P,TP6,1,1*%
%TO.N,PHI2*%
X157226000Y-83820000D03*
%TD*%
%TO.P,TP40,1,1*%
%TO.N,GND*%
X202184000Y-59817000D03*
%TD*%
%TO.P,TP2,1,1*%
%TO.N,D4*%
X157226000Y-73660000D03*
%TD*%
%TO.P,TP34,1,1*%
%TO.N,A0*%
X180086000Y-78740000D03*
%TD*%
%TO.P,TP14,1,1*%
%TO.N,P1*%
X157226000Y-104140000D03*
%TD*%
%TO.P,TP31,1,1*%
%TO.N,A3*%
X180086000Y-86360000D03*
%TD*%
%TO.P,TP45,1,1*%
%TO.N,+3.3V*%
X193294000Y-118618000D03*
%TD*%
%TO.P,TP7,1,1*%
%TO.N,P6*%
X157226000Y-86360000D03*
%TD*%
%TO.P,TP26,1,1*%
%TO.N,SOD*%
X180086000Y-99060000D03*
%TD*%
%TO.P,TP41,1,1*%
%TO.N,GND*%
X157226000Y-68580000D03*
%TD*%
%TO.P,TP9,1,1*%
%TO.N,P4*%
X157226000Y-91440000D03*
%TD*%
%TO.P,TP16,1,1*%
%TO.N,~{K5}*%
X157226000Y-111760000D03*
%TD*%
D11*
%TO.P,J3,1,Pin_1*%
%TO.N,3V3_A*%
X175260000Y-59817000D03*
D12*
%TO.P,J3,2,Pin_2*%
%TO.N,+3.3V*%
X172720000Y-59817000D03*
%TO.P,J3,3,Pin_3*%
%TO.N,3V3_B*%
X170180000Y-59817000D03*
%TD*%
D10*
%TO.P,TP29,1,1*%
%TO.N,CS1*%
X180086000Y-91440000D03*
%TD*%
%TO.P,TP44,1,1*%
%TO.N,+3.3V*%
X179832000Y-59817000D03*
%TD*%
%TO.P,TP21,1,1*%
%TO.N,~{K0}*%
X180086000Y-111760000D03*
%TD*%
%TO.P,TP15,1,1*%
%TO.N,~{KR2}*%
X157226000Y-106680000D03*
%TD*%
%TO.P,TP24,1,1*%
%TO.N,BCLK*%
X180086000Y-104140000D03*
%TD*%
%TO.P,TP36,1,1*%
%TO.N,D0*%
X180086000Y-73660000D03*
%TD*%
%TO.P,TP8,1,1*%
%TO.N,P7*%
X157226000Y-88900000D03*
%TD*%
%TO.P,TP22,1,1*%
%TO.N,SID*%
X180086000Y-109220000D03*
%TD*%
%TO.P,TP13,1,1*%
%TO.N,P0*%
X157226000Y-101600000D03*
%TD*%
%TO.P,TP11,1,1*%
%TO.N,P2*%
X157226000Y-96520000D03*
%TD*%
%TO.P,TP35,1,1*%
%TO.N,AUDIO*%
X180086000Y-76200000D03*
%TD*%
%TO.P,TP18,1,1*%
%TO.N,~{K3}*%
X157226000Y-116840000D03*
%TD*%
%TO.P,TP17,1,1*%
%TO.N,~{K4}*%
X157226000Y-114300000D03*
%TD*%
%TO.P,TP38,1,1*%
%TO.N,D2*%
X180086000Y-68580000D03*
%TD*%
%TO.P,TP25,1,1*%
%TO.N,OCLK*%
X180086000Y-101600000D03*
%TD*%
%TO.P,TP32,1,1*%
%TO.N,A2*%
X180086000Y-83820000D03*
%TD*%
%TO.P,TP20,1,1*%
%TO.N,~{K1}*%
X180086000Y-114300000D03*
%TD*%
%TO.P,TP12,1,1*%
%TO.N,P3*%
X157226000Y-99060000D03*
%TD*%
%TO.P,TP37,1,1*%
%TO.N,D1*%
X180086000Y-71120000D03*
%TD*%
D13*
%TO.P,J1,1,5V1*%
%TO.N,+5V*%
X193294000Y-71120000D03*
D10*
%TO.P,J1,2,G1*%
%TO.N,GND*%
X195834000Y-71120000D03*
%TO.P,J1,3,3V1*%
%TO.N,3V3_A*%
X198374000Y-71120000D03*
%TO.P,J1,4,G2*%
%TO.N,GND*%
X200914000Y-71120000D03*
%TO.P,J1,5,A48*%
%TO.N,_D2*%
X193294000Y-73660000D03*
%TO.P,J1,6,A49*%
%TO.N,_D0*%
X195834000Y-73660000D03*
%TO.P,J1,7,A3*%
%TO.N,_D6*%
X198374000Y-73660000D03*
%TO.P,J1,8,A2*%
%TO.N,_D4*%
X200914000Y-73660000D03*
%TO.P,J1,9,A45*%
%TO.N,_D1*%
X193294000Y-76200000D03*
%TO.P,J1,10,A46*%
%TO.N,_D7*%
X195834000Y-76200000D03*
%TO.P,J1,11,A6*%
%TO.N,_D5*%
X198374000Y-76200000D03*
%TO.P,J1,12,A5*%
%TO.N,_D3*%
X200914000Y-76200000D03*
%TO.P,J1,13,A42*%
%TO.N,_AUDIO3*%
X193294000Y-78740000D03*
%TO.P,J1,14,A43*%
%TO.N,_AUDIO1*%
X195834000Y-78740000D03*
%TO.P,J1,15,A9*%
%TO.N,_AUDIO2*%
X198374000Y-78740000D03*
%TO.P,J1,16,A8*%
%TO.N,_AUDIO0*%
X200914000Y-78740000D03*
%TO.P,J1,17,A39*%
%TO.N,_A1*%
X193294000Y-81280000D03*
%TO.P,J1,18,A40*%
%TO.N,_A0*%
X195834000Y-81280000D03*
%TO.P,J1,19,A12*%
%TO.N,_AUDIO5*%
X198374000Y-81280000D03*
%TO.P,J1,20,A11*%
%TO.N,_AUDIO4*%
X200914000Y-81280000D03*
%TO.P,J1,21,A36*%
%TO.N,~{_EN}*%
X193294000Y-83820000D03*
%TO.P,J1,22,A37*%
%TO.N,_A2*%
X195834000Y-83820000D03*
%TO.P,J1,23,A15*%
%TO.N,_A3*%
X198374000Y-83820000D03*
%TO.P,J1,24,A14*%
%TO.N,_R{slash}W*%
X200914000Y-83820000D03*
%TO.P,J1,25,A33*%
%TO.N,unconnected-(J1-A33-Pad25)*%
X193294000Y-86360000D03*
%TO.P,J1,26,A34*%
%TO.N,unconnected-(J1-A34-Pad26)*%
X195834000Y-86360000D03*
%TO.P,J1,27,A18*%
%TO.N,unconnected-(J1-A18-Pad27)*%
X198374000Y-86360000D03*
%TO.P,J1,28,A17*%
%TO.N,unconnected-(J1-A17-Pad28)*%
X200914000Y-86360000D03*
%TO.P,J1,29,A30*%
%TO.N,_P4*%
X193294000Y-88900000D03*
%TO.P,J1,30,A31*%
%TO.N,_P6*%
X195834000Y-88900000D03*
%TO.P,J1,31,A21*%
%TO.N,_SID*%
X198374000Y-88900000D03*
%TO.P,J1,32,A20*%
%TO.N,_P7*%
X200914000Y-88900000D03*
%TO.P,J1,33,A27*%
%TO.N,unconnected-(J1-A27-Pad33)*%
X193294000Y-91440000D03*
%TO.P,J1,34,A28*%
%TO.N,unconnected-(J1-A28-Pad34)*%
X195834000Y-91440000D03*
%TO.P,J1,35,A24*%
%TO.N,unconnected-(J1-A24-Pad35)*%
X198374000Y-91440000D03*
%TO.P,J1,36,A23*%
%TO.N,unconnected-(J1-A23-Pad36)*%
X200914000Y-91440000D03*
%TO.P,J1,37,5V2*%
%TO.N,+5V*%
X193294000Y-93980000D03*
%TO.P,J1,38,G3*%
%TO.N,GND*%
X195834000Y-93980000D03*
%TO.P,J1,39,3V2*%
%TO.N,3V3_A*%
X198374000Y-93980000D03*
D14*
%TO.P,J1,40,G4*%
%TO.N,GND*%
X200914000Y-93980000D03*
D10*
%TO.P,J1,41,B48*%
%TO.N,_~{IRQ}*%
X193294000Y-96520000D03*
%TO.P,J1,42,B49*%
%TO.N,_P3*%
X195834000Y-96520000D03*
%TO.P,J1,43,B3*%
%TO.N,_P2*%
X198374000Y-96520000D03*
%TO.P,J1,44,B2*%
%TO.N,_PHI2*%
X200914000Y-96520000D03*
%TO.P,J1,45,B45*%
%TO.N,_OCLK*%
X193294000Y-99060000D03*
%TO.P,J1,46,B46*%
%TO.N,_SOD*%
X195834000Y-99060000D03*
%TO.P,J1,47,B6*%
%TO.N,_DUMP*%
X198374000Y-99060000D03*
%TO.P,J1,48,B5*%
%TO.N,_P5*%
X200914000Y-99060000D03*
%TO.P,J1,49,B42*%
%TO.N,unconnected-(J1-B42-Pad49)*%
X193294000Y-101600000D03*
%TO.P,J1,50,B43*%
%TO.N,unconnected-(J1-B43-Pad50)*%
X195834000Y-101600000D03*
%TO.P,J1,51,B9*%
%TO.N,unconnected-(J1-B9-Pad51)*%
X198374000Y-101600000D03*
%TO.P,J1,52,B8*%
%TO.N,unconnected-(J1-B8-Pad52)*%
X200914000Y-101600000D03*
%TO.P,J1,53,B39*%
%TO.N,_P0*%
X193294000Y-104140000D03*
%TO.P,J1,54,B40*%
%TO.N,_BCLKO*%
X195834000Y-104140000D03*
%TO.P,J1,55,B12*%
%TO.N,_BCLKI*%
X198374000Y-104140000D03*
%TO.P,J1,56,B11*%
%TO.N,_P1*%
X200914000Y-104140000D03*
%TO.P,J1,57,B36*%
%TO.N,_~{KR2}*%
X193294000Y-106680000D03*
%TO.P,J1,58,B37*%
%TO.N,_~{K5}*%
X195834000Y-106680000D03*
%TO.P,J1,59,B15*%
%TO.N,_~{KR1}*%
X198374000Y-106680000D03*
%TO.P,J1,60,B14*%
%TO.N,_~{K0}*%
X200914000Y-106680000D03*
%TO.P,J1,61,B33*%
%TO.N,unconnected-(J1-B33-Pad61)*%
X193294000Y-109220000D03*
%TO.P,J1,62,B34*%
%TO.N,unconnected-(J1-B34-Pad62)*%
X195834000Y-109220000D03*
%TO.P,J1,63,B18*%
%TO.N,unconnected-(J1-B18-Pad63)*%
X198374000Y-109220000D03*
%TO.P,J1,64,B17*%
%TO.N,unconnected-(J1-B17-Pad64)*%
X200914000Y-109220000D03*
%TO.P,J1,65,B30*%
%TO.N,unconnected-(J1-B30-Pad65)*%
X193294000Y-111760000D03*
%TO.P,J1,66,B31*%
%TO.N,unconnected-(J1-B31-Pad66)*%
X195834000Y-111760000D03*
%TO.P,J1,67,B21*%
%TO.N,unconnected-(J1-B21-Pad67)*%
X198374000Y-111760000D03*
%TO.P,J1,68,B20*%
%TO.N,unconnected-(J1-B20-Pad68)*%
X200914000Y-111760000D03*
%TO.P,J1,69,B27*%
%TO.N,_~{K4}*%
X193294000Y-114300000D03*
%TO.P,J1,70,B28*%
%TO.N,_~{K3}*%
X195834000Y-114300000D03*
%TO.P,J1,71,B24*%
%TO.N,_~{K2}*%
X198374000Y-114300000D03*
%TO.P,J1,72,B23*%
%TO.N,_~{K1}*%
X200914000Y-114300000D03*
%TD*%
%TO.P,TP1,1,1*%
%TO.N,D3*%
X157226000Y-71120000D03*
%TD*%
%TO.P,TP33,1,1*%
%TO.N,A1*%
X180086000Y-81280000D03*
%TD*%
%TO.P,TP4,1,1*%
%TO.N,D6*%
X157226000Y-78740000D03*
%TD*%
%TO.P,TP3,1,1*%
%TO.N,D5*%
X157226000Y-76200000D03*
%TD*%
%TO.P,TP5,1,1*%
%TO.N,D7*%
X157226000Y-81280000D03*
%TD*%
%TO.P,TP30,1,1*%
%TO.N,R{slash}W*%
X180086000Y-88900000D03*
%TD*%
%TO.P,TP27,1,1*%
%TO.N,~{IRQ}*%
X180086000Y-96520000D03*
%TD*%
%TO.P,TP39,1,1*%
%TO.N,GND*%
X190627000Y-59817000D03*
%TD*%
%TO.P,TP23,1,1*%
%TO.N,~{KR1}*%
X180086000Y-106680000D03*
%TD*%
D14*
%TO.P,J2,1,GND*%
%TO.N,GND*%
X161065900Y-68572500D03*
%TO.P,J2,2,D3*%
%TO.N,D3*%
X161065900Y-71112500D03*
%TO.P,J2,3,D4*%
%TO.N,D4*%
X161065900Y-73652500D03*
%TO.P,J2,4,D5*%
%TO.N,D5*%
X161065900Y-76192500D03*
%TO.P,J2,5,D6*%
%TO.N,D6*%
X161065900Y-78732500D03*
%TO.P,J2,6,D7*%
%TO.N,D7*%
X161065900Y-81272500D03*
%TO.P,J2,7,PHI2*%
%TO.N,PHI2*%
X161065900Y-83812500D03*
%TO.P,J2,8,P6*%
%TO.N,P6*%
X161065900Y-86352500D03*
%TO.P,J2,9,P7*%
%TO.N,P7*%
X161065900Y-88892500D03*
%TO.P,J2,10,P4*%
%TO.N,P4*%
X161065900Y-91432500D03*
%TO.P,J2,11,P5*%
%TO.N,P5*%
X161065900Y-93972500D03*
%TO.P,J2,12,P2*%
%TO.N,P2*%
X161065900Y-96512500D03*
%TO.P,J2,13,P3*%
%TO.N,P3*%
X161065900Y-99052500D03*
%TO.P,J2,14,P0*%
%TO.N,P0*%
X161065900Y-101592500D03*
%TO.P,J2,15,P1*%
%TO.N,P1*%
X161065900Y-104132500D03*
%TO.P,J2,16,~{KR2}*%
%TO.N,~{KR2}*%
X161065900Y-106672500D03*
%TO.P,J2,17,+5V*%
%TO.N,+5V*%
X161065900Y-109212500D03*
%TO.P,J2,18,~{K5}*%
%TO.N,~{K5}*%
X161065900Y-111752500D03*
%TO.P,J2,19,~{K4}*%
%TO.N,~{K4}*%
X161065900Y-114292500D03*
%TO.P,J2,20,~{K3}*%
%TO.N,~{K3}*%
X161065900Y-116832500D03*
%TO.P,J2,21,~{K2}*%
%TO.N,~{K2}*%
X176305900Y-116832500D03*
%TO.P,J2,22,~{K1}*%
%TO.N,~{K1}*%
X176305900Y-114292500D03*
%TO.P,J2,23,~{K0}*%
%TO.N,~{K0}*%
X176305900Y-111752500D03*
%TO.P,J2,24,SID*%
%TO.N,SID*%
X176305900Y-109212500D03*
%TO.P,J2,25,~{KR1}*%
%TO.N,~{KR1}*%
X176305900Y-106672500D03*
%TO.P,J2,26,BCLK*%
%TO.N,BCLK*%
X176305900Y-104132500D03*
%TO.P,J2,27,OCLK*%
%TO.N,OCLK*%
X176305900Y-101592500D03*
%TO.P,J2,28,SOD*%
%TO.N,SOD*%
X176305900Y-99052500D03*
%TO.P,J2,29,~{IRQ}*%
%TO.N,~{IRQ}*%
X176305900Y-96512500D03*
%TO.P,J2,30,~{CS0}*%
%TO.N,~{CS0}*%
X176305900Y-93972500D03*
%TO.P,J2,31,CS1*%
%TO.N,CS1*%
X176305900Y-91432500D03*
%TO.P,J2,32,R/W*%
%TO.N,R{slash}W*%
X176305900Y-88892500D03*
%TO.P,J2,33,A3*%
%TO.N,A3*%
X176305900Y-86352500D03*
%TO.P,J2,34,A2*%
%TO.N,A2*%
X176305900Y-83812500D03*
%TO.P,J2,35,A1*%
%TO.N,A1*%
X176305900Y-81272500D03*
%TO.P,J2,36,A0*%
%TO.N,A0*%
X176305900Y-78732500D03*
%TO.P,J2,37,AUDIO*%
%TO.N,AUDIO*%
X176305900Y-76192500D03*
%TO.P,J2,38,D0*%
%TO.N,D0*%
X176305900Y-73652500D03*
%TO.P,J2,39,D1*%
%TO.N,D1*%
X176305900Y-71112500D03*
%TO.P,J2,40,D2*%
%TO.N,D2*%
X176305900Y-68572500D03*
%TD*%
D10*
%TO.P,TP43,1,1*%
%TO.N,+5V*%
X157226000Y-109220000D03*
%TD*%
D15*
%TO.N,~{_EN}*%
X173888400Y-93522800D03*
%TO.N,+3.3V*%
X174396400Y-91948000D03*
%TO.N,GND*%
X170992800Y-93065600D03*
%TO.N,+3.3V*%
X170992800Y-91744800D03*
%TO.N,GND*%
X174853600Y-93522800D03*
D16*
%TO.N,3V3_B*%
X157734000Y-61214000D03*
D15*
%TO.N,GND*%
X188163200Y-83820000D03*
X183083200Y-80619600D03*
X162610800Y-97790000D03*
X172110400Y-114401600D03*
X183134000Y-98856800D03*
X182829200Y-83820000D03*
X168706800Y-117602000D03*
X170535600Y-89560400D03*
X162610800Y-92811600D03*
X186385200Y-107543600D03*
X165963600Y-115366800D03*
X173075600Y-71526400D03*
X162661600Y-102870000D03*
X169214800Y-110794800D03*
X162610800Y-85191600D03*
X189484000Y-74320400D03*
X189509400Y-71221600D03*
X189280800Y-111150400D03*
D16*
X157734000Y-59283600D03*
D15*
X184607200Y-115011200D03*
X171958000Y-81483200D03*
X182981600Y-72390000D03*
X183184800Y-112115600D03*
X170535600Y-97180400D03*
X168402000Y-83769200D03*
X165100000Y-70002400D03*
X189534800Y-72796400D03*
X183388000Y-108915200D03*
X170535600Y-104800400D03*
X162610800Y-87680800D03*
X165455600Y-102565200D03*
X166217600Y-112166400D03*
X162661600Y-100330000D03*
X182981600Y-73914000D03*
X166166800Y-78740000D03*
X182981600Y-75438000D03*
X187452000Y-79806800D03*
X162610800Y-90170000D03*
X185318400Y-85648800D03*
X183083200Y-101447600D03*
X166014400Y-81991200D03*
X162661600Y-95250000D03*
X170535600Y-77978000D03*
X165557200Y-87833200D03*
X183184800Y-103936800D03*
X183083200Y-96316800D03*
X165506400Y-94996000D03*
D16*
X157581600Y-62687200D03*
%TO.N,+5V*%
X156768800Y-63906400D03*
D15*
%TO.N,SID*%
X164744400Y-84632800D03*
X164744400Y-109220000D03*
%TO.N,BCLK*%
X170535600Y-106934000D03*
X171399200Y-104140000D03*
%TO.N,R{slash}W*%
X174040800Y-78740000D03*
X174040800Y-88900000D03*
X173075600Y-69494400D03*
%TO.N,A0*%
X188163200Y-80619600D03*
X188163200Y-77825600D03*
%TO.N,+3.3V*%
X166573200Y-87833200D03*
X165100000Y-80416400D03*
X173075600Y-70510400D03*
X166522400Y-95453200D03*
X182270400Y-110540800D03*
X166522400Y-103073200D03*
X181914800Y-82245200D03*
X165049200Y-113792000D03*
%TO.N,_P3*%
X188671200Y-95961200D03*
%TO.N,_P5*%
X167690800Y-98044000D03*
X169672000Y-98044000D03*
%TO.N,_P7*%
X169621200Y-87426800D03*
X167690800Y-87426800D03*
%TO.N,_P6*%
X169672000Y-90424000D03*
X167690800Y-90424000D03*
%TO.N,_P1*%
X169621200Y-102666800D03*
X167690800Y-102666800D03*
%TO.N,_P0*%
X167690800Y-105664000D03*
X169672000Y-105664000D03*
%TO.N,_P2*%
X167690800Y-95046800D03*
X169621200Y-95046800D03*
%TO.N,_AUDIO1*%
X182219600Y-71475600D03*
%TO.N,_AUDIO3*%
X182219600Y-73202800D03*
%TO.N,_AUDIO5*%
X182270400Y-74676000D03*
%TO.N,_A2*%
X184099200Y-85648800D03*
%TO.N,_A1*%
X191262000Y-80264000D03*
%TO.N,_DUMP*%
X163982400Y-101041200D03*
X163982400Y-93421200D03*
X163982400Y-88341200D03*
X163982400Y-90881200D03*
X163982400Y-98501200D03*
X163982400Y-95961200D03*
X163982400Y-103581200D03*
X163982400Y-85801200D03*
%TO.N,_R{slash}W*%
X189280800Y-78536800D03*
X189280800Y-82194400D03*
%TO.N,_~{KR2}*%
X181965600Y-111810800D03*
%TO.N,_~{K5}*%
X167487600Y-111252000D03*
%TO.N,~{_EN}*%
X172110400Y-73202800D03*
X173228000Y-87426800D03*
X184099200Y-87071200D03*
%TO.N,_~{K4}*%
X167081200Y-116586000D03*
%TO.N,_~{K3}*%
X169773600Y-117195600D03*
%TO.N,_SOD*%
X188671200Y-98755200D03*
%TO.N,_PHI2*%
X181457600Y-93980000D03*
X181457600Y-77165200D03*
%TO.N,_SID*%
X182829200Y-88950800D03*
X182829200Y-85648800D03*
%TO.N,_~{K0}*%
X184708800Y-107950000D03*
X189585600Y-106680000D03*
%TO.N,_~{K1}*%
X184200800Y-113284000D03*
%TO.N,_~{K2}*%
X186131200Y-114604800D03*
%TO.N,_BCLKO*%
X188671200Y-104089200D03*
%TD*%
D17*
%TO.N,~{_EN}*%
X173228000Y-92862400D02*
X173888400Y-93522800D01*
X173228000Y-90119200D02*
X173228000Y-92862400D01*
%TO.N,_P2*%
X169621200Y-95046800D02*
X167690800Y-95046800D01*
%TO.N,~{_EN}*%
X173228000Y-74320400D02*
X172110400Y-73202800D01*
X173228000Y-87426800D02*
X173228000Y-90119200D01*
X173228000Y-87426800D02*
X173228000Y-74320400D01*
%TO.N,SID*%
X164744400Y-88392000D02*
X164744400Y-109220000D01*
X164744400Y-84632800D02*
X164744400Y-88392000D01*
%TO.N,BCLK*%
X171399200Y-106070400D02*
X170535600Y-106934000D01*
X171399200Y-104140000D02*
X171399200Y-106070400D01*
%TO.N,R{slash}W*%
X173837600Y-69494400D02*
X173075600Y-69494400D01*
X174040800Y-69697600D02*
X173837600Y-69494400D01*
X174040800Y-78740000D02*
X174040800Y-88892500D01*
X174040800Y-78740000D02*
X174040800Y-69697600D01*
%TO.N,A0*%
X188163200Y-77825600D02*
X188163200Y-80619600D01*
%TO.N,_P3*%
X189636400Y-94996000D02*
X188671200Y-95961200D01*
X194310000Y-94996000D02*
X189636400Y-94996000D01*
X195834000Y-96520000D02*
X194310000Y-94996000D01*
%TO.N,_P5*%
X169672000Y-98044000D02*
X167690800Y-98044000D01*
%TO.N,_P7*%
X169621200Y-87426800D02*
X167690800Y-87426800D01*
%TO.N,_P6*%
X169672000Y-90424000D02*
X167690800Y-90424000D01*
%TO.N,_P1*%
X169621200Y-102666800D02*
X167690800Y-102666800D01*
%TO.N,_P0*%
X169672000Y-105664000D02*
X167690800Y-105664000D01*
%TO.N,_AUDIO1*%
X192151000Y-72771000D02*
X191389000Y-72009000D01*
X183489600Y-71475600D02*
X182219600Y-71475600D01*
X191389000Y-72009000D02*
X184023000Y-72009000D01*
X194310000Y-77216000D02*
X192659000Y-77216000D01*
X192659000Y-77216000D02*
X192151000Y-76708000D01*
X195834000Y-78740000D02*
X194310000Y-77216000D01*
X184023000Y-72009000D02*
X183489600Y-71475600D01*
X192151000Y-76708000D02*
X192151000Y-72771000D01*
%TO.N,_AUDIO3*%
X183896000Y-73507600D02*
X183591200Y-73202800D01*
X191643000Y-74295000D02*
X190881000Y-73533000D01*
X183896000Y-73533000D02*
X183896000Y-73507600D01*
X190881000Y-73533000D02*
X183896000Y-73533000D01*
X191643000Y-77089000D02*
X191643000Y-74295000D01*
X193294000Y-78740000D02*
X191643000Y-77089000D01*
X183591200Y-73202800D02*
X182219600Y-73202800D01*
%TO.N,_AUDIO5*%
X183515000Y-74676000D02*
X183896000Y-75057000D01*
X182270400Y-74676000D02*
X183515000Y-74676000D01*
X190500000Y-75057000D02*
X183896000Y-75057000D01*
X182245000Y-74676000D02*
X182270400Y-74676000D01*
X192659000Y-79756000D02*
X196850000Y-79756000D01*
X191135000Y-75692000D02*
X191135000Y-78232000D01*
X196850000Y-79756000D02*
X198374000Y-81280000D01*
X190500000Y-75057000D02*
X191135000Y-75692000D01*
X191135000Y-78232000D02*
X192659000Y-79756000D01*
%TO.N,_A2*%
X184099200Y-83413600D02*
X184099200Y-85648800D01*
X190195200Y-82346800D02*
X189585600Y-82956400D01*
X195834000Y-83820000D02*
X194360800Y-82346800D01*
X194360800Y-82346800D02*
X190195200Y-82346800D01*
X189585600Y-82956400D02*
X184556400Y-82956400D01*
X184556400Y-82956400D02*
X184099200Y-83413600D01*
%TO.N,_A1*%
X192278000Y-80264000D02*
X191262000Y-80264000D01*
X193294000Y-81280000D02*
X192278000Y-80264000D01*
%TO.N,_DUMP*%
X163982400Y-98501200D02*
X163982400Y-95961200D01*
X163982400Y-88341200D02*
X163982400Y-85801200D01*
X163982400Y-101041200D02*
X163982400Y-98501200D01*
X163982400Y-90881200D02*
X163982400Y-88341200D01*
X163982400Y-103581200D02*
X163982400Y-101041200D01*
X163982400Y-95961200D02*
X163982400Y-93421200D01*
X163982400Y-93421200D02*
X163982400Y-90881200D01*
%TO.N,_R{slash}W*%
X189280800Y-78536800D02*
X189280800Y-82245200D01*
%TO.N,_~{KR2}*%
X185318400Y-111302800D02*
X186283600Y-110337600D01*
X192125600Y-106680000D02*
X193294000Y-106680000D01*
X186283600Y-110337600D02*
X188468000Y-110337600D01*
X188468000Y-110337600D02*
X192125600Y-106680000D01*
X181965600Y-111810800D02*
X182473600Y-111302800D01*
X182473600Y-111302800D02*
X185318400Y-111302800D01*
%TO.N,_~{K5}*%
X194564000Y-105410000D02*
X195834000Y-106680000D01*
X175412400Y-110337600D02*
X181102000Y-110337600D01*
X167843200Y-109677200D02*
X174752000Y-109677200D01*
X188163200Y-109626400D02*
X192379600Y-105410000D01*
X167487600Y-110032800D02*
X167843200Y-109677200D01*
X192379600Y-105410000D02*
X194564000Y-105410000D01*
X181813200Y-109626400D02*
X188163200Y-109626400D01*
X167487600Y-111252000D02*
X167487600Y-110032800D01*
X174752000Y-109677200D02*
X175412400Y-110337600D01*
X181102000Y-110337600D02*
X181813200Y-109626400D01*
%TO.N,~{_EN}*%
X193294000Y-83820000D02*
X192278000Y-82804000D01*
X186486800Y-87071200D02*
X184099200Y-87071200D01*
X190754000Y-82804000D02*
X186486800Y-87071200D01*
X192278000Y-82804000D02*
X190754000Y-82804000D01*
%TO.N,_~{K4}*%
X167081200Y-116586000D02*
X168046400Y-116586000D01*
X173532800Y-118211600D02*
X189382400Y-118211600D01*
X189382400Y-118211600D02*
X193294000Y-114300000D01*
X171602400Y-116281200D02*
X173532800Y-118211600D01*
X168351200Y-116281200D02*
X171602400Y-116281200D01*
X168046400Y-116586000D02*
X168351200Y-116281200D01*
%TO.N,_~{K3}*%
X171145200Y-117195600D02*
X172872400Y-118922800D01*
X190855600Y-118922800D02*
X193548000Y-116230400D01*
X172872400Y-118922800D02*
X190855600Y-118922800D01*
X195834000Y-115366800D02*
X195834000Y-114300000D01*
X193548000Y-116230400D02*
X194970400Y-116230400D01*
X169773600Y-117195600D02*
X171145200Y-117195600D01*
X194970400Y-116230400D02*
X195834000Y-115366800D01*
%TO.N,_SOD*%
X189890400Y-97536000D02*
X188671200Y-98755200D01*
X195834000Y-99060000D02*
X194310000Y-97536000D01*
X194310000Y-97536000D02*
X189890400Y-97536000D01*
%TO.N,_PHI2*%
X181152800Y-82804000D02*
X181457600Y-83108800D01*
X181457600Y-81534000D02*
X181152800Y-81838800D01*
X181152800Y-81838800D02*
X181152800Y-82804000D01*
X181457600Y-77165200D02*
X181457600Y-81534000D01*
X181457600Y-83108800D02*
X181457600Y-93980000D01*
%TO.N,_SID*%
X182829200Y-85648800D02*
X182829200Y-88950800D01*
X182829200Y-88950800D02*
X182829200Y-88900000D01*
%TO.N,_~{K0}*%
X184708800Y-107950000D02*
X184708800Y-107035600D01*
X185064400Y-106680000D02*
X189585600Y-106680000D01*
X184708800Y-107035600D02*
X185064400Y-106680000D01*
%TO.N,_~{K1}*%
X199390000Y-112776000D02*
X200914000Y-114300000D01*
X187706000Y-113284000D02*
X188214000Y-112776000D01*
X184200800Y-113284000D02*
X187706000Y-113284000D01*
X188214000Y-112776000D02*
X199390000Y-112776000D01*
%TO.N,_~{K2}*%
X188976000Y-113233200D02*
X197307200Y-113233200D01*
X186131200Y-114604800D02*
X187604400Y-114604800D01*
X187604400Y-114604800D02*
X188976000Y-113233200D01*
X197307200Y-113233200D02*
X198374000Y-114300000D01*
%TO.N,_BCLKO*%
X194360800Y-102666800D02*
X195834000Y-104140000D01*
X190093600Y-102666800D02*
X194360800Y-102666800D01*
X188671200Y-104089200D02*
X190093600Y-102666800D01*
%TD*%
M02*
