%TF.GenerationSoftware,KiCad,Pcbnew,7.0.9*%
%TF.CreationDate,2024-11-14T04:28:15-07:00*%
%TF.ProjectId,Through_Hole_Quad_Xilinx,5468726f-7567-4685-9f48-6f6c655f5175,rev?*%
%TF.SameCoordinates,Original*%
%TF.FileFunction,Copper,L1,Top*%
%TF.FilePolarity,Positive*%
%FSLAX46Y46*%
G04 Gerber Fmt 4.6, Leading zero omitted, Abs format (unit mm)*
G04 Created by KiCad (PCBNEW 7.0.9) date 2024-11-14 04:28:15*
%MOMM*%
%LPD*%
G01*
G04 APERTURE LIST*
%TA.AperFunction,ComponentPad*%
%ADD10R,1.050000X1.500000*%
%TD*%
%TA.AperFunction,ComponentPad*%
%ADD11O,1.050000X1.500000*%
%TD*%
%TA.AperFunction,ComponentPad*%
%ADD12C,1.600000*%
%TD*%
%TA.AperFunction,ComponentPad*%
%ADD13O,1.600000X1.600000*%
%TD*%
%TA.AperFunction,ComponentPad*%
%ADD14R,1.600000X1.600000*%
%TD*%
%TA.AperFunction,ComponentPad*%
%ADD15C,1.524000*%
%TD*%
%TA.AperFunction,ViaPad*%
%ADD16C,0.800000*%
%TD*%
%TA.AperFunction,Conductor*%
%ADD17C,0.250000*%
%TD*%
%TA.AperFunction,Conductor*%
%ADD18C,1.524000*%
%TD*%
%TA.AperFunction,Conductor*%
%ADD19C,1.016000*%
%TD*%
G04 APERTURE END LIST*
D10*
%TO.P,Q13,1,S*%
%TO.N,GND*%
X132334000Y-85344000D03*
D11*
%TO.P,Q13,2,G*%
%TO.N,_AUDIO3_5*%
X133604000Y-85344000D03*
%TO.P,Q13,3,D*%
%TO.N,Net-(Q13-D)*%
X134874000Y-85344000D03*
%TD*%
D10*
%TO.P,Q14,1,S*%
%TO.N,GND*%
X134874000Y-71628000D03*
D11*
%TO.P,Q14,2,G*%
%TO.N,_AUDIO3_4*%
X133604000Y-71628000D03*
%TO.P,Q14,3,D*%
%TO.N,Net-(Q14-D)*%
X132334000Y-71628000D03*
%TD*%
D12*
%TO.P,R13,1*%
%TO.N,AUDIO3*%
X135382000Y-76171000D03*
D13*
%TO.P,R13,2*%
%TO.N,Net-(Q13-D)*%
X135382000Y-81251000D03*
%TD*%
D12*
%TO.P,C3,1*%
%TO.N,+3.3V*%
X194564000Y-41148000D03*
D13*
%TO.P,C3,2*%
%TO.N,GND*%
X184564000Y-41148000D03*
%TD*%
D12*
%TO.P,R7,1*%
%TO.N,AUDIO2*%
X135382000Y-57404000D03*
D13*
%TO.P,R7,2*%
%TO.N,Net-(Q7-D)*%
X135382000Y-62484000D03*
%TD*%
D10*
%TO.P,Q10,1,S*%
%TO.N,GND*%
X141732000Y-52832000D03*
D11*
%TO.P,Q10,2,G*%
%TO.N,_AUDIO2_2*%
X140462000Y-52832000D03*
%TO.P,Q10,3,D*%
%TO.N,Net-(Q10-D)*%
X139192000Y-52832000D03*
%TD*%
D12*
%TO.P,R2,1*%
%TO.N,AUDIO1*%
X131826000Y-43180000D03*
D13*
%TO.P,R2,2*%
%TO.N,Net-(Q2-D)*%
X131826000Y-38100000D03*
%TD*%
D14*
%TO.P,C2,1*%
%TO.N,+3.3V*%
X230600000Y-35814000D03*
D12*
%TO.P,C2,2*%
%TO.N,GND*%
X228600000Y-35814000D03*
%TD*%
%TO.P,C1,1*%
%TO.N,+5V*%
X238506000Y-41148000D03*
D13*
%TO.P,C1,2*%
%TO.N,GND*%
X228506000Y-41148000D03*
%TD*%
D10*
%TO.P,Q6,1,S*%
%TO.N,GND*%
X148590000Y-34036000D03*
D11*
%TO.P,Q6,2,G*%
%TO.N,_AUDIO1_0*%
X147320000Y-34036000D03*
%TO.P,Q6,3,D*%
%TO.N,Net-(Q6-D)*%
X146050000Y-34036000D03*
%TD*%
D10*
%TO.P,U1,1,VO*%
%TO.N,+3.3V*%
X235966000Y-35814000D03*
D11*
%TO.P,U1,2,GND*%
%TO.N,GND*%
X237236000Y-35814000D03*
%TO.P,U1,3,VI*%
%TO.N,+5V*%
X238506000Y-35814000D03*
%TD*%
D10*
%TO.P,Q20,1,S*%
%TO.N,GND*%
X134874000Y-90424000D03*
D11*
%TO.P,Q20,2,G*%
%TO.N,_AUDIO4_4*%
X133604000Y-90424000D03*
%TO.P,Q20,3,D*%
%TO.N,Net-(Q20-D)*%
X132334000Y-90424000D03*
%TD*%
D10*
%TO.P,Q11,1,S*%
%TO.N,GND*%
X146050000Y-66548000D03*
D11*
%TO.P,Q11,2,G*%
%TO.N,_AUDIO2_1*%
X147320000Y-66548000D03*
%TO.P,Q11,3,D*%
%TO.N,Net-(Q11-D)*%
X148590000Y-66548000D03*
%TD*%
D10*
%TO.P,Q18,1,S*%
%TO.N,GND*%
X148590000Y-71628000D03*
D11*
%TO.P,Q18,2,G*%
%TO.N,_AUDIO3_0*%
X147320000Y-71628000D03*
%TO.P,Q18,3,D*%
%TO.N,Net-(Q18-D)*%
X146050000Y-71628000D03*
%TD*%
D12*
%TO.P,C6,1*%
%TO.N,+3.3V*%
X194564000Y-75184000D03*
D13*
%TO.P,C6,2*%
%TO.N,GND*%
X184564000Y-75184000D03*
%TD*%
D12*
%TO.P,R6,1*%
%TO.N,AUDIO1*%
X145542000Y-43209000D03*
D13*
%TO.P,R6,2*%
%TO.N,Net-(Q6-D)*%
X145542000Y-38129000D03*
%TD*%
D10*
%TO.P,Q9,1,S*%
%TO.N,GND*%
X139192000Y-66548000D03*
D11*
%TO.P,Q9,2,G*%
%TO.N,_AUDIO2_3*%
X140462000Y-66548000D03*
%TO.P,Q9,3,D*%
%TO.N,Net-(Q9-D)*%
X141732000Y-66548000D03*
%TD*%
D12*
%TO.P,R4,1*%
%TO.N,AUDIO1*%
X138684000Y-43180000D03*
D13*
%TO.P,R4,2*%
%TO.N,Net-(Q4-D)*%
X138684000Y-38100000D03*
%TD*%
D12*
%TO.P,R18,1*%
%TO.N,AUDIO3*%
X145542000Y-80772000D03*
D13*
%TO.P,R18,2*%
%TO.N,Net-(Q18-D)*%
X145542000Y-75692000D03*
%TD*%
D10*
%TO.P,Q1,1,S*%
%TO.N,GND*%
X132334000Y-47752000D03*
D11*
%TO.P,Q1,2,G*%
%TO.N,_AUDIO1_5*%
X133604000Y-47752000D03*
%TO.P,Q1,3,D*%
%TO.N,Net-(Q1-D)*%
X134874000Y-47752000D03*
%TD*%
D10*
%TO.P,Q8,1,S*%
%TO.N,GND*%
X134874000Y-52832000D03*
D11*
%TO.P,Q8,2,G*%
%TO.N,_AUDIO2_4*%
X133604000Y-52832000D03*
%TO.P,Q8,3,D*%
%TO.N,Net-(Q8-D)*%
X132334000Y-52832000D03*
%TD*%
D12*
%TO.P,R23,1*%
%TO.N,AUDIO4*%
X149098000Y-94996000D03*
D13*
%TO.P,R23,2*%
%TO.N,Net-(Q23-D)*%
X149098000Y-100076000D03*
%TD*%
D12*
%TO.P,R12,1*%
%TO.N,AUDIO2*%
X145542000Y-62005000D03*
D13*
%TO.P,R12,2*%
%TO.N,Net-(Q12-D)*%
X145542000Y-56925000D03*
%TD*%
D10*
%TO.P,Q22,1,S*%
%TO.N,GND*%
X141732000Y-90424000D03*
D11*
%TO.P,Q22,2,G*%
%TO.N,_AUDIO4_2*%
X140462000Y-90424000D03*
%TO.P,Q22,3,D*%
%TO.N,Net-(Q22-D)*%
X139192000Y-90424000D03*
%TD*%
D10*
%TO.P,Q3,1,S*%
%TO.N,GND*%
X139192000Y-47752000D03*
D11*
%TO.P,Q3,2,G*%
%TO.N,_AUDIO1_3*%
X140462000Y-47752000D03*
%TO.P,Q3,3,D*%
%TO.N,Net-(Q3-D)*%
X141732000Y-47752000D03*
%TD*%
D12*
%TO.P,R11,1*%
%TO.N,AUDIO2*%
X149098000Y-57404000D03*
D13*
%TO.P,R11,2*%
%TO.N,Net-(Q11-D)*%
X149098000Y-62484000D03*
%TD*%
D15*
%TO.P,U2,1,A->B*%
%TO.N,_R{slash}W*%
X203708000Y-81280000D03*
%TO.P,U2,2,A0*%
%TO.N,_D0*%
X203708000Y-83820000D03*
%TO.P,U2,3,A1*%
%TO.N,_D1*%
X203708000Y-86360000D03*
%TO.P,U2,4,A2*%
%TO.N,_D2*%
X203708000Y-88900000D03*
%TO.P,U2,5,A3*%
%TO.N,_D3*%
X203708000Y-91440000D03*
%TO.P,U2,6,A4*%
%TO.N,_D4*%
X203708000Y-93980000D03*
%TO.P,U2,7,A5*%
%TO.N,_D5*%
X203708000Y-96520000D03*
%TO.P,U2,8,A6*%
%TO.N,_D6*%
X203708000Y-99060000D03*
%TO.P,U2,9,A7*%
%TO.N,_D7*%
X203708000Y-101600000D03*
%TO.P,U2,10,GND*%
%TO.N,GND*%
X203708000Y-104140000D03*
%TO.P,U2,11,B7*%
%TO.N,D7*%
X211328000Y-104140000D03*
%TO.P,U2,12,B6*%
%TO.N,D6*%
X211328000Y-101600000D03*
%TO.P,U2,13,B5*%
%TO.N,D5*%
X211328000Y-99060000D03*
%TO.P,U2,14,B4*%
%TO.N,D4*%
X211328000Y-96520000D03*
%TO.P,U2,15,B3*%
%TO.N,D3*%
X211328000Y-93980000D03*
%TO.P,U2,16,B2*%
%TO.N,D2*%
X211328000Y-91440000D03*
%TO.P,U2,17,B1*%
%TO.N,D1*%
X211328000Y-88900000D03*
%TO.P,U2,18,B0*%
%TO.N,D0*%
X211328000Y-86360000D03*
%TO.P,U2,19,CE*%
%TO.N,~{_EN}*%
X211328000Y-83820000D03*
%TO.P,U2,20,VCC*%
%TO.N,+3.3V*%
X211328000Y-81320000D03*
%TD*%
D12*
%TO.P,C5,1*%
%TO.N,+3.3V*%
X211328000Y-75184000D03*
D13*
%TO.P,C5,2*%
%TO.N,GND*%
X201328000Y-75184000D03*
%TD*%
D10*
%TO.P,Q17,1,S*%
%TO.N,GND*%
X146050000Y-85344000D03*
D11*
%TO.P,Q17,2,G*%
%TO.N,_AUDIO3_1*%
X147320000Y-85344000D03*
%TO.P,Q17,3,D*%
%TO.N,Net-(Q17-D)*%
X148590000Y-85344000D03*
%TD*%
D15*
%TO.P,U5,1,1~{OE}*%
%TO.N,GND*%
X186944000Y-81280000D03*
%TO.P,U5,2,1A1*%
X186944000Y-83820000D03*
%TO.P,U5,3,2Y4*%
%TO.N,_~{CS3}*%
X186944000Y-86360000D03*
%TO.P,U5,4,1A2*%
%TO.N,GND*%
X186944000Y-88900000D03*
%TO.P,U5,5,2Y3*%
%TO.N,_~{CS4}*%
X186944000Y-91440000D03*
%TO.P,U5,6,1A3*%
%TO.N,GND*%
X186944000Y-93980000D03*
%TO.P,U5,7,2Y2*%
%TO.N,_PHI2*%
X186944000Y-96520000D03*
%TO.P,U5,8,1A4*%
%TO.N,GND*%
X186944000Y-99060000D03*
%TO.P,U5,9,2Y1*%
%TO.N,_~{CS2}*%
X186944000Y-101600000D03*
%TO.P,U5,10,GND*%
%TO.N,GND*%
X186944000Y-104140000D03*
%TO.P,U5,11,2A1*%
%TO.N,~{CS2}*%
X194564000Y-104140000D03*
%TO.P,U5,12,1Y4*%
%TO.N,unconnected-(U5-1Y4-Pad12)*%
X194564000Y-101600000D03*
%TO.P,U5,13,2A2*%
%TO.N,PHI2*%
X194564000Y-99060000D03*
%TO.P,U5,14,1Y3*%
%TO.N,unconnected-(U5-1Y3-Pad14)*%
X194564000Y-96520000D03*
%TO.P,U5,15,2A3*%
%TO.N,~{CS4}*%
X194564000Y-93980000D03*
%TO.P,U5,16,1Y2*%
%TO.N,unconnected-(U5-1Y2-Pad16)*%
X194564000Y-91440000D03*
%TO.P,U5,17,2A4*%
%TO.N,~{CS3}*%
X194564000Y-88900000D03*
%TO.P,U5,18,1Y1*%
%TO.N,unconnected-(U5-1Y1-Pad18)*%
X194564000Y-86360000D03*
%TO.P,U5,19,2~{OE}*%
%TO.N,GND*%
X194564000Y-83820000D03*
%TO.P,U5,20,VCC*%
%TO.N,+3.3V*%
X194564000Y-81320000D03*
%TD*%
D12*
%TO.P,R14,1*%
%TO.N,AUDIO3*%
X131826000Y-80772000D03*
D13*
%TO.P,R14,2*%
%TO.N,Net-(Q14-D)*%
X131826000Y-75692000D03*
%TD*%
D12*
%TO.P,R16,1*%
%TO.N,AUDIO3*%
X138684000Y-80772000D03*
D13*
%TO.P,R16,2*%
%TO.N,Net-(Q16-D)*%
X138684000Y-75692000D03*
%TD*%
D12*
%TO.P,C8,1*%
%TO.N,+5V*%
X156718000Y-109474000D03*
D13*
%TO.P,C8,2*%
%TO.N,GND*%
X166718000Y-109474000D03*
%TD*%
D12*
%TO.P,R10,1*%
%TO.N,AUDIO2*%
X138684000Y-61976000D03*
D13*
%TO.P,R10,2*%
%TO.N,Net-(Q10-D)*%
X138684000Y-56896000D03*
%TD*%
D12*
%TO.P,C4,1*%
%TO.N,+3.3V*%
X211328000Y-41148000D03*
D13*
%TO.P,C4,2*%
%TO.N,GND*%
X201328000Y-41148000D03*
%TD*%
D12*
%TO.P,R17,1*%
%TO.N,AUDIO3*%
X149098000Y-76200000D03*
D13*
%TO.P,R17,2*%
%TO.N,Net-(Q17-D)*%
X149098000Y-81280000D03*
%TD*%
D12*
%TO.P,R8,1*%
%TO.N,AUDIO2*%
X131826000Y-61976000D03*
D13*
%TO.P,R8,2*%
%TO.N,Net-(Q8-D)*%
X131826000Y-56896000D03*
%TD*%
D12*
%TO.P,C7,1*%
%TO.N,+5V*%
X238506000Y-47244000D03*
D13*
%TO.P,C7,2*%
%TO.N,GND*%
X228506000Y-47244000D03*
%TD*%
D10*
%TO.P,Q23,1,S*%
%TO.N,GND*%
X146050000Y-104140000D03*
D11*
%TO.P,Q23,2,G*%
%TO.N,_AUDIO4_1*%
X147320000Y-104140000D03*
%TO.P,Q23,3,D*%
%TO.N,Net-(Q23-D)*%
X148590000Y-104140000D03*
%TD*%
D12*
%TO.P,R5,1*%
%TO.N,AUDIO1*%
X149098000Y-38608000D03*
D13*
%TO.P,R5,2*%
%TO.N,Net-(Q5-D)*%
X149098000Y-43688000D03*
%TD*%
D12*
%TO.P,R1,1*%
%TO.N,AUDIO1*%
X135382000Y-38608000D03*
D13*
%TO.P,R1,2*%
%TO.N,Net-(Q1-D)*%
X135382000Y-43688000D03*
%TD*%
D10*
%TO.P,Q5,1,S*%
%TO.N,GND*%
X146050000Y-47752000D03*
D11*
%TO.P,Q5,2,G*%
%TO.N,_AUDIO1_1*%
X147320000Y-47752000D03*
%TO.P,Q5,3,D*%
%TO.N,Net-(Q5-D)*%
X148590000Y-47752000D03*
%TD*%
D10*
%TO.P,Q21,1,S*%
%TO.N,GND*%
X139192000Y-104140000D03*
D11*
%TO.P,Q21,2,G*%
%TO.N,_AUDIO4_3*%
X140462000Y-104140000D03*
%TO.P,Q21,3,D*%
%TO.N,Net-(Q21-D)*%
X141732000Y-104140000D03*
%TD*%
D10*
%TO.P,Q19,1,S*%
%TO.N,GND*%
X132334000Y-104140000D03*
D11*
%TO.P,Q19,2,G*%
%TO.N,_AUDIO4_5*%
X133604000Y-104140000D03*
%TO.P,Q19,3,D*%
%TO.N,Net-(Q19-D)*%
X134874000Y-104140000D03*
%TD*%
D15*
%TO.P,J2,1,PIO01*%
%TO.N,_~{CS1}*%
X156718000Y-45720000D03*
%TO.P,J2,2,PIO02*%
%TO.N,_A3*%
X156718000Y-48260000D03*
%TO.P,J2,3,PIO03*%
%TO.N,_A2*%
X156718000Y-50800000D03*
%TO.P,J2,4,PIO04*%
%TO.N,_A1*%
X156718000Y-53340000D03*
%TO.P,J2,5,PIO05*%
%TO.N,_A0*%
X156718000Y-55880000D03*
%TO.P,J2,6,PIO06*%
%TO.N,_AUDIO2_0*%
X156718000Y-58420000D03*
%TO.P,J2,7,PIO07*%
%TO.N,_AUDIO2_5*%
X156718000Y-60960000D03*
%TO.P,J2,8,PIO08*%
%TO.N,_AUDIO2_3*%
X156718000Y-63500000D03*
%TO.P,J2,9,PIO09*%
%TO.N,_AUDIO2_1*%
X156718000Y-66040000D03*
%TO.P,J2,10,PIO10*%
%TO.N,_AUDIO3_0*%
X156718000Y-68580000D03*
%TO.P,J2,11,PIO11*%
%TO.N,_AUDIO3_2*%
X156718000Y-71120000D03*
%TO.P,J2,12,PIO12*%
%TO.N,_AUDIO3_4*%
X156718000Y-73660000D03*
%TO.P,J2,13,PIO13*%
%TO.N,_AUDIO3_3*%
X156718000Y-76200000D03*
%TO.P,J2,14,PIO14*%
%TO.N,_AUDIO3_1*%
X156718000Y-78740000D03*
%TO.P,J2,15,AIN15*%
%TO.N,unconnected-(J2-AIN15-Pad15)*%
X156718000Y-81280000D03*
%TO.P,J2,16,AIN16*%
%TO.N,unconnected-(J2-AIN16-Pad16)*%
X156718000Y-83820000D03*
%TO.P,J2,17,PIO17*%
%TO.N,_AUDIO3_5*%
X156718000Y-86360000D03*
%TO.P,J2,18,PIO18*%
%TO.N,_AUDIO4_0*%
X156718000Y-88900000D03*
%TO.P,J2,19,PIO19*%
%TO.N,_AUDIO4_2*%
X156718000Y-91440000D03*
%TO.P,J2,20,PIO20*%
%TO.N,_AUDIO4_4*%
X156718000Y-93980000D03*
%TO.P,J2,21,PIO21*%
%TO.N,_AUDIO4_5*%
X156718000Y-96520000D03*
%TO.P,J2,22,PIO22*%
%TO.N,_AUDIO4_3*%
X156718000Y-99060000D03*
%TO.P,J2,23,PIO23*%
%TO.N,_AUDIO4_1*%
X156718000Y-101600000D03*
%TO.P,J2,24,VU*%
%TO.N,+5V*%
X156718000Y-104140000D03*
%TO.P,J2,25,GND*%
%TO.N,GND*%
X171958000Y-104140000D03*
%TO.P,J2,26,PIO26*%
%TO.N,_D7*%
X171958000Y-101600000D03*
%TO.P,J2,27,PIO27*%
%TO.N,_D6*%
X171958000Y-99060000D03*
%TO.P,J2,28,PIO28*%
%TO.N,_D5*%
X171958000Y-96520000D03*
%TO.P,J2,29,PIO29*%
%TO.N,_D4*%
X171958000Y-93980000D03*
%TO.P,J2,30,PIO30*%
%TO.N,_D3*%
X171958000Y-91440000D03*
%TO.P,J2,31,PIO31*%
%TO.N,_D2*%
X171958000Y-88900000D03*
%TO.P,J2,32,PIO32*%
%TO.N,_D1*%
X171958000Y-86360000D03*
%TO.P,J2,33,PIO33*%
%TO.N,_D0*%
X171958000Y-83820000D03*
%TO.P,J2,34,PIO34*%
%TO.N,_~{CS2}*%
X171958000Y-81280000D03*
%TO.P,J2,35,PIO35*%
%TO.N,_~{CS4}*%
X171958000Y-78740000D03*
%TO.P,J2,36,PIO36*%
%TO.N,_~{CS3}*%
X171958000Y-76200000D03*
%TO.P,J2,37,PIO37*%
%TO.N,~{_EN}*%
X171958000Y-73660000D03*
%TO.P,J2,38,PIO38*%
%TO.N,_R{slash}W*%
X171958000Y-71120000D03*
%TO.P,J2,39,PIO39*%
%TO.N,_P6*%
X171958000Y-68580000D03*
%TO.P,J2,40,PIO40*%
%TO.N,_P7*%
X171958000Y-66040000D03*
%TO.P,J2,41,PIO41*%
%TO.N,_P4*%
X171958000Y-63500000D03*
%TO.P,J2,42,PIO42*%
%TO.N,_P5*%
X171958000Y-60960000D03*
%TO.P,J2,43,PIO43*%
%TO.N,_P2*%
X171958000Y-58420000D03*
%TO.P,J2,44,PIO44*%
%TO.N,_P3*%
X171958000Y-55880000D03*
%TO.P,J2,45,PIO45*%
%TO.N,_P0*%
X171958000Y-53340000D03*
%TO.P,J2,46,PIO46*%
%TO.N,_P1*%
X171958000Y-50800000D03*
%TO.P,J2,47,PIO47*%
%TO.N,_PHI2*%
X171958000Y-48260000D03*
%TO.P,J2,48,PIO48*%
%TO.N,_DUMP*%
X171958000Y-45720000D03*
%TD*%
D10*
%TO.P,Q12,1,S*%
%TO.N,GND*%
X148590000Y-52832000D03*
D11*
%TO.P,Q12,2,G*%
%TO.N,_AUDIO2_0*%
X147320000Y-52832000D03*
%TO.P,Q12,3,D*%
%TO.N,Net-(Q12-D)*%
X146050000Y-52832000D03*
%TD*%
D12*
%TO.P,R15,1*%
%TO.N,AUDIO3*%
X142240000Y-76200000D03*
D13*
%TO.P,R15,2*%
%TO.N,Net-(Q15-D)*%
X142240000Y-81280000D03*
%TD*%
D10*
%TO.P,Q2,1,S*%
%TO.N,GND*%
X134874000Y-34036000D03*
D11*
%TO.P,Q2,2,G*%
%TO.N,_AUDIO1_4*%
X133604000Y-34036000D03*
%TO.P,Q2,3,D*%
%TO.N,Net-(Q2-D)*%
X132334000Y-34036000D03*
%TD*%
D12*
%TO.P,R21,1*%
%TO.N,AUDIO4*%
X142240000Y-94996000D03*
D13*
%TO.P,R21,2*%
%TO.N,Net-(Q21-D)*%
X142240000Y-100076000D03*
%TD*%
D15*
%TO.P,U3,1,A->B*%
%TO.N,_DUMP*%
X203708000Y-46990000D03*
%TO.P,U3,2,A0*%
%TO.N,_P1*%
X203708000Y-49530000D03*
%TO.P,U3,3,A1*%
%TO.N,_P0*%
X203708000Y-52070000D03*
%TO.P,U3,4,A2*%
%TO.N,_P3*%
X203708000Y-54610000D03*
%TO.P,U3,5,A3*%
%TO.N,_P2*%
X203708000Y-57150000D03*
%TO.P,U3,6,A4*%
%TO.N,_P5*%
X203708000Y-59690000D03*
%TO.P,U3,7,A5*%
%TO.N,_P4*%
X203708000Y-62230000D03*
%TO.P,U3,8,A6*%
%TO.N,_P7*%
X203708000Y-64770000D03*
%TO.P,U3,9,A7*%
%TO.N,_P6*%
X203708000Y-67310000D03*
%TO.P,U3,10,GND*%
%TO.N,GND*%
X203708000Y-69850000D03*
%TO.P,U3,11,B7*%
%TO.N,P6*%
X211328000Y-69850000D03*
%TO.P,U3,12,B6*%
%TO.N,P7*%
X211328000Y-67310000D03*
%TO.P,U3,13,B5*%
%TO.N,P4*%
X211328000Y-64770000D03*
%TO.P,U3,14,B4*%
%TO.N,P5*%
X211328000Y-62230000D03*
%TO.P,U3,15,B3*%
%TO.N,P2*%
X211328000Y-59690000D03*
%TO.P,U3,16,B2*%
%TO.N,P3*%
X211328000Y-57150000D03*
%TO.P,U3,17,B1*%
%TO.N,P0*%
X211328000Y-54610000D03*
%TO.P,U3,18,B0*%
%TO.N,P1*%
X211328000Y-52070000D03*
%TO.P,U3,19,CE*%
%TO.N,GND*%
X211328000Y-49530000D03*
%TO.P,U3,20,VCC*%
%TO.N,+3.3V*%
X211328000Y-47030000D03*
%TD*%
%TO.P,J1,1,~{CS1}*%
%TO.N,~{CS1}*%
X223266000Y-53340000D03*
%TO.P,J1,2,R/W*%
%TO.N,R{slash}W*%
X223266000Y-55880000D03*
%TO.P,J1,3,A3*%
%TO.N,A3*%
X223266000Y-58420000D03*
%TO.P,J1,4,A2*%
%TO.N,A2*%
X223266000Y-60960000D03*
%TO.P,J1,5,A1*%
%TO.N,A1*%
X223266000Y-63500000D03*
%TO.P,J1,6,A0*%
%TO.N,A0*%
X223266000Y-66040000D03*
%TO.P,J1,7,D0*%
%TO.N,D0*%
X223266000Y-68580000D03*
%TO.P,J1,8,D1*%
%TO.N,D1*%
X223266000Y-71120000D03*
%TO.P,J1,9,D2*%
%TO.N,D2*%
X223266000Y-73660000D03*
%TO.P,J1,10,SOD3*%
%TO.N,unconnected-(J1-SOD3-Pad10)*%
X223266000Y-76200000D03*
%TO.P,J1,11,~{CS3}*%
%TO.N,~{CS3}*%
X223266000Y-78740000D03*
%TO.P,J1,12,D3*%
%TO.N,D3*%
X223266000Y-81280000D03*
%TO.P,J1,13,D4*%
%TO.N,D4*%
X223266000Y-83820000D03*
%TO.P,J1,14,D5*%
%TO.N,D5*%
X223266000Y-86360000D03*
%TO.P,J1,15,D6*%
%TO.N,D6*%
X223266000Y-88900000D03*
%TO.P,J1,16,D7*%
%TO.N,D7*%
X223266000Y-91440000D03*
%TO.P,J1,17,SOD4*%
%TO.N,unconnected-(J1-SOD4-Pad17)*%
X223266000Y-93980000D03*
%TO.P,J1,18,IRQ4*%
%TO.N,unconnected-(J1-IRQ4-Pad18)*%
X223266000Y-96520000D03*
%TO.P,J1,19,~{CS4}*%
%TO.N,~{CS4}*%
X223266000Y-99060000D03*
%TO.P,J1,20,GND*%
%TO.N,GND*%
X223266000Y-101600000D03*
%TO.P,J1,21,OUT4*%
%TO.N,AUDIO4*%
X238506000Y-101600000D03*
%TO.P,J1,22,~{CS2}*%
%TO.N,~{CS2}*%
X238506000Y-99060000D03*
%TO.P,J1,23,OUT1*%
%TO.N,AUDIO1*%
X238506000Y-96520000D03*
%TO.P,J1,24,PHI2*%
%TO.N,PHI2*%
X238506000Y-93980000D03*
%TO.P,J1,25,SID4*%
%TO.N,unconnected-(J1-SID4-Pad25)*%
X238506000Y-91440000D03*
%TO.P,J1,26,BCLK4*%
%TO.N,unconnected-(J1-BCLK4-Pad26)*%
X238506000Y-88900000D03*
%TO.P,J1,27,OUT3*%
%TO.N,AUDIO3*%
X238506000Y-86360000D03*
%TO.P,J1,28,N/C*%
%TO.N,unconnected-(J1-N{slash}C-Pad28)*%
X238506000Y-83820000D03*
%TO.P,J1,29,OUT2*%
%TO.N,AUDIO2*%
X238506000Y-81280000D03*
%TO.P,J1,30,SID3*%
%TO.N,unconnected-(J1-SID3-Pad30)*%
X238506000Y-78740000D03*
%TO.P,J1,31,BCLK3*%
%TO.N,unconnected-(J1-BCLK3-Pad31)*%
X238506000Y-76200000D03*
%TO.P,J1,32,P1_6*%
%TO.N,P6*%
X238506000Y-73660000D03*
%TO.P,J1,33,P1_7*%
%TO.N,P7*%
X238506000Y-71120000D03*
%TO.P,J1,34,P1_4*%
%TO.N,P4*%
X238506000Y-68580000D03*
%TO.P,J1,35,P1_5*%
%TO.N,P5*%
X238506000Y-66040000D03*
%TO.P,J1,36,P1_2*%
%TO.N,P2*%
X238506000Y-63500000D03*
%TO.P,J1,37,P1_3*%
%TO.N,P3*%
X238506000Y-60960000D03*
%TO.P,J1,38,P1_0*%
%TO.N,P0*%
X238506000Y-58420000D03*
%TO.P,J1,39,P1_1*%
%TO.N,P1*%
X238506000Y-55880000D03*
%TO.P,J1,40,VCC*%
%TO.N,+5V*%
X238506000Y-53340000D03*
%TD*%
%TO.P,U4,1,1~{OE}*%
%TO.N,GND*%
X186944000Y-46990000D03*
%TO.P,U4,2,1A1*%
%TO.N,~{CS1}*%
X186944000Y-49530000D03*
%TO.P,U4,3,2Y4*%
%TO.N,_A3*%
X186944000Y-52070000D03*
%TO.P,U4,4,1A2*%
%TO.N,R{slash}W*%
X186944000Y-54610000D03*
%TO.P,U4,5,2Y3*%
%TO.N,_A2*%
X186944000Y-57150000D03*
%TO.P,U4,6,1A3*%
%TO.N,GND*%
X186944000Y-59690000D03*
%TO.P,U4,7,2Y2*%
%TO.N,_A1*%
X186944000Y-62230000D03*
%TO.P,U4,8,1A4*%
%TO.N,GND*%
X186944000Y-64770000D03*
%TO.P,U4,9,2Y1*%
%TO.N,_A0*%
X186944000Y-67310000D03*
%TO.P,U4,10,GND*%
%TO.N,GND*%
X186944000Y-69850000D03*
%TO.P,U4,11,2A1*%
%TO.N,A0*%
X194564000Y-69850000D03*
%TO.P,U4,12,1Y4*%
%TO.N,unconnected-(U4-1Y4-Pad12)*%
X194564000Y-67310000D03*
%TO.P,U4,13,2A2*%
%TO.N,A1*%
X194564000Y-64770000D03*
%TO.P,U4,14,1Y3*%
%TO.N,unconnected-(U4-1Y3-Pad14)*%
X194564000Y-62230000D03*
%TO.P,U4,15,2A3*%
%TO.N,A2*%
X194564000Y-59690000D03*
%TO.P,U4,16,1Y2*%
%TO.N,_R{slash}W*%
X194564000Y-57150000D03*
%TO.P,U4,17,2A4*%
%TO.N,A3*%
X194564000Y-54610000D03*
%TO.P,U4,18,1Y1*%
%TO.N,_~{CS1}*%
X194564000Y-52070000D03*
%TO.P,U4,19,2~{OE}*%
%TO.N,GND*%
X194564000Y-49530000D03*
%TO.P,U4,20,VCC*%
%TO.N,+3.3V*%
X194564000Y-47030000D03*
%TD*%
D10*
%TO.P,Q15,1,S*%
%TO.N,GND*%
X139192000Y-85344000D03*
D11*
%TO.P,Q15,2,G*%
%TO.N,_AUDIO3_3*%
X140462000Y-85344000D03*
%TO.P,Q15,3,D*%
%TO.N,Net-(Q15-D)*%
X141732000Y-85344000D03*
%TD*%
D10*
%TO.P,Q7,1,S*%
%TO.N,GND*%
X132334000Y-66548000D03*
D11*
%TO.P,Q7,2,G*%
%TO.N,_AUDIO2_5*%
X133604000Y-66548000D03*
%TO.P,Q7,3,D*%
%TO.N,Net-(Q7-D)*%
X134874000Y-66548000D03*
%TD*%
D12*
%TO.P,R20,1*%
%TO.N,AUDIO4*%
X131826000Y-99597000D03*
D13*
%TO.P,R20,2*%
%TO.N,Net-(Q20-D)*%
X131826000Y-94517000D03*
%TD*%
D12*
%TO.P,R3,1*%
%TO.N,AUDIO1*%
X142240000Y-38608000D03*
D13*
%TO.P,R3,2*%
%TO.N,Net-(Q3-D)*%
X142240000Y-43688000D03*
%TD*%
D10*
%TO.P,Q16,1,S*%
%TO.N,GND*%
X141732000Y-71628000D03*
D11*
%TO.P,Q16,2,G*%
%TO.N,_AUDIO3_2*%
X140462000Y-71628000D03*
%TO.P,Q16,3,D*%
%TO.N,Net-(Q16-D)*%
X139192000Y-71628000D03*
%TD*%
D12*
%TO.P,R22,1*%
%TO.N,AUDIO4*%
X138684000Y-99597000D03*
D13*
%TO.P,R22,2*%
%TO.N,Net-(Q22-D)*%
X138684000Y-94517000D03*
%TD*%
D10*
%TO.P,Q4,1,S*%
%TO.N,GND*%
X141732000Y-34036000D03*
D11*
%TO.P,Q4,2,G*%
%TO.N,_AUDIO1_2*%
X140462000Y-34036000D03*
%TO.P,Q4,3,D*%
%TO.N,Net-(Q4-D)*%
X139192000Y-34036000D03*
%TD*%
D12*
%TO.P,R19,1*%
%TO.N,AUDIO4*%
X135382000Y-94967000D03*
D13*
%TO.P,R19,2*%
%TO.N,Net-(Q19-D)*%
X135382000Y-100047000D03*
%TD*%
D10*
%TO.P,Q24,1,S*%
%TO.N,GND*%
X148590000Y-90424000D03*
D11*
%TO.P,Q24,2,G*%
%TO.N,_AUDIO4_0*%
X147320000Y-90424000D03*
%TO.P,Q24,3,D*%
%TO.N,Net-(Q24-D)*%
X146050000Y-90424000D03*
%TD*%
D12*
%TO.P,R24,1*%
%TO.N,AUDIO4*%
X145542000Y-99568000D03*
D13*
%TO.P,R24,2*%
%TO.N,Net-(Q24-D)*%
X145542000Y-94488000D03*
%TD*%
D15*
%TO.P,J3,1,JA1*%
%TO.N,_AUDIO1_3*%
X157988000Y-31242000D03*
%TO.P,J3,2,JA2*%
%TO.N,_AUDIO1_1*%
X160528000Y-31242000D03*
%TO.P,J3,3,JA3*%
%TO.N,_AUDIO2_4*%
X163068000Y-31242000D03*
%TO.P,J3,4,JA4*%
%TO.N,_AUDIO2_2*%
X165608000Y-31242000D03*
%TO.P,J3,5,G*%
%TO.N,GND*%
X168148000Y-31242000D03*
%TO.P,J3,6,V*%
%TO.N,unconnected-(J3-V-Pad6)*%
X170688000Y-31242000D03*
%TO.P,J3,7,JA7*%
%TO.N,_AUDIO1_0*%
X157988000Y-28702000D03*
%TO.P,J3,8,JA8*%
%TO.N,_AUDIO1_2*%
X160528000Y-28702000D03*
%TO.P,J3,9,JA9*%
%TO.N,_AUDIO1_4*%
X163068000Y-28702000D03*
%TO.P,J3,10,JA10*%
%TO.N,_AUDIO1_5*%
X165608000Y-28702000D03*
%TO.P,J3,11,G*%
%TO.N,GND*%
X168148000Y-28702000D03*
%TO.P,J3,12,V*%
%TO.N,unconnected-(J3-V-Pad12)*%
X170688000Y-28702000D03*
%TD*%
D12*
%TO.P,R9,1*%
%TO.N,AUDIO2*%
X142240000Y-57404000D03*
D13*
%TO.P,R9,2*%
%TO.N,Net-(Q9-D)*%
X142240000Y-62484000D03*
%TD*%
D16*
%TO.N,GND*%
X198882000Y-49530000D03*
X152146000Y-35814000D03*
X201422000Y-35814000D03*
X201328000Y-50800000D03*
X184658000Y-35814000D03*
X152146000Y-106172000D03*
X168148000Y-35814000D03*
X166718000Y-106172000D03*
%TO.N,+3.3V*%
X194564000Y-77978000D03*
X211328000Y-43942000D03*
X211328000Y-77978000D03*
X194564000Y-43942000D03*
%TO.N,~{CS1}*%
X207518000Y-48260000D03*
X207518000Y-53340000D03*
%TO.N,R{slash}W*%
X206756000Y-45466000D03*
X206756000Y-55880000D03*
X189230000Y-54610000D03*
X189230000Y-44958000D03*
%TO.N,A3*%
X207518000Y-54356000D03*
X207518000Y-58420000D03*
%TO.N,D0*%
X216408000Y-86360000D03*
%TO.N,D1*%
X217170000Y-88900000D03*
%TO.N,D2*%
X217932000Y-91440000D03*
%TO.N,~{CS3}*%
X196342000Y-80010000D03*
%TO.N,D3*%
X218694000Y-93980000D03*
%TO.N,D4*%
X219456000Y-96520000D03*
%TO.N,D5*%
X220218000Y-99060000D03*
%TO.N,D6*%
X220980000Y-101600000D03*
%TO.N,D7*%
X221742000Y-104140000D03*
%TO.N,~{CS4}*%
X196342000Y-101600000D03*
%TO.N,AUDIO4*%
X170434000Y-105664000D03*
X238506000Y-105664000D03*
X170434000Y-95250000D03*
%TO.N,AUDIO1*%
X168148000Y-38608000D03*
X168148000Y-107950000D03*
X239776000Y-107950000D03*
%TO.N,AUDIO3*%
X169672000Y-106426000D03*
X169672000Y-74930000D03*
X237236000Y-106426000D03*
%TO.N,AUDIO2*%
X236474000Y-107188000D03*
X168910000Y-59690000D03*
X168910000Y-107188000D03*
%TO.N,_AUDIO1_1*%
X159258000Y-46990000D03*
%TO.N,_AUDIO1_3*%
X157988000Y-44450000D03*
%TO.N,_AUDIO2_4*%
X160528000Y-49530000D03*
%TO.N,_AUDIO2_2*%
X161798000Y-52070000D03*
%TO.N,_~{CS4}*%
X174244000Y-90170000D03*
%TO.N,_~{CS3}*%
X188468000Y-77470000D03*
%TO.N,_~{CS2}*%
X173482000Y-100330000D03*
%TO.N,_~{CS1}*%
X188468000Y-52070000D03*
X188468000Y-48260000D03*
%TO.N,~{_EN}*%
X182372000Y-82550000D03*
X182372000Y-73660000D03*
%TO.N,_A3*%
X170434000Y-52070000D03*
X170434000Y-48260000D03*
%TO.N,_A2*%
X169672000Y-57150000D03*
X169672000Y-50800000D03*
%TO.N,_A1*%
X170434000Y-62230000D03*
X170434000Y-53340000D03*
%TO.N,_A0*%
X169672000Y-58420000D03*
X169672000Y-67310000D03*
%TO.N,_PHI2*%
X183134000Y-96520000D03*
X183134000Y-49530000D03*
%TO.N,_R{slash}W*%
X191008000Y-71120000D03*
X191008000Y-57150000D03*
X202692000Y-71882000D03*
%TD*%
D17*
%TO.N,GND*%
X205994000Y-49530000D02*
X211328000Y-49530000D01*
X201328000Y-50800000D02*
X204724000Y-50800000D01*
D18*
X228600000Y-35814000D02*
X201422000Y-35814000D01*
X168148000Y-35814000D02*
X152146000Y-35814000D01*
D17*
X194564000Y-49530000D02*
X198882000Y-49530000D01*
X186944000Y-83820000D02*
X194564000Y-83820000D01*
X204724000Y-50800000D02*
X205994000Y-49530000D01*
D18*
X166718000Y-106172000D02*
X166718000Y-104140000D01*
X152146000Y-106172000D02*
X166718000Y-106172000D01*
X184658000Y-35814000D02*
X168148000Y-35814000D01*
X201422000Y-35814000D02*
X184658000Y-35814000D01*
X171958000Y-104140000D02*
X166718000Y-104140000D01*
%TO.N,+3.3V*%
X211328000Y-43942000D02*
X233426000Y-43942000D01*
D19*
X235966000Y-35814000D02*
X233426000Y-35814000D01*
D18*
X211328000Y-77978000D02*
X194564000Y-77978000D01*
X211328000Y-43942000D02*
X194564000Y-43942000D01*
X233426000Y-43942000D02*
X233426000Y-35814000D01*
D19*
X233426000Y-35814000D02*
X230600000Y-35814000D01*
D17*
%TO.N,~{CS1}*%
X191516000Y-48260000D02*
X190246000Y-49530000D01*
X190246000Y-49530000D02*
X186944000Y-49530000D01*
X207518000Y-48260000D02*
X191516000Y-48260000D01*
X223266000Y-53340000D02*
X207518000Y-53340000D01*
%TO.N,R{slash}W*%
X193548000Y-44958000D02*
X193802000Y-45212000D01*
X189230000Y-44958000D02*
X193548000Y-44958000D01*
X193802000Y-45212000D02*
X199390000Y-45212000D01*
X223266000Y-55880000D02*
X206756000Y-55880000D01*
X199390000Y-45212000D02*
X199644000Y-45466000D01*
X189230000Y-54610000D02*
X186944000Y-54610000D01*
X199644000Y-45466000D02*
X206756000Y-45466000D01*
%TO.N,A3*%
X206502000Y-54356000D02*
X205486000Y-53340000D01*
X198882000Y-54610000D02*
X194564000Y-54610000D01*
X200152000Y-53340000D02*
X198882000Y-54610000D01*
X223266000Y-58420000D02*
X207518000Y-58420000D01*
X207518000Y-54356000D02*
X206502000Y-54356000D01*
X205486000Y-53340000D02*
X200152000Y-53340000D01*
%TO.N,A2*%
X198628000Y-59690000D02*
X194564000Y-59690000D01*
X208026000Y-60960000D02*
X205486000Y-58420000D01*
X205486000Y-58420000D02*
X199898000Y-58420000D01*
X223266000Y-60960000D02*
X208026000Y-60960000D01*
X199898000Y-58420000D02*
X198628000Y-59690000D01*
%TO.N,A1*%
X198882000Y-64770000D02*
X194564000Y-64770000D01*
X223266000Y-63500000D02*
X200152000Y-63500000D01*
X200152000Y-63500000D02*
X198882000Y-64770000D01*
%TO.N,A0*%
X205740000Y-68580000D02*
X200406000Y-68580000D01*
X223266000Y-66040000D02*
X208280000Y-66040000D01*
X200406000Y-68580000D02*
X199136000Y-69850000D01*
X199136000Y-69850000D02*
X194564000Y-69850000D01*
X208280000Y-66040000D02*
X205740000Y-68580000D01*
%TO.N,D0*%
X216408000Y-86360000D02*
X211328000Y-86360000D01*
%TO.N,D1*%
X217170000Y-88900000D02*
X211328000Y-88900000D01*
%TO.N,D2*%
X217932000Y-91440000D02*
X211328000Y-91440000D01*
%TO.N,~{CS3}*%
X220472000Y-80010000D02*
X196342000Y-80010000D01*
X223266000Y-78740000D02*
X221742000Y-78740000D01*
X221742000Y-78740000D02*
X220472000Y-80010000D01*
%TO.N,D3*%
X218694000Y-93980000D02*
X211328000Y-93980000D01*
%TO.N,D4*%
X219456000Y-96520000D02*
X211328000Y-96520000D01*
%TO.N,D5*%
X220218000Y-99060000D02*
X211328000Y-99060000D01*
%TO.N,D6*%
X220980000Y-101600000D02*
X211328000Y-101600000D01*
%TO.N,D7*%
X221742000Y-104140000D02*
X211328000Y-104140000D01*
%TO.N,~{CS4}*%
X199136000Y-101600000D02*
X196342000Y-101600000D01*
X200406000Y-100330000D02*
X199136000Y-101600000D01*
X223266000Y-99060000D02*
X221996000Y-99060000D01*
X221996000Y-99060000D02*
X220726000Y-100330000D01*
X220726000Y-100330000D02*
X200406000Y-100330000D01*
%TO.N,AUDIO4*%
X149098000Y-94996000D02*
X154432000Y-94996000D01*
X154686000Y-95250000D02*
X170434000Y-95250000D01*
X170434000Y-105664000D02*
X238506000Y-105664000D01*
X154432000Y-94996000D02*
X154686000Y-95250000D01*
%TO.N,~{CS2}*%
X232156000Y-99060000D02*
X228346000Y-102870000D01*
X200406000Y-102870000D02*
X199136000Y-104140000D01*
X199136000Y-104140000D02*
X194564000Y-104140000D01*
X228346000Y-102870000D02*
X200406000Y-102870000D01*
X238506000Y-99060000D02*
X232156000Y-99060000D01*
%TO.N,AUDIO1*%
X149098000Y-38608000D02*
X160274000Y-38608000D01*
X168148000Y-107950000D02*
X239776000Y-107950000D01*
X160274000Y-38608000D02*
X168148000Y-38608000D01*
%TO.N,PHI2*%
X200406000Y-97790000D02*
X199136000Y-99060000D01*
X228346000Y-97790000D02*
X200406000Y-97790000D01*
X232156000Y-93980000D02*
X228346000Y-97790000D01*
X199136000Y-99060000D02*
X194564000Y-99060000D01*
X238506000Y-93980000D02*
X232156000Y-93980000D01*
%TO.N,AUDIO3*%
X150368000Y-74930000D02*
X169672000Y-74930000D01*
X169672000Y-106426000D02*
X237236000Y-106426000D01*
X149098000Y-76200000D02*
X150368000Y-74930000D01*
%TO.N,AUDIO2*%
X168910000Y-107188000D02*
X236474000Y-107188000D01*
X153162000Y-59690000D02*
X168910000Y-59690000D01*
X149098000Y-57404000D02*
X150876000Y-57404000D01*
X150876000Y-57404000D02*
X153162000Y-59690000D01*
%TO.N,P6*%
X238506000Y-73660000D02*
X234696000Y-69850000D01*
X234696000Y-69850000D02*
X211328000Y-69850000D01*
%TO.N,P7*%
X234696000Y-67310000D02*
X211328000Y-67310000D01*
X238506000Y-71120000D02*
X234696000Y-67310000D01*
%TO.N,P4*%
X238506000Y-68580000D02*
X234696000Y-64770000D01*
X234696000Y-64770000D02*
X211328000Y-64770000D01*
%TO.N,P5*%
X238506000Y-66040000D02*
X234696000Y-62230000D01*
X234696000Y-62230000D02*
X211328000Y-62230000D01*
%TO.N,P2*%
X234696000Y-59690000D02*
X211328000Y-59690000D01*
X238506000Y-63500000D02*
X234696000Y-59690000D01*
%TO.N,P3*%
X238506000Y-60960000D02*
X234696000Y-57150000D01*
X234696000Y-57150000D02*
X211328000Y-57150000D01*
%TO.N,P0*%
X238506000Y-58420000D02*
X234696000Y-54610000D01*
X234696000Y-54610000D02*
X211328000Y-54610000D01*
%TO.N,P1*%
X238506000Y-55880000D02*
X234696000Y-52070000D01*
X234696000Y-52070000D02*
X211328000Y-52070000D01*
%TO.N,_D0*%
X179324000Y-85090000D02*
X178054000Y-83820000D01*
X199136000Y-85090000D02*
X179324000Y-85090000D01*
X178054000Y-83820000D02*
X171958000Y-83820000D01*
X200406000Y-83820000D02*
X199136000Y-85090000D01*
X203708000Y-83820000D02*
X200406000Y-83820000D01*
%TO.N,_D1*%
X171958000Y-86360000D02*
X178054000Y-86360000D01*
X199136000Y-87630000D02*
X200406000Y-86360000D01*
X179324000Y-87630000D02*
X199136000Y-87630000D01*
X178054000Y-86360000D02*
X179324000Y-87630000D01*
X200406000Y-86360000D02*
X203708000Y-86360000D01*
%TO.N,_D2*%
X203708000Y-88900000D02*
X200406000Y-88900000D01*
X200406000Y-88900000D02*
X199136000Y-90170000D01*
X178054000Y-88900000D02*
X171958000Y-88900000D01*
X179324000Y-90170000D02*
X178054000Y-88900000D01*
X199136000Y-90170000D02*
X179324000Y-90170000D01*
%TO.N,_D3*%
X199136000Y-92710000D02*
X200406000Y-91440000D01*
X178054000Y-91440000D02*
X179324000Y-92710000D01*
X179324000Y-92710000D02*
X199136000Y-92710000D01*
X200406000Y-91440000D02*
X203708000Y-91440000D01*
X171958000Y-91440000D02*
X178054000Y-91440000D01*
%TO.N,_D4*%
X200406000Y-93980000D02*
X199136000Y-95250000D01*
X179324000Y-95250000D02*
X178054000Y-93980000D01*
X203708000Y-93980000D02*
X200406000Y-93980000D01*
X199136000Y-95250000D02*
X179324000Y-95250000D01*
X178054000Y-93980000D02*
X171958000Y-93980000D01*
%TO.N,_D5*%
X178054000Y-96520000D02*
X179324000Y-97790000D01*
X199136000Y-97790000D02*
X200406000Y-96520000D01*
X171958000Y-96520000D02*
X178054000Y-96520000D01*
X179324000Y-97790000D02*
X199136000Y-97790000D01*
X200406000Y-96520000D02*
X203708000Y-96520000D01*
%TO.N,_D6*%
X199136000Y-100330000D02*
X179324000Y-100330000D01*
X203708000Y-99060000D02*
X200406000Y-99060000D01*
X200406000Y-99060000D02*
X199136000Y-100330000D01*
X179324000Y-100330000D02*
X178054000Y-99060000D01*
X178054000Y-99060000D02*
X171958000Y-99060000D01*
%TO.N,_D7*%
X199136000Y-102870000D02*
X179324000Y-102870000D01*
X179324000Y-102870000D02*
X178054000Y-101600000D01*
X200406000Y-101600000D02*
X199136000Y-102870000D01*
X203708000Y-101600000D02*
X200406000Y-101600000D01*
X178054000Y-101600000D02*
X171958000Y-101600000D01*
%TO.N,_DUMP*%
X198882000Y-45720000D02*
X200152000Y-46990000D01*
X171958000Y-45720000D02*
X198882000Y-45720000D01*
X200152000Y-46990000D02*
X203708000Y-46990000D01*
%TO.N,_AUDIO1_0*%
X147320000Y-34036000D02*
X147320000Y-31242000D01*
X156210000Y-30480000D02*
X157988000Y-28702000D01*
X147320000Y-31242000D02*
X148082000Y-30480000D01*
X148082000Y-30480000D02*
X156210000Y-30480000D01*
%TO.N,_AUDIO1_1*%
X159258000Y-46990000D02*
X151638000Y-46990000D01*
X148082000Y-46228000D02*
X150876000Y-46228000D01*
X147320000Y-46990000D02*
X148082000Y-46228000D01*
X151638000Y-46990000D02*
X150876000Y-46228000D01*
X147320000Y-47752000D02*
X147320000Y-46990000D01*
%TO.N,_AUDIO1_2*%
X141224000Y-29718000D02*
X154940000Y-29718000D01*
X159258000Y-27432000D02*
X160528000Y-28702000D01*
X157226000Y-27432000D02*
X159258000Y-27432000D01*
X140462000Y-30480000D02*
X141224000Y-29718000D01*
X140462000Y-34036000D02*
X140462000Y-30480000D01*
X154940000Y-29718000D02*
X157226000Y-27432000D01*
%TO.N,_AUDIO1_3*%
X151892000Y-44450000D02*
X157988000Y-44450000D01*
X140462000Y-47752000D02*
X140462000Y-46228000D01*
X141224000Y-45466000D02*
X150876000Y-45466000D01*
X140462000Y-46228000D02*
X141224000Y-45466000D01*
X150876000Y-45466000D02*
X151892000Y-44450000D01*
%TO.N,_AUDIO1_4*%
X156972000Y-26924000D02*
X161290000Y-26924000D01*
X154940000Y-28956000D02*
X156972000Y-26924000D01*
X133604000Y-29718000D02*
X134366000Y-28956000D01*
X134366000Y-28956000D02*
X154940000Y-28956000D01*
X133604000Y-34036000D02*
X133604000Y-29718000D01*
X161290000Y-26924000D02*
X163068000Y-28702000D01*
%TO.N,_AUDIO1_5*%
X130556000Y-28956000D02*
X130556000Y-44704000D01*
X154940000Y-28194000D02*
X131318000Y-28194000D01*
X163322000Y-26416000D02*
X156718000Y-26416000D01*
X130556000Y-44704000D02*
X131572000Y-45720000D01*
X132588000Y-45720000D02*
X133604000Y-46736000D01*
X131318000Y-28194000D02*
X130556000Y-28956000D01*
X133604000Y-46736000D02*
X133604000Y-47752000D01*
X131572000Y-45720000D02*
X132588000Y-45720000D01*
X165608000Y-28702000D02*
X163322000Y-26416000D01*
X156718000Y-26416000D02*
X154940000Y-28194000D01*
%TO.N,_AUDIO3_0*%
X153416000Y-69850000D02*
X148082000Y-69850000D01*
X154686000Y-68580000D02*
X153416000Y-69850000D01*
X148082000Y-69850000D02*
X147320000Y-70612000D01*
X156718000Y-68580000D02*
X154686000Y-68580000D01*
X147320000Y-70612000D02*
X147320000Y-71628000D01*
%TO.N,_AUDIO3_1*%
X149352000Y-84074000D02*
X154686000Y-78740000D01*
X147320000Y-85344000D02*
X147320000Y-84582000D01*
X147828000Y-84074000D02*
X149352000Y-84074000D01*
X147320000Y-84582000D02*
X147828000Y-84074000D01*
X154686000Y-78740000D02*
X156718000Y-78740000D01*
%TO.N,_AUDIO3_2*%
X152400000Y-73406000D02*
X141478000Y-73406000D01*
X156718000Y-71120000D02*
X154686000Y-71120000D01*
X154686000Y-71120000D02*
X152400000Y-73406000D01*
X140462000Y-72390000D02*
X140462000Y-71628000D01*
X141478000Y-73406000D02*
X140462000Y-72390000D01*
%TO.N,_AUDIO3_3*%
X140462000Y-85344000D02*
X140462000Y-85569000D01*
X149606000Y-82804000D02*
X156210000Y-76200000D01*
X141859000Y-82804000D02*
X149606000Y-82804000D01*
X140462000Y-85344000D02*
X140462000Y-84201000D01*
X156210000Y-76200000D02*
X156718000Y-76200000D01*
X140462000Y-84201000D02*
X141859000Y-82804000D01*
%TO.N,_AUDIO3_4*%
X135128000Y-74168000D02*
X154178000Y-74168000D01*
X133604000Y-71628000D02*
X133604000Y-72644000D01*
X133604000Y-72644000D02*
X135128000Y-74168000D01*
X154686000Y-73660000D02*
X156718000Y-73660000D01*
X154178000Y-74168000D02*
X154686000Y-73660000D01*
%TO.N,_AUDIO3_5*%
X152908000Y-88138000D02*
X135128000Y-88138000D01*
X154686000Y-86360000D02*
X152908000Y-88138000D01*
X133604000Y-86614000D02*
X133604000Y-85344000D01*
X135128000Y-88138000D02*
X133604000Y-86614000D01*
X156718000Y-86360000D02*
X154686000Y-86360000D01*
%TO.N,_AUDIO4_5*%
X154686000Y-96520000D02*
X149606000Y-101600000D01*
X149606000Y-101600000D02*
X134874000Y-101600000D01*
X133604000Y-102870000D02*
X133604000Y-104140000D01*
X156718000Y-96520000D02*
X154686000Y-96520000D01*
X134874000Y-101600000D02*
X133604000Y-102870000D01*
%TO.N,_AUDIO4_4*%
X135235000Y-92710000D02*
X133604000Y-91079000D01*
X156718000Y-93980000D02*
X154686000Y-93980000D01*
X153416000Y-92710000D02*
X135235000Y-92710000D01*
X154686000Y-93980000D02*
X153416000Y-92710000D01*
X133604000Y-91079000D02*
X133604000Y-90424000D01*
%TO.N,_AUDIO4_3*%
X154686000Y-99060000D02*
X151638000Y-102108000D01*
X140462000Y-102870000D02*
X141224000Y-102108000D01*
X156718000Y-99060000D02*
X154686000Y-99060000D01*
X141224000Y-102108000D02*
X151638000Y-102108000D01*
X140462000Y-104140000D02*
X140462000Y-102870000D01*
%TO.N,_AUDIO4_2*%
X154686000Y-91440000D02*
X156718000Y-91440000D01*
X140462000Y-91079000D02*
X141585000Y-92202000D01*
X141585000Y-92202000D02*
X153924000Y-92202000D01*
X140462000Y-90424000D02*
X140462000Y-91079000D01*
X153924000Y-92202000D02*
X154686000Y-91440000D01*
%TO.N,_AUDIO4_1*%
X148082000Y-102616000D02*
X153670000Y-102616000D01*
X154686000Y-101600000D02*
X156718000Y-101600000D01*
X147320000Y-103378000D02*
X148082000Y-102616000D01*
X147320000Y-104140000D02*
X147320000Y-103378000D01*
X153670000Y-102616000D02*
X154686000Y-101600000D01*
%TO.N,_AUDIO4_0*%
X147828000Y-91694000D02*
X147320000Y-91186000D01*
X151892000Y-91694000D02*
X147828000Y-91694000D01*
X147320000Y-91186000D02*
X147320000Y-90424000D01*
X154686000Y-88900000D02*
X151892000Y-91694000D01*
X156718000Y-88900000D02*
X154686000Y-88900000D01*
%TO.N,_AUDIO2_5*%
X133604000Y-65786000D02*
X133604000Y-66548000D01*
X135128000Y-64262000D02*
X133604000Y-65786000D01*
X156718000Y-60960000D02*
X154686000Y-60960000D01*
X151384000Y-64262000D02*
X135128000Y-64262000D01*
X154686000Y-60960000D02*
X151384000Y-64262000D01*
%TO.N,_AUDIO2_4*%
X133604000Y-50292000D02*
X133604000Y-52832000D01*
X160528000Y-49530000D02*
X134366000Y-49530000D01*
X134366000Y-49530000D02*
X133604000Y-50292000D01*
%TO.N,_AUDIO2_3*%
X141224000Y-65024000D02*
X140462000Y-65786000D01*
X153162000Y-65024000D02*
X141224000Y-65024000D01*
X140462000Y-65786000D02*
X140462000Y-66548000D01*
X154686000Y-63500000D02*
X153162000Y-65024000D01*
X156718000Y-63500000D02*
X154686000Y-63500000D01*
%TO.N,_AUDIO2_2*%
X140462000Y-51054000D02*
X141224000Y-50292000D01*
X152654000Y-52070000D02*
X161798000Y-52070000D01*
X140462000Y-52832000D02*
X140462000Y-51054000D01*
X141224000Y-50292000D02*
X150876000Y-50292000D01*
X150876000Y-50292000D02*
X152654000Y-52070000D01*
%TO.N,_AUDIO2_1*%
X148082000Y-68072000D02*
X147320000Y-67310000D01*
X156718000Y-66040000D02*
X154686000Y-66040000D01*
X152654000Y-68072000D02*
X148082000Y-68072000D01*
X147320000Y-67310000D02*
X147320000Y-66548000D01*
X154686000Y-66040000D02*
X152654000Y-68072000D01*
%TO.N,_AUDIO2_0*%
X156718000Y-58420000D02*
X154686000Y-58420000D01*
X150876000Y-54610000D02*
X148336000Y-54610000D01*
X154686000Y-58420000D02*
X150876000Y-54610000D01*
X148336000Y-54610000D02*
X147320000Y-53594000D01*
X147320000Y-53594000D02*
X147320000Y-52832000D01*
%TO.N,_~{CS4}*%
X186944000Y-91440000D02*
X179324000Y-91440000D01*
X178054000Y-90170000D02*
X174244000Y-90170000D01*
X179324000Y-91440000D02*
X178054000Y-90170000D01*
%TO.N,_~{CS3}*%
X178054000Y-76200000D02*
X171958000Y-76200000D01*
X179324000Y-77470000D02*
X178054000Y-76200000D01*
X188468000Y-77470000D02*
X179324000Y-77470000D01*
%TO.N,_~{CS2}*%
X179324000Y-101600000D02*
X178054000Y-100330000D01*
X186944000Y-101600000D02*
X179324000Y-101600000D01*
X178054000Y-100330000D02*
X173482000Y-100330000D01*
%TO.N,_~{CS1}*%
X163322000Y-45720000D02*
X156718000Y-45720000D01*
X178054000Y-46990000D02*
X164592000Y-46990000D01*
X164592000Y-46990000D02*
X163322000Y-45720000D01*
X179324000Y-48260000D02*
X178054000Y-46990000D01*
X188468000Y-48260000D02*
X179324000Y-48260000D01*
X194564000Y-52070000D02*
X188468000Y-52070000D01*
%TO.N,~{_EN}*%
X211328000Y-83820000D02*
X210058000Y-82550000D01*
X210058000Y-82550000D02*
X209042000Y-82550000D01*
X182372000Y-73660000D02*
X171958000Y-73660000D01*
X209042000Y-82550000D02*
X182372000Y-82550000D01*
%TO.N,_A3*%
X156718000Y-48260000D02*
X170434000Y-48260000D01*
X170434000Y-52070000D02*
X186944000Y-52070000D01*
%TO.N,_A2*%
X169672000Y-57150000D02*
X186944000Y-57150000D01*
X156718000Y-50800000D02*
X169672000Y-50800000D01*
%TO.N,_A1*%
X170434000Y-53340000D02*
X156718000Y-53340000D01*
X186944000Y-62230000D02*
X170434000Y-62230000D01*
%TO.N,_A0*%
X167132000Y-55880000D02*
X169672000Y-58420000D01*
X169672000Y-67310000D02*
X186944000Y-67310000D01*
X156718000Y-55880000D02*
X167132000Y-55880000D01*
%TO.N,_PHI2*%
X171958000Y-48260000D02*
X178054000Y-48260000D01*
X186944000Y-96520000D02*
X183134000Y-96520000D01*
X179324000Y-49530000D02*
X183134000Y-49530000D01*
X178054000Y-48260000D02*
X179324000Y-49530000D01*
%TO.N,_R{slash}W*%
X171958000Y-71120000D02*
X191008000Y-71120000D01*
X194564000Y-57150000D02*
X191008000Y-57150000D01*
X202692000Y-71882000D02*
X201930000Y-71120000D01*
X201930000Y-71120000D02*
X191008000Y-71120000D01*
%TO.N,_P0*%
X200152000Y-52070000D02*
X203708000Y-52070000D01*
X198882000Y-53340000D02*
X200152000Y-52070000D01*
X198882000Y-53340000D02*
X171958000Y-53340000D01*
%TO.N,_P1*%
X198882000Y-50800000D02*
X200152000Y-49530000D01*
X171958000Y-50800000D02*
X198882000Y-50800000D01*
X200152000Y-49530000D02*
X203708000Y-49530000D01*
%TO.N,_P3*%
X171958000Y-55880000D02*
X198882000Y-55880000D01*
X198882000Y-55880000D02*
X200152000Y-54610000D01*
X200152000Y-54610000D02*
X203708000Y-54610000D01*
%TO.N,_P2*%
X200152000Y-57150000D02*
X203708000Y-57150000D01*
X198882000Y-58420000D02*
X200152000Y-57150000D01*
X198882000Y-58420000D02*
X171958000Y-58420000D01*
%TO.N,_P4*%
X198882000Y-63500000D02*
X200152000Y-62230000D01*
X200152000Y-62230000D02*
X203708000Y-62230000D01*
X198882000Y-63500000D02*
X171958000Y-63500000D01*
%TO.N,_P5*%
X200152000Y-59690000D02*
X203708000Y-59690000D01*
X171958000Y-60960000D02*
X198882000Y-60960000D01*
X198882000Y-60960000D02*
X200152000Y-59690000D01*
%TO.N,_P6*%
X198882000Y-68580000D02*
X200152000Y-67310000D01*
X200152000Y-67310000D02*
X203708000Y-67310000D01*
X198882000Y-68580000D02*
X171958000Y-68580000D01*
%TO.N,_P7*%
X200152000Y-64770000D02*
X203708000Y-64770000D01*
X171958000Y-66040000D02*
X198882000Y-66040000D01*
X198882000Y-66040000D02*
X200152000Y-64770000D01*
%TD*%
M02*
