M48
; DRILL file {KiCad 7.0.9} date Thu Nov 14 04:28:20 2024
; FORMAT={-:-/ absolute / inch / decimal}
; #@! TF.CreationDate,2024-11-14T04:28:20-07:00
; #@! TF.GenerationSoftware,Kicad,Pcbnew,7.0.9
; #@! TF.FileFunction,Plated,1,2,PTH
FMAT,2
INCH
; #@! TA.AperFunction,Plated,PTH,ViaDrill
T1C0.0157
; #@! TA.AperFunction,Plated,PTH,ComponentDrill
T2C0.0295
; #@! TA.AperFunction,Plated,PTH,ComponentDrill
T3C0.0315
; #@! TA.AperFunction,Plated,PTH,ComponentDrill
T4C0.0400
%
G90
G05
T1
X5.99Y-1.41
X5.99Y-4.18
X6.22Y-1.75
X6.27Y-1.85
X6.32Y-1.95
X6.37Y-2.05
X6.5637Y-4.18
X6.62Y-1.41
X6.62Y-1.52
X6.62Y-4.25
X6.65Y-2.35
X6.65Y-4.22
X6.68Y-2.0
X6.68Y-2.25
X6.68Y-2.3
X6.68Y-2.65
X6.68Y-2.95
X6.68Y-4.19
X6.71Y-1.9
X6.71Y-2.05
X6.71Y-2.1
X6.71Y-2.45
X6.71Y-3.75
X6.71Y-4.16
X6.83Y-3.95
X6.86Y-3.55
X7.18Y-2.9
X7.18Y-3.25
X7.21Y-1.95
X7.21Y-3.8
X7.27Y-1.41
X7.42Y-1.9
X7.42Y-2.05
X7.42Y-3.05
X7.45Y-1.77
X7.45Y-2.15
X7.52Y-2.25
X7.52Y-2.8
X7.66Y-1.73
X7.66Y-3.07
X7.73Y-3.15
X7.73Y-4.0
X7.83Y-1.95
X7.9263Y-2.0
X7.93Y-1.41
X7.98Y-2.83
X8.14Y-1.79
X8.14Y-2.2
X8.17Y-1.9
X8.17Y-2.1
X8.17Y-2.14
X8.17Y-2.3
X8.32Y-1.73
X8.32Y-3.07
X8.52Y-3.4
X8.55Y-3.5
X8.58Y-3.6
X8.61Y-3.7
X8.64Y-3.8
X8.67Y-3.9
X8.7Y-4.0
X8.73Y-4.1
X9.31Y-4.22
X9.34Y-4.19
X9.39Y-4.16
X9.44Y-4.25
T2
X5.21Y-1.34
X5.21Y-1.88
X5.21Y-2.08
X5.21Y-2.62
X5.21Y-2.82
X5.21Y-3.36
X5.21Y-3.56
X5.21Y-4.1
X5.26Y-1.34
X5.26Y-1.88
X5.26Y-2.08
X5.26Y-2.62
X5.26Y-2.82
X5.26Y-3.36
X5.26Y-3.56
X5.26Y-4.1
X5.31Y-1.34
X5.31Y-1.88
X5.31Y-2.08
X5.31Y-2.62
X5.31Y-2.82
X5.31Y-3.36
X5.31Y-3.56
X5.31Y-4.1
X5.48Y-1.34
X5.48Y-1.88
X5.48Y-2.08
X5.48Y-2.62
X5.48Y-2.82
X5.48Y-3.36
X5.48Y-3.56
X5.48Y-4.1
X5.53Y-1.34
X5.53Y-1.88
X5.53Y-2.08
X5.53Y-2.62
X5.53Y-2.82
X5.53Y-3.36
X5.53Y-3.56
X5.53Y-4.1
X5.58Y-1.34
X5.58Y-1.88
X5.58Y-2.08
X5.58Y-2.62
X5.58Y-2.82
X5.58Y-3.36
X5.58Y-3.56
X5.58Y-4.1
X5.75Y-1.34
X5.75Y-1.88
X5.75Y-2.08
X5.75Y-2.62
X5.75Y-2.82
X5.75Y-3.36
X5.75Y-3.56
X5.75Y-4.1
X5.8Y-1.34
X5.8Y-1.88
X5.8Y-2.08
X5.8Y-2.62
X5.8Y-2.82
X5.8Y-3.36
X5.8Y-3.56
X5.8Y-4.1
X5.85Y-1.34
X5.85Y-1.88
X5.85Y-2.08
X5.85Y-2.62
X5.85Y-2.82
X5.85Y-3.36
X5.85Y-3.56
X5.85Y-4.1
X9.29Y-1.41
X9.34Y-1.41
X9.39Y-1.41
T3
X5.19Y-1.5
X5.19Y-1.7
X5.19Y-2.24
X5.19Y-2.44
X5.19Y-2.98
X5.19Y-3.18
X5.19Y-3.7211
X5.19Y-3.9211
X5.33Y-1.52
X5.33Y-1.72
X5.33Y-2.26
X5.33Y-2.46
X5.33Y-2.9989
X5.33Y-3.1989
X5.33Y-3.7389
X5.33Y-3.9389
X5.46Y-1.5
X5.46Y-1.7
X5.46Y-2.24
X5.46Y-2.44
X5.46Y-2.98
X5.46Y-3.18
X5.46Y-3.7211
X5.46Y-3.9211
X5.6Y-1.52
X5.6Y-1.72
X5.6Y-2.26
X5.6Y-2.46
X5.6Y-3.0
X5.6Y-3.2
X5.6Y-3.74
X5.6Y-3.94
X5.73Y-1.5011
X5.73Y-1.7011
X5.73Y-2.2411
X5.73Y-2.4411
X5.73Y-2.98
X5.73Y-3.18
X5.73Y-3.72
X5.73Y-3.92
X5.87Y-1.52
X5.87Y-1.72
X5.87Y-2.26
X5.87Y-2.46
X5.87Y-3.0
X5.87Y-3.2
X5.87Y-3.74
X5.87Y-3.94
X6.17Y-4.31
X6.5637Y-4.31
X7.2663Y-1.62
X7.2663Y-2.96
X7.66Y-1.62
X7.66Y-2.96
X7.9263Y-1.62
X7.9263Y-2.96
X8.32Y-1.62
X8.32Y-2.96
X8.9963Y-1.62
X8.9963Y-1.86
X9.0Y-1.41
X9.0787Y-1.41
X9.39Y-1.62
X9.39Y-1.86
T4
X6.17Y-1.8
X6.17Y-1.9
X6.17Y-2.0
X6.17Y-2.1
X6.17Y-2.2
X6.17Y-2.3
X6.17Y-2.4
X6.17Y-2.5
X6.17Y-2.6
X6.17Y-2.7
X6.17Y-2.8
X6.17Y-2.9
X6.17Y-3.0
X6.17Y-3.1
X6.17Y-3.2
X6.17Y-3.3
X6.17Y-3.4
X6.17Y-3.5
X6.17Y-3.6
X6.17Y-3.7
X6.17Y-3.8
X6.17Y-3.9
X6.17Y-4.0
X6.17Y-4.1
X6.22Y-1.13
X6.22Y-1.23
X6.32Y-1.13
X6.32Y-1.23
X6.42Y-1.13
X6.42Y-1.23
X6.52Y-1.13
X6.52Y-1.23
X6.62Y-1.13
X6.62Y-1.23
X6.72Y-1.13
X6.72Y-1.23
X6.77Y-1.8
X6.77Y-1.9
X6.77Y-2.0
X6.77Y-2.1
X6.77Y-2.2
X6.77Y-2.3
X6.77Y-2.4
X6.77Y-2.5
X6.77Y-2.6
X6.77Y-2.7
X6.77Y-2.8
X6.77Y-2.9
X6.77Y-3.0
X6.77Y-3.1
X6.77Y-3.2
X6.77Y-3.3
X6.77Y-3.4
X6.77Y-3.5
X6.77Y-3.6
X6.77Y-3.7
X6.77Y-3.8
X6.77Y-3.9
X6.77Y-4.0
X6.77Y-4.1
X7.36Y-1.85
X7.36Y-1.95
X7.36Y-2.05
X7.36Y-2.15
X7.36Y-2.25
X7.36Y-2.35
X7.36Y-2.45
X7.36Y-2.55
X7.36Y-2.65
X7.36Y-2.75
X7.36Y-3.2
X7.36Y-3.3
X7.36Y-3.4
X7.36Y-3.5
X7.36Y-3.6
X7.36Y-3.7
X7.36Y-3.8
X7.36Y-3.9
X7.36Y-4.0
X7.36Y-4.1
X7.66Y-1.8516
X7.66Y-1.95
X7.66Y-2.05
X7.66Y-2.15
X7.66Y-2.25
X7.66Y-2.35
X7.66Y-2.45
X7.66Y-2.55
X7.66Y-2.65
X7.66Y-2.75
X7.66Y-3.2016
X7.66Y-3.3
X7.66Y-3.4
X7.66Y-3.5
X7.66Y-3.6
X7.66Y-3.7
X7.66Y-3.8
X7.66Y-3.9
X7.66Y-4.0
X7.66Y-4.1
X8.02Y-1.85
X8.02Y-1.95
X8.02Y-2.05
X8.02Y-2.15
X8.02Y-2.25
X8.02Y-2.35
X8.02Y-2.45
X8.02Y-2.55
X8.02Y-2.65
X8.02Y-2.75
X8.02Y-3.2
X8.02Y-3.3
X8.02Y-3.4
X8.02Y-3.5
X8.02Y-3.6
X8.02Y-3.7
X8.02Y-3.8
X8.02Y-3.9
X8.02Y-4.0
X8.02Y-4.1
X8.32Y-1.8516
X8.32Y-1.95
X8.32Y-2.05
X8.32Y-2.15
X8.32Y-2.25
X8.32Y-2.35
X8.32Y-2.45
X8.32Y-2.55
X8.32Y-2.65
X8.32Y-2.75
X8.32Y-3.2016
X8.32Y-3.3
X8.32Y-3.4
X8.32Y-3.5
X8.32Y-3.6
X8.32Y-3.7
X8.32Y-3.8
X8.32Y-3.9
X8.32Y-4.0
X8.32Y-4.1
X8.79Y-2.1
X8.79Y-2.2
X8.79Y-2.3
X8.79Y-2.4
X8.79Y-2.5
X8.79Y-2.6
X8.79Y-2.7
X8.79Y-2.8
X8.79Y-2.9
X8.79Y-3.0
X8.79Y-3.1
X8.79Y-3.2
X8.79Y-3.3
X8.79Y-3.4
X8.79Y-3.5
X8.79Y-3.6
X8.79Y-3.7
X8.79Y-3.8
X8.79Y-3.9
X8.79Y-4.0
X9.39Y-2.1
X9.39Y-2.2
X9.39Y-2.3
X9.39Y-2.4
X9.39Y-2.5
X9.39Y-2.6
X9.39Y-2.7
X9.39Y-2.8
X9.39Y-2.9
X9.39Y-3.0
X9.39Y-3.1
X9.39Y-3.2
X9.39Y-3.3
X9.39Y-3.4
X9.39Y-3.5
X9.39Y-3.6
X9.39Y-3.7
X9.39Y-3.8
X9.39Y-3.9
X9.39Y-4.0
T0
M30
