%TF.GenerationSoftware,KiCad,Pcbnew,7.0.9*%
%TF.CreationDate,2024-11-14T04:28:15-07:00*%
%TF.ProjectId,Through_Hole_Quad_Xilinx,5468726f-7567-4685-9f48-6f6c655f5175,rev?*%
%TF.SameCoordinates,Original*%
%TF.FileFunction,Soldermask,Top*%
%TF.FilePolarity,Negative*%
%FSLAX46Y46*%
G04 Gerber Fmt 4.6, Leading zero omitted, Abs format (unit mm)*
G04 Created by KiCad (PCBNEW 7.0.9) date 2024-11-14 04:28:15*
%MOMM*%
%LPD*%
G01*
G04 APERTURE LIST*
%ADD10R,1.050000X1.500000*%
%ADD11O,1.050000X1.500000*%
%ADD12C,1.600000*%
%ADD13O,1.600000X1.600000*%
%ADD14R,1.600000X1.600000*%
%ADD15C,1.524000*%
G04 APERTURE END LIST*
D10*
%TO.C,Q13*%
X132334000Y-85344000D03*
D11*
X133604000Y-85344000D03*
X134874000Y-85344000D03*
%TD*%
D10*
%TO.C,Q14*%
X134874000Y-71628000D03*
D11*
X133604000Y-71628000D03*
X132334000Y-71628000D03*
%TD*%
D12*
%TO.C,R13*%
X135382000Y-76171000D03*
D13*
X135382000Y-81251000D03*
%TD*%
D12*
%TO.C,C3*%
X194564000Y-41148000D03*
D13*
X184564000Y-41148000D03*
%TD*%
D12*
%TO.C,R7*%
X135382000Y-57404000D03*
D13*
X135382000Y-62484000D03*
%TD*%
D10*
%TO.C,Q10*%
X141732000Y-52832000D03*
D11*
X140462000Y-52832000D03*
X139192000Y-52832000D03*
%TD*%
D12*
%TO.C,R2*%
X131826000Y-43180000D03*
D13*
X131826000Y-38100000D03*
%TD*%
D14*
%TO.C,C2*%
X230600000Y-35814000D03*
D12*
X228600000Y-35814000D03*
%TD*%
%TO.C,C1*%
X238506000Y-41148000D03*
D13*
X228506000Y-41148000D03*
%TD*%
D10*
%TO.C,Q6*%
X148590000Y-34036000D03*
D11*
X147320000Y-34036000D03*
X146050000Y-34036000D03*
%TD*%
D10*
%TO.C,U1*%
X235966000Y-35814000D03*
D11*
X237236000Y-35814000D03*
X238506000Y-35814000D03*
%TD*%
D10*
%TO.C,Q20*%
X134874000Y-90424000D03*
D11*
X133604000Y-90424000D03*
X132334000Y-90424000D03*
%TD*%
D10*
%TO.C,Q11*%
X146050000Y-66548000D03*
D11*
X147320000Y-66548000D03*
X148590000Y-66548000D03*
%TD*%
D10*
%TO.C,Q18*%
X148590000Y-71628000D03*
D11*
X147320000Y-71628000D03*
X146050000Y-71628000D03*
%TD*%
D12*
%TO.C,C6*%
X194564000Y-75184000D03*
D13*
X184564000Y-75184000D03*
%TD*%
D12*
%TO.C,R6*%
X145542000Y-43209000D03*
D13*
X145542000Y-38129000D03*
%TD*%
D10*
%TO.C,Q9*%
X139192000Y-66548000D03*
D11*
X140462000Y-66548000D03*
X141732000Y-66548000D03*
%TD*%
D12*
%TO.C,R4*%
X138684000Y-43180000D03*
D13*
X138684000Y-38100000D03*
%TD*%
D12*
%TO.C,R18*%
X145542000Y-80772000D03*
D13*
X145542000Y-75692000D03*
%TD*%
D10*
%TO.C,Q1*%
X132334000Y-47752000D03*
D11*
X133604000Y-47752000D03*
X134874000Y-47752000D03*
%TD*%
D10*
%TO.C,Q8*%
X134874000Y-52832000D03*
D11*
X133604000Y-52832000D03*
X132334000Y-52832000D03*
%TD*%
D12*
%TO.C,R23*%
X149098000Y-94996000D03*
D13*
X149098000Y-100076000D03*
%TD*%
D12*
%TO.C,R12*%
X145542000Y-62005000D03*
D13*
X145542000Y-56925000D03*
%TD*%
D10*
%TO.C,Q22*%
X141732000Y-90424000D03*
D11*
X140462000Y-90424000D03*
X139192000Y-90424000D03*
%TD*%
D10*
%TO.C,Q3*%
X139192000Y-47752000D03*
D11*
X140462000Y-47752000D03*
X141732000Y-47752000D03*
%TD*%
D12*
%TO.C,R11*%
X149098000Y-57404000D03*
D13*
X149098000Y-62484000D03*
%TD*%
D15*
%TO.C,U2*%
X203708000Y-81280000D03*
X203708000Y-83820000D03*
X203708000Y-86360000D03*
X203708000Y-88900000D03*
X203708000Y-91440000D03*
X203708000Y-93980000D03*
X203708000Y-96520000D03*
X203708000Y-99060000D03*
X203708000Y-101600000D03*
X203708000Y-104140000D03*
X211328000Y-104140000D03*
X211328000Y-101600000D03*
X211328000Y-99060000D03*
X211328000Y-96520000D03*
X211328000Y-93980000D03*
X211328000Y-91440000D03*
X211328000Y-88900000D03*
X211328000Y-86360000D03*
X211328000Y-83820000D03*
X211328000Y-81320000D03*
%TD*%
D12*
%TO.C,C5*%
X211328000Y-75184000D03*
D13*
X201328000Y-75184000D03*
%TD*%
D10*
%TO.C,Q17*%
X146050000Y-85344000D03*
D11*
X147320000Y-85344000D03*
X148590000Y-85344000D03*
%TD*%
D15*
%TO.C,U5*%
X186944000Y-81280000D03*
X186944000Y-83820000D03*
X186944000Y-86360000D03*
X186944000Y-88900000D03*
X186944000Y-91440000D03*
X186944000Y-93980000D03*
X186944000Y-96520000D03*
X186944000Y-99060000D03*
X186944000Y-101600000D03*
X186944000Y-104140000D03*
X194564000Y-104140000D03*
X194564000Y-101600000D03*
X194564000Y-99060000D03*
X194564000Y-96520000D03*
X194564000Y-93980000D03*
X194564000Y-91440000D03*
X194564000Y-88900000D03*
X194564000Y-86360000D03*
X194564000Y-83820000D03*
X194564000Y-81320000D03*
%TD*%
D12*
%TO.C,R14*%
X131826000Y-80772000D03*
D13*
X131826000Y-75692000D03*
%TD*%
D12*
%TO.C,R16*%
X138684000Y-80772000D03*
D13*
X138684000Y-75692000D03*
%TD*%
D12*
%TO.C,C8*%
X156718000Y-109474000D03*
D13*
X166718000Y-109474000D03*
%TD*%
D12*
%TO.C,R10*%
X138684000Y-61976000D03*
D13*
X138684000Y-56896000D03*
%TD*%
D12*
%TO.C,C4*%
X211328000Y-41148000D03*
D13*
X201328000Y-41148000D03*
%TD*%
D12*
%TO.C,R17*%
X149098000Y-76200000D03*
D13*
X149098000Y-81280000D03*
%TD*%
D12*
%TO.C,R8*%
X131826000Y-61976000D03*
D13*
X131826000Y-56896000D03*
%TD*%
D12*
%TO.C,C7*%
X238506000Y-47244000D03*
D13*
X228506000Y-47244000D03*
%TD*%
D10*
%TO.C,Q23*%
X146050000Y-104140000D03*
D11*
X147320000Y-104140000D03*
X148590000Y-104140000D03*
%TD*%
D12*
%TO.C,R5*%
X149098000Y-38608000D03*
D13*
X149098000Y-43688000D03*
%TD*%
D12*
%TO.C,R1*%
X135382000Y-38608000D03*
D13*
X135382000Y-43688000D03*
%TD*%
D10*
%TO.C,Q5*%
X146050000Y-47752000D03*
D11*
X147320000Y-47752000D03*
X148590000Y-47752000D03*
%TD*%
D10*
%TO.C,Q21*%
X139192000Y-104140000D03*
D11*
X140462000Y-104140000D03*
X141732000Y-104140000D03*
%TD*%
D10*
%TO.C,Q19*%
X132334000Y-104140000D03*
D11*
X133604000Y-104140000D03*
X134874000Y-104140000D03*
%TD*%
D15*
%TO.C,J2*%
X156718000Y-45720000D03*
X156718000Y-48260000D03*
X156718000Y-50800000D03*
X156718000Y-53340000D03*
X156718000Y-55880000D03*
X156718000Y-58420000D03*
X156718000Y-60960000D03*
X156718000Y-63500000D03*
X156718000Y-66040000D03*
X156718000Y-68580000D03*
X156718000Y-71120000D03*
X156718000Y-73660000D03*
X156718000Y-76200000D03*
X156718000Y-78740000D03*
X156718000Y-81280000D03*
X156718000Y-83820000D03*
X156718000Y-86360000D03*
X156718000Y-88900000D03*
X156718000Y-91440000D03*
X156718000Y-93980000D03*
X156718000Y-96520000D03*
X156718000Y-99060000D03*
X156718000Y-101600000D03*
X156718000Y-104140000D03*
X171958000Y-104140000D03*
X171958000Y-101600000D03*
X171958000Y-99060000D03*
X171958000Y-96520000D03*
X171958000Y-93980000D03*
X171958000Y-91440000D03*
X171958000Y-88900000D03*
X171958000Y-86360000D03*
X171958000Y-83820000D03*
X171958000Y-81280000D03*
X171958000Y-78740000D03*
X171958000Y-76200000D03*
X171958000Y-73660000D03*
X171958000Y-71120000D03*
X171958000Y-68580000D03*
X171958000Y-66040000D03*
X171958000Y-63500000D03*
X171958000Y-60960000D03*
X171958000Y-58420000D03*
X171958000Y-55880000D03*
X171958000Y-53340000D03*
X171958000Y-50800000D03*
X171958000Y-48260000D03*
X171958000Y-45720000D03*
%TD*%
D10*
%TO.C,Q12*%
X148590000Y-52832000D03*
D11*
X147320000Y-52832000D03*
X146050000Y-52832000D03*
%TD*%
D12*
%TO.C,R15*%
X142240000Y-76200000D03*
D13*
X142240000Y-81280000D03*
%TD*%
D10*
%TO.C,Q2*%
X134874000Y-34036000D03*
D11*
X133604000Y-34036000D03*
X132334000Y-34036000D03*
%TD*%
D12*
%TO.C,R21*%
X142240000Y-94996000D03*
D13*
X142240000Y-100076000D03*
%TD*%
D15*
%TO.C,U3*%
X203708000Y-46990000D03*
X203708000Y-49530000D03*
X203708000Y-52070000D03*
X203708000Y-54610000D03*
X203708000Y-57150000D03*
X203708000Y-59690000D03*
X203708000Y-62230000D03*
X203708000Y-64770000D03*
X203708000Y-67310000D03*
X203708000Y-69850000D03*
X211328000Y-69850000D03*
X211328000Y-67310000D03*
X211328000Y-64770000D03*
X211328000Y-62230000D03*
X211328000Y-59690000D03*
X211328000Y-57150000D03*
X211328000Y-54610000D03*
X211328000Y-52070000D03*
X211328000Y-49530000D03*
X211328000Y-47030000D03*
%TD*%
%TO.C,J1*%
X223266000Y-53340000D03*
X223266000Y-55880000D03*
X223266000Y-58420000D03*
X223266000Y-60960000D03*
X223266000Y-63500000D03*
X223266000Y-66040000D03*
X223266000Y-68580000D03*
X223266000Y-71120000D03*
X223266000Y-73660000D03*
X223266000Y-76200000D03*
X223266000Y-78740000D03*
X223266000Y-81280000D03*
X223266000Y-83820000D03*
X223266000Y-86360000D03*
X223266000Y-88900000D03*
X223266000Y-91440000D03*
X223266000Y-93980000D03*
X223266000Y-96520000D03*
X223266000Y-99060000D03*
X223266000Y-101600000D03*
X238506000Y-101600000D03*
X238506000Y-99060000D03*
X238506000Y-96520000D03*
X238506000Y-93980000D03*
X238506000Y-91440000D03*
X238506000Y-88900000D03*
X238506000Y-86360000D03*
X238506000Y-83820000D03*
X238506000Y-81280000D03*
X238506000Y-78740000D03*
X238506000Y-76200000D03*
X238506000Y-73660000D03*
X238506000Y-71120000D03*
X238506000Y-68580000D03*
X238506000Y-66040000D03*
X238506000Y-63500000D03*
X238506000Y-60960000D03*
X238506000Y-58420000D03*
X238506000Y-55880000D03*
X238506000Y-53340000D03*
%TD*%
%TO.C,U4*%
X186944000Y-46990000D03*
X186944000Y-49530000D03*
X186944000Y-52070000D03*
X186944000Y-54610000D03*
X186944000Y-57150000D03*
X186944000Y-59690000D03*
X186944000Y-62230000D03*
X186944000Y-64770000D03*
X186944000Y-67310000D03*
X186944000Y-69850000D03*
X194564000Y-69850000D03*
X194564000Y-67310000D03*
X194564000Y-64770000D03*
X194564000Y-62230000D03*
X194564000Y-59690000D03*
X194564000Y-57150000D03*
X194564000Y-54610000D03*
X194564000Y-52070000D03*
X194564000Y-49530000D03*
X194564000Y-47030000D03*
%TD*%
D10*
%TO.C,Q15*%
X139192000Y-85344000D03*
D11*
X140462000Y-85344000D03*
X141732000Y-85344000D03*
%TD*%
D10*
%TO.C,Q7*%
X132334000Y-66548000D03*
D11*
X133604000Y-66548000D03*
X134874000Y-66548000D03*
%TD*%
D12*
%TO.C,R20*%
X131826000Y-99597000D03*
D13*
X131826000Y-94517000D03*
%TD*%
D12*
%TO.C,R3*%
X142240000Y-38608000D03*
D13*
X142240000Y-43688000D03*
%TD*%
D10*
%TO.C,Q16*%
X141732000Y-71628000D03*
D11*
X140462000Y-71628000D03*
X139192000Y-71628000D03*
%TD*%
D12*
%TO.C,R22*%
X138684000Y-99597000D03*
D13*
X138684000Y-94517000D03*
%TD*%
D10*
%TO.C,Q4*%
X141732000Y-34036000D03*
D11*
X140462000Y-34036000D03*
X139192000Y-34036000D03*
%TD*%
D12*
%TO.C,R19*%
X135382000Y-94967000D03*
D13*
X135382000Y-100047000D03*
%TD*%
D10*
%TO.C,Q24*%
X148590000Y-90424000D03*
D11*
X147320000Y-90424000D03*
X146050000Y-90424000D03*
%TD*%
D12*
%TO.C,R24*%
X145542000Y-99568000D03*
D13*
X145542000Y-94488000D03*
%TD*%
D15*
%TO.C,J3*%
X157988000Y-31242000D03*
X160528000Y-31242000D03*
X163068000Y-31242000D03*
X165608000Y-31242000D03*
X168148000Y-31242000D03*
X170688000Y-31242000D03*
X157988000Y-28702000D03*
X160528000Y-28702000D03*
X163068000Y-28702000D03*
X165608000Y-28702000D03*
X168148000Y-28702000D03*
X170688000Y-28702000D03*
%TD*%
D12*
%TO.C,R9*%
X142240000Y-57404000D03*
D13*
X142240000Y-62484000D03*
%TD*%
M02*
