M48
; DRILL file {KiCad 7.0.9} date Sun Oct 20 15:28:47 2024
; FORMAT={-:-/ absolute / inch / decimal}
; #@! TF.CreationDate,2024-10-20T15:28:47-06:00
; #@! TF.GenerationSoftware,Kicad,Pcbnew,7.0.9
; #@! TF.FileFunction,Plated,1,4,PTH
FMAT,2
INCH
; #@! TA.AperFunction,Plated,PTH,ViaDrill
T1C0.0079
; #@! TA.AperFunction,Plated,PTH,ViaDrill
T2C0.0157
; #@! TA.AperFunction,Plated,PTH,ComponentDrill
T3C0.0300
; #@! TA.AperFunction,Plated,PTH,ComponentDrill
T4C0.0394
; #@! TA.AperFunction,Plated,PTH,ComponentDrill
T5C0.0400
%
G90
G05
T1
X6.402Y-3.354
X6.402Y-3.452
X6.402Y-3.55
X6.402Y-3.654
X6.402Y-3.85
X6.404Y-3.75
X6.404Y-3.95
X6.404Y-4.05
X6.456Y-3.378
X6.456Y-3.478
X6.456Y-3.578
X6.456Y-3.678
X6.456Y-3.778
X6.456Y-3.878
X6.456Y-3.978
X6.456Y-4.078
X6.486Y-3.332
X6.486Y-4.3
X6.498Y-4.48
X6.5Y-2.756
X6.5Y-3.166
X6.514Y-4.038
X6.516Y-3.74
X6.518Y-3.458
X6.534Y-4.542
X6.536Y-3.228
X6.542Y-3.1
X6.544Y-4.416
X6.556Y-3.758
X6.556Y-4.058
X6.558Y-3.458
X6.578Y-4.59
X6.594Y-4.38
X6.602Y-3.442
X6.602Y-3.56
X6.602Y-3.742
X6.602Y-3.86
X6.602Y-4.042
X6.602Y-4.16
X6.63Y-3.298
X6.642Y-4.63
X6.662Y-4.362
X6.678Y-3.442
X6.678Y-3.742
X6.678Y-4.042
X6.68Y-3.56
X6.68Y-3.86
X6.68Y-4.16
X6.684Y-4.614
X6.714Y-3.07
X6.714Y-3.526
X6.714Y-3.826
X6.714Y-4.126
X6.714Y-4.21
X6.732Y-3.612
X6.732Y-3.664
X6.748Y-4.1
X6.77Y-3.208
X6.776Y-2.882
X6.776Y-4.504
X6.814Y-2.736
X6.814Y-2.776
X6.814Y-2.816
X6.82Y-3.442
X6.846Y-3.682
X6.852Y-3.1
X6.852Y-3.5
X6.866Y-3.62
X6.884Y-3.682
X7.144Y-3.038
X7.144Y-3.7
X7.162Y-3.238
X7.164Y-4.402
X7.174Y-2.814
X7.174Y-2.882
X7.176Y-2.94
X7.176Y-4.352
X7.198Y-3.3
X7.198Y-3.372
X7.198Y-3.502
X7.204Y-2.85
X7.204Y-2.91
X7.204Y-2.97
X7.208Y-3.174
X7.208Y-3.792
X7.208Y-3.994
X7.21Y-3.892
X7.212Y-4.092
X7.212Y-4.414
X7.22Y-4.288
X7.248Y-3.372
X7.248Y-3.428
X7.252Y-4.46
X7.268Y-4.528
X7.272Y-4.25
X7.296Y-3.372
X7.328Y-4.512
X7.338Y-4.234
X7.38Y-3.142
X7.408Y-3.064
X7.408Y-3.174
X7.408Y-3.3
X7.428Y-3.778
X7.428Y-3.888
X7.428Y-4.098
X7.452Y-3.092
X7.452Y-3.236
X7.452Y-4.376
X7.46Y-2.926
X7.461Y-2.804
X7.462Y-2.866
X7.464Y-4.2
X7.53Y-3.16
T2
X6.172Y-2.516
X6.204Y-2.468
X6.21Y-2.334
X6.21Y-2.41
T3
X6.3412Y-2.6997
X6.3412Y-2.7997
X6.3412Y-2.8997
X6.3412Y-2.9997
X6.3412Y-3.0997
X6.3412Y-3.1997
X6.3412Y-3.2997
X6.3412Y-3.3997
X6.3412Y-3.4997
X6.3412Y-3.5997
X6.3412Y-3.6997
X6.3412Y-3.7997
X6.3412Y-3.8997
X6.3412Y-3.9997
X6.3412Y-4.0997
X6.3412Y-4.1997
X6.3412Y-4.2997
X6.3412Y-4.3997
X6.3412Y-4.4997
X6.3412Y-4.5997
X6.9412Y-2.6997
X6.9412Y-2.7997
X6.9412Y-2.8997
X6.9412Y-2.9997
X6.9412Y-3.0997
X6.9412Y-3.1997
X6.9412Y-3.2997
X6.9412Y-3.3997
X6.9412Y-3.4997
X6.9412Y-3.5997
X6.9412Y-3.6997
X6.9412Y-3.7997
X6.9412Y-3.8997
X6.9412Y-3.9997
X6.9412Y-4.0997
X6.9412Y-4.1997
X6.9412Y-4.2997
X6.9412Y-4.3997
X6.9412Y-4.4997
X6.9412Y-4.5997
T4
X6.7Y-2.355
X6.8Y-2.355
X6.9Y-2.355
T5
X6.19Y-2.7
X6.19Y-2.8
X6.19Y-2.9
X6.19Y-3.0
X6.19Y-3.1
X6.19Y-3.2
X6.19Y-3.3
X6.19Y-3.4
X6.19Y-3.5
X6.19Y-3.6
X6.19Y-3.7
X6.19Y-3.8
X6.19Y-3.9
X6.19Y-4.0
X6.19Y-4.1
X6.19Y-4.2
X6.19Y-4.3
X6.19Y-4.4
X6.19Y-4.5
X6.19Y-4.6
X7.08Y-2.355
X7.09Y-2.7
X7.09Y-2.8
X7.09Y-2.9
X7.09Y-3.0
X7.09Y-3.1
X7.09Y-3.2
X7.09Y-3.3
X7.09Y-3.4
X7.09Y-3.5
X7.09Y-3.6
X7.09Y-3.7
X7.09Y-3.8
X7.09Y-3.9
X7.09Y-4.0
X7.09Y-4.1
X7.09Y-4.2
X7.09Y-4.3
X7.09Y-4.4
X7.09Y-4.5
X7.09Y-4.6
X7.505Y-2.355
X7.61Y-2.8
X7.61Y-2.9
X7.61Y-3.0
X7.61Y-3.1
X7.61Y-3.2
X7.61Y-3.3
X7.61Y-3.4
X7.61Y-3.5
X7.61Y-3.6
X7.61Y-3.7
X7.61Y-3.8
X7.61Y-3.9
X7.61Y-4.0
X7.61Y-4.1
X7.61Y-4.2
X7.61Y-4.3
X7.61Y-4.4
X7.61Y-4.5
X7.61Y-4.67
X7.71Y-2.8
X7.71Y-2.9
X7.71Y-3.0
X7.71Y-3.1
X7.71Y-3.2
X7.71Y-3.3
X7.71Y-3.4
X7.71Y-3.5
X7.71Y-3.6
X7.71Y-3.7
X7.71Y-3.8
X7.71Y-3.9
X7.71Y-4.0
X7.71Y-4.1
X7.71Y-4.2
X7.71Y-4.3
X7.71Y-4.4
X7.71Y-4.5
X7.81Y-2.8
X7.81Y-2.9
X7.81Y-3.0
X7.81Y-3.1
X7.81Y-3.2
X7.81Y-3.3
X7.81Y-3.4
X7.81Y-3.5
X7.81Y-3.6
X7.81Y-3.7
X7.81Y-3.8
X7.81Y-3.9
X7.81Y-4.0
X7.81Y-4.1
X7.81Y-4.2
X7.81Y-4.3
X7.81Y-4.4
X7.81Y-4.5
X7.91Y-2.8
X7.91Y-2.9
X7.91Y-3.0
X7.91Y-3.1
X7.91Y-3.2
X7.91Y-3.3
X7.91Y-3.4
X7.91Y-3.5
X7.91Y-3.6
X7.91Y-3.7
X7.91Y-3.8
X7.91Y-3.9
X7.91Y-4.0
X7.91Y-4.1
X7.91Y-4.2
X7.91Y-4.3
X7.91Y-4.4
X7.91Y-4.5
X7.91Y-4.67
X7.96Y-2.355
T0
M30
