%TF.GenerationSoftware,KiCad,Pcbnew,7.0.9*%
%TF.CreationDate,2024-10-20T15:28:43-06:00*%
%TF.ProjectId,Prototype2,50726f74-6f74-4797-9065-322e6b696361,rev?*%
%TF.SameCoordinates,Original*%
%TF.FileFunction,Paste,Top*%
%TF.FilePolarity,Positive*%
%FSLAX46Y46*%
G04 Gerber Fmt 4.6, Leading zero omitted, Abs format (unit mm)*
G04 Created by KiCad (PCBNEW 7.0.9) date 2024-10-20 15:28:43*
%MOMM*%
%LPD*%
G01*
G04 APERTURE LIST*
G04 Aperture macros list*
%AMRoundRect*
0 Rectangle with rounded corners*
0 $1 Rounding radius*
0 $2 $3 $4 $5 $6 $7 $8 $9 X,Y pos of 4 corners*
0 Add a 4 corners polygon primitive as box body*
4,1,4,$2,$3,$4,$5,$6,$7,$8,$9,$2,$3,0*
0 Add four circle primitives for the rounded corners*
1,1,$1+$1,$2,$3*
1,1,$1+$1,$4,$5*
1,1,$1+$1,$6,$7*
1,1,$1+$1,$8,$9*
0 Add four rect primitives between the rounded corners*
20,1,$1+$1,$2,$3,$4,$5,0*
20,1,$1+$1,$4,$5,$6,$7,0*
20,1,$1+$1,$6,$7,$8,$9,0*
20,1,$1+$1,$8,$9,$2,$3,0*%
G04 Aperture macros list end*
%ADD10R,0.254000X0.406400*%
%ADD11R,0.254000X0.355600*%
%ADD12R,0.304800X0.203200*%
%ADD13R,0.304800X0.558800*%
%ADD14RoundRect,0.079500X0.100500X-0.079500X0.100500X0.079500X-0.100500X0.079500X-0.100500X-0.079500X0*%
%ADD15R,0.812800X0.254000*%
%ADD16R,0.254000X0.812800*%
%ADD17R,1.651000X1.143000*%
%ADD18RoundRect,0.079500X-0.079500X-0.100500X0.079500X-0.100500X0.079500X0.100500X-0.079500X0.100500X0*%
%ADD19R,2.000000X3.800000*%
%ADD20R,2.000000X1.500000*%
%ADD21RoundRect,0.079500X-0.100500X0.079500X-0.100500X-0.079500X0.100500X-0.079500X0.100500X0.079500X0*%
%ADD22R,0.203200X0.304800*%
%ADD23R,0.558800X0.304800*%
%ADD24RoundRect,0.079500X0.079500X0.100500X-0.079500X0.100500X-0.079500X-0.100500X0.079500X-0.100500X0*%
%ADD25RoundRect,0.135000X-0.185000X0.135000X-0.185000X-0.135000X0.185000X-0.135000X0.185000X0.135000X0*%
%ADD26R,3.098800X1.092200*%
%ADD27RoundRect,0.250000X0.475000X-0.250000X0.475000X0.250000X-0.475000X0.250000X-0.475000X-0.250000X0*%
G04 APERTURE END LIST*
%TO.C,U1*%
G36*
X172346681Y-92335109D02*
G01*
X171846494Y-92335109D01*
X171846494Y-92084893D01*
X172346681Y-92084893D01*
X172346681Y-92335109D01*
G37*
G36*
X172316709Y-92835108D02*
G01*
X171846494Y-92835108D01*
X171846494Y-92584892D01*
X172316709Y-92584892D01*
X172316709Y-92835108D01*
G37*
G36*
X172316709Y-93335107D02*
G01*
X171846494Y-93335107D01*
X171846494Y-93084891D01*
X172316709Y-93084891D01*
X172316709Y-93335107D01*
G37*
G36*
X173056708Y-92335109D02*
G01*
X172586493Y-92335109D01*
X172586493Y-92084893D01*
X173056708Y-92084893D01*
X173056708Y-92335109D01*
G37*
G36*
X173056708Y-92835108D02*
G01*
X172586493Y-92835108D01*
X172586493Y-92584892D01*
X173056708Y-92584892D01*
X173056708Y-92835108D01*
G37*
G36*
X173056708Y-93335107D02*
G01*
X172586493Y-93335107D01*
X172586493Y-93084891D01*
X173056708Y-93084891D01*
X173056708Y-93335107D01*
G37*
%TO.C,U2*%
G36*
X170125085Y-71134300D02*
G01*
X168775685Y-71134300D01*
X168775685Y-70242100D01*
X170125085Y-70242100D01*
X170125085Y-71134300D01*
G37*
G36*
X168575685Y-71134300D02*
G01*
X167226285Y-71134300D01*
X167226285Y-70242100D01*
X168575685Y-70242100D01*
X168575685Y-71134300D01*
G37*
%TD*%
D10*
%TO.C,U5*%
X167690800Y-89204800D03*
D11*
X168190801Y-89230200D03*
X168690801Y-89230200D03*
X169190802Y-89230200D03*
X169190802Y-88635800D03*
X168690801Y-88635800D03*
X168190801Y-88635800D03*
X167690800Y-88635800D03*
%TD*%
D10*
%TO.C,U4*%
X167690800Y-96774000D03*
D11*
X168190801Y-96799400D03*
X168690801Y-96799400D03*
X169190802Y-96799400D03*
X169190802Y-96205000D03*
X168690801Y-96205000D03*
X168190801Y-96205000D03*
X167690800Y-96205000D03*
%TD*%
D10*
%TO.C,U3*%
X167690800Y-104404200D03*
D11*
X168190801Y-104429600D03*
X168690801Y-104429600D03*
X169190802Y-104429600D03*
X169190802Y-103835200D03*
X168690801Y-103835200D03*
X168190801Y-103835200D03*
X167690800Y-103835200D03*
%TD*%
D12*
%TO.C,Q2*%
X188595000Y-75105001D03*
X188595000Y-74754999D03*
D13*
X187960000Y-74930000D03*
%TD*%
D14*
%TO.C,R4*%
X186944000Y-73660000D03*
X186944000Y-72970000D03*
%TD*%
D15*
%TO.C,U6*%
X167259000Y-114397663D03*
D16*
X167706548Y-115341400D03*
X168206674Y-115341400D03*
X168706800Y-115341400D03*
X169206926Y-115341400D03*
X169707052Y-115341400D03*
D15*
X170154600Y-114397663D03*
X170154600Y-113897537D03*
D16*
X169707052Y-112953800D03*
X169206926Y-112953800D03*
X168706800Y-112953800D03*
X168206674Y-112953800D03*
X167706548Y-112953800D03*
D15*
X167259000Y-113897537D03*
D17*
X168706800Y-114147600D03*
%TD*%
D18*
%TO.C,C8*%
X174036200Y-92710000D03*
X174726200Y-92710000D03*
%TD*%
D15*
%TO.C,U8*%
X167259000Y-81022063D03*
D16*
X167706548Y-81965800D03*
X168206674Y-81965800D03*
X168706800Y-81965800D03*
X169206926Y-81965800D03*
X169707052Y-81965800D03*
D15*
X170154600Y-81022063D03*
X170154600Y-80521937D03*
D16*
X169707052Y-79578200D03*
X169206926Y-79578200D03*
X168706800Y-79578200D03*
X168206674Y-79578200D03*
X167706548Y-79578200D03*
D15*
X167259000Y-80521937D03*
D17*
X168706800Y-80772000D03*
%TD*%
D19*
%TO.C,U10*%
X165685000Y-61595000D03*
D20*
X159385000Y-59295000D03*
X159385000Y-61595000D03*
X159385000Y-63895000D03*
%TD*%
D21*
%TO.C,R6*%
X186944000Y-71374000D03*
X186944000Y-72064000D03*
%TD*%
D22*
%TO.C,Q10*%
X162989001Y-98679000D03*
X162638999Y-98679000D03*
D23*
X162814000Y-99314000D03*
%TD*%
D12*
%TO.C,Q18*%
X182245000Y-99235001D03*
X182245000Y-98884999D03*
D13*
X181610000Y-99060000D03*
%TD*%
D12*
%TO.C,Q5*%
X183896000Y-71706999D03*
X183896000Y-72057001D03*
D13*
X184531000Y-71882000D03*
%TD*%
D12*
%TO.C,Q6*%
X188595000Y-72057001D03*
X188595000Y-71706999D03*
D13*
X187960000Y-71882000D03*
%TD*%
D15*
%TO.C,U7*%
X184429400Y-111146463D03*
D16*
X184876948Y-112090200D03*
X185377074Y-112090200D03*
X185877200Y-112090200D03*
X186377326Y-112090200D03*
X186877452Y-112090200D03*
D15*
X187325000Y-111146463D03*
X187325000Y-110646337D03*
D16*
X186877452Y-109702600D03*
X186377326Y-109702600D03*
X185877200Y-109702600D03*
X185377074Y-109702600D03*
X184876948Y-109702600D03*
D15*
X184429400Y-110646337D03*
D17*
X185877200Y-110896400D03*
%TD*%
D22*
%TO.C,Q13*%
X162989001Y-85979000D03*
X162638999Y-85979000D03*
D23*
X162814000Y-86614000D03*
%TD*%
D24*
%TO.C,C7*%
X166477200Y-88642000D03*
X165787200Y-88642000D03*
%TD*%
D21*
%TO.C,R2*%
X186944000Y-74676000D03*
X186944000Y-75366000D03*
%TD*%
D12*
%TO.C,Q4*%
X188595000Y-73581001D03*
X188595000Y-73230999D03*
D13*
X187960000Y-73406000D03*
%TD*%
D21*
%TO.C,R5*%
X185674000Y-71446000D03*
X185674000Y-72136000D03*
%TD*%
D12*
%TO.C,Q15*%
X182295800Y-104315001D03*
X182295800Y-103964999D03*
D13*
X181660800Y-104140000D03*
%TD*%
D22*
%TO.C,Q8*%
X162989001Y-103759000D03*
X162638999Y-103759000D03*
D23*
X162814000Y-104394000D03*
%TD*%
D14*
%TO.C,R3*%
X185674000Y-73751000D03*
X185674000Y-73061000D03*
%TD*%
D21*
%TO.C,C10*%
X165989000Y-80412200D03*
X165989000Y-81102200D03*
%TD*%
D12*
%TO.C,Q17*%
X182181500Y-96695001D03*
X182181500Y-96344999D03*
D13*
X181546500Y-96520000D03*
%TD*%
D24*
%TO.C,C4*%
X166412800Y-103886000D03*
X165722800Y-103886000D03*
%TD*%
D12*
%TO.C,Q3*%
X183896000Y-73230999D03*
X183896000Y-73581001D03*
D13*
X184531000Y-73406000D03*
%TD*%
D21*
%TO.C,C1*%
X172212000Y-70891800D03*
X172212000Y-71581800D03*
%TD*%
%TO.C,C3*%
X165989000Y-113736600D03*
X165989000Y-114426600D03*
%TD*%
D22*
%TO.C,Q12*%
X162989001Y-93599000D03*
X162638999Y-93599000D03*
D23*
X162814000Y-94234000D03*
%TD*%
D25*
%TO.C,R1*%
X185674000Y-74676000D03*
X185674000Y-75696000D03*
%TD*%
D21*
%TO.C,C2*%
X183210200Y-110504537D03*
X183210200Y-111194537D03*
%TD*%
D22*
%TO.C,Q11*%
X162989001Y-91059000D03*
X162638999Y-91059000D03*
D23*
X162814000Y-91694000D03*
%TD*%
D15*
%TO.C,U9*%
X184175400Y-82888963D03*
D16*
X184622948Y-83832700D03*
X185123074Y-83832700D03*
X185623200Y-83832700D03*
X186123326Y-83832700D03*
X186623452Y-83832700D03*
D15*
X187071000Y-82888963D03*
X187071000Y-82388837D03*
D16*
X186623452Y-81445100D03*
X186123326Y-81445100D03*
X185623200Y-81445100D03*
X185123074Y-81445100D03*
X184622948Y-81445100D03*
D15*
X184175400Y-82388837D03*
D17*
X185623200Y-82638900D03*
%TD*%
D22*
%TO.C,Q14*%
X162989001Y-88519000D03*
X162638999Y-88519000D03*
D23*
X162814000Y-89154000D03*
%TD*%
D12*
%TO.C,Q1*%
X183896000Y-74754999D03*
X183896000Y-75105001D03*
D13*
X184531000Y-74930000D03*
%TD*%
D22*
%TO.C,Q9*%
X162989001Y-96139000D03*
X162638999Y-96139000D03*
D23*
X162814000Y-96774000D03*
%TD*%
D21*
%TO.C,C5*%
X182829200Y-82227900D03*
X182829200Y-82917900D03*
%TD*%
D18*
%TO.C,C9*%
X156032600Y-62687200D03*
X156722600Y-62687200D03*
%TD*%
D12*
%TO.C,Q16*%
X182270400Y-101775001D03*
X182270400Y-101424999D03*
D13*
X181635400Y-101600000D03*
%TD*%
D24*
%TO.C,C6*%
X166429800Y-96266000D03*
X165739800Y-96266000D03*
%TD*%
D15*
%TO.C,U2*%
X170872785Y-70438137D03*
D16*
X170426126Y-69494400D03*
X169926000Y-69494400D03*
X169425874Y-69494400D03*
X168925748Y-69494400D03*
X168425622Y-69494400D03*
X167925496Y-69494400D03*
X167425370Y-69494400D03*
X166925244Y-69494400D03*
D15*
X166478585Y-70438137D03*
X166478585Y-70938263D03*
D16*
X166925244Y-71882000D03*
X167425370Y-71882000D03*
X167925496Y-71882000D03*
X168425622Y-71882000D03*
X168925748Y-71882000D03*
X169425874Y-71882000D03*
X169926000Y-71882000D03*
X170426126Y-71882000D03*
D15*
X170872785Y-70938263D03*
D26*
X168675685Y-70688200D03*
%TD*%
D27*
%TO.C,C11*%
X156337000Y-61214000D03*
X156337000Y-59314000D03*
%TD*%
D22*
%TO.C,Q7*%
X162989001Y-101219000D03*
X162638999Y-101219000D03*
D23*
X162814000Y-101854000D03*
%TD*%
M02*
