%TF.GenerationSoftware,KiCad,Pcbnew,7.0.9*%
%TF.CreationDate,2024-10-20T15:28:43-06:00*%
%TF.ProjectId,Prototype2,50726f74-6f74-4797-9065-322e6b696361,rev?*%
%TF.SameCoordinates,Original*%
%TF.FileFunction,Copper,L1,Top*%
%TF.FilePolarity,Positive*%
%FSLAX46Y46*%
G04 Gerber Fmt 4.6, Leading zero omitted, Abs format (unit mm)*
G04 Created by KiCad (PCBNEW 7.0.9) date 2024-10-20 15:28:43*
%MOMM*%
%LPD*%
G01*
G04 APERTURE LIST*
G04 Aperture macros list*
%AMRoundRect*
0 Rectangle with rounded corners*
0 $1 Rounding radius*
0 $2 $3 $4 $5 $6 $7 $8 $9 X,Y pos of 4 corners*
0 Add a 4 corners polygon primitive as box body*
4,1,4,$2,$3,$4,$5,$6,$7,$8,$9,$2,$3,0*
0 Add four circle primitives for the rounded corners*
1,1,$1+$1,$2,$3*
1,1,$1+$1,$4,$5*
1,1,$1+$1,$6,$7*
1,1,$1+$1,$8,$9*
0 Add four rect primitives between the rounded corners*
20,1,$1+$1,$2,$3,$4,$5,0*
20,1,$1+$1,$4,$5,$6,$7,0*
20,1,$1+$1,$6,$7,$8,$9,0*
20,1,$1+$1,$8,$9,$2,$3,0*%
G04 Aperture macros list end*
%TA.AperFunction,SMDPad,CuDef*%
%ADD10R,0.254000X0.406400*%
%TD*%
%TA.AperFunction,SMDPad,CuDef*%
%ADD11R,0.254000X0.355600*%
%TD*%
%TA.AperFunction,SMDPad,CuDef*%
%ADD12R,0.304800X0.203200*%
%TD*%
%TA.AperFunction,SMDPad,CuDef*%
%ADD13R,0.304800X0.558800*%
%TD*%
%TA.AperFunction,ComponentPad*%
%ADD14C,1.524000*%
%TD*%
%TA.AperFunction,SMDPad,CuDef*%
%ADD15RoundRect,0.100000X0.100000X-0.130000X0.100000X0.130000X-0.100000X0.130000X-0.100000X-0.130000X0*%
%TD*%
%TA.AperFunction,SMDPad,CuDef*%
%ADD16R,0.812800X0.254000*%
%TD*%
%TA.AperFunction,SMDPad,CuDef*%
%ADD17R,0.254000X0.812800*%
%TD*%
%TA.AperFunction,SMDPad,CuDef*%
%ADD18R,1.651000X1.143000*%
%TD*%
%TA.AperFunction,SMDPad,CuDef*%
%ADD19RoundRect,0.100000X-0.130000X-0.100000X0.130000X-0.100000X0.130000X0.100000X-0.130000X0.100000X0*%
%TD*%
%TA.AperFunction,SMDPad,CuDef*%
%ADD20R,2.000000X3.800000*%
%TD*%
%TA.AperFunction,SMDPad,CuDef*%
%ADD21R,2.000000X1.500000*%
%TD*%
%TA.AperFunction,SMDPad,CuDef*%
%ADD22RoundRect,0.100000X-0.100000X0.130000X-0.100000X-0.130000X0.100000X-0.130000X0.100000X0.130000X0*%
%TD*%
%TA.AperFunction,SMDPad,CuDef*%
%ADD23R,0.203200X0.304800*%
%TD*%
%TA.AperFunction,SMDPad,CuDef*%
%ADD24R,0.558800X0.304800*%
%TD*%
%TA.AperFunction,SMDPad,CuDef*%
%ADD25RoundRect,0.100000X0.130000X0.100000X-0.130000X0.100000X-0.130000X-0.100000X0.130000X-0.100000X0*%
%TD*%
%TA.AperFunction,ComponentPad*%
%ADD26R,1.700000X1.700000*%
%TD*%
%TA.AperFunction,ComponentPad*%
%ADD27O,1.700000X1.700000*%
%TD*%
%TA.AperFunction,SMDPad,CuDef*%
%ADD28R,0.550000X0.300000*%
%TD*%
%TA.AperFunction,SMDPad,CuDef*%
%ADD29R,0.520000X0.300000*%
%TD*%
%TA.AperFunction,SMDPad,CuDef*%
%ADD30RoundRect,0.135000X-0.185000X0.135000X-0.185000X-0.135000X0.185000X-0.135000X0.185000X0.135000X0*%
%TD*%
%TA.AperFunction,ComponentPad*%
%ADD31R,1.524000X1.524000*%
%TD*%
%TA.AperFunction,ComponentPad*%
%ADD32C,1.270000*%
%TD*%
%TA.AperFunction,SMDPad,CuDef*%
%ADD33R,3.098800X1.092200*%
%TD*%
%TA.AperFunction,SMDPad,CuDef*%
%ADD34RoundRect,0.250000X0.475000X-0.250000X0.475000X0.250000X-0.475000X0.250000X-0.475000X-0.250000X0*%
%TD*%
%TA.AperFunction,ViaPad*%
%ADD35C,0.400000*%
%TD*%
%TA.AperFunction,ViaPad*%
%ADD36C,0.800000*%
%TD*%
%TA.AperFunction,Conductor*%
%ADD37C,0.203200*%
%TD*%
%TA.AperFunction,Conductor*%
%ADD38C,0.508000*%
%TD*%
G04 APERTURE END LIST*
D10*
%TO.P,U5,1,1A*%
%TO.N,P7*%
X167690800Y-89204800D03*
D11*
%TO.P,U5,2,3Y*%
%TO.N,_P6*%
X168190801Y-89230200D03*
%TO.P,U5,3,2A*%
%TO.N,P4*%
X168690801Y-89230200D03*
%TO.P,U5,4,GND*%
%TO.N,GND*%
X169190802Y-89230200D03*
%TO.P,U5,5,2Y*%
%TO.N,_P4*%
X169190802Y-88635800D03*
%TO.P,U5,6,3A*%
%TO.N,P6*%
X168690801Y-88635800D03*
%TO.P,U5,7,1Y*%
%TO.N,_P7*%
X168190801Y-88635800D03*
%TO.P,U5,8,VCC*%
%TO.N,+3.3V*%
X167690800Y-88635800D03*
%TD*%
D10*
%TO.P,U4,1,1A*%
%TO.N,P2*%
X167690800Y-96774000D03*
D11*
%TO.P,U4,2,3Y*%
%TO.N,_P5*%
X168190801Y-96799400D03*
%TO.P,U4,3,2A*%
%TO.N,P3*%
X168690801Y-96799400D03*
%TO.P,U4,4,GND*%
%TO.N,GND*%
X169190802Y-96799400D03*
%TO.P,U4,5,2Y*%
%TO.N,_P3*%
X169190802Y-96205000D03*
%TO.P,U4,6,3A*%
%TO.N,P5*%
X168690801Y-96205000D03*
%TO.P,U4,7,1Y*%
%TO.N,_P2*%
X168190801Y-96205000D03*
%TO.P,U4,8,VCC*%
%TO.N,+3.3V*%
X167690800Y-96205000D03*
%TD*%
D10*
%TO.P,U3,1,1A*%
%TO.N,P1*%
X167690800Y-104404200D03*
D11*
%TO.P,U3,2,3Y*%
%TO.N,_P0*%
X168190801Y-104429600D03*
%TO.P,U3,3,2A*%
%TO.N,BCLK*%
X168690801Y-104429600D03*
%TO.P,U3,4,GND*%
%TO.N,GND*%
X169190802Y-104429600D03*
%TO.P,U3,5,2Y*%
%TO.N,_BCLKI*%
X169190802Y-103835200D03*
%TO.P,U3,6,3A*%
%TO.N,P0*%
X168690801Y-103835200D03*
%TO.P,U3,7,1Y*%
%TO.N,_P1*%
X168190801Y-103835200D03*
%TO.P,U3,8,VCC*%
%TO.N,+3.3V*%
X167690800Y-103835200D03*
%TD*%
D12*
%TO.P,Q2,1,G*%
%TO.N,_AUDIO4*%
X188595000Y-75105001D03*
%TO.P,Q2,2,S*%
%TO.N,GND*%
X188595000Y-74754999D03*
D13*
%TO.P,Q2,3,D*%
%TO.N,Net-(Q2-D)*%
X187960000Y-74930000D03*
%TD*%
D14*
%TO.P,TP28,1,1*%
%TO.N,~{CS0}*%
X180086000Y-93980000D03*
%TD*%
%TO.P,TP10,1,1*%
%TO.N,P5*%
X157226000Y-93980000D03*
%TD*%
%TO.P,TP19,1,1*%
%TO.N,~{K2}*%
X180086000Y-116840000D03*
%TD*%
%TO.P,TP42,1,1*%
%TO.N,GND*%
X200914000Y-118618000D03*
%TD*%
%TO.P,TP6,1,1*%
%TO.N,PHI2*%
X157226000Y-83820000D03*
%TD*%
%TO.P,TP40,1,1*%
%TO.N,GND*%
X202184000Y-59817000D03*
%TD*%
D15*
%TO.P,R4,1*%
%TO.N,AUDIO*%
X186944000Y-73635000D03*
%TO.P,R4,2*%
%TO.N,Net-(Q4-D)*%
X186944000Y-72995000D03*
%TD*%
D16*
%TO.P,U6,1*%
%TO.N,GND*%
X167259000Y-114397663D03*
D17*
%TO.P,U6,2*%
%TO.N,_~{K4}*%
X167706548Y-115341400D03*
%TO.P,U6,3*%
%TO.N,~{K4}*%
X168206674Y-115341400D03*
%TO.P,U6,4*%
%TO.N,GND*%
X168706800Y-115341400D03*
%TO.P,U6,5*%
%TO.N,_~{K3}*%
X169206926Y-115341400D03*
%TO.P,U6,6*%
%TO.N,~{K3}*%
X169707052Y-115341400D03*
D16*
%TO.P,U6,7,GND*%
%TO.N,GND*%
X170154600Y-114397663D03*
%TO.P,U6,8*%
%TO.N,_~{KR2}*%
X170154600Y-113897537D03*
D17*
%TO.P,U6,9*%
%TO.N,~{KR2}*%
X169707052Y-112953800D03*
%TO.P,U6,10*%
%TO.N,GND*%
X169206926Y-112953800D03*
%TO.P,U6,11*%
%TO.N,~{K5}*%
X168706800Y-112953800D03*
%TO.P,U6,12*%
%TO.N,_~{K5}*%
X168206674Y-112953800D03*
%TO.P,U6,13*%
%TO.N,GND*%
X167706548Y-112953800D03*
D16*
%TO.P,U6,14,VCC*%
%TO.N,+3.3V*%
X167259000Y-113897537D03*
D18*
%TO.P,U6,15,NC*%
%TO.N,unconnected-(U6E-NC-Pad15)*%
X168706800Y-114147600D03*
%TD*%
D19*
%TO.P,C8,1*%
%TO.N,+3.3V*%
X174061200Y-92710000D03*
%TO.P,C8,2*%
%TO.N,GND*%
X174701200Y-92710000D03*
%TD*%
D16*
%TO.P,U8,1*%
%TO.N,GND*%
X167259000Y-81022063D03*
D17*
%TO.P,U8,2*%
%TO.N,unconnected-(U8-Pad2)*%
X167706548Y-81965800D03*
%TO.P,U8,3*%
%TO.N,unconnected-(U8-Pad3)*%
X168206674Y-81965800D03*
%TO.P,U8,4*%
%TO.N,GND*%
X168706800Y-81965800D03*
%TO.P,U8,5*%
%TO.N,SID*%
X169206926Y-81965800D03*
%TO.P,U8,6*%
%TO.N,_SID*%
X169707052Y-81965800D03*
D16*
%TO.P,U8,7,GND*%
%TO.N,GND*%
X170154600Y-81022063D03*
%TO.P,U8,8*%
%TO.N,_R{slash}W*%
X170154600Y-80521937D03*
D17*
%TO.P,U8,9*%
%TO.N,R{slash}W*%
X169707052Y-79578200D03*
%TO.P,U8,10*%
%TO.N,GND*%
X169206926Y-79578200D03*
%TO.P,U8,11*%
%TO.N,_PHI2*%
X168706800Y-79578200D03*
%TO.P,U8,12*%
%TO.N,PHI2*%
X168206674Y-79578200D03*
%TO.P,U8,13*%
%TO.N,GND*%
X167706548Y-79578200D03*
D16*
%TO.P,U8,14,VCC*%
%TO.N,+3.3V*%
X167259000Y-80521937D03*
D18*
%TO.P,U8,15,NC*%
%TO.N,unconnected-(U8E-NC-Pad15)*%
X168706800Y-80772000D03*
%TD*%
D14*
%TO.P,TP2,1,1*%
%TO.N,D4*%
X157226000Y-73660000D03*
%TD*%
%TO.P,TP34,1,1*%
%TO.N,A0*%
X180086000Y-78740000D03*
%TD*%
D20*
%TO.P,U10,*%
%TO.N,*%
X165685000Y-61595000D03*
D21*
%TO.P,U10,1,GND*%
%TO.N,GND*%
X159385000Y-59295000D03*
%TO.P,U10,2,VO*%
%TO.N,3V3_B*%
X159385000Y-61595000D03*
%TO.P,U10,3,VI*%
%TO.N,+5V*%
X159385000Y-63895000D03*
%TD*%
D22*
%TO.P,R6,1*%
%TO.N,AUDIO*%
X186944000Y-71399000D03*
%TO.P,R6,2*%
%TO.N,Net-(Q6-D)*%
X186944000Y-72039000D03*
%TD*%
D14*
%TO.P,TP14,1,1*%
%TO.N,P1*%
X157226000Y-104140000D03*
%TD*%
D23*
%TO.P,Q10,1,G*%
%TO.N,_DUMP*%
X162989001Y-98679000D03*
%TO.P,Q10,2,S*%
%TO.N,GND*%
X162638999Y-98679000D03*
D24*
%TO.P,Q10,3,D*%
%TO.N,P3*%
X162814000Y-99314000D03*
%TD*%
D12*
%TO.P,Q18,1,G*%
%TO.N,_SOD*%
X182245000Y-99235001D03*
%TO.P,Q18,2,S*%
%TO.N,GND*%
X182245000Y-98884999D03*
D13*
%TO.P,Q18,3,D*%
%TO.N,SOD*%
X181610000Y-99060000D03*
%TD*%
D14*
%TO.P,TP31,1,1*%
%TO.N,A3*%
X180086000Y-86360000D03*
%TD*%
%TO.P,TP45,1,1*%
%TO.N,+3.3V*%
X193294000Y-118618000D03*
%TD*%
%TO.P,TP7,1,1*%
%TO.N,P6*%
X157226000Y-86360000D03*
%TD*%
D12*
%TO.P,Q5,1,G*%
%TO.N,_AUDIO1*%
X183896000Y-71706999D03*
%TO.P,Q5,2,S*%
%TO.N,GND*%
X183896000Y-72057001D03*
D13*
%TO.P,Q5,3,D*%
%TO.N,Net-(Q5-D)*%
X184531000Y-71882000D03*
%TD*%
D12*
%TO.P,Q6,1,G*%
%TO.N,_AUDIO0*%
X188595000Y-72057001D03*
%TO.P,Q6,2,S*%
%TO.N,GND*%
X188595000Y-71706999D03*
D13*
%TO.P,Q6,3,D*%
%TO.N,Net-(Q6-D)*%
X187960000Y-71882000D03*
%TD*%
D14*
%TO.P,TP26,1,1*%
%TO.N,SOD*%
X180086000Y-99060000D03*
%TD*%
D16*
%TO.P,U7,1*%
%TO.N,GND*%
X184429400Y-111146463D03*
D17*
%TO.P,U7,2*%
%TO.N,_~{K1}*%
X184876948Y-112090200D03*
%TO.P,U7,3*%
%TO.N,~{K1}*%
X185377074Y-112090200D03*
%TO.P,U7,4*%
%TO.N,GND*%
X185877200Y-112090200D03*
%TO.P,U7,5*%
%TO.N,_~{K2}*%
X186377326Y-112090200D03*
%TO.P,U7,6*%
%TO.N,~{K2}*%
X186877452Y-112090200D03*
D16*
%TO.P,U7,7,GND*%
%TO.N,GND*%
X187325000Y-111146463D03*
%TO.P,U7,8*%
%TO.N,_~{KR1}*%
X187325000Y-110646337D03*
D17*
%TO.P,U7,9*%
%TO.N,~{KR1}*%
X186877452Y-109702600D03*
%TO.P,U7,10*%
%TO.N,GND*%
X186377326Y-109702600D03*
%TO.P,U7,11*%
%TO.N,~{K0}*%
X185877200Y-109702600D03*
%TO.P,U7,12*%
%TO.N,_~{K0}*%
X185377074Y-109702600D03*
%TO.P,U7,13*%
%TO.N,GND*%
X184876948Y-109702600D03*
D16*
%TO.P,U7,14,VCC*%
%TO.N,+3.3V*%
X184429400Y-110646337D03*
D18*
%TO.P,U7,15,NC*%
%TO.N,unconnected-(U7E-NC-Pad15)*%
X185877200Y-110896400D03*
%TD*%
D23*
%TO.P,Q13,1,G*%
%TO.N,_DUMP*%
X162989001Y-85979000D03*
%TO.P,Q13,2,S*%
%TO.N,GND*%
X162638999Y-85979000D03*
D24*
%TO.P,Q13,3,D*%
%TO.N,P6*%
X162814000Y-86614000D03*
%TD*%
D14*
%TO.P,TP41,1,1*%
%TO.N,GND*%
X157226000Y-68580000D03*
%TD*%
%TO.P,TP9,1,1*%
%TO.N,P4*%
X157226000Y-91440000D03*
%TD*%
D25*
%TO.P,C7,1*%
%TO.N,+3.3V*%
X166452200Y-88642000D03*
%TO.P,C7,2*%
%TO.N,GND*%
X165812200Y-88642000D03*
%TD*%
D14*
%TO.P,TP16,1,1*%
%TO.N,~{K5}*%
X157226000Y-111760000D03*
%TD*%
D22*
%TO.P,R2,1*%
%TO.N,AUDIO*%
X186944000Y-74701000D03*
%TO.P,R2,2*%
%TO.N,Net-(Q2-D)*%
X186944000Y-75341000D03*
%TD*%
D12*
%TO.P,Q4,1,G*%
%TO.N,_AUDIO2*%
X188595000Y-73581001D03*
%TO.P,Q4,2,S*%
%TO.N,GND*%
X188595000Y-73230999D03*
D13*
%TO.P,Q4,3,D*%
%TO.N,Net-(Q4-D)*%
X187960000Y-73406000D03*
%TD*%
D22*
%TO.P,R5,1*%
%TO.N,AUDIO*%
X185674000Y-71471000D03*
%TO.P,R5,2*%
%TO.N,Net-(Q5-D)*%
X185674000Y-72111000D03*
%TD*%
D26*
%TO.P,J3,1,Pin_1*%
%TO.N,3V3_A*%
X175260000Y-59817000D03*
D27*
%TO.P,J3,2,Pin_2*%
%TO.N,+3.3V*%
X172720000Y-59817000D03*
%TO.P,J3,3,Pin_3*%
%TO.N,3V3_B*%
X170180000Y-59817000D03*
%TD*%
D14*
%TO.P,TP29,1,1*%
%TO.N,CS1*%
X180086000Y-91440000D03*
%TD*%
%TO.P,TP44,1,1*%
%TO.N,+3.3V*%
X179832000Y-59817000D03*
%TD*%
D12*
%TO.P,Q15,1,G*%
%TO.N,_BCLKO*%
X182295800Y-104315001D03*
%TO.P,Q15,2,S*%
%TO.N,GND*%
X182295800Y-103964999D03*
D13*
%TO.P,Q15,3,D*%
%TO.N,BCLK*%
X181660800Y-104140000D03*
%TD*%
D14*
%TO.P,TP21,1,1*%
%TO.N,~{K0}*%
X180086000Y-111760000D03*
%TD*%
D23*
%TO.P,Q8,1,G*%
%TO.N,_DUMP*%
X162989001Y-103759000D03*
%TO.P,Q8,2,S*%
%TO.N,GND*%
X162638999Y-103759000D03*
D24*
%TO.P,Q8,3,D*%
%TO.N,P1*%
X162814000Y-104394000D03*
%TD*%
D15*
%TO.P,R3,1*%
%TO.N,AUDIO*%
X185674000Y-73726000D03*
%TO.P,R3,2*%
%TO.N,Net-(Q3-D)*%
X185674000Y-73086000D03*
%TD*%
D28*
%TO.P,U1,1,IN1*%
%TO.N,+3.3V*%
X172096588Y-92210001D03*
D29*
%TO.P,U1,2,GND*%
%TO.N,GND*%
X172081602Y-92710000D03*
%TO.P,U1,3,IN0*%
%TO.N,~{CS0}*%
X172081602Y-93209999D03*
%TO.P,U1,4,Y*%
%TO.N,~{_EN}*%
X172821600Y-93209999D03*
%TO.P,U1,5,VCC*%
%TO.N,+3.3V*%
X172821600Y-92710000D03*
%TO.P,U1,6,IN2*%
%TO.N,CS1*%
X172821600Y-92210001D03*
%TD*%
D14*
%TO.P,TP15,1,1*%
%TO.N,~{KR2}*%
X157226000Y-106680000D03*
%TD*%
D22*
%TO.P,C10,1*%
%TO.N,+3.3V*%
X165989000Y-80437200D03*
%TO.P,C10,2*%
%TO.N,GND*%
X165989000Y-81077200D03*
%TD*%
D14*
%TO.P,TP24,1,1*%
%TO.N,BCLK*%
X180086000Y-104140000D03*
%TD*%
%TO.P,TP36,1,1*%
%TO.N,D0*%
X180086000Y-73660000D03*
%TD*%
%TO.P,TP8,1,1*%
%TO.N,P7*%
X157226000Y-88900000D03*
%TD*%
D12*
%TO.P,Q17,1,G*%
%TO.N,_~{IRQ}*%
X182181500Y-96695001D03*
%TO.P,Q17,2,S*%
%TO.N,GND*%
X182181500Y-96344999D03*
D13*
%TO.P,Q17,3,D*%
%TO.N,~{IRQ}*%
X181546500Y-96520000D03*
%TD*%
D14*
%TO.P,TP22,1,1*%
%TO.N,SID*%
X180086000Y-109220000D03*
%TD*%
%TO.P,TP13,1,1*%
%TO.N,P0*%
X157226000Y-101600000D03*
%TD*%
%TO.P,TP11,1,1*%
%TO.N,P2*%
X157226000Y-96520000D03*
%TD*%
%TO.P,TP35,1,1*%
%TO.N,AUDIO*%
X180086000Y-76200000D03*
%TD*%
D25*
%TO.P,C4,1*%
%TO.N,+3.3V*%
X166387800Y-103886000D03*
%TO.P,C4,2*%
%TO.N,GND*%
X165747800Y-103886000D03*
%TD*%
D14*
%TO.P,TP18,1,1*%
%TO.N,~{K3}*%
X157226000Y-116840000D03*
%TD*%
%TO.P,TP17,1,1*%
%TO.N,~{K4}*%
X157226000Y-114300000D03*
%TD*%
%TO.P,TP38,1,1*%
%TO.N,D2*%
X180086000Y-68580000D03*
%TD*%
%TO.P,TP25,1,1*%
%TO.N,OCLK*%
X180086000Y-101600000D03*
%TD*%
%TO.P,TP32,1,1*%
%TO.N,A2*%
X180086000Y-83820000D03*
%TD*%
%TO.P,TP20,1,1*%
%TO.N,~{K1}*%
X180086000Y-114300000D03*
%TD*%
D12*
%TO.P,Q3,1,G*%
%TO.N,_AUDIO3*%
X183896000Y-73230999D03*
%TO.P,Q3,2,S*%
%TO.N,GND*%
X183896000Y-73581001D03*
D13*
%TO.P,Q3,3,D*%
%TO.N,Net-(Q3-D)*%
X184531000Y-73406000D03*
%TD*%
D14*
%TO.P,TP12,1,1*%
%TO.N,P3*%
X157226000Y-99060000D03*
%TD*%
D22*
%TO.P,C1,1*%
%TO.N,+3.3V*%
X172212000Y-70916800D03*
%TO.P,C1,2*%
%TO.N,GND*%
X172212000Y-71556800D03*
%TD*%
%TO.P,C3,1*%
%TO.N,+3.3V*%
X165989000Y-113761600D03*
%TO.P,C3,2*%
%TO.N,GND*%
X165989000Y-114401600D03*
%TD*%
D23*
%TO.P,Q12,1,G*%
%TO.N,_DUMP*%
X162989001Y-93599000D03*
%TO.P,Q12,2,S*%
%TO.N,GND*%
X162638999Y-93599000D03*
D24*
%TO.P,Q12,3,D*%
%TO.N,P5*%
X162814000Y-94234000D03*
%TD*%
D30*
%TO.P,R1,1*%
%TO.N,AUDIO*%
X185674000Y-74676000D03*
%TO.P,R1,2*%
%TO.N,Net-(Q1-D)*%
X185674000Y-75696000D03*
%TD*%
D14*
%TO.P,TP37,1,1*%
%TO.N,D1*%
X180086000Y-71120000D03*
%TD*%
D31*
%TO.P,J1,1,5V1*%
%TO.N,+5V*%
X193294000Y-71120000D03*
D14*
%TO.P,J1,2,G1*%
%TO.N,GND*%
X195834000Y-71120000D03*
%TO.P,J1,3,3V1*%
%TO.N,3V3_A*%
X198374000Y-71120000D03*
%TO.P,J1,4,G2*%
%TO.N,GND*%
X200914000Y-71120000D03*
%TO.P,J1,5,A48*%
%TO.N,_D2*%
X193294000Y-73660000D03*
%TO.P,J1,6,A49*%
%TO.N,_D0*%
X195834000Y-73660000D03*
%TO.P,J1,7,A3*%
%TO.N,_D6*%
X198374000Y-73660000D03*
%TO.P,J1,8,A2*%
%TO.N,_D4*%
X200914000Y-73660000D03*
%TO.P,J1,9,A45*%
%TO.N,_D1*%
X193294000Y-76200000D03*
%TO.P,J1,10,A46*%
%TO.N,_D7*%
X195834000Y-76200000D03*
%TO.P,J1,11,A6*%
%TO.N,_D5*%
X198374000Y-76200000D03*
%TO.P,J1,12,A5*%
%TO.N,_D3*%
X200914000Y-76200000D03*
%TO.P,J1,13,A42*%
%TO.N,_AUDIO3*%
X193294000Y-78740000D03*
%TO.P,J1,14,A43*%
%TO.N,_AUDIO1*%
X195834000Y-78740000D03*
%TO.P,J1,15,A9*%
%TO.N,_AUDIO2*%
X198374000Y-78740000D03*
%TO.P,J1,16,A8*%
%TO.N,_AUDIO0*%
X200914000Y-78740000D03*
%TO.P,J1,17,A39*%
%TO.N,_A1*%
X193294000Y-81280000D03*
%TO.P,J1,18,A40*%
%TO.N,_A0*%
X195834000Y-81280000D03*
%TO.P,J1,19,A12*%
%TO.N,_AUDIO5*%
X198374000Y-81280000D03*
%TO.P,J1,20,A11*%
%TO.N,_AUDIO4*%
X200914000Y-81280000D03*
%TO.P,J1,21,A36*%
%TO.N,~{_EN}*%
X193294000Y-83820000D03*
%TO.P,J1,22,A37*%
%TO.N,_A2*%
X195834000Y-83820000D03*
%TO.P,J1,23,A15*%
%TO.N,_A3*%
X198374000Y-83820000D03*
%TO.P,J1,24,A14*%
%TO.N,_R{slash}W*%
X200914000Y-83820000D03*
%TO.P,J1,25,A33*%
%TO.N,unconnected-(J1-A33-Pad25)*%
X193294000Y-86360000D03*
%TO.P,J1,26,A34*%
%TO.N,unconnected-(J1-A34-Pad26)*%
X195834000Y-86360000D03*
%TO.P,J1,27,A18*%
%TO.N,unconnected-(J1-A18-Pad27)*%
X198374000Y-86360000D03*
%TO.P,J1,28,A17*%
%TO.N,unconnected-(J1-A17-Pad28)*%
X200914000Y-86360000D03*
%TO.P,J1,29,A30*%
%TO.N,_P4*%
X193294000Y-88900000D03*
%TO.P,J1,30,A31*%
%TO.N,_P6*%
X195834000Y-88900000D03*
%TO.P,J1,31,A21*%
%TO.N,_SID*%
X198374000Y-88900000D03*
%TO.P,J1,32,A20*%
%TO.N,_P7*%
X200914000Y-88900000D03*
%TO.P,J1,33,A27*%
%TO.N,unconnected-(J1-A27-Pad33)*%
X193294000Y-91440000D03*
%TO.P,J1,34,A28*%
%TO.N,unconnected-(J1-A28-Pad34)*%
X195834000Y-91440000D03*
%TO.P,J1,35,A24*%
%TO.N,unconnected-(J1-A24-Pad35)*%
X198374000Y-91440000D03*
%TO.P,J1,36,A23*%
%TO.N,unconnected-(J1-A23-Pad36)*%
X200914000Y-91440000D03*
%TO.P,J1,37,5V2*%
%TO.N,+5V*%
X193294000Y-93980000D03*
%TO.P,J1,38,G3*%
%TO.N,GND*%
X195834000Y-93980000D03*
%TO.P,J1,39,3V2*%
%TO.N,3V3_A*%
X198374000Y-93980000D03*
D32*
%TO.P,J1,40,G4*%
%TO.N,GND*%
X200914000Y-93980000D03*
D14*
%TO.P,J1,41,B48*%
%TO.N,_~{IRQ}*%
X193294000Y-96520000D03*
%TO.P,J1,42,B49*%
%TO.N,_P3*%
X195834000Y-96520000D03*
%TO.P,J1,43,B3*%
%TO.N,_P2*%
X198374000Y-96520000D03*
%TO.P,J1,44,B2*%
%TO.N,_PHI2*%
X200914000Y-96520000D03*
%TO.P,J1,45,B45*%
%TO.N,_OCLK*%
X193294000Y-99060000D03*
%TO.P,J1,46,B46*%
%TO.N,_SOD*%
X195834000Y-99060000D03*
%TO.P,J1,47,B6*%
%TO.N,_DUMP*%
X198374000Y-99060000D03*
%TO.P,J1,48,B5*%
%TO.N,_P5*%
X200914000Y-99060000D03*
%TO.P,J1,49,B42*%
%TO.N,unconnected-(J1-B42-Pad49)*%
X193294000Y-101600000D03*
%TO.P,J1,50,B43*%
%TO.N,unconnected-(J1-B43-Pad50)*%
X195834000Y-101600000D03*
%TO.P,J1,51,B9*%
%TO.N,unconnected-(J1-B9-Pad51)*%
X198374000Y-101600000D03*
%TO.P,J1,52,B8*%
%TO.N,unconnected-(J1-B8-Pad52)*%
X200914000Y-101600000D03*
%TO.P,J1,53,B39*%
%TO.N,_P0*%
X193294000Y-104140000D03*
%TO.P,J1,54,B40*%
%TO.N,_BCLKO*%
X195834000Y-104140000D03*
%TO.P,J1,55,B12*%
%TO.N,_BCLKI*%
X198374000Y-104140000D03*
%TO.P,J1,56,B11*%
%TO.N,_P1*%
X200914000Y-104140000D03*
%TO.P,J1,57,B36*%
%TO.N,_~{KR2}*%
X193294000Y-106680000D03*
%TO.P,J1,58,B37*%
%TO.N,_~{K5}*%
X195834000Y-106680000D03*
%TO.P,J1,59,B15*%
%TO.N,_~{KR1}*%
X198374000Y-106680000D03*
%TO.P,J1,60,B14*%
%TO.N,_~{K0}*%
X200914000Y-106680000D03*
%TO.P,J1,61,B33*%
%TO.N,unconnected-(J1-B33-Pad61)*%
X193294000Y-109220000D03*
%TO.P,J1,62,B34*%
%TO.N,unconnected-(J1-B34-Pad62)*%
X195834000Y-109220000D03*
%TO.P,J1,63,B18*%
%TO.N,unconnected-(J1-B18-Pad63)*%
X198374000Y-109220000D03*
%TO.P,J1,64,B17*%
%TO.N,unconnected-(J1-B17-Pad64)*%
X200914000Y-109220000D03*
%TO.P,J1,65,B30*%
%TO.N,unconnected-(J1-B30-Pad65)*%
X193294000Y-111760000D03*
%TO.P,J1,66,B31*%
%TO.N,unconnected-(J1-B31-Pad66)*%
X195834000Y-111760000D03*
%TO.P,J1,67,B21*%
%TO.N,unconnected-(J1-B21-Pad67)*%
X198374000Y-111760000D03*
%TO.P,J1,68,B20*%
%TO.N,unconnected-(J1-B20-Pad68)*%
X200914000Y-111760000D03*
%TO.P,J1,69,B27*%
%TO.N,_~{K4}*%
X193294000Y-114300000D03*
%TO.P,J1,70,B28*%
%TO.N,_~{K3}*%
X195834000Y-114300000D03*
%TO.P,J1,71,B24*%
%TO.N,_~{K2}*%
X198374000Y-114300000D03*
%TO.P,J1,72,B23*%
%TO.N,_~{K1}*%
X200914000Y-114300000D03*
%TD*%
D22*
%TO.P,C2,1*%
%TO.N,+3.3V*%
X183210200Y-110529537D03*
%TO.P,C2,2*%
%TO.N,GND*%
X183210200Y-111169537D03*
%TD*%
D23*
%TO.P,Q11,1,G*%
%TO.N,_DUMP*%
X162989001Y-91059000D03*
%TO.P,Q11,2,S*%
%TO.N,GND*%
X162638999Y-91059000D03*
D24*
%TO.P,Q11,3,D*%
%TO.N,P4*%
X162814000Y-91694000D03*
%TD*%
D16*
%TO.P,U9,1*%
%TO.N,GND*%
X184175400Y-82888963D03*
D17*
%TO.P,U9,2*%
%TO.N,A2*%
X184622948Y-83832700D03*
%TO.P,U9,3*%
%TO.N,_A2*%
X185123074Y-83832700D03*
%TO.P,U9,4*%
%TO.N,GND*%
X185623200Y-83832700D03*
%TO.P,U9,5*%
%TO.N,A3*%
X186123326Y-83832700D03*
%TO.P,U9,6*%
%TO.N,_A3*%
X186623452Y-83832700D03*
D16*
%TO.P,U9,7,GND*%
%TO.N,GND*%
X187071000Y-82888963D03*
%TO.P,U9,8*%
%TO.N,_A0*%
X187071000Y-82388837D03*
D17*
%TO.P,U9,9*%
%TO.N,A0*%
X186623452Y-81445100D03*
%TO.P,U9,10*%
%TO.N,GND*%
X186123326Y-81445100D03*
%TO.P,U9,11*%
%TO.N,_A1*%
X185623200Y-81445100D03*
%TO.P,U9,12*%
%TO.N,A1*%
X185123074Y-81445100D03*
%TO.P,U9,13*%
%TO.N,GND*%
X184622948Y-81445100D03*
D16*
%TO.P,U9,14,VCC*%
%TO.N,+3.3V*%
X184175400Y-82388837D03*
D18*
%TO.P,U9,15,NC*%
%TO.N,unconnected-(U9E-NC-Pad15)*%
X185623200Y-82638900D03*
%TD*%
D14*
%TO.P,TP1,1,1*%
%TO.N,D3*%
X157226000Y-71120000D03*
%TD*%
%TO.P,TP33,1,1*%
%TO.N,A1*%
X180086000Y-81280000D03*
%TD*%
%TO.P,TP4,1,1*%
%TO.N,D6*%
X157226000Y-78740000D03*
%TD*%
%TO.P,TP3,1,1*%
%TO.N,D5*%
X157226000Y-76200000D03*
%TD*%
%TO.P,TP5,1,1*%
%TO.N,D7*%
X157226000Y-81280000D03*
%TD*%
%TO.P,TP30,1,1*%
%TO.N,R{slash}W*%
X180086000Y-88900000D03*
%TD*%
D23*
%TO.P,Q14,1,G*%
%TO.N,_DUMP*%
X162989001Y-88519000D03*
%TO.P,Q14,2,S*%
%TO.N,GND*%
X162638999Y-88519000D03*
D24*
%TO.P,Q14,3,D*%
%TO.N,P7*%
X162814000Y-89154000D03*
%TD*%
D14*
%TO.P,TP27,1,1*%
%TO.N,~{IRQ}*%
X180086000Y-96520000D03*
%TD*%
%TO.P,TP39,1,1*%
%TO.N,GND*%
X190627000Y-59817000D03*
%TD*%
D12*
%TO.P,Q1,1,G*%
%TO.N,_AUDIO5*%
X183896000Y-74754999D03*
%TO.P,Q1,2,S*%
%TO.N,GND*%
X183896000Y-75105001D03*
D13*
%TO.P,Q1,3,D*%
%TO.N,Net-(Q1-D)*%
X184531000Y-74930000D03*
%TD*%
D14*
%TO.P,TP23,1,1*%
%TO.N,~{KR1}*%
X180086000Y-106680000D03*
%TD*%
D23*
%TO.P,Q9,1,G*%
%TO.N,_DUMP*%
X162989001Y-96139000D03*
%TO.P,Q9,2,S*%
%TO.N,GND*%
X162638999Y-96139000D03*
D24*
%TO.P,Q9,3,D*%
%TO.N,P2*%
X162814000Y-96774000D03*
%TD*%
D22*
%TO.P,C5,1*%
%TO.N,+3.3V*%
X182829200Y-82252900D03*
%TO.P,C5,2*%
%TO.N,GND*%
X182829200Y-82892900D03*
%TD*%
D19*
%TO.P,C9,1*%
%TO.N,+5V*%
X156057600Y-62687200D03*
%TO.P,C9,2*%
%TO.N,GND*%
X156697600Y-62687200D03*
%TD*%
D12*
%TO.P,Q16,1,G*%
%TO.N,_OCLK*%
X182270400Y-101775001D03*
%TO.P,Q16,2,S*%
%TO.N,GND*%
X182270400Y-101424999D03*
D13*
%TO.P,Q16,3,D*%
%TO.N,OCLK*%
X181635400Y-101600000D03*
%TD*%
D32*
%TO.P,J2,1,GND*%
%TO.N,GND*%
X161065900Y-68572500D03*
%TO.P,J2,2,D3*%
%TO.N,D3*%
X161065900Y-71112500D03*
%TO.P,J2,3,D4*%
%TO.N,D4*%
X161065900Y-73652500D03*
%TO.P,J2,4,D5*%
%TO.N,D5*%
X161065900Y-76192500D03*
%TO.P,J2,5,D6*%
%TO.N,D6*%
X161065900Y-78732500D03*
%TO.P,J2,6,D7*%
%TO.N,D7*%
X161065900Y-81272500D03*
%TO.P,J2,7,PHI2*%
%TO.N,PHI2*%
X161065900Y-83812500D03*
%TO.P,J2,8,P6*%
%TO.N,P6*%
X161065900Y-86352500D03*
%TO.P,J2,9,P7*%
%TO.N,P7*%
X161065900Y-88892500D03*
%TO.P,J2,10,P4*%
%TO.N,P4*%
X161065900Y-91432500D03*
%TO.P,J2,11,P5*%
%TO.N,P5*%
X161065900Y-93972500D03*
%TO.P,J2,12,P2*%
%TO.N,P2*%
X161065900Y-96512500D03*
%TO.P,J2,13,P3*%
%TO.N,P3*%
X161065900Y-99052500D03*
%TO.P,J2,14,P0*%
%TO.N,P0*%
X161065900Y-101592500D03*
%TO.P,J2,15,P1*%
%TO.N,P1*%
X161065900Y-104132500D03*
%TO.P,J2,16,~{KR2}*%
%TO.N,~{KR2}*%
X161065900Y-106672500D03*
%TO.P,J2,17,+5V*%
%TO.N,+5V*%
X161065900Y-109212500D03*
%TO.P,J2,18,~{K5}*%
%TO.N,~{K5}*%
X161065900Y-111752500D03*
%TO.P,J2,19,~{K4}*%
%TO.N,~{K4}*%
X161065900Y-114292500D03*
%TO.P,J2,20,~{K3}*%
%TO.N,~{K3}*%
X161065900Y-116832500D03*
%TO.P,J2,21,~{K2}*%
%TO.N,~{K2}*%
X176305900Y-116832500D03*
%TO.P,J2,22,~{K1}*%
%TO.N,~{K1}*%
X176305900Y-114292500D03*
%TO.P,J2,23,~{K0}*%
%TO.N,~{K0}*%
X176305900Y-111752500D03*
%TO.P,J2,24,SID*%
%TO.N,SID*%
X176305900Y-109212500D03*
%TO.P,J2,25,~{KR1}*%
%TO.N,~{KR1}*%
X176305900Y-106672500D03*
%TO.P,J2,26,BCLK*%
%TO.N,BCLK*%
X176305900Y-104132500D03*
%TO.P,J2,27,OCLK*%
%TO.N,OCLK*%
X176305900Y-101592500D03*
%TO.P,J2,28,SOD*%
%TO.N,SOD*%
X176305900Y-99052500D03*
%TO.P,J2,29,~{IRQ}*%
%TO.N,~{IRQ}*%
X176305900Y-96512500D03*
%TO.P,J2,30,~{CS0}*%
%TO.N,~{CS0}*%
X176305900Y-93972500D03*
%TO.P,J2,31,CS1*%
%TO.N,CS1*%
X176305900Y-91432500D03*
%TO.P,J2,32,R/W*%
%TO.N,R{slash}W*%
X176305900Y-88892500D03*
%TO.P,J2,33,A3*%
%TO.N,A3*%
X176305900Y-86352500D03*
%TO.P,J2,34,A2*%
%TO.N,A2*%
X176305900Y-83812500D03*
%TO.P,J2,35,A1*%
%TO.N,A1*%
X176305900Y-81272500D03*
%TO.P,J2,36,A0*%
%TO.N,A0*%
X176305900Y-78732500D03*
%TO.P,J2,37,AUDIO*%
%TO.N,AUDIO*%
X176305900Y-76192500D03*
%TO.P,J2,38,D0*%
%TO.N,D0*%
X176305900Y-73652500D03*
%TO.P,J2,39,D1*%
%TO.N,D1*%
X176305900Y-71112500D03*
%TO.P,J2,40,D2*%
%TO.N,D2*%
X176305900Y-68572500D03*
%TD*%
D25*
%TO.P,C6,1*%
%TO.N,+3.3V*%
X166404800Y-96266000D03*
%TO.P,C6,2*%
%TO.N,GND*%
X165764800Y-96266000D03*
%TD*%
D16*
%TO.P,U2,1,A->B*%
%TO.N,R{slash}W*%
X170872785Y-70438137D03*
D17*
%TO.P,U2,2,A0*%
%TO.N,_D2*%
X170426126Y-69494400D03*
%TO.P,U2,3,A1*%
%TO.N,_D1*%
X169926000Y-69494400D03*
%TO.P,U2,4,A2*%
%TO.N,_D0*%
X169425874Y-69494400D03*
%TO.P,U2,5,A3*%
%TO.N,_D7*%
X168925748Y-69494400D03*
%TO.P,U2,6,A4*%
%TO.N,_D6*%
X168425622Y-69494400D03*
%TO.P,U2,7,A5*%
%TO.N,_D5*%
X167925496Y-69494400D03*
%TO.P,U2,8,A6*%
%TO.N,_D4*%
X167425370Y-69494400D03*
%TO.P,U2,9,A7*%
%TO.N,_D3*%
X166925244Y-69494400D03*
D16*
%TO.P,U2,10,GND*%
%TO.N,GND*%
X166478585Y-70438137D03*
%TO.P,U2,11,B7*%
%TO.N,D3*%
X166478585Y-70938263D03*
D17*
%TO.P,U2,12,B6*%
%TO.N,D4*%
X166925244Y-71882000D03*
%TO.P,U2,13,B5*%
%TO.N,D5*%
X167425370Y-71882000D03*
%TO.P,U2,14,B4*%
%TO.N,D6*%
X167925496Y-71882000D03*
%TO.P,U2,15,B3*%
%TO.N,D7*%
X168425622Y-71882000D03*
%TO.P,U2,16,B2*%
%TO.N,D0*%
X168925748Y-71882000D03*
%TO.P,U2,17,B1*%
%TO.N,D1*%
X169425874Y-71882000D03*
%TO.P,U2,18,B0*%
%TO.N,D2*%
X169926000Y-71882000D03*
%TO.P,U2,19,CE*%
%TO.N,~{_EN}*%
X170426126Y-71882000D03*
D16*
%TO.P,U2,20,VCC*%
%TO.N,+3.3V*%
X170872785Y-70938263D03*
D33*
%TO.P,U2,21,NC*%
%TO.N,unconnected-(U2-NC-Pad21)*%
X168675685Y-70688200D03*
%TD*%
D34*
%TO.P,C11,1*%
%TO.N,3V3_B*%
X156337000Y-61214000D03*
%TO.P,C11,2*%
%TO.N,GND*%
X156337000Y-59314000D03*
%TD*%
D14*
%TO.P,TP43,1,1*%
%TO.N,+5V*%
X157226000Y-109220000D03*
%TD*%
D23*
%TO.P,Q7,1,G*%
%TO.N,_DUMP*%
X162989001Y-101219000D03*
%TO.P,Q7,2,S*%
%TO.N,GND*%
X162638999Y-101219000D03*
D24*
%TO.P,Q7,3,D*%
%TO.N,P0*%
X162814000Y-101854000D03*
%TD*%
D35*
%TO.N,~{_EN}*%
X173888400Y-93522800D03*
%TO.N,+3.3V*%
X174396400Y-91948000D03*
%TO.N,GND*%
X170992800Y-93065600D03*
%TO.N,+3.3V*%
X170992800Y-91744800D03*
%TO.N,GND*%
X174853600Y-93522800D03*
D36*
%TO.N,3V3_B*%
X157734000Y-61214000D03*
D35*
%TO.N,GND*%
X188163200Y-83820000D03*
X183083200Y-80619600D03*
X162610800Y-97790000D03*
X172110400Y-114401600D03*
X183134000Y-98856800D03*
X182829200Y-83820000D03*
X168706800Y-117602000D03*
X170535600Y-89560400D03*
X162610800Y-92811600D03*
X186385200Y-107543600D03*
X165963600Y-115366800D03*
X173075600Y-71526400D03*
X162661600Y-102870000D03*
X169214800Y-110794800D03*
X162610800Y-85191600D03*
X189484000Y-74320400D03*
X189509400Y-71221600D03*
X189280800Y-111150400D03*
D36*
X157734000Y-59283600D03*
D35*
X184607200Y-115011200D03*
X171958000Y-81483200D03*
X182981600Y-72390000D03*
X183184800Y-112115600D03*
X170535600Y-97180400D03*
X168402000Y-83769200D03*
X165100000Y-70002400D03*
X189534800Y-72796400D03*
X183388000Y-108915200D03*
X170535600Y-104800400D03*
X162610800Y-87680800D03*
X165455600Y-102565200D03*
X166217600Y-112166400D03*
X162661600Y-100330000D03*
X182981600Y-73914000D03*
X166166800Y-78740000D03*
X182981600Y-75438000D03*
X187452000Y-79806800D03*
X162610800Y-90170000D03*
X185318400Y-85648800D03*
X183083200Y-101447600D03*
X166014400Y-81991200D03*
X162661600Y-95250000D03*
X170535600Y-77978000D03*
X165557200Y-87833200D03*
X183184800Y-103936800D03*
X183083200Y-96316800D03*
X165506400Y-94996000D03*
D36*
X157581600Y-62687200D03*
%TO.N,+5V*%
X156768800Y-63906400D03*
D35*
%TO.N,SID*%
X164744400Y-84632800D03*
X164744400Y-109220000D03*
%TO.N,BCLK*%
X170535600Y-106934000D03*
X171399200Y-104140000D03*
%TO.N,R{slash}W*%
X174040800Y-78740000D03*
X174040800Y-88900000D03*
X173075600Y-69494400D03*
%TO.N,A0*%
X188163200Y-80619600D03*
X188163200Y-77825600D03*
%TO.N,+3.3V*%
X166573200Y-87833200D03*
X165100000Y-80416400D03*
X173075600Y-70510400D03*
X166522400Y-95453200D03*
X182270400Y-110540800D03*
X166522400Y-103073200D03*
X181914800Y-82245200D03*
X165049200Y-113792000D03*
%TO.N,_P3*%
X188671200Y-95961200D03*
%TO.N,_P5*%
X167690800Y-98044000D03*
X169672000Y-98044000D03*
%TO.N,_P7*%
X169621200Y-87426800D03*
X167690800Y-87426800D03*
%TO.N,_P6*%
X169672000Y-90424000D03*
X167690800Y-90424000D03*
%TO.N,_P1*%
X169621200Y-102666800D03*
X167690800Y-102666800D03*
%TO.N,_P0*%
X167690800Y-105664000D03*
X169672000Y-105664000D03*
%TO.N,_P2*%
X167690800Y-95046800D03*
X169621200Y-95046800D03*
%TO.N,_AUDIO1*%
X182219600Y-71475600D03*
%TO.N,_AUDIO3*%
X182219600Y-73202800D03*
%TO.N,_AUDIO5*%
X182270400Y-74676000D03*
%TO.N,_A2*%
X184099200Y-85648800D03*
%TO.N,_A1*%
X191262000Y-80264000D03*
%TO.N,_DUMP*%
X163982400Y-101041200D03*
X163982400Y-93421200D03*
X163982400Y-88341200D03*
X163982400Y-90881200D03*
X163982400Y-98501200D03*
X163982400Y-95961200D03*
X163982400Y-103581200D03*
X163982400Y-85801200D03*
%TO.N,_R{slash}W*%
X189280800Y-78536800D03*
X189280800Y-82194400D03*
%TO.N,_~{KR2}*%
X181965600Y-111810800D03*
%TO.N,_~{K5}*%
X167487600Y-111252000D03*
%TO.N,~{_EN}*%
X172110400Y-73202800D03*
X173228000Y-87426800D03*
X184099200Y-87071200D03*
%TO.N,_~{K4}*%
X167081200Y-116586000D03*
%TO.N,_~{K3}*%
X169773600Y-117195600D03*
%TO.N,_SOD*%
X188671200Y-98755200D03*
%TO.N,_PHI2*%
X181457600Y-93980000D03*
X181457600Y-77165200D03*
%TO.N,_SID*%
X182829200Y-88950800D03*
X182829200Y-85648800D03*
%TO.N,_~{K0}*%
X184708800Y-107950000D03*
X189585600Y-106680000D03*
%TO.N,_~{K1}*%
X184200800Y-113284000D03*
%TO.N,_~{K2}*%
X186131200Y-114604800D03*
%TO.N,_BCLKO*%
X188671200Y-104089200D03*
%TD*%
D37*
%TO.N,GND*%
X174701200Y-92710000D02*
X174701200Y-93370400D01*
X174701200Y-93370400D02*
X174853600Y-93522800D01*
X172081602Y-92710000D02*
X171348400Y-92710000D01*
X171348400Y-92710000D02*
X170992800Y-93065600D01*
%TO.N,+3.3V*%
X171458001Y-92210001D02*
X170992800Y-91744800D01*
X172096588Y-92210001D02*
X171458001Y-92210001D01*
%TO.N,~{_EN}*%
X173134401Y-93522800D02*
X172821600Y-93209999D01*
X173888400Y-93522800D02*
X173134401Y-93522800D01*
%TO.N,+3.3V*%
X174061200Y-92283200D02*
X174396400Y-91948000D01*
X174061200Y-92710000D02*
X174061200Y-92283200D01*
X174061200Y-92710000D02*
X172821600Y-92710000D01*
%TO.N,~{CS0}*%
X172407700Y-93972500D02*
X176305900Y-93972500D01*
X172081602Y-93646402D02*
X172407700Y-93972500D01*
X172081602Y-93209999D02*
X172081602Y-93646402D01*
%TO.N,CS1*%
X174149900Y-91432500D02*
X176305900Y-91432500D01*
X173372399Y-92210001D02*
X174149900Y-91432500D01*
X172821600Y-92210001D02*
X173372399Y-92210001D01*
%TO.N,_P2*%
X168190800Y-96270000D02*
X168190800Y-95546800D01*
X168190800Y-95546800D02*
X167690800Y-95046800D01*
%TO.N,_P7*%
X173837600Y-88188800D02*
X174193200Y-87833200D01*
X172770800Y-88188800D02*
X173837600Y-88188800D01*
X185064400Y-87833200D02*
X174193200Y-87833200D01*
X200914000Y-88900000D02*
X199440800Y-87426800D01*
X199440800Y-87426800D02*
X185470800Y-87426800D01*
X185470800Y-87426800D02*
X185064400Y-87833200D01*
D38*
%TO.N,3V3_B*%
X159004000Y-61214000D02*
X157734000Y-61214000D01*
X157734000Y-61214000D02*
X156337000Y-61214000D01*
X159385000Y-61595000D02*
X159004000Y-61214000D01*
D37*
%TO.N,GND*%
X182981600Y-72390000D02*
X182981600Y-72415400D01*
X184175400Y-82888963D02*
X182833137Y-82888963D01*
X165535737Y-70438137D02*
X165100000Y-70002400D01*
X173075600Y-71475600D02*
X173024800Y-71526400D01*
X183314599Y-75105001D02*
X182981600Y-75438000D01*
X187452000Y-79806800D02*
X186334400Y-79806800D01*
X183384063Y-108919137D02*
X183362600Y-108919137D01*
X183896000Y-75105001D02*
X183314599Y-75105001D01*
X170535600Y-104800400D02*
X170125200Y-104390000D01*
X162638999Y-91059000D02*
X162638999Y-90198199D01*
X184876948Y-109061885D02*
X184876948Y-109706537D01*
X166044137Y-81022063D02*
X165989000Y-81077200D01*
X172212000Y-71556800D02*
X172994400Y-71556800D01*
X183314599Y-72057001D02*
X182981600Y-72390000D01*
X183210200Y-111169537D02*
X183210200Y-112090200D01*
D38*
X156356000Y-59295000D02*
X156337000Y-59314000D01*
D37*
X186123326Y-80017874D02*
X186123326Y-81445100D01*
X162638999Y-96139000D02*
X162638999Y-95272601D01*
X170535600Y-97180400D02*
X170125200Y-96770000D01*
X166014400Y-81991200D02*
X166006700Y-81983500D01*
X170125200Y-96770000D02*
X169190800Y-96770000D01*
X189509400Y-71221600D02*
X189484000Y-71221600D01*
X189100201Y-73230999D02*
X189534800Y-72796400D01*
X182270400Y-101424999D02*
X183060599Y-101424999D01*
X165764800Y-96266000D02*
X165760400Y-96266000D01*
X165582200Y-87833200D02*
X165557200Y-87833200D01*
X183083200Y-101447600D02*
X183105801Y-101424999D01*
X186334400Y-79806800D02*
X186123326Y-80017874D01*
X188595000Y-71706999D02*
X189024001Y-71706999D01*
X186377326Y-109702600D02*
X186385200Y-107543600D01*
X165760400Y-96266000D02*
X165506400Y-96012000D01*
X170535600Y-89560400D02*
X170125200Y-89150000D01*
X168706800Y-81953100D02*
X168706800Y-83464400D01*
X170125200Y-104390000D02*
X169190800Y-104390000D01*
D38*
X157722600Y-59295000D02*
X156356000Y-59295000D01*
D37*
X162638999Y-95272601D02*
X162661600Y-95250000D01*
X165506400Y-96012000D02*
X165506400Y-94996000D01*
X171958000Y-81483200D02*
X171496863Y-81022063D01*
X165812200Y-88088200D02*
X165557200Y-87833200D01*
X162638999Y-101219000D02*
X162638999Y-100352601D01*
X187071000Y-82888963D02*
X188044963Y-82888963D01*
X189484000Y-72771000D02*
X189484000Y-72771000D01*
X165455600Y-103581200D02*
X165455600Y-102565200D01*
X182181500Y-96344999D02*
X183055001Y-96344999D01*
X168706800Y-83464400D02*
X168402000Y-83769200D01*
X171496863Y-81022063D02*
X170154600Y-81022063D01*
X166217600Y-112166400D02*
X166192200Y-112166400D01*
X165963600Y-114439700D02*
X165963600Y-115366800D01*
X167563800Y-112166400D02*
X166217600Y-112166400D01*
X165747800Y-103886000D02*
X165747800Y-103873400D01*
X185623200Y-85344000D02*
X185318400Y-85648800D01*
X182981600Y-72415400D02*
X183007000Y-72390000D01*
X162638999Y-92839799D02*
X162610800Y-92811600D01*
X184454800Y-80619600D02*
X183083200Y-80619600D01*
X165557200Y-87808200D02*
X165569700Y-87820700D01*
X189484000Y-72796400D02*
X189484000Y-72771000D01*
X183184800Y-112115600D02*
X183159400Y-112119537D01*
X189024001Y-71706999D02*
X189509400Y-71221600D01*
X189458600Y-74320400D02*
X189484000Y-74320400D01*
X185877200Y-113741200D02*
X184607200Y-115011200D01*
X167259000Y-114397663D02*
X165992937Y-114397663D01*
X182829200Y-82892900D02*
X182829200Y-83820000D01*
X172994400Y-71556800D02*
X173024800Y-71526400D01*
X183007000Y-73914000D02*
X183007000Y-73914000D01*
X189049401Y-74754999D02*
X189484000Y-74320400D01*
X184622948Y-81445100D02*
X184622948Y-80787748D01*
X185623200Y-83832700D02*
X185623200Y-85344000D01*
X188595000Y-74754999D02*
X189049401Y-74754999D01*
X183314599Y-73581001D02*
X182981600Y-73914000D01*
X184734200Y-108919137D02*
X183391937Y-108919137D01*
X183060599Y-101424999D02*
X183083200Y-101447600D01*
X162638999Y-85219799D02*
X162610800Y-85191600D01*
X162638999Y-98679000D02*
X162638999Y-97818199D01*
X170535600Y-77978000D02*
X169418000Y-77978000D01*
X183896000Y-72057001D02*
X183314599Y-72057001D01*
X165557200Y-87833200D02*
X165557200Y-87808200D01*
X183156601Y-103964999D02*
X183184800Y-103936800D01*
X182245000Y-98884999D02*
X183105801Y-98884999D01*
X188163200Y-83007200D02*
X188163200Y-83820000D01*
X189509400Y-71221600D02*
X189484000Y-71247000D01*
X162638999Y-100352601D02*
X162661600Y-100330000D01*
X183032400Y-73888600D02*
X183032400Y-73914000D01*
X189280800Y-111150400D02*
X187299600Y-111150400D01*
X165747800Y-103873400D02*
X165455600Y-103581200D01*
X182295800Y-103964999D02*
X183156601Y-103964999D01*
X165992937Y-114397663D02*
X165989000Y-114401600D01*
X169206926Y-78189074D02*
X169206926Y-79616300D01*
X167538400Y-78740000D02*
X166166800Y-78740000D01*
X167259000Y-81022063D02*
X166044137Y-81022063D01*
X157581600Y-62687200D02*
X156697600Y-62687200D01*
X162638999Y-90198199D02*
X162610800Y-90170000D01*
X182833137Y-82888963D02*
X182829200Y-82892900D01*
X173024800Y-71526400D02*
X173075600Y-71526400D01*
X162638999Y-102892601D02*
X162661600Y-102870000D01*
X189484000Y-74320400D02*
X189484000Y-74295000D01*
X183896000Y-73581001D02*
X183314599Y-73581001D01*
X170125200Y-89150000D02*
X169190800Y-89150000D01*
X183388000Y-108915200D02*
X183384063Y-108919137D01*
X167706548Y-112309148D02*
X167706548Y-112953800D01*
X162638999Y-103759000D02*
X162638999Y-102892601D01*
X167706548Y-78908148D02*
X167538400Y-78740000D01*
D38*
X157745400Y-59295000D02*
X157734000Y-59283600D01*
D37*
X162638999Y-97818199D02*
X162610800Y-97790000D01*
X167706548Y-79565500D02*
X167706548Y-78908148D01*
X185877200Y-112090200D02*
X185877200Y-113741200D01*
X182981600Y-75463400D02*
X183007000Y-75438000D01*
X189484000Y-74295000D02*
X189484000Y-74295000D01*
X168706800Y-115341400D02*
X168706800Y-117602000D01*
D38*
X157734000Y-59283600D02*
X157722600Y-59295000D01*
D37*
X182981600Y-75438000D02*
X182981600Y-75463400D01*
X183007000Y-75438000D02*
X182981600Y-75438000D01*
X185420000Y-85699600D02*
X185420000Y-85699600D01*
X183032400Y-73914000D02*
X183007000Y-73914000D01*
X162638999Y-87708999D02*
X162610800Y-87680800D01*
X166478585Y-70438137D02*
X165535737Y-70438137D01*
X183391937Y-108919137D02*
X183388000Y-108915200D01*
X169214800Y-110794800D02*
X169206926Y-112991900D01*
X169418000Y-77978000D02*
X169206926Y-78189074D01*
X188595000Y-73230999D02*
X189100201Y-73230999D01*
X183055001Y-96344999D02*
X183083200Y-96316800D01*
X189484000Y-71247000D02*
X189484000Y-71221600D01*
X166006700Y-81056400D02*
X166014400Y-81991200D01*
D38*
X159385000Y-59295000D02*
X157745400Y-59295000D01*
D37*
X188044963Y-82888963D02*
X188163200Y-83007200D01*
X184734200Y-108919137D02*
X184876948Y-109061885D01*
X184454800Y-111150400D02*
X183188737Y-111150400D01*
X162638999Y-88519000D02*
X162638999Y-87708999D01*
X167563800Y-112166400D02*
X167706548Y-112309148D01*
X189458600Y-72796400D02*
X189484000Y-72796400D01*
X183007000Y-72390000D02*
X182981600Y-72390000D01*
X183210200Y-112090200D02*
X183184800Y-112115600D01*
X165812200Y-88642000D02*
X165812200Y-88088200D01*
X173075600Y-71526400D02*
X173075600Y-71475600D01*
X162638999Y-93599000D02*
X162638999Y-92839799D01*
X184622948Y-80787748D02*
X184454800Y-80619600D01*
X162638999Y-85979000D02*
X162638999Y-85219799D01*
X183105801Y-98884999D02*
X183134000Y-98856800D01*
X172110400Y-114401600D02*
X170154600Y-114397663D01*
%TO.N,D3*%
X161065900Y-71112500D02*
X157233500Y-71112500D01*
X166478585Y-70938263D02*
X161240137Y-70938263D01*
X161240137Y-70938263D02*
X161065900Y-71112500D01*
X157233500Y-71112500D02*
X157226000Y-71120000D01*
%TO.N,D4*%
X161065900Y-73652500D02*
X157233500Y-73652500D01*
X166116000Y-73660000D02*
X166108500Y-73652500D01*
X157233500Y-73652500D02*
X157226000Y-73660000D01*
X166925244Y-72850756D02*
X166116000Y-73660000D01*
X166925244Y-71882000D02*
X166925244Y-72850756D01*
X166108500Y-73652500D02*
X161065900Y-73652500D01*
%TO.N,D5*%
X161065900Y-76192500D02*
X157233500Y-76192500D01*
X157233500Y-76192500D02*
X157226000Y-76200000D01*
X161065900Y-75662100D02*
X161065900Y-76192500D01*
X166370000Y-74168000D02*
X162560000Y-74168000D01*
X167425370Y-73112630D02*
X166370000Y-74168000D01*
X167425370Y-71882000D02*
X167425370Y-73112630D01*
X162560000Y-74168000D02*
X161065900Y-75662100D01*
%TO.N,D6*%
X166497000Y-74676000D02*
X163195000Y-74676000D01*
X167925496Y-73247504D02*
X166497000Y-74676000D01*
X157226000Y-78740000D02*
X161058400Y-78740000D01*
X161058400Y-78740000D02*
X161065900Y-78732500D01*
X167925496Y-71882000D02*
X167925496Y-73247504D01*
X162433000Y-75438000D02*
X162433000Y-76708000D01*
X161065900Y-78075100D02*
X161065900Y-78732500D01*
X163195000Y-74676000D02*
X162433000Y-75438000D01*
X162433000Y-76708000D02*
X161065900Y-78075100D01*
%TO.N,D7*%
X163449000Y-75184000D02*
X162941000Y-75692000D01*
X161065900Y-81272500D02*
X157233500Y-81272500D01*
X166751000Y-75184000D02*
X163449000Y-75184000D01*
X162941000Y-75692000D02*
X162941000Y-78740000D01*
X168425622Y-73509378D02*
X166751000Y-75184000D01*
X168425622Y-71882000D02*
X168425622Y-73509378D01*
X161065900Y-80615100D02*
X161065900Y-81272500D01*
X157233500Y-81272500D02*
X157226000Y-81280000D01*
X162941000Y-78740000D02*
X161065900Y-80615100D01*
%TO.N,PHI2*%
X167843200Y-77724000D02*
X168206674Y-78087474D01*
X163982400Y-77724000D02*
X167843200Y-77724000D01*
X163626800Y-78079600D02*
X163982400Y-77724000D01*
X161065900Y-83812500D02*
X163626800Y-81251600D01*
X161065900Y-83812500D02*
X157233500Y-83812500D01*
X157233500Y-83812500D02*
X157226000Y-83820000D01*
X163626800Y-81251600D02*
X163626800Y-78079600D01*
X168206674Y-78087474D02*
X168206674Y-79578200D01*
%TO.N,P6*%
X162814000Y-86614000D02*
X161327400Y-86614000D01*
X162814000Y-86614000D02*
X168402000Y-86614000D01*
X168690800Y-86902800D02*
X168690800Y-88650000D01*
X157233500Y-86352500D02*
X157226000Y-86360000D01*
X168402000Y-86614000D02*
X168690800Y-86902800D01*
X161065900Y-86352500D02*
X157233500Y-86352500D01*
X161327400Y-86614000D02*
X161065900Y-86352500D01*
%TO.N,P7*%
X162818000Y-89150000D02*
X162814000Y-89154000D01*
X161065900Y-88892500D02*
X157233500Y-88892500D01*
X167690800Y-89150000D02*
X162818000Y-89150000D01*
X161327400Y-89154000D02*
X161065900Y-88892500D01*
X162814000Y-89154000D02*
X161327400Y-89154000D01*
X157233500Y-88892500D02*
X157226000Y-88900000D01*
%TO.N,P4*%
X161065900Y-91432500D02*
X157233500Y-91432500D01*
X162814000Y-91694000D02*
X161327400Y-91694000D01*
X162814000Y-91694000D02*
X168452800Y-91694000D01*
X168690800Y-91456000D02*
X168690800Y-89150000D01*
X157233500Y-91432500D02*
X157226000Y-91440000D01*
X168452800Y-91694000D02*
X168690800Y-91456000D01*
X161327400Y-91694000D02*
X161065900Y-91432500D01*
%TO.N,P5*%
X168690800Y-94573600D02*
X168690800Y-96266000D01*
X161065900Y-93972500D02*
X157233500Y-93972500D01*
X162814000Y-94234000D02*
X168351200Y-94234000D01*
X157233500Y-93972500D02*
X157226000Y-93980000D01*
X162814000Y-94234000D02*
X161327400Y-94234000D01*
X161327400Y-94234000D02*
X161065900Y-93972500D01*
X168351200Y-94234000D02*
X168690800Y-94573600D01*
%TO.N,P2*%
X167682800Y-96774000D02*
X167690800Y-96766000D01*
X162814000Y-96774000D02*
X161327400Y-96774000D01*
X161065900Y-96512500D02*
X157233500Y-96512500D01*
X157233500Y-96512500D02*
X157226000Y-96520000D01*
X161327400Y-96774000D02*
X161065900Y-96512500D01*
X162814000Y-96774000D02*
X167682800Y-96774000D01*
%TO.N,P3*%
X161327400Y-99314000D02*
X161065900Y-99052500D01*
X157233500Y-99052500D02*
X157226000Y-99060000D01*
X161065900Y-99052500D02*
X157233500Y-99052500D01*
X168690800Y-99025200D02*
X168690800Y-96766000D01*
X162814000Y-99314000D02*
X168402000Y-99314000D01*
X162814000Y-99314000D02*
X161327400Y-99314000D01*
X168402000Y-99314000D02*
X168690800Y-99025200D01*
%TO.N,P0*%
X161065900Y-101592500D02*
X157233500Y-101592500D01*
X168452800Y-101854000D02*
X168690800Y-102092000D01*
X157233500Y-101592500D02*
X157226000Y-101600000D01*
X161327400Y-101854000D02*
X161065900Y-101592500D01*
X162814000Y-101854000D02*
X161327400Y-101854000D01*
X168690800Y-102092000D02*
X168690800Y-103894000D01*
X162814000Y-101854000D02*
X168452800Y-101854000D01*
%TO.N,P1*%
X167690800Y-104394000D02*
X162814000Y-104394000D01*
X161065900Y-104132500D02*
X157233500Y-104132500D01*
X157233500Y-104132500D02*
X157226000Y-104140000D01*
X162814000Y-104394000D02*
X161327400Y-104394000D01*
X161327400Y-104394000D02*
X161065900Y-104132500D01*
%TO.N,~{KR2}*%
X157233500Y-106672500D02*
X157226000Y-106680000D01*
X169707052Y-111521748D02*
X170129200Y-111099600D01*
X163017200Y-107238800D02*
X162450900Y-106672500D01*
X161065900Y-106672500D02*
X157233500Y-106672500D01*
X163017200Y-109575600D02*
X163017200Y-107238800D01*
X169672000Y-110083600D02*
X163525200Y-110083600D01*
X169707052Y-112953800D02*
X169707052Y-111521748D01*
X163525200Y-110083600D02*
X163017200Y-109575600D01*
X170129200Y-110540800D02*
X169672000Y-110083600D01*
X170129200Y-111099600D02*
X170129200Y-110540800D01*
X162450900Y-106672500D02*
X161065900Y-106672500D01*
%TO.N,+5V*%
X156057600Y-63195200D02*
X156768800Y-63906400D01*
X156057600Y-62687200D02*
X156057600Y-63195200D01*
X161065900Y-109212500D02*
X157233500Y-109212500D01*
X157233500Y-109212500D02*
X157226000Y-109220000D01*
D38*
X156768800Y-63906400D02*
X159373600Y-63906400D01*
X159373600Y-63906400D02*
X159385000Y-63895000D01*
D37*
%TO.N,~{K5}*%
X167894000Y-110490000D02*
X162328400Y-110490000D01*
X168706800Y-111302800D02*
X167894000Y-110490000D01*
X161065900Y-111752500D02*
X157233500Y-111752500D01*
X168706800Y-112953800D02*
X168706800Y-111302800D01*
X162328400Y-110490000D02*
X161065900Y-111752500D01*
X157233500Y-111752500D02*
X157226000Y-111760000D01*
%TO.N,~{K4}*%
X157233500Y-114292500D02*
X157226000Y-114300000D01*
X161065900Y-114292500D02*
X157233500Y-114292500D01*
X168206674Y-117035326D02*
X168206674Y-115341400D01*
X167640000Y-117602000D02*
X168206674Y-117035326D01*
X166471600Y-117602000D02*
X167640000Y-117602000D01*
X163162100Y-114292500D02*
X166471600Y-117602000D01*
X161065900Y-114292500D02*
X163162100Y-114292500D01*
%TO.N,~{K3}*%
X157233500Y-116832500D02*
X157226000Y-116840000D01*
X170586400Y-116382800D02*
X170586400Y-117703600D01*
X162800600Y-118567200D02*
X161065900Y-116832500D01*
X170586400Y-117703600D02*
X169722800Y-118567200D01*
X169926000Y-116128800D02*
X170332400Y-116128800D01*
X169707052Y-115909852D02*
X169926000Y-116128800D01*
X170332400Y-116128800D02*
X170586400Y-116382800D01*
X169722800Y-118567200D02*
X162800600Y-118567200D01*
X169707052Y-115341400D02*
X169707052Y-115909852D01*
X161065900Y-116832500D02*
X157233500Y-116832500D01*
%TO.N,~{K2}*%
X186877452Y-116144548D02*
X186182000Y-116840000D01*
X176313400Y-116840000D02*
X176305900Y-116832500D01*
X186182000Y-116840000D02*
X180086000Y-116840000D01*
X180086000Y-116840000D02*
X176313400Y-116840000D01*
X186877452Y-112090200D02*
X186877452Y-116144548D01*
%TO.N,~{K1}*%
X185377074Y-112090200D02*
X185377074Y-113326926D01*
X180078500Y-114292500D02*
X180086000Y-114300000D01*
X185377074Y-113326926D02*
X184404000Y-114300000D01*
X176305900Y-114292500D02*
X180078500Y-114292500D01*
X184404000Y-114300000D02*
X180086000Y-114300000D01*
%TO.N,~{K0}*%
X185877200Y-108153200D02*
X185674000Y-107950000D01*
X185877200Y-109702600D02*
X185877200Y-108153200D01*
X180086000Y-111760000D02*
X176313400Y-111760000D01*
X181813200Y-107086400D02*
X181457600Y-107442000D01*
X181457600Y-107442000D02*
X181457600Y-110388400D01*
X176313400Y-111760000D02*
X176305900Y-111752500D01*
X185674000Y-107950000D02*
X185674000Y-107340400D01*
X181457600Y-110388400D02*
X180086000Y-111760000D01*
X185674000Y-107340400D02*
X185420000Y-107086400D01*
X185420000Y-107086400D02*
X181813200Y-107086400D01*
%TO.N,SID*%
X164744400Y-109220000D02*
X164751900Y-109212500D01*
X169206926Y-81965800D02*
X169206926Y-84132674D01*
X168706800Y-84632800D02*
X164744400Y-84632800D01*
X169206926Y-84132674D02*
X168706800Y-84632800D01*
X164751900Y-109212500D02*
X176305900Y-109212500D01*
X180086000Y-109220000D02*
X176313400Y-109220000D01*
X176313400Y-109220000D02*
X176305900Y-109212500D01*
%TO.N,~{KR1}*%
X186944000Y-106680000D02*
X180086000Y-106680000D01*
X186877452Y-108321348D02*
X187299600Y-107899200D01*
X180086000Y-106680000D02*
X176313400Y-106680000D01*
X187299600Y-107035600D02*
X186944000Y-106680000D01*
X186877452Y-109702600D02*
X186877452Y-108321348D01*
X176313400Y-106680000D02*
X176305900Y-106672500D01*
X187299600Y-107899200D02*
X187299600Y-107035600D01*
%TO.N,BCLK*%
X168690800Y-106206800D02*
X168910000Y-106426000D01*
X180086000Y-104140000D02*
X176313400Y-104140000D01*
X171399200Y-104140000D02*
X171848900Y-104132500D01*
X171848900Y-104132500D02*
X176305900Y-104132500D01*
X168690800Y-104394000D02*
X168690800Y-106206800D01*
X169418000Y-106934000D02*
X170535600Y-106934000D01*
X176313400Y-104140000D02*
X176305900Y-104132500D01*
X181660800Y-104140000D02*
X180086000Y-104140000D01*
X168910000Y-106426000D02*
X169418000Y-106934000D01*
%TO.N,OCLK*%
X180086000Y-101600000D02*
X176313400Y-101600000D01*
X181660800Y-101600000D02*
X180086000Y-101600000D01*
X176313400Y-101600000D02*
X176305900Y-101592500D01*
%TO.N,SOD*%
X176313400Y-99060000D02*
X176305900Y-99052500D01*
X180086000Y-99060000D02*
X176313400Y-99060000D01*
X181610000Y-99060000D02*
X180086000Y-99060000D01*
%TO.N,~{IRQ}*%
X181546500Y-96520000D02*
X180086000Y-96520000D01*
X176305900Y-96512500D02*
X180078500Y-96512500D01*
%TO.N,~{CS0}*%
X180078500Y-93972500D02*
X180086000Y-93980000D01*
X176305900Y-93972500D02*
X180078500Y-93972500D01*
%TO.N,CS1*%
X176305900Y-91432500D02*
X180078500Y-91432500D01*
X180078500Y-91432500D02*
X180086000Y-91440000D01*
%TO.N,R{slash}W*%
X180078500Y-88892500D02*
X180086000Y-88900000D01*
X174040800Y-78740000D02*
X169875200Y-78740000D01*
X171166663Y-70438137D02*
X172110400Y-69494400D01*
X174040800Y-88900000D02*
X176305900Y-88892500D01*
X170872785Y-70438137D02*
X171166663Y-70438137D01*
X169707052Y-78908148D02*
X169707052Y-79578200D01*
X174040800Y-88892500D02*
X174040800Y-88900000D01*
X172110400Y-69494400D02*
X173075600Y-69494400D01*
X176305900Y-88892500D02*
X180078500Y-88892500D01*
X169875200Y-78740000D02*
X169707052Y-78908148D01*
%TO.N,A3*%
X176313400Y-86360000D02*
X176305900Y-86352500D01*
X180086000Y-86360000D02*
X185674000Y-86360000D01*
X186123326Y-85910674D02*
X186123326Y-83832700D01*
X180086000Y-86360000D02*
X176313400Y-86360000D01*
X185674000Y-86360000D02*
X186123326Y-85910674D01*
%TO.N,A2*%
X180898800Y-84632800D02*
X180086000Y-83820000D01*
X176305900Y-83812500D02*
X180078500Y-83812500D01*
X184302400Y-84632800D02*
X180898800Y-84632800D01*
X180078500Y-83812500D02*
X180086000Y-83820000D01*
X184622948Y-84312252D02*
X184302400Y-84632800D01*
X184622948Y-83832700D02*
X184622948Y-84312252D01*
%TO.N,A1*%
X180078500Y-81272500D02*
X180086000Y-81280000D01*
X184861200Y-79806800D02*
X185123074Y-80068674D01*
X181254400Y-81280000D02*
X182727600Y-79806800D01*
X185123074Y-80068674D02*
X185123074Y-81445100D01*
X176305900Y-81272500D02*
X180078500Y-81272500D01*
X180086000Y-81280000D02*
X181254400Y-81280000D01*
X182727600Y-79806800D02*
X184861200Y-79806800D01*
%TO.N,A0*%
X187502800Y-78028800D02*
X182118000Y-78028800D01*
X187706000Y-77825600D02*
X187502800Y-78028800D01*
X186639200Y-81429352D02*
X186623452Y-81445100D01*
X180078500Y-78732500D02*
X180086000Y-78740000D01*
X186623452Y-80787748D02*
X186623452Y-81445100D01*
X182118000Y-78028800D02*
X181406800Y-78740000D01*
X176305900Y-78732500D02*
X180078500Y-78732500D01*
X188163200Y-77825600D02*
X187706000Y-77825600D01*
X181406800Y-78740000D02*
X180086000Y-78740000D01*
X188163200Y-80619600D02*
X186791600Y-80619600D01*
X186791600Y-80619600D02*
X186623452Y-80787748D01*
%TO.N,AUDIO*%
X186309000Y-76073000D02*
X185928000Y-76454000D01*
X185674000Y-74676000D02*
X185674000Y-73726000D01*
X186309000Y-73290999D02*
X185873999Y-73726000D01*
X186436000Y-71399000D02*
X186309000Y-71399000D01*
X186436000Y-74701000D02*
X186309000Y-74701000D01*
X186309000Y-71399000D02*
X186309000Y-73290999D01*
X176305900Y-76192500D02*
X180078500Y-76192500D01*
X186309000Y-74701000D02*
X186309000Y-76073000D01*
X186309000Y-74701000D02*
X185699000Y-74701000D01*
X180340000Y-76454000D02*
X180086000Y-76200000D01*
X180078500Y-76192500D02*
X180086000Y-76200000D01*
X186944000Y-74701000D02*
X186436000Y-74701000D01*
X186872000Y-71471000D02*
X186944000Y-71399000D01*
X186944000Y-71399000D02*
X186436000Y-71399000D01*
X185928000Y-76454000D02*
X180340000Y-76454000D01*
X186944000Y-74701000D02*
X186944000Y-73635000D01*
X185873999Y-73726000D02*
X185674000Y-73726000D01*
X186919000Y-74676000D02*
X186944000Y-74701000D01*
X185674000Y-71471000D02*
X185674000Y-71374000D01*
X185746000Y-71399000D02*
X185674000Y-71471000D01*
X186309000Y-71399000D02*
X185746000Y-71399000D01*
X185699000Y-74701000D02*
X185674000Y-74676000D01*
%TO.N,D0*%
X170602148Y-75184000D02*
X174774400Y-75184000D01*
X180078500Y-73652500D02*
X180086000Y-73660000D01*
X168925748Y-71882000D02*
X168925748Y-73507600D01*
X168925748Y-73507600D02*
X170602148Y-75184000D01*
X174774400Y-75184000D02*
X176305900Y-73652500D01*
X176305900Y-73652500D02*
X180078500Y-73652500D01*
%TO.N,D1*%
X176305900Y-71112500D02*
X180078500Y-71112500D01*
X171043600Y-74676000D02*
X173482000Y-74676000D01*
X169425874Y-71882000D02*
X169425874Y-73058274D01*
X173482000Y-74676000D02*
X176305900Y-71852100D01*
X180078500Y-71112500D02*
X180086000Y-71120000D01*
X169425874Y-73058274D02*
X171043600Y-74676000D01*
X176305900Y-71852100D02*
X176305900Y-71112500D01*
%TO.N,D2*%
X180078500Y-68572500D02*
X180086000Y-68580000D01*
X169926000Y-71882000D02*
X169926000Y-72847200D01*
X174879000Y-72136000D02*
X174879000Y-69999400D01*
X176305900Y-68572500D02*
X180078500Y-68572500D01*
X171246800Y-74168000D02*
X172847000Y-74168000D01*
X172847000Y-74168000D02*
X174879000Y-72136000D01*
X169926000Y-72847200D02*
X171246800Y-74168000D01*
X174879000Y-69999400D02*
X176305900Y-68572500D01*
%TO.N,+3.3V*%
X165049200Y-113792000D02*
X165056900Y-113799700D01*
X170872785Y-70938263D02*
X172190537Y-70938263D01*
X166729537Y-113897537D02*
X166652500Y-113820500D01*
X166452200Y-88642000D02*
X166452200Y-87954200D01*
X182258763Y-110552437D02*
X182252700Y-110552437D01*
X166006700Y-80416400D02*
X165100000Y-80416400D01*
X181922500Y-82252900D02*
X181914800Y-82245200D01*
X166522400Y-95453200D02*
X166534900Y-95440700D01*
X182282037Y-110552437D02*
X182270400Y-110540800D01*
X172669200Y-70916800D02*
X173075600Y-70510400D01*
X166387800Y-103886000D02*
X166387800Y-103207800D01*
X167259000Y-113897537D02*
X166729537Y-113897537D01*
X184175400Y-82388837D02*
X183734837Y-82388837D01*
X166522400Y-103073200D02*
X166522400Y-103065200D01*
X183925337Y-110650274D02*
X183848300Y-110573237D01*
X166404800Y-96266000D02*
X166404800Y-95570800D01*
X165963600Y-113799700D02*
X165049200Y-113792000D01*
X166452200Y-87954200D02*
X166573200Y-87833200D01*
X166387800Y-103207800D02*
X166522400Y-103073200D01*
X182829200Y-82252900D02*
X181922500Y-82252900D01*
X172212000Y-70916800D02*
X172669200Y-70916800D01*
X167690800Y-103894000D02*
X166395800Y-103894000D01*
X166522400Y-103065200D02*
X166514400Y-103073200D01*
X166780337Y-80521937D02*
X166695600Y-80437200D01*
X166514400Y-103073200D02*
X166522400Y-103073200D01*
X183159400Y-110552437D02*
X182282037Y-110552437D01*
X184454800Y-110650274D02*
X183925337Y-110650274D01*
X166573200Y-87833200D02*
X166585700Y-87820700D01*
X167690800Y-88650000D02*
X166460200Y-88650000D01*
X166695600Y-80437200D02*
X165989000Y-80437200D01*
X167690800Y-96266000D02*
X166404800Y-96266000D01*
X166404800Y-95570800D02*
X166522400Y-95453200D01*
X183734837Y-82388837D02*
X183591200Y-82245200D01*
X183591200Y-82245200D02*
X183583500Y-82252900D01*
X183848300Y-110573237D02*
X183141700Y-110573237D01*
X172190537Y-70938263D02*
X172212000Y-70916800D01*
X182270400Y-110540800D02*
X182258763Y-110552437D01*
X166652500Y-113820500D02*
X165945900Y-113820500D01*
X167259000Y-80521937D02*
X166780337Y-80521937D01*
X166395800Y-103894000D02*
X166387800Y-103886000D01*
X166460200Y-88650000D02*
X166452200Y-88642000D01*
X183583500Y-82252900D02*
X182829200Y-82252900D01*
%TO.N,Net-(Q1-D)*%
X185674000Y-75696000D02*
X185297000Y-75696000D01*
X185297000Y-75696000D02*
X184531000Y-74930000D01*
%TO.N,Net-(Q2-D)*%
X187960000Y-74930000D02*
X187549000Y-75341000D01*
X187549000Y-75341000D02*
X186944000Y-75341000D01*
%TO.N,Net-(Q3-D)*%
X184531000Y-73406000D02*
X184851000Y-73086000D01*
X184851000Y-73086000D02*
X185674000Y-73086000D01*
%TO.N,Net-(Q4-D)*%
X187549000Y-72995000D02*
X186944000Y-72995000D01*
X187960000Y-73406000D02*
X187549000Y-72995000D01*
%TO.N,Net-(Q5-D)*%
X184531000Y-71882000D02*
X184760000Y-72111000D01*
X184760000Y-72111000D02*
X185674000Y-72111000D01*
%TO.N,Net-(Q6-D)*%
X187803000Y-72039000D02*
X186944000Y-72039000D01*
X187960000Y-71882000D02*
X187803000Y-72039000D01*
%TO.N,_P4*%
X172419200Y-88650000D02*
X173736000Y-89966800D01*
X192227200Y-89966800D02*
X193294000Y-88900000D01*
X169190800Y-88650000D02*
X172419200Y-88650000D01*
X173736000Y-89966800D02*
X192227200Y-89966800D01*
%TO.N,_P3*%
X170078400Y-96266000D02*
X170840400Y-95504000D01*
X170840400Y-95504000D02*
X188214000Y-95504000D01*
X169190800Y-96266000D02*
X170078400Y-96266000D01*
X188214000Y-95504000D02*
X188671200Y-95961200D01*
%TO.N,_P5*%
X169672000Y-98044000D02*
X171246800Y-98044000D01*
X171246800Y-98044000D02*
X171754800Y-97536000D01*
X199390000Y-97536000D02*
X200914000Y-99060000D01*
X168190800Y-97544000D02*
X167690800Y-98044000D01*
X168190800Y-96770000D02*
X168190800Y-97544000D01*
X171754800Y-97536000D02*
X199390000Y-97536000D01*
%TO.N,_P7*%
X168190800Y-87926800D02*
X167690800Y-87426800D01*
X169621200Y-87426800D02*
X172008800Y-87426800D01*
X168190800Y-88650000D02*
X168190800Y-87926800D01*
X172008800Y-87426800D02*
X172770800Y-88188800D01*
%TO.N,_P6*%
X168190800Y-89150000D02*
X168190800Y-89924000D01*
X194310000Y-90424000D02*
X195834000Y-88900000D01*
X169672000Y-90424000D02*
X194310000Y-90424000D01*
X168190800Y-89924000D02*
X167690800Y-90424000D01*
%TO.N,_BCLKI*%
X170535600Y-103124000D02*
X197358000Y-103124000D01*
X197358000Y-103124000D02*
X198374000Y-104140000D01*
X169190800Y-103894000D02*
X169765600Y-103894000D01*
X169765600Y-103894000D02*
X170535600Y-103124000D01*
%TO.N,_P1*%
X168190800Y-103890000D02*
X168190800Y-103166800D01*
X168190800Y-103166800D02*
X167690800Y-102666800D01*
X199440800Y-102666800D02*
X200914000Y-104140000D01*
X169621200Y-102666800D02*
X199440800Y-102666800D01*
%TO.N,_P0*%
X168190800Y-104390000D02*
X168190800Y-105164000D01*
X172059600Y-105664000D02*
X169672000Y-105664000D01*
X172364400Y-105359200D02*
X172059600Y-105664000D01*
X168190800Y-105164000D02*
X167690800Y-105664000D01*
X189382400Y-105359200D02*
X172364400Y-105359200D01*
X190601600Y-104140000D02*
X189382400Y-105359200D01*
X193294000Y-104140000D02*
X190601600Y-104140000D01*
%TO.N,_P2*%
X197307200Y-95453200D02*
X198374000Y-96520000D01*
X169621200Y-95046800D02*
X191516000Y-95046800D01*
X191922400Y-95453200D02*
X197307200Y-95453200D01*
X191516000Y-95046800D02*
X191922400Y-95453200D01*
%TO.N,_D3*%
X202590400Y-74523600D02*
X202590400Y-69367400D01*
X166925244Y-67135756D02*
X166925244Y-69494400D01*
X200914000Y-76200000D02*
X202590400Y-74523600D01*
X170180000Y-63881000D02*
X166925244Y-67135756D01*
X202590400Y-69367400D02*
X197104000Y-63881000D01*
X197104000Y-63881000D02*
X170180000Y-63881000D01*
%TO.N,_D4*%
X167425370Y-67270630D02*
X170307000Y-64389000D01*
X200914000Y-73660000D02*
X201980800Y-72593200D01*
X201980800Y-72593200D02*
X201980800Y-70256400D01*
X167425370Y-69494400D02*
X167425370Y-67270630D01*
X201980800Y-70256400D02*
X196215000Y-64490600D01*
X196215000Y-64490600D02*
X196215000Y-64389000D01*
X170307000Y-64389000D02*
X196215000Y-64389000D01*
%TO.N,_D2*%
X194360800Y-72593200D02*
X194360800Y-70281800D01*
X194360800Y-70281800D02*
X191516000Y-67437000D01*
X171069000Y-67437000D02*
X170426126Y-68079874D01*
X191516000Y-67437000D02*
X171069000Y-67437000D01*
X193294000Y-73660000D02*
X194360800Y-72593200D01*
X170426126Y-68079874D02*
X170426126Y-69494400D01*
%TO.N,_D1*%
X194818000Y-69215000D02*
X192532000Y-66929000D01*
X193294000Y-76200000D02*
X194818000Y-74676000D01*
X169926000Y-67945000D02*
X169926000Y-69494400D01*
X170942000Y-66929000D02*
X169926000Y-67945000D01*
X194818000Y-74676000D02*
X194818000Y-69215000D01*
X192532000Y-66929000D02*
X170942000Y-66929000D01*
%TO.N,_D5*%
X199898000Y-69215000D02*
X195580000Y-64897000D01*
X199898000Y-74676000D02*
X199898000Y-69215000D01*
X198374000Y-76200000D02*
X199898000Y-74676000D01*
X170434000Y-64897000D02*
X167925496Y-67405504D01*
X195580000Y-64897000D02*
X170434000Y-64897000D01*
X167925496Y-67405504D02*
X167925496Y-69494400D01*
%TO.N,_D6*%
X199390000Y-70231000D02*
X194564000Y-65405000D01*
X170561000Y-65405000D02*
X168425622Y-67540378D01*
X198374000Y-73660000D02*
X199390000Y-72644000D01*
X194564000Y-65405000D02*
X170561000Y-65405000D01*
X199390000Y-72644000D02*
X199390000Y-70231000D01*
X168425622Y-67540378D02*
X168425622Y-69494400D01*
%TO.N,_D0*%
X170815000Y-66421000D02*
X169425874Y-67810126D01*
X196900800Y-72593200D02*
X196900800Y-70281800D01*
X169425874Y-67810126D02*
X169425874Y-69494400D01*
X195834000Y-73660000D02*
X196900800Y-72593200D01*
X193040000Y-66421000D02*
X170815000Y-66421000D01*
X196900800Y-70281800D02*
X193040000Y-66421000D01*
%TO.N,_AUDIO0*%
X192659000Y-77216000D02*
X192151000Y-76708000D01*
X200914000Y-78740000D02*
X199390000Y-77216000D01*
X192151000Y-72771000D02*
X191437001Y-72057001D01*
X192151000Y-76708000D02*
X192151000Y-72771000D01*
X191437001Y-72057001D02*
X188595000Y-72057001D01*
X199390000Y-77216000D02*
X192659000Y-77216000D01*
%TO.N,_D7*%
X194056000Y-65913000D02*
X170688000Y-65913000D01*
X197358000Y-69215000D02*
X194056000Y-65913000D01*
X197358000Y-74676000D02*
X197358000Y-69215000D01*
X170688000Y-65913000D02*
X168925748Y-67675252D01*
X195834000Y-76200000D02*
X197358000Y-74676000D01*
X168925748Y-67675252D02*
X168925748Y-69494400D01*
%TO.N,_AUDIO1*%
X182219600Y-71475600D02*
X182450999Y-71706999D01*
X182245000Y-71501000D02*
X182219600Y-71475600D01*
X182450999Y-71706999D02*
X183896000Y-71706999D01*
%TO.N,_AUDIO2*%
X191643000Y-76835000D02*
X191643000Y-74295000D01*
X198374000Y-78740000D02*
X197358000Y-77724000D01*
X190929001Y-73581001D02*
X188595000Y-73581001D01*
X192532000Y-77724000D02*
X191643000Y-76835000D01*
X197358000Y-77724000D02*
X192532000Y-77724000D01*
X191643000Y-74295000D02*
X190929001Y-73581001D01*
%TO.N,_AUDIO3*%
X182219600Y-73152000D02*
X182219600Y-73126600D01*
X182219600Y-73126600D02*
X182245000Y-73152000D01*
X182245000Y-73152000D02*
X182219600Y-73152000D01*
X183896000Y-73230999D02*
X182247799Y-73230999D01*
X182247799Y-73230999D02*
X182219600Y-73202800D01*
%TO.N,_AUDIO4*%
X199390000Y-79756000D02*
X192659000Y-79756000D01*
X190548001Y-75105001D02*
X188595000Y-75105001D01*
X191135000Y-75692000D02*
X190548001Y-75105001D01*
X192659000Y-79756000D02*
X191135000Y-78232000D01*
X191135000Y-78232000D02*
X191135000Y-75692000D01*
X200914000Y-81280000D02*
X199390000Y-79756000D01*
%TO.N,_A0*%
X189077600Y-81127600D02*
X191770000Y-81127600D01*
X187071000Y-82388837D02*
X187816363Y-82388837D01*
X194818000Y-80264000D02*
X195834000Y-81280000D01*
X187816363Y-82388837D02*
X189077600Y-81127600D01*
X192633600Y-80264000D02*
X194818000Y-80264000D01*
X191770000Y-81127600D02*
X192633600Y-80264000D01*
%TO.N,_AUDIO5*%
X182323999Y-74754999D02*
X182245000Y-74676000D01*
X183896000Y-74754999D02*
X182323999Y-74754999D01*
%TO.N,_A2*%
X185123074Y-83832700D02*
X185123074Y-84624926D01*
X185123074Y-84624926D02*
X184099200Y-85648800D01*
%TO.N,_A1*%
X186385200Y-78943200D02*
X185623200Y-79705200D01*
X188315600Y-78943200D02*
X186385200Y-78943200D01*
X189636400Y-80264000D02*
X188315600Y-78943200D01*
X185623200Y-79705200D02*
X185623200Y-81445100D01*
X191262000Y-80264000D02*
X189636400Y-80264000D01*
%TO.N,_DUMP*%
X163804600Y-88519000D02*
X163982400Y-88341200D01*
X162989001Y-85979000D02*
X163804600Y-85979000D01*
X162989001Y-93599000D02*
X163804600Y-93599000D01*
X162989001Y-103759000D02*
X163804600Y-103759000D01*
X163804600Y-91059000D02*
X163982400Y-90881200D01*
X162989001Y-96139000D02*
X163804600Y-96139000D01*
X162989001Y-88519000D02*
X163804600Y-88519000D01*
X197358000Y-98044000D02*
X198374000Y-99060000D01*
X162989001Y-98679000D02*
X163804600Y-98679000D01*
X172110400Y-98044000D02*
X197358000Y-98044000D01*
X169113200Y-101041200D02*
X172110400Y-98044000D01*
X163804600Y-101219000D02*
X163982400Y-101041200D01*
X163804600Y-93599000D02*
X163982400Y-93421200D01*
X162989001Y-101219000D02*
X163804600Y-101219000D01*
X163982400Y-101041200D02*
X169113200Y-101041200D01*
X163804600Y-96139000D02*
X163982400Y-95961200D01*
X162989001Y-91059000D02*
X163804600Y-91059000D01*
X163804600Y-98679000D02*
X163982400Y-98501200D01*
X163804600Y-103759000D02*
X163982400Y-103581200D01*
X163804600Y-85979000D02*
X163982400Y-85801200D01*
%TO.N,_R{slash}W*%
X199440800Y-82346800D02*
X200914000Y-83820000D01*
X189433200Y-82346800D02*
X199440800Y-82346800D01*
X181152800Y-80010000D02*
X175818800Y-80010000D01*
X189280800Y-78536800D02*
X182626000Y-78536800D01*
X175306863Y-80521937D02*
X170154600Y-80521937D01*
X189280800Y-82194400D02*
X189433200Y-82346800D01*
X175818800Y-80010000D02*
X175306863Y-80521937D01*
X182626000Y-78536800D02*
X181152800Y-80010000D01*
%TO.N,_A3*%
X190754000Y-82804000D02*
X197358000Y-82804000D01*
X186623452Y-83832700D02*
X186623452Y-84617052D01*
X186791600Y-84785200D02*
X188772800Y-84785200D01*
X188772800Y-84785200D02*
X190754000Y-82804000D01*
X197358000Y-82804000D02*
X198374000Y-83820000D01*
X186623452Y-84617052D02*
X186791600Y-84785200D01*
%TO.N,_~{KR2}*%
X180746400Y-113030000D02*
X181965600Y-111810800D01*
X170154600Y-113897537D02*
X171141263Y-113897537D01*
X172008800Y-113030000D02*
X180746400Y-113030000D01*
X171141263Y-113897537D02*
X172008800Y-113030000D01*
%TO.N,_~{K5}*%
X168206674Y-111971074D02*
X167487600Y-111252000D01*
X168206674Y-112953800D02*
X168206674Y-111971074D01*
%TO.N,_~{IRQ}*%
X189484000Y-96520000D02*
X188976000Y-97028000D01*
X182181500Y-96695001D02*
X182514499Y-97028000D01*
X193294000Y-96520000D02*
X189484000Y-96520000D01*
X182514499Y-97028000D02*
X188976000Y-97028000D01*
%TO.N,~{_EN}*%
X182981600Y-87376000D02*
X183286400Y-87071200D01*
X173228000Y-87426800D02*
X182981600Y-87426800D01*
X171043600Y-73202800D02*
X170426126Y-72585326D01*
X172110400Y-73202800D02*
X171043600Y-73202800D01*
X183286400Y-87071200D02*
X184099200Y-87071200D01*
X170426126Y-72585326D02*
X170426126Y-71882000D01*
%TO.N,_~{K4}*%
X167706548Y-115960652D02*
X167081200Y-116586000D01*
X167706548Y-115341400D02*
X167706548Y-115960652D01*
%TO.N,_~{K3}*%
X169206926Y-116628926D02*
X169773600Y-117195600D01*
X169206926Y-115341400D02*
X169206926Y-116628926D01*
%TO.N,_SOD*%
X187858400Y-99568000D02*
X182544849Y-99568000D01*
X182544849Y-99568000D02*
X182211850Y-99235001D01*
X188671200Y-98755200D02*
X187858400Y-99568000D01*
%TO.N,_PHI2*%
X175615600Y-77470000D02*
X181152800Y-77470000D01*
X181457600Y-93980000D02*
X191160400Y-93980000D01*
X199390000Y-94996000D02*
X200914000Y-96520000D01*
X181152800Y-77470000D02*
X181457600Y-77165200D01*
X168706800Y-79578200D02*
X168706800Y-77724000D01*
X169367200Y-77063600D02*
X175209200Y-77063600D01*
X168706800Y-77724000D02*
X169367200Y-77063600D01*
X175209200Y-77063600D02*
X175615600Y-77470000D01*
X191160400Y-93980000D02*
X192176400Y-94996000D01*
X192176400Y-94996000D02*
X199390000Y-94996000D01*
%TO.N,_~{KR1}*%
X197358000Y-105664000D02*
X192125600Y-105664000D01*
X192125600Y-105664000D02*
X189077600Y-108712000D01*
X198374000Y-106680000D02*
X197358000Y-105664000D01*
X188108463Y-110646337D02*
X187325000Y-110646337D01*
X189077600Y-108712000D02*
X189077600Y-109677200D01*
X189077600Y-109677200D02*
X188108463Y-110646337D01*
%TO.N,_SID*%
X185826400Y-87833200D02*
X197307200Y-87833200D01*
X184708800Y-88950800D02*
X185826400Y-87833200D01*
X197307200Y-87833200D02*
X198374000Y-88900000D01*
X182321200Y-85140800D02*
X182829200Y-85648800D01*
X182829200Y-88950800D02*
X184708800Y-88950800D01*
X171246800Y-85140800D02*
X182321200Y-85140800D01*
X169707052Y-83601052D02*
X171246800Y-85140800D01*
X169707052Y-81965800D02*
X169707052Y-83601052D01*
%TO.N,_OCLK*%
X193294000Y-99060000D02*
X189738000Y-99060000D01*
X189738000Y-99060000D02*
X186690000Y-102108000D01*
X186690000Y-102108000D02*
X182595649Y-102108000D01*
X182595649Y-102108000D02*
X182262650Y-101775001D01*
%TO.N,_~{K0}*%
X185377074Y-108618274D02*
X184708800Y-107950000D01*
X200914000Y-106680000D02*
X199440800Y-105206800D01*
X199440800Y-105206800D02*
X191058800Y-105206800D01*
X189585600Y-106680000D02*
X191058800Y-105206800D01*
X185377074Y-109702600D02*
X185377074Y-108618274D01*
%TO.N,_~{K1}*%
X184876948Y-112607852D02*
X184200800Y-113284000D01*
X184876948Y-112090200D02*
X184876948Y-112607852D01*
%TO.N,_~{K2}*%
X186377326Y-114358674D02*
X186131200Y-114604800D01*
X186377326Y-112090200D02*
X186377326Y-114358674D01*
%TO.N,_BCLKO*%
X186029600Y-104648000D02*
X188112400Y-104648000D01*
X188112400Y-104648000D02*
X188671200Y-104089200D01*
X182646449Y-104648000D02*
X183723150Y-104648000D01*
X182313450Y-104315001D02*
X182646449Y-104648000D01*
X183723150Y-104648000D02*
X186029600Y-104648000D01*
%TD*%
M02*
