%TF.GenerationSoftware,KiCad,Pcbnew,7.0.9*%
%TF.CreationDate,2024-08-31T17:15:55-06:00*%
%TF.ProjectId,Prototype1,50726f74-6f74-4797-9065-312e6b696361,rev?*%
%TF.SameCoordinates,Original*%
%TF.FileFunction,Copper,L1,Top*%
%TF.FilePolarity,Positive*%
%FSLAX46Y46*%
G04 Gerber Fmt 4.6, Leading zero omitted, Abs format (unit mm)*
G04 Created by KiCad (PCBNEW 7.0.9) date 2024-08-31 17:15:55*
%MOMM*%
%LPD*%
G01*
G04 APERTURE LIST*
G04 Aperture macros list*
%AMRoundRect*
0 Rectangle with rounded corners*
0 $1 Rounding radius*
0 $2 $3 $4 $5 $6 $7 $8 $9 X,Y pos of 4 corners*
0 Add a 4 corners polygon primitive as box body*
4,1,4,$2,$3,$4,$5,$6,$7,$8,$9,$2,$3,0*
0 Add four circle primitives for the rounded corners*
1,1,$1+$1,$2,$3*
1,1,$1+$1,$4,$5*
1,1,$1+$1,$6,$7*
1,1,$1+$1,$8,$9*
0 Add four rect primitives between the rounded corners*
20,1,$1+$1,$2,$3,$4,$5,0*
20,1,$1+$1,$4,$5,$6,$7,0*
20,1,$1+$1,$6,$7,$8,$9,0*
20,1,$1+$1,$8,$9,$2,$3,0*%
G04 Aperture macros list end*
%TA.AperFunction,SMDPad,CuDef*%
%ADD10RoundRect,0.140000X0.170000X-0.140000X0.170000X0.140000X-0.170000X0.140000X-0.170000X-0.140000X0*%
%TD*%
%TA.AperFunction,ComponentPad*%
%ADD11C,1.524000*%
%TD*%
%TA.AperFunction,SMDPad,CuDef*%
%ADD12RoundRect,0.150000X-0.512500X-0.150000X0.512500X-0.150000X0.512500X0.150000X-0.512500X0.150000X0*%
%TD*%
%TA.AperFunction,SMDPad,CuDef*%
%ADD13RoundRect,0.140000X0.140000X0.170000X-0.140000X0.170000X-0.140000X-0.170000X0.140000X-0.170000X0*%
%TD*%
%TA.AperFunction,SMDPad,CuDef*%
%ADD14RoundRect,0.135000X0.135000X0.185000X-0.135000X0.185000X-0.135000X-0.185000X0.135000X-0.185000X0*%
%TD*%
%TA.AperFunction,SMDPad,CuDef*%
%ADD15R,0.203200X0.660400*%
%TD*%
%TA.AperFunction,SMDPad,CuDef*%
%ADD16R,0.660400X0.203200*%
%TD*%
%TA.AperFunction,SMDPad,CuDef*%
%ADD17RoundRect,0.150000X0.512500X0.150000X-0.512500X0.150000X-0.512500X-0.150000X0.512500X-0.150000X0*%
%TD*%
%TA.AperFunction,SMDPad,CuDef*%
%ADD18RoundRect,0.250000X-0.250000X-0.475000X0.250000X-0.475000X0.250000X0.475000X-0.250000X0.475000X0*%
%TD*%
%TA.AperFunction,ComponentPad*%
%ADD19R,1.700000X1.700000*%
%TD*%
%TA.AperFunction,ComponentPad*%
%ADD20O,1.700000X1.700000*%
%TD*%
%TA.AperFunction,SMDPad,CuDef*%
%ADD21C,0.304800*%
%TD*%
%TA.AperFunction,SMDPad,CuDef*%
%ADD22RoundRect,0.140000X-0.140000X-0.170000X0.140000X-0.170000X0.140000X0.170000X-0.140000X0.170000X0*%
%TD*%
%TA.AperFunction,SMDPad,CuDef*%
%ADD23RoundRect,0.135000X-0.185000X0.135000X-0.185000X-0.135000X0.185000X-0.135000X0.185000X0.135000X0*%
%TD*%
%TA.AperFunction,SMDPad,CuDef*%
%ADD24R,2.000000X3.800000*%
%TD*%
%TA.AperFunction,SMDPad,CuDef*%
%ADD25R,2.000000X1.500000*%
%TD*%
%TA.AperFunction,ViaPad*%
%ADD26C,0.800000*%
%TD*%
%TA.AperFunction,Conductor*%
%ADD27C,0.200000*%
%TD*%
%TA.AperFunction,Conductor*%
%ADD28C,0.250000*%
%TD*%
%TA.AperFunction,Conductor*%
%ADD29C,0.254000*%
%TD*%
%TA.AperFunction,Conductor*%
%ADD30C,1.270000*%
%TD*%
G04 APERTURE END LIST*
D10*
%TO.P,C16,1*%
%TO.N,+5V*%
X174498000Y-60198000D03*
%TO.P,C16,2*%
%TO.N,GND*%
X174498000Y-59238000D03*
%TD*%
D11*
%TO.P,TP71,1,1*%
%TO.N,_A2*%
X138430000Y-73660000D03*
%TD*%
D10*
%TO.P,C7,1*%
%TO.N,+3.3V*%
X156718000Y-81534000D03*
%TO.P,C7,2*%
%TO.N,GND*%
X156718000Y-80574000D03*
%TD*%
D12*
%TO.P,Q4,1,G*%
%TO.N,_AUDIO3*%
X153173000Y-60264000D03*
%TO.P,Q4,2,S*%
%TO.N,GND*%
X153173000Y-62164000D03*
%TO.P,Q4,3,D*%
%TO.N,Net-(Q4-D)*%
X155448000Y-61214000D03*
%TD*%
D13*
%TO.P,C17,1*%
%TO.N,+5V*%
X110109000Y-104140000D03*
%TO.P,C17,2*%
%TO.N,GND*%
X109149000Y-104140000D03*
%TD*%
D11*
%TO.P,TP12,1,1*%
%TO.N,P3*%
X179070000Y-83820000D03*
%TD*%
%TO.P,TP93,1,1*%
%TO.N,Net-(J3-JA8)*%
X154813000Y-109728000D03*
%TD*%
D14*
%TO.P,R1,1*%
%TO.N,AUDIO*%
X158496000Y-46736000D03*
%TO.P,R1,2*%
%TO.N,Net-(Q1-D)*%
X157476000Y-46736000D03*
%TD*%
D11*
%TO.P,TP65,1,1*%
%TO.N,_SOD*%
X138430000Y-88900000D03*
%TD*%
%TO.P,TP54,1,1*%
%TO.N,_~{K0}*%
X105410000Y-88900000D03*
%TD*%
D15*
%TO.P,U10,1,VCCB*%
%TO.N,+5V*%
X157921300Y-76787299D03*
%TO.P,U10,2,VCCA*%
%TO.N,+3.3V*%
X157521300Y-76787299D03*
D16*
%TO.P,U10,3,A0*%
%TO.N,_P4*%
X156946600Y-76962000D03*
%TO.P,U10,4,A1*%
%TO.N,_P5*%
X156946600Y-77361999D03*
%TO.P,U10,5,A2*%
%TO.N,_P6*%
X156946600Y-77761999D03*
%TO.P,U10,6,A3*%
%TO.N,_P7*%
X156946600Y-78161998D03*
D15*
%TO.P,U10,7,GND*%
%TO.N,GND*%
X157521300Y-78336699D03*
%TO.P,U10,8,OE*%
%TO.N,OE*%
X157921300Y-78336699D03*
D16*
%TO.P,U10,9,B3*%
%TO.N,Net-(U10-B3)*%
X158496000Y-78161998D03*
%TO.P,U10,10,B2*%
%TO.N,Net-(U10-B2)*%
X158496000Y-77761999D03*
%TO.P,U10,11,B1*%
%TO.N,Net-(U10-B1)*%
X158496000Y-77361999D03*
%TO.P,U10,12,B0*%
%TO.N,Net-(U10-B0)*%
X158496000Y-76962000D03*
%TD*%
D10*
%TO.P,C11,1*%
%TO.N,+3.3V*%
X156718000Y-87376000D03*
%TO.P,C11,2*%
%TO.N,GND*%
X156718000Y-86416000D03*
%TD*%
D11*
%TO.P,TP51,1,1*%
%TO.N,_P0*%
X105410000Y-76200000D03*
%TD*%
%TO.P,TP68,1,1*%
%TO.N,_CS1*%
X138430000Y-81280000D03*
%TD*%
D17*
%TO.P,Q13,1,G*%
%TO.N,_DUMP*%
X193537000Y-67752000D03*
%TO.P,Q13,2,S*%
%TO.N,GND*%
X193537000Y-65852000D03*
%TO.P,Q13,3,D*%
%TO.N,P6*%
X191262000Y-66802000D03*
%TD*%
D11*
%TO.P,TP50,1,1*%
%TO.N,_P3*%
X105410000Y-73660000D03*
%TD*%
D18*
%TO.P,C24,1*%
%TO.N,3V3_B*%
X185044000Y-116332000D03*
%TO.P,C24,2*%
%TO.N,GND*%
X186944000Y-116332000D03*
%TD*%
D11*
%TO.P,TP63,1,1*%
%TO.N,_BCLKI*%
X138430000Y-93980000D03*
%TD*%
%TO.P,TP84,1,1*%
%TO.N,GND*%
X143665000Y-45720000D03*
%TD*%
%TO.P,TP48,1,1*%
%TO.N,_P5*%
X105410000Y-68580000D03*
%TD*%
%TO.P,TP69,1,1*%
%TO.N,_R{slash}W*%
X138430000Y-78740000D03*
%TD*%
%TO.P,TP7,1,1*%
%TO.N,P6*%
X179070000Y-71120000D03*
%TD*%
%TO.P,TP66,1,1*%
%TO.N,_~{IRQ}*%
X138430000Y-86360000D03*
%TD*%
D12*
%TO.P,Q5,1,G*%
%TO.N,_AUDIO4*%
X153173000Y-65090000D03*
%TO.P,Q5,2,S*%
%TO.N,GND*%
X153173000Y-66990000D03*
%TO.P,Q5,3,D*%
%TO.N,Net-(Q5-D)*%
X155448000Y-66040000D03*
%TD*%
D14*
%TO.P,R2,1*%
%TO.N,AUDIO*%
X158496000Y-51562000D03*
%TO.P,R2,2*%
%TO.N,Net-(Q2-D)*%
X157476000Y-51562000D03*
%TD*%
D17*
%TO.P,Q14,1,G*%
%TO.N,_DUMP*%
X193537000Y-72578000D03*
%TO.P,Q14,2,S*%
%TO.N,GND*%
X193537000Y-70678000D03*
%TO.P,Q14,3,D*%
%TO.N,P7*%
X191262000Y-71628000D03*
%TD*%
D15*
%TO.P,U2,1,VCCB*%
%TO.N,+5V*%
X173669300Y-61274300D03*
%TO.P,U2,2,VCCA*%
%TO.N,+3.3V*%
X173269300Y-61274300D03*
D16*
%TO.P,U2,3,A0*%
%TO.N,_D4*%
X172694600Y-61449001D03*
%TO.P,U2,4,A1*%
%TO.N,_D5*%
X172694600Y-61849000D03*
%TO.P,U2,5,A2*%
%TO.N,_D6*%
X172694600Y-62249000D03*
%TO.P,U2,6,A3*%
%TO.N,_D7*%
X172694600Y-62648999D03*
D15*
%TO.P,U2,7,GND*%
%TO.N,GND*%
X173269300Y-62823700D03*
%TO.P,U2,8,OE*%
%TO.N,OE*%
X173669300Y-62823700D03*
D16*
%TO.P,U2,9,B3*%
%TO.N,D7*%
X174244000Y-62648999D03*
%TO.P,U2,10,B2*%
%TO.N,D6*%
X174244000Y-62249000D03*
%TO.P,U2,11,B1*%
%TO.N,D5*%
X174244000Y-61849000D03*
%TO.P,U2,12,B0*%
%TO.N,D4*%
X174244000Y-61449001D03*
%TD*%
D11*
%TO.P,TP17,1,1*%
%TO.N,~{K4}*%
X179070000Y-99060000D03*
%TD*%
%TO.P,TP42,1,1*%
%TO.N,_D6*%
X105410000Y-53340000D03*
%TD*%
D10*
%TO.P,C22,1*%
%TO.N,+3.3V*%
X172466000Y-51054000D03*
%TO.P,C22,2*%
%TO.N,GND*%
X172466000Y-50094000D03*
%TD*%
D19*
%TO.P,J1,1,Pin_1*%
%TO.N,3V3_A*%
X170688000Y-109982000D03*
D20*
%TO.P,J1,2,Pin_2*%
%TO.N,+3.3V*%
X173228000Y-109982000D03*
%TO.P,J1,3,Pin_3*%
%TO.N,3V3_B*%
X175768000Y-109982000D03*
%TD*%
D11*
%TO.P,TP31,1,1*%
%TO.N,SOD*%
X212090000Y-83820000D03*
%TD*%
D17*
%TO.P,Q8,1,G*%
%TO.N,_DUMP*%
X193537000Y-101534000D03*
%TO.P,Q8,2,S*%
%TO.N,GND*%
X193537000Y-99634000D03*
%TO.P,Q8,3,D*%
%TO.N,P1*%
X191262000Y-100584000D03*
%TD*%
D11*
%TO.P,TP82,1,1*%
%TO.N,_D2*%
X138430000Y-45720000D03*
%TD*%
%TO.P,TP43,1,1*%
%TO.N,_D7*%
X105410000Y-55880000D03*
%TD*%
%TO.P,TP74,1,1*%
%TO.N,_AUDIO5*%
X138430000Y-66040000D03*
%TD*%
D17*
%TO.P,Q7,1,G*%
%TO.N,_DUMP*%
X193537000Y-87056000D03*
%TO.P,Q7,2,S*%
%TO.N,GND*%
X193537000Y-85156000D03*
%TO.P,Q7,3,D*%
%TO.N,P2*%
X191262000Y-86106000D03*
%TD*%
D11*
%TO.P,TP5,1,1*%
%TO.N,D7*%
X179070000Y-66040000D03*
%TD*%
%TO.P,TP87,1,1*%
%TO.N,+5V*%
X178054000Y-45720000D03*
%TD*%
%TO.P,TP21,1,1*%
%TO.N,D0*%
X212090000Y-58420000D03*
%TD*%
%TO.P,TP11,1,1*%
%TO.N,P2*%
X179070000Y-81280000D03*
%TD*%
D10*
%TO.P,C9,1*%
%TO.N,+3.3V*%
X172466000Y-60198000D03*
%TO.P,C9,2*%
%TO.N,GND*%
X172466000Y-59238000D03*
%TD*%
D11*
%TO.P,TP15,1,1*%
%TO.N,~{KR2}*%
X179070000Y-91440000D03*
%TD*%
D21*
%TO.P,U11,D2,2Y*%
%TO.N,Net-(U10-B3)*%
X170315000Y-77240000D03*
%TO.P,U11,D1,GND*%
%TO.N,GND*%
X170815000Y-77240000D03*
%TO.P,U11,C2,3A*%
%TO.N,BCLK*%
X170315000Y-77740000D03*
%TO.P,U11,C1,2A*%
%TO.N,P7*%
X170815000Y-77740000D03*
%TO.P,U11,B2,1Y*%
%TO.N,Net-(U10-B2)*%
X170315000Y-78240000D03*
%TO.P,U11,B1,3Y*%
%TO.N,Net-(U11-3Y)*%
X170815000Y-78240000D03*
%TO.P,U11,A2,VCC*%
%TO.N,+5V*%
X170315000Y-78740000D03*
%TO.P,U11,A1,1A*%
%TO.N,P6*%
X170815000Y-78740000D03*
%TD*%
D11*
%TO.P,TP16,1,1*%
%TO.N,~{K5}*%
X179070000Y-96520000D03*
%TD*%
D22*
%TO.P,C23,1*%
%TO.N,+5V*%
X190274000Y-113792000D03*
%TO.P,C23,2*%
%TO.N,GND*%
X191234000Y-113792000D03*
%TD*%
D17*
%TO.P,Q10,1,G*%
%TO.N,_DUMP*%
X193537000Y-91882000D03*
%TO.P,Q10,2,S*%
%TO.N,GND*%
X193537000Y-89982000D03*
%TO.P,Q10,3,D*%
%TO.N,P3*%
X191262000Y-90932000D03*
%TD*%
D11*
%TO.P,TP10,1,1*%
%TO.N,P5*%
X179070000Y-78740000D03*
%TD*%
%TO.P,TP4,1,1*%
%TO.N,D6*%
X179070000Y-63500000D03*
%TD*%
D15*
%TO.P,U12,1,VCCB*%
%TO.N,+5V*%
X157921300Y-82445301D03*
%TO.P,U12,2,VCCA*%
%TO.N,+3.3V*%
X157521300Y-82445301D03*
D16*
%TO.P,U12,3,A0*%
%TO.N,_BCLKI*%
X156946600Y-82620002D03*
%TO.P,U12,4,A1*%
%TO.N,_PHI2*%
X156946600Y-83020001D03*
%TO.P,U12,5,A2*%
%TO.N,unconnected-(U12-A2-Pad5)*%
X156946600Y-83420001D03*
%TO.P,U12,6,A3*%
%TO.N,unconnected-(U12-A3-Pad6)*%
X156946600Y-83820000D03*
D15*
%TO.P,U12,7,GND*%
%TO.N,GND*%
X157521300Y-83994701D03*
%TO.P,U12,8,OE*%
%TO.N,OE*%
X157921300Y-83994701D03*
D16*
%TO.P,U12,9,B3*%
%TO.N,unconnected-(U12-B3-Pad9)*%
X158496000Y-83820000D03*
%TO.P,U12,10,B2*%
%TO.N,unconnected-(U12-B2-Pad10)*%
X158496000Y-83420001D03*
%TO.P,U12,11,B1*%
%TO.N,PHI2*%
X158496000Y-83020001D03*
%TO.P,U12,12,B0*%
%TO.N,Net-(U11-3Y)*%
X158496000Y-82620002D03*
%TD*%
D22*
%TO.P,C20,1*%
%TO.N,+5V*%
X170307000Y-85217000D03*
%TO.P,C20,2*%
%TO.N,GND*%
X171267000Y-85217000D03*
%TD*%
D11*
%TO.P,TP58,1,1*%
%TO.N,_~{K4}*%
X105410000Y-99060000D03*
%TD*%
D10*
%TO.P,C14,1*%
%TO.N,+5V*%
X158750000Y-81534000D03*
%TO.P,C14,2*%
%TO.N,GND*%
X158750000Y-80574000D03*
%TD*%
D11*
%TO.P,TP1,1,1*%
%TO.N,D3*%
X179070000Y-55880000D03*
%TD*%
D15*
%TO.P,U6,1,VCCB*%
%TO.N,+5V*%
X145796000Y-80746600D03*
%TO.P,U6,2,VCCA*%
%TO.N,+3.3V*%
X145396000Y-80746600D03*
D16*
%TO.P,U6,3,A0*%
%TO.N,_R{slash}W*%
X144821300Y-80921301D03*
%TO.P,U6,4,A1*%
%TO.N,_CS1*%
X144821300Y-81321300D03*
%TO.P,U6,5,A2*%
%TO.N,_~{CS0}*%
X144821300Y-81721300D03*
%TO.P,U6,6,A3*%
%TO.N,_SID*%
X144821300Y-82121299D03*
D15*
%TO.P,U6,7,GND*%
%TO.N,GND*%
X145396000Y-82296000D03*
%TO.P,U6,8,OE*%
%TO.N,OE*%
X145796000Y-82296000D03*
D16*
%TO.P,U6,9,B3*%
%TO.N,SID*%
X146370700Y-82121299D03*
%TO.P,U6,10,B2*%
%TO.N,~{CS0}*%
X146370700Y-81721300D03*
%TO.P,U6,11,B1*%
%TO.N,CS1*%
X146370700Y-81321300D03*
%TO.P,U6,12,B0*%
%TO.N,R{slash}W*%
X146370700Y-80921301D03*
%TD*%
D12*
%TO.P,Q16,1,G*%
%TO.N,_OCLK*%
X197623000Y-94808000D03*
%TO.P,Q16,2,S*%
%TO.N,GND*%
X197623000Y-96708000D03*
%TO.P,Q16,3,D*%
%TO.N,OCLK*%
X199898000Y-95758000D03*
%TD*%
D15*
%TO.P,U1,1,VCCB*%
%TO.N,+5V*%
X173669300Y-52092301D03*
%TO.P,U1,2,VCCA*%
%TO.N,+3.3V*%
X173269300Y-52092301D03*
D16*
%TO.P,U1,3,A0*%
%TO.N,_D0*%
X172694600Y-52267002D03*
%TO.P,U1,4,A1*%
%TO.N,_D1*%
X172694600Y-52667001D03*
%TO.P,U1,5,A2*%
%TO.N,_D2*%
X172694600Y-53067001D03*
%TO.P,U1,6,A3*%
%TO.N,_D3*%
X172694600Y-53467000D03*
D15*
%TO.P,U1,7,GND*%
%TO.N,GND*%
X173269300Y-53641701D03*
%TO.P,U1,8,OE*%
%TO.N,OE*%
X173669300Y-53641701D03*
D16*
%TO.P,U1,9,B3*%
%TO.N,D3*%
X174244000Y-53467000D03*
%TO.P,U1,10,B2*%
%TO.N,D2*%
X174244000Y-53067001D03*
%TO.P,U1,11,B1*%
%TO.N,D1*%
X174244000Y-52667001D03*
%TO.P,U1,12,B0*%
%TO.N,D0*%
X174244000Y-52267002D03*
%TD*%
D11*
%TO.P,TP27,1,1*%
%TO.N,R{slash}W*%
X212090000Y-73660000D03*
%TD*%
%TO.P,TP24,1,1*%
%TO.N,A1*%
X212090000Y-66040000D03*
%TD*%
%TO.P,TP70,1,1*%
%TO.N,_A3*%
X138430000Y-76200000D03*
%TD*%
D23*
%TO.P,R7,1*%
%TO.N,OE*%
X148209000Y-113788000D03*
%TO.P,R7,2*%
%TO.N,GND*%
X148209000Y-114808000D03*
%TD*%
D14*
%TO.P,R4,1*%
%TO.N,AUDIO*%
X158500000Y-61214000D03*
%TO.P,R4,2*%
%TO.N,Net-(Q4-D)*%
X157480000Y-61214000D03*
%TD*%
D11*
%TO.P,TP86,1,1*%
%TO.N,GND*%
X203327000Y-113792000D03*
%TD*%
%TO.P,TP92,1,1*%
%TO.N,Net-(J3-JA9)*%
X157353000Y-109728000D03*
%TD*%
%TO.P,TP9,1,1*%
%TO.N,P4*%
X179070000Y-76200000D03*
%TD*%
%TO.P,TP14,1,1*%
%TO.N,P1*%
X179070000Y-88900000D03*
%TD*%
%TO.P,TP20,1,1*%
%TO.N,D1*%
X212090000Y-55880000D03*
%TD*%
D14*
%TO.P,R3,1*%
%TO.N,AUDIO*%
X158500000Y-56388000D03*
%TO.P,R3,2*%
%TO.N,Net-(Q3-D)*%
X157480000Y-56388000D03*
%TD*%
D11*
%TO.P,TP40,1,1*%
%TO.N,_D4*%
X105410000Y-48260000D03*
%TD*%
%TO.P,TP33,1,1*%
%TO.N,BCLK*%
X212090000Y-88900000D03*
%TD*%
%TO.P,TP46,1,1*%
%TO.N,_P7*%
X105410000Y-63500000D03*
%TD*%
%TO.P,TP36,1,1*%
%TO.N,~{K0}*%
X212090000Y-96520000D03*
%TD*%
%TO.P,TP56,1,1*%
%TO.N,_~{K2}*%
X105410000Y-93980000D03*
%TD*%
%TO.P,TP53,1,1*%
%TO.N,_~{KR2}*%
X105410000Y-86360000D03*
%TD*%
D10*
%TO.P,C10,1*%
%TO.N,+5V*%
X174498000Y-51054000D03*
%TO.P,C10,2*%
%TO.N,GND*%
X174498000Y-50094000D03*
%TD*%
%TO.P,C13,1*%
%TO.N,+5V*%
X158750000Y-75692000D03*
%TO.P,C13,2*%
%TO.N,GND*%
X158750000Y-74732000D03*
%TD*%
D11*
%TO.P,TP59,1,1*%
%TO.N,_~{K5}*%
X105410000Y-101600000D03*
%TD*%
D10*
%TO.P,C2,1*%
%TO.N,+5V*%
X172085000Y-101036000D03*
%TO.P,C2,2*%
%TO.N,GND*%
X172085000Y-100076000D03*
%TD*%
D11*
%TO.P,TP18,1,1*%
%TO.N,~{K3}*%
X179070000Y-101600000D03*
%TD*%
%TO.P,TP8,1,1*%
%TO.N,P7*%
X179070000Y-73660000D03*
%TD*%
D21*
%TO.P,U9,D2,2Y*%
%TO.N,Net-(U10-B0)*%
X170315000Y-82550000D03*
%TO.P,U9,D1,GND*%
%TO.N,GND*%
X170815000Y-82550000D03*
%TO.P,U9,C2,3A*%
%TO.N,P5*%
X170315000Y-83050000D03*
%TO.P,U9,C1,2A*%
%TO.N,P4*%
X170815000Y-83050000D03*
%TO.P,U9,B2,1Y*%
%TO.N,Net-(U8-B3)*%
X170315000Y-83550000D03*
%TO.P,U9,B1,3Y*%
%TO.N,Net-(U10-B1)*%
X170815000Y-83550000D03*
%TO.P,U9,A2,VCC*%
%TO.N,+5V*%
X170315000Y-84050000D03*
%TO.P,U9,A1,1A*%
%TO.N,P3*%
X170815000Y-84050000D03*
%TD*%
D10*
%TO.P,C15,1*%
%TO.N,+3.3V*%
X144526000Y-79756000D03*
%TO.P,C15,2*%
%TO.N,GND*%
X144526000Y-78796000D03*
%TD*%
D11*
%TO.P,TP28,1,1*%
%TO.N,CS1*%
X212090000Y-76200000D03*
%TD*%
%TO.P,TP23,1,1*%
%TO.N,A0*%
X212090000Y-63500000D03*
%TD*%
D10*
%TO.P,C12,1*%
%TO.N,+5V*%
X158750000Y-87376000D03*
%TO.P,C12,2*%
%TO.N,GND*%
X158750000Y-86416000D03*
%TD*%
%TO.P,C4,1*%
%TO.N,+5V*%
X172085000Y-94234000D03*
%TO.P,C4,2*%
%TO.N,GND*%
X172085000Y-93274000D03*
%TD*%
%TO.P,C8,1*%
%TO.N,+5V*%
X146558000Y-79756000D03*
%TO.P,C8,2*%
%TO.N,GND*%
X146558000Y-78796000D03*
%TD*%
%TO.P,C1,1*%
%TO.N,+3.3V*%
X170053000Y-101036000D03*
%TO.P,C1,2*%
%TO.N,GND*%
X170053000Y-100076000D03*
%TD*%
D11*
%TO.P,TP49,1,1*%
%TO.N,_P2*%
X105410000Y-71120000D03*
%TD*%
D15*
%TO.P,U8,1,VCCB*%
%TO.N,+5V*%
X157921300Y-88541301D03*
%TO.P,U8,2,VCCA*%
%TO.N,+3.3V*%
X157521300Y-88541301D03*
D16*
%TO.P,U8,3,A0*%
%TO.N,_P0*%
X156946600Y-88716002D03*
%TO.P,U8,4,A1*%
%TO.N,_P1*%
X156946600Y-89116001D03*
%TO.P,U8,5,A2*%
%TO.N,_P2*%
X156946600Y-89516001D03*
%TO.P,U8,6,A3*%
%TO.N,_P3*%
X156946600Y-89916000D03*
D15*
%TO.P,U8,7,GND*%
%TO.N,GND*%
X157521300Y-90090701D03*
%TO.P,U8,8,OE*%
%TO.N,OE*%
X157921300Y-90090701D03*
D16*
%TO.P,U8,9,B3*%
%TO.N,Net-(U8-B3)*%
X158496000Y-89916000D03*
%TO.P,U8,10,B2*%
%TO.N,Net-(U7-3Y)*%
X158496000Y-89516001D03*
%TO.P,U8,11,B1*%
%TO.N,Net-(U7-2Y)*%
X158496000Y-89116001D03*
%TO.P,U8,12,B0*%
%TO.N,Net-(U7-1Y)*%
X158496000Y-88716002D03*
%TD*%
D11*
%TO.P,TP19,1,1*%
%TO.N,D2*%
X212090000Y-53340000D03*
%TD*%
%TO.P,TP83,1,1*%
%TO.N,GND*%
X138430000Y-104140000D03*
%TD*%
D12*
%TO.P,Q3,1,G*%
%TO.N,_AUDIO2*%
X153173000Y-55438000D03*
%TO.P,Q3,2,S*%
%TO.N,GND*%
X153173000Y-57338000D03*
%TO.P,Q3,3,D*%
%TO.N,Net-(Q3-D)*%
X155448000Y-56388000D03*
%TD*%
D11*
%TO.P,TP60,1,1*%
%TO.N,_SID*%
X138430000Y-101600000D03*
%TD*%
%TO.P,TP41,1,1*%
%TO.N,_D5*%
X105410000Y-50800000D03*
%TD*%
%TO.P,TP55,1,1*%
%TO.N,_~{K1}*%
X105410000Y-91440000D03*
%TD*%
%TO.P,TP39,1,1*%
%TO.N,_D3*%
X105410000Y-45720000D03*
%TD*%
%TO.P,TP61,1,1*%
%TO.N,_~{KR1}*%
X138430000Y-99060000D03*
%TD*%
D10*
%TO.P,C19,1*%
%TO.N,+3.3V*%
X156718000Y-75692000D03*
%TO.P,C19,2*%
%TO.N,GND*%
X156718000Y-74732000D03*
%TD*%
D14*
%TO.P,R6,1*%
%TO.N,AUDIO*%
X158500000Y-70866000D03*
%TO.P,R6,2*%
%TO.N,Net-(Q6-D)*%
X157480000Y-70866000D03*
%TD*%
D11*
%TO.P,TP26,1,1*%
%TO.N,A3*%
X212090000Y-71120000D03*
%TD*%
%TO.P,TP30,1,1*%
%TO.N,~{IRQ}*%
X212090000Y-81280000D03*
%TD*%
D22*
%TO.P,C18,1*%
%TO.N,+5V*%
X170307000Y-79883000D03*
%TO.P,C18,2*%
%TO.N,GND*%
X171267000Y-79883000D03*
%TD*%
D11*
%TO.P,TP90,1,1*%
%TO.N,+3.3V*%
X164973000Y-106934000D03*
%TD*%
%TO.P,TP72,1,1*%
%TO.N,_A1*%
X138430000Y-71120000D03*
%TD*%
D12*
%TO.P,Q17,1,G*%
%TO.N,_~{IRQ}*%
X197623000Y-85222000D03*
%TO.P,Q17,2,S*%
%TO.N,GND*%
X197623000Y-87122000D03*
%TO.P,Q17,3,D*%
%TO.N,~{IRQ}*%
X199898000Y-86172000D03*
%TD*%
D17*
%TO.P,Q9,1,G*%
%TO.N,_DUMP*%
X193537000Y-96708000D03*
%TO.P,Q9,2,S*%
%TO.N,GND*%
X193537000Y-94808000D03*
%TO.P,Q9,3,D*%
%TO.N,P0*%
X191262000Y-95758000D03*
%TD*%
D14*
%TO.P,R5,1*%
%TO.N,AUDIO*%
X158500000Y-66040000D03*
%TO.P,R5,2*%
%TO.N,Net-(Q5-D)*%
X157480000Y-66040000D03*
%TD*%
D11*
%TO.P,TP98,1,1*%
%TO.N,OE*%
X152273000Y-109728000D03*
%TD*%
%TO.P,TP95,1,1*%
%TO.N,Net-(J3-JA3)*%
X157353000Y-120142000D03*
%TD*%
%TO.P,TP62,1,1*%
%TO.N,_BCLKO*%
X138430000Y-96520000D03*
%TD*%
%TO.P,TP29,1,1*%
%TO.N,~{CS0}*%
X212090000Y-78740000D03*
%TD*%
D17*
%TO.P,Q12,1,G*%
%TO.N,_DUMP*%
X193537000Y-82230000D03*
%TO.P,Q12,2,S*%
%TO.N,GND*%
X193537000Y-80330000D03*
%TO.P,Q12,3,D*%
%TO.N,P5*%
X191262000Y-81280000D03*
%TD*%
D15*
%TO.P,U3,1,VCCB*%
%TO.N,+5V*%
X171256300Y-102187299D03*
%TO.P,U3,2,VCCA*%
%TO.N,+3.3V*%
X170856300Y-102187299D03*
D16*
%TO.P,U3,3,A0*%
%TO.N,_~{KR2}*%
X170281600Y-102362000D03*
%TO.P,U3,4,A1*%
%TO.N,_~{K0}*%
X170281600Y-102761999D03*
%TO.P,U3,5,A2*%
%TO.N,_~{K1}*%
X170281600Y-103161999D03*
%TO.P,U3,6,A3*%
%TO.N,_~{K2}*%
X170281600Y-103561998D03*
D15*
%TO.P,U3,7,GND*%
%TO.N,GND*%
X170856300Y-103736699D03*
%TO.P,U3,8,OE*%
%TO.N,OE*%
X171256300Y-103736699D03*
D16*
%TO.P,U3,9,B3*%
%TO.N,~{K2}*%
X171831000Y-103561998D03*
%TO.P,U3,10,B2*%
%TO.N,~{K1}*%
X171831000Y-103161999D03*
%TO.P,U3,11,B1*%
%TO.N,~{K0}*%
X171831000Y-102761999D03*
%TO.P,U3,12,B0*%
%TO.N,~{KR2}*%
X171831000Y-102362000D03*
%TD*%
D11*
%TO.P,TP3,1,1*%
%TO.N,D5*%
X179070000Y-60960000D03*
%TD*%
%TO.P,TP2,1,1*%
%TO.N,D4*%
X179070000Y-58420000D03*
%TD*%
%TO.P,TP76,1,1*%
%TO.N,_AUDIO3*%
X138430000Y-60960000D03*
%TD*%
D12*
%TO.P,Q1,1,G*%
%TO.N,_AUDIO0*%
X153173000Y-45786000D03*
%TO.P,Q1,2,S*%
%TO.N,GND*%
X153173000Y-47686000D03*
%TO.P,Q1,3,D*%
%TO.N,Net-(Q1-D)*%
X155448000Y-46736000D03*
%TD*%
D11*
%TO.P,TP94,1,1*%
%TO.N,Net-(J3-JA2)*%
X154813000Y-120142000D03*
%TD*%
%TO.P,TP91,1,1*%
%TO.N,Net-(J3-JA10)*%
X159893000Y-109728000D03*
%TD*%
%TO.P,TP37,1,1*%
%TO.N,~{K1}*%
X212090000Y-99060000D03*
%TD*%
%TO.P,TP47,1,1*%
%TO.N,_P4*%
X105410000Y-66040000D03*
%TD*%
%TO.P,J4,1,GND*%
%TO.N,GND*%
X187960000Y-53340000D03*
%TO.P,J4,2,D3*%
%TO.N,D3*%
X187960000Y-55880000D03*
%TO.P,J4,3,D4*%
%TO.N,D4*%
X187960000Y-58420000D03*
%TO.P,J4,4,D5*%
%TO.N,D5*%
X187960000Y-60960000D03*
%TO.P,J4,5,D6*%
%TO.N,D6*%
X187960000Y-63500000D03*
%TO.P,J4,6,D7*%
%TO.N,D7*%
X187960000Y-66040000D03*
%TO.P,J4,7,PHI2*%
%TO.N,PHI2*%
X187960000Y-68580000D03*
%TO.P,J4,8,P6*%
%TO.N,P6*%
X187960000Y-71120000D03*
%TO.P,J4,9,P7*%
%TO.N,P7*%
X187960000Y-73660000D03*
%TO.P,J4,10,P4*%
%TO.N,P4*%
X187960000Y-76200000D03*
%TO.P,J4,11,P5*%
%TO.N,P5*%
X187960000Y-78740000D03*
%TO.P,J4,12,P2*%
%TO.N,P2*%
X187960000Y-81280000D03*
%TO.P,J4,13,P3*%
%TO.N,P3*%
X187960000Y-83820000D03*
%TO.P,J4,14,P0*%
%TO.N,P0*%
X187960000Y-86360000D03*
%TO.P,J4,15,P1*%
%TO.N,P1*%
X187960000Y-88900000D03*
%TO.P,J4,16,~{KR2}*%
%TO.N,~{KR2}*%
X187960000Y-91440000D03*
%TO.P,J4,17,+5V*%
%TO.N,+5V*%
X187960000Y-93980000D03*
%TO.P,J4,18,~{K5}*%
%TO.N,~{K5}*%
X187960000Y-96520000D03*
%TO.P,J4,19,~{K4}*%
%TO.N,~{K4}*%
X187960000Y-99060000D03*
%TO.P,J4,20,~{K3}*%
%TO.N,~{K3}*%
X187960000Y-101600000D03*
%TO.P,J4,21,~{K2}*%
%TO.N,~{K2}*%
X203200000Y-101600000D03*
%TO.P,J4,22,~{K1}*%
%TO.N,~{K1}*%
X203200000Y-99060000D03*
%TO.P,J4,23,~{K0}*%
%TO.N,~{K0}*%
X203200000Y-96520000D03*
%TO.P,J4,24,SID*%
%TO.N,SID*%
X203200000Y-93980000D03*
%TO.P,J4,25,~{KR1}*%
%TO.N,~{KR1}*%
X203200000Y-91440000D03*
%TO.P,J4,26,BCLK*%
%TO.N,BCLK*%
X203200000Y-88900000D03*
%TO.P,J4,27,OCLK*%
%TO.N,OCLK*%
X203200000Y-86360000D03*
%TO.P,J4,28,SOD*%
%TO.N,SOD*%
X203200000Y-83820000D03*
%TO.P,J4,29,~{IRQ}*%
%TO.N,~{IRQ}*%
X203200000Y-81280000D03*
%TO.P,J4,30,~{CS0}*%
%TO.N,~{CS0}*%
X203200000Y-78740000D03*
%TO.P,J4,31,CS1*%
%TO.N,CS1*%
X203200000Y-76200000D03*
%TO.P,J4,32,R/W*%
%TO.N,R{slash}W*%
X203200000Y-73660000D03*
%TO.P,J4,33,A3*%
%TO.N,A3*%
X203200000Y-71120000D03*
%TO.P,J4,34,A2*%
%TO.N,A2*%
X203200000Y-68580000D03*
%TO.P,J4,35,A1*%
%TO.N,A1*%
X203200000Y-66040000D03*
%TO.P,J4,36,A0*%
%TO.N,A0*%
X203200000Y-63500000D03*
%TO.P,J4,37,AUDIO*%
%TO.N,AUDIO*%
X203200000Y-60960000D03*
%TO.P,J4,38,D0*%
%TO.N,D0*%
X203200000Y-58420000D03*
%TO.P,J4,39,D1*%
%TO.N,D1*%
X203200000Y-55880000D03*
%TO.P,J4,40,D2*%
%TO.N,D2*%
X203200000Y-53340000D03*
%TD*%
%TO.P,TP38,1,1*%
%TO.N,~{K2}*%
X212090000Y-101600000D03*
%TD*%
%TO.P,TP79,1,1*%
%TO.N,_AUDIO0*%
X138430000Y-53340000D03*
%TD*%
D12*
%TO.P,Q6,1,G*%
%TO.N,_AUDIO5*%
X153173000Y-69916000D03*
%TO.P,Q6,2,S*%
%TO.N,GND*%
X153173000Y-71816000D03*
%TO.P,Q6,3,D*%
%TO.N,Net-(Q6-D)*%
X155448000Y-70866000D03*
%TD*%
%TO.P,Q2,1,G*%
%TO.N,_AUDIO1*%
X153173000Y-50612000D03*
%TO.P,Q2,2,S*%
%TO.N,GND*%
X153173000Y-52512000D03*
%TO.P,Q2,3,D*%
%TO.N,Net-(Q2-D)*%
X155448000Y-51562000D03*
%TD*%
D11*
%TO.P,TP78,1,1*%
%TO.N,_AUDIO1*%
X138430000Y-55880000D03*
%TD*%
%TO.P,TP80,1,1*%
%TO.N,_D0*%
X138430000Y-50800000D03*
%TD*%
D24*
%TO.P,U13,*%
%TO.N,*%
X173380000Y-116332000D03*
D25*
%TO.P,U13,1,GND*%
%TO.N,GND*%
X179680000Y-118632000D03*
%TO.P,U13,2,VO*%
%TO.N,3V3_B*%
X179680000Y-116332000D03*
%TO.P,U13,3,VI*%
%TO.N,+5V*%
X179680000Y-114032000D03*
%TD*%
D22*
%TO.P,C21,1*%
%TO.N,+5V*%
X170307000Y-90551000D03*
%TO.P,C21,2*%
%TO.N,GND*%
X171267000Y-90551000D03*
%TD*%
D11*
%TO.P,J3,1,JA1*%
%TO.N,_DUMP*%
X152273000Y-116332000D03*
%TO.P,J3,2,JA2*%
%TO.N,Net-(J3-JA2)*%
X154813000Y-116332000D03*
%TO.P,J3,3,JA3*%
%TO.N,Net-(J3-JA3)*%
X157353000Y-116332000D03*
%TO.P,J3,4,JA4*%
%TO.N,Net-(J3-JA4)*%
X159893000Y-116332000D03*
%TO.P,J3,5,G*%
%TO.N,GND*%
X162433000Y-116332000D03*
%TO.P,J3,6,V*%
%TO.N,3V3_A*%
X164973000Y-116332000D03*
%TO.P,J3,7,JA7*%
%TO.N,OE*%
X152273000Y-113792000D03*
%TO.P,J3,8,JA8*%
%TO.N,Net-(J3-JA8)*%
X154813000Y-113792000D03*
%TO.P,J3,9,JA9*%
%TO.N,Net-(J3-JA9)*%
X157353000Y-113792000D03*
%TO.P,J3,10,JA10*%
%TO.N,Net-(J3-JA10)*%
X159893000Y-113792000D03*
%TO.P,J3,11,G*%
%TO.N,GND*%
X162433000Y-113792000D03*
%TO.P,J3,12,V*%
%TO.N,3V3_A*%
X164973000Y-113792000D03*
%TD*%
%TO.P,TP75,1,1*%
%TO.N,_AUDIO4*%
X138430000Y-63500000D03*
%TD*%
%TO.P,TP57,1,1*%
%TO.N,_~{K3}*%
X105410000Y-96520000D03*
%TD*%
D10*
%TO.P,C5,1*%
%TO.N,+3.3V*%
X144653000Y-69977000D03*
%TO.P,C5,2*%
%TO.N,GND*%
X144653000Y-69017000D03*
%TD*%
D11*
%TO.P,TP35,1,1*%
%TO.N,SID*%
X212090000Y-93980000D03*
%TD*%
%TO.P,TP77,1,1*%
%TO.N,_AUDIO2*%
X138430000Y-58420000D03*
%TD*%
%TO.P,TP25,1,1*%
%TO.N,A2*%
X212090000Y-68580000D03*
%TD*%
%TO.P,TP88,1,1*%
%TO.N,+5V*%
X187960000Y-113792000D03*
%TD*%
%TO.P,TP34,1,1*%
%TO.N,~{KR1}*%
X212090000Y-91440000D03*
%TD*%
%TO.P,TP73,1,1*%
%TO.N,_A0*%
X138430000Y-68580000D03*
%TD*%
%TO.P,TP85,1,1*%
%TO.N,GND*%
X156210000Y-106934000D03*
%TD*%
D17*
%TO.P,Q11,1,G*%
%TO.N,_DUMP*%
X193537000Y-77404000D03*
%TO.P,Q11,2,S*%
%TO.N,GND*%
X193537000Y-75504000D03*
%TO.P,Q11,3,D*%
%TO.N,P4*%
X191262000Y-76454000D03*
%TD*%
D11*
%TO.P,TP97,1,1*%
%TO.N,_DUMP*%
X152273000Y-120142000D03*
%TD*%
%TO.P,TP22,1,1*%
%TO.N,AUDIO*%
X212090000Y-60960000D03*
%TD*%
%TO.P,J2,1,PIO01*%
%TO.N,_D3*%
X114300000Y-45720000D03*
%TO.P,J2,2,PIO02*%
%TO.N,_D4*%
X114300000Y-48260000D03*
%TO.P,J2,3,PIO03*%
%TO.N,_D5*%
X114300000Y-50800000D03*
%TO.P,J2,4,PIO04*%
%TO.N,_D6*%
X114300000Y-53340000D03*
%TO.P,J2,5,PIO05*%
%TO.N,_D7*%
X114300000Y-55880000D03*
%TO.P,J2,6,PIO06*%
%TO.N,_PHI2*%
X114300000Y-58420000D03*
%TO.P,J2,7,PIO07*%
%TO.N,_P6*%
X114300000Y-60960000D03*
%TO.P,J2,8,PIO08*%
%TO.N,_P7*%
X114300000Y-63500000D03*
%TO.P,J2,9,PIO09*%
%TO.N,_P4*%
X114300000Y-66040000D03*
%TO.P,J2,10,PIO10*%
%TO.N,_P5*%
X114300000Y-68580000D03*
%TO.P,J2,11,PIO11*%
%TO.N,_P2*%
X114300000Y-71120000D03*
%TO.P,J2,12,PIO12*%
%TO.N,_P3*%
X114300000Y-73660000D03*
%TO.P,J2,13,PIO13*%
%TO.N,_P0*%
X114300000Y-76200000D03*
%TO.P,J2,14,PIO14*%
%TO.N,_P1*%
X114300000Y-78740000D03*
%TO.P,J2,15,AIN15*%
%TO.N,unconnected-(J2-AIN15-Pad15)*%
X114300000Y-81280000D03*
%TO.P,J2,16,AIN16*%
%TO.N,unconnected-(J2-AIN16-Pad16)*%
X114300000Y-83820000D03*
%TO.P,J2,17,PIO17*%
%TO.N,_~{KR2}*%
X114300000Y-86360000D03*
%TO.P,J2,18,PIO18*%
%TO.N,_~{K0}*%
X114300000Y-88900000D03*
%TO.P,J2,19,PIO19*%
%TO.N,_~{K1}*%
X114300000Y-91440000D03*
%TO.P,J2,20,PIO20*%
%TO.N,_~{K2}*%
X114300000Y-93980000D03*
%TO.P,J2,21,PIO21*%
%TO.N,_~{K3}*%
X114300000Y-96520000D03*
%TO.P,J2,22,PIO22*%
%TO.N,_~{K4}*%
X114300000Y-99060000D03*
%TO.P,J2,23,PIO23*%
%TO.N,_~{K5}*%
X114300000Y-101600000D03*
%TO.P,J2,24,VU*%
%TO.N,+5V*%
X114300000Y-104140000D03*
%TO.P,J2,25,GND*%
%TO.N,GND*%
X129540000Y-104140000D03*
%TO.P,J2,26,PIO26*%
%TO.N,_SID*%
X129540000Y-101600000D03*
%TO.P,J2,27,PIO27*%
%TO.N,_~{KR1}*%
X129540000Y-99060000D03*
%TO.P,J2,28,PIO28*%
%TO.N,_BCLKO*%
X129540000Y-96520000D03*
%TO.P,J2,29,PIO29*%
%TO.N,_BCLKI*%
X129540000Y-93980000D03*
%TO.P,J2,30,PIO30*%
%TO.N,_OCLK*%
X129540000Y-91440000D03*
%TO.P,J2,31,PIO31*%
%TO.N,_SOD*%
X129540000Y-88900000D03*
%TO.P,J2,32,PIO32*%
%TO.N,_~{IRQ}*%
X129540000Y-86360000D03*
%TO.P,J2,33,PIO33*%
%TO.N,_~{CS0}*%
X129540000Y-83820000D03*
%TO.P,J2,34,PIO34*%
%TO.N,_CS1*%
X129540000Y-81280000D03*
%TO.P,J2,35,PIO35*%
%TO.N,_R{slash}W*%
X129540000Y-78740000D03*
%TO.P,J2,36,PIO36*%
%TO.N,_A3*%
X129540000Y-76200000D03*
%TO.P,J2,37,PIO37*%
%TO.N,_A2*%
X129540000Y-73660000D03*
%TO.P,J2,38,PIO38*%
%TO.N,_A1*%
X129540000Y-71120000D03*
%TO.P,J2,39,PIO39*%
%TO.N,_A0*%
X129540000Y-68580000D03*
%TO.P,J2,40,PIO40*%
%TO.N,_AUDIO5*%
X129540000Y-66040000D03*
%TO.P,J2,41,PIO41*%
%TO.N,_AUDIO4*%
X129540000Y-63500000D03*
%TO.P,J2,42,PIO42*%
%TO.N,_AUDIO3*%
X129540000Y-60960000D03*
%TO.P,J2,43,PIO43*%
%TO.N,_AUDIO2*%
X129540000Y-58420000D03*
%TO.P,J2,44,PIO44*%
%TO.N,_AUDIO1*%
X129540000Y-55880000D03*
%TO.P,J2,45,PIO45*%
%TO.N,_AUDIO0*%
X129540000Y-53340000D03*
%TO.P,J2,46,PIO46*%
%TO.N,_D0*%
X129540000Y-50800000D03*
%TO.P,J2,47,PIO47*%
%TO.N,_D1*%
X129540000Y-48260000D03*
%TO.P,J2,48,PIO48*%
%TO.N,_D2*%
X129540000Y-45720000D03*
%TD*%
%TO.P,TP52,1,1*%
%TO.N,_P1*%
X105410000Y-78740000D03*
%TD*%
D21*
%TO.P,U7,D2,2Y*%
%TO.N,Net-(U7-2Y)*%
X170315000Y-87884000D03*
%TO.P,U7,D1,GND*%
%TO.N,GND*%
X170815000Y-87884000D03*
%TO.P,U7,C2,3A*%
%TO.N,P2*%
X170315000Y-88384000D03*
%TO.P,U7,C1,2A*%
%TO.N,P1*%
X170815000Y-88384000D03*
%TO.P,U7,B2,1Y*%
%TO.N,Net-(U7-1Y)*%
X170315000Y-88884000D03*
%TO.P,U7,B1,3Y*%
%TO.N,Net-(U7-3Y)*%
X170815000Y-88884000D03*
%TO.P,U7,A2,VCC*%
%TO.N,+5V*%
X170315000Y-89384000D03*
%TO.P,U7,A1,1A*%
%TO.N,P0*%
X170815000Y-89384000D03*
%TD*%
D15*
%TO.P,U4,1,VCCB*%
%TO.N,+5V*%
X171269000Y-95329299D03*
%TO.P,U4,2,VCCA*%
%TO.N,+3.3V*%
X170869000Y-95329299D03*
D16*
%TO.P,U4,3,A0*%
%TO.N,_~{K3}*%
X170294300Y-95504000D03*
%TO.P,U4,4,A1*%
%TO.N,_~{K4}*%
X170294300Y-95903999D03*
%TO.P,U4,5,A2*%
%TO.N,_~{K5}*%
X170294300Y-96303999D03*
%TO.P,U4,6,A3*%
%TO.N,_~{KR1}*%
X170294300Y-96703998D03*
D15*
%TO.P,U4,7,GND*%
%TO.N,GND*%
X170869000Y-96878699D03*
%TO.P,U4,8,OE*%
%TO.N,OE*%
X171269000Y-96878699D03*
D16*
%TO.P,U4,9,B3*%
%TO.N,~{KR1}*%
X171843700Y-96703998D03*
%TO.P,U4,10,B2*%
%TO.N,~{K5}*%
X171843700Y-96303999D03*
%TO.P,U4,11,B1*%
%TO.N,~{K4}*%
X171843700Y-95903999D03*
%TO.P,U4,12,B0*%
%TO.N,~{K3}*%
X171843700Y-95504000D03*
%TD*%
D12*
%TO.P,Q18,1,G*%
%TO.N,_SOD*%
X197623000Y-90048000D03*
%TO.P,Q18,2,S*%
%TO.N,GND*%
X197623000Y-91948000D03*
%TO.P,Q18,3,D*%
%TO.N,SOD*%
X199898000Y-90998000D03*
%TD*%
D11*
%TO.P,TP64,1,1*%
%TO.N,_OCLK*%
X138430000Y-91440000D03*
%TD*%
D10*
%TO.P,C6,1*%
%TO.N,+5V*%
X146431000Y-69977000D03*
%TO.P,C6,2*%
%TO.N,GND*%
X146431000Y-69017000D03*
%TD*%
D11*
%TO.P,TP81,1,1*%
%TO.N,_D1*%
X138430000Y-48260000D03*
%TD*%
%TO.P,TP89,1,1*%
%TO.N,+3.3V*%
X168021000Y-45720000D03*
%TD*%
D12*
%TO.P,Q15,1,G*%
%TO.N,_BCLKO*%
X197623000Y-100142000D03*
%TO.P,Q15,2,S*%
%TO.N,GND*%
X197623000Y-102042000D03*
%TO.P,Q15,3,D*%
%TO.N,BCLK*%
X199898000Y-101092000D03*
%TD*%
D11*
%TO.P,TP96,1,1*%
%TO.N,Net-(J3-JA4)*%
X159893000Y-120142000D03*
%TD*%
D15*
%TO.P,U5,1,VCCB*%
%TO.N,+5V*%
X145742000Y-71015301D03*
%TO.P,U5,2,VCCA*%
%TO.N,+3.3V*%
X145342000Y-71015301D03*
D16*
%TO.P,U5,3,A0*%
%TO.N,_A0*%
X144767300Y-71190002D03*
%TO.P,U5,4,A1*%
%TO.N,_A1*%
X144767300Y-71590001D03*
%TO.P,U5,5,A2*%
%TO.N,_A2*%
X144767300Y-71990001D03*
%TO.P,U5,6,A3*%
%TO.N,_A3*%
X144767300Y-72390000D03*
D15*
%TO.P,U5,7,GND*%
%TO.N,GND*%
X145342000Y-72564701D03*
%TO.P,U5,8,OE*%
%TO.N,OE*%
X145742000Y-72564701D03*
D16*
%TO.P,U5,9,B3*%
%TO.N,A3*%
X146316700Y-72390000D03*
%TO.P,U5,10,B2*%
%TO.N,A2*%
X146316700Y-71990001D03*
%TO.P,U5,11,B1*%
%TO.N,A1*%
X146316700Y-71590001D03*
%TO.P,U5,12,B0*%
%TO.N,A0*%
X146316700Y-71190002D03*
%TD*%
D11*
%TO.P,TP13,1,1*%
%TO.N,P0*%
X179070000Y-86360000D03*
%TD*%
%TO.P,TP67,1,1*%
%TO.N,_~{CS0}*%
X138430000Y-83820000D03*
%TD*%
D10*
%TO.P,C3,1*%
%TO.N,+3.3V*%
X170053000Y-94234000D03*
%TO.P,C3,2*%
%TO.N,GND*%
X170053000Y-93274000D03*
%TD*%
D11*
%TO.P,TP6,1,1*%
%TO.N,PHI2*%
X179070000Y-68580000D03*
%TD*%
%TO.P,TP44,1,1*%
%TO.N,_PHI2*%
X105410000Y-58420000D03*
%TD*%
%TO.P,TP45,1,1*%
%TO.N,_P6*%
X105410000Y-60960000D03*
%TD*%
%TO.P,TP32,1,1*%
%TO.N,OCLK*%
X212090000Y-86360000D03*
%TD*%
D26*
%TO.N,+3.3V*%
X155702000Y-75692000D03*
X165100000Y-61468000D03*
X171577000Y-60198000D03*
X155575000Y-81534000D03*
X165100000Y-60452000D03*
X155702000Y-87376000D03*
X171450000Y-51435000D03*
X165100000Y-62484000D03*
X168910000Y-94234000D03*
X143637000Y-79756000D03*
X142748000Y-69977000D03*
X169037000Y-101092000D03*
%TO.N,GND*%
X172847000Y-54737000D03*
X171958000Y-87630000D03*
X173482000Y-50800000D03*
X197612000Y-86106000D03*
X151765000Y-47625000D03*
X156972000Y-79375000D03*
X172720000Y-63754000D03*
X197623000Y-90943000D03*
X108077000Y-104140000D03*
X188722000Y-116332000D03*
X171069000Y-94107000D03*
X193548000Y-81280000D03*
X193548000Y-90932000D03*
X197612000Y-101092000D03*
X193548000Y-100584000D03*
X157734000Y-75311000D03*
X192659000Y-113792000D03*
X170815000Y-75946000D03*
X148209000Y-115824000D03*
X170307000Y-104775000D03*
X151765000Y-66929000D03*
X157734000Y-87122000D03*
X170307000Y-97917000D03*
X171069000Y-100965000D03*
X151765000Y-57277000D03*
X151765000Y-71755000D03*
X144780000Y-73660000D03*
X145542000Y-79502000D03*
X172974000Y-85344000D03*
X171958000Y-82042000D03*
X151765000Y-62103000D03*
X145542000Y-69723000D03*
X173482000Y-59944000D03*
X193548000Y-86106000D03*
X144907000Y-83312000D03*
X197612000Y-95758000D03*
X156972000Y-91059000D03*
X157734000Y-81153000D03*
X172212000Y-90424000D03*
X193548000Y-71628000D03*
X151765000Y-52451000D03*
X172212000Y-80010000D03*
X184912000Y-118618000D03*
X193548000Y-66802000D03*
X193548000Y-76454000D03*
X156972000Y-84963000D03*
X193548000Y-95758000D03*
%TO.N,+5V*%
X173101000Y-94234000D03*
X175514000Y-51435000D03*
X169418000Y-90424000D03*
X169291000Y-85090000D03*
X173101000Y-101092000D03*
X159766000Y-75692000D03*
X159766000Y-81534000D03*
X159766000Y-87376000D03*
X169418000Y-80137000D03*
X147447000Y-69977000D03*
X175387000Y-60198000D03*
X147447000Y-79756000D03*
%TO.N,D3*%
X179070000Y-53848000D03*
%TO.N,D4*%
X177546000Y-60706000D03*
X177546000Y-58420000D03*
%TO.N,D7*%
X177546000Y-63246000D03*
X177546000Y-66040000D03*
%TO.N,PHI2*%
X161290000Y-82804000D03*
X161290000Y-68580000D03*
%TO.N,P6*%
X174117000Y-79121000D03*
X174117000Y-71120000D03*
X191008000Y-67818000D03*
%TO.N,P7*%
X172085000Y-73660000D03*
X172085000Y-77470000D03*
%TO.N,P4*%
X176784000Y-76200000D03*
X176784000Y-82804000D03*
%TO.N,P5*%
X175006000Y-78740000D03*
X168656000Y-81534000D03*
X175006000Y-81534000D03*
X168656000Y-83312000D03*
%TO.N,P2*%
X168910000Y-86614000D03*
X177546000Y-87122000D03*
X191008000Y-85090000D03*
X177546000Y-81280000D03*
X168910000Y-88138000D03*
%TO.N,P3*%
X191008000Y-89916000D03*
%TO.N,P0*%
X191008000Y-94742000D03*
X174752000Y-89916000D03*
X174752000Y-86360000D03*
%TO.N,P1*%
X189484000Y-100584000D03*
%TO.N,~{KR2}*%
X177292000Y-102362000D03*
X177292000Y-91440000D03*
%TO.N,~{K4}*%
X176276000Y-99060000D03*
X176276000Y-96266000D03*
%TO.N,~{K3}*%
X180594000Y-95250000D03*
X180594000Y-101600000D03*
%TO.N,~{K2}*%
X207772000Y-101600000D03*
X207772000Y-104902000D03*
%TO.N,~{K1}*%
X206502000Y-104140000D03*
X206502000Y-99060000D03*
%TO.N,~{K0}*%
X204724000Y-103378000D03*
X204724000Y-96520000D03*
%TO.N,SID*%
X147574000Y-92202000D03*
X147574000Y-82423000D03*
%TO.N,~{KR1}*%
X206502000Y-91440000D03*
X206502000Y-97790000D03*
%TO.N,BCLK*%
X200406000Y-100203000D03*
X168021000Y-72898000D03*
X207137000Y-72390000D03*
X168021000Y-77724000D03*
%TO.N,OCLK*%
X200406000Y-94742000D03*
%TO.N,SOD*%
X200406000Y-90043000D03*
%TO.N,~{IRQ}*%
X200406000Y-81280000D03*
X200406000Y-85217000D03*
%TO.N,~{CS0}*%
X151638000Y-74422000D03*
X151257000Y-81407000D03*
X175895000Y-72136000D03*
X175895000Y-77470000D03*
X165481000Y-75946000D03*
X165481000Y-72136000D03*
%TO.N,CS1*%
X150368000Y-74295000D03*
X150368000Y-80899000D03*
%TO.N,R{slash}W*%
X149352000Y-80518000D03*
X149352000Y-73787000D03*
%TO.N,A3*%
X163576000Y-72644000D03*
X163957000Y-70485000D03*
%TO.N,A2*%
X162560000Y-72390000D03*
X163195000Y-69723000D03*
%TO.N,A1*%
X149098000Y-71374000D03*
X186309000Y-67183000D03*
X186309000Y-64770000D03*
X149352000Y-68707000D03*
%TO.N,A0*%
X184150000Y-66802000D03*
X184150000Y-62230000D03*
X148336000Y-70739000D03*
X148336000Y-67945000D03*
%TO.N,AUDIO*%
X159512000Y-46736000D03*
X159512000Y-51562000D03*
X159512000Y-66040000D03*
X159512000Y-61214000D03*
X159512000Y-70866000D03*
X159512000Y-56388000D03*
%TO.N,D0*%
X201676000Y-50038000D03*
X201676000Y-58420000D03*
%TO.N,D1*%
X200660000Y-55880000D03*
X200660000Y-51054000D03*
%TO.N,D2*%
X199390000Y-53340000D03*
X199390000Y-51308000D03*
%TO.N,_D3*%
X116586000Y-54356000D03*
X116586000Y-45720000D03*
%TO.N,_D4*%
X117856000Y-48260000D03*
X170307000Y-54991000D03*
X117856000Y-55245000D03*
X170307000Y-61214000D03*
%TO.N,_D5*%
X169545000Y-62103000D03*
X124968000Y-59563000D03*
X124968000Y-50800000D03*
X169545000Y-59055000D03*
%TO.N,_D6*%
X168529000Y-62865000D03*
X125857000Y-53340000D03*
X125857000Y-60325000D03*
X168529000Y-59817000D03*
%TO.N,_D7*%
X126619000Y-62103000D03*
X126619000Y-55880000D03*
%TO.N,_PHI2*%
X140335000Y-84709000D03*
X140335000Y-57277000D03*
%TO.N,_P6*%
X123825000Y-76708000D03*
X123825000Y-60960000D03*
%TO.N,_P7*%
X123063000Y-77597000D03*
X123063000Y-63500000D03*
%TO.N,_P4*%
X125349000Y-66040000D03*
X125349000Y-74676000D03*
%TO.N,_P5*%
X124587000Y-68580000D03*
X124587000Y-75565000D03*
%TO.N,_P2*%
X120269000Y-89662000D03*
X120269000Y-71120000D03*
%TO.N,_P3*%
X119507000Y-73660000D03*
X119507000Y-90424000D03*
%TO.N,_P0*%
X122174000Y-86741000D03*
X122174000Y-76200000D03*
%TO.N,_P1*%
X121285000Y-87757000D03*
X121285000Y-78740000D03*
%TO.N,_~{KR2}*%
X118618000Y-86360000D03*
X145034000Y-107569000D03*
X145034000Y-102362000D03*
X118618000Y-107569000D03*
%TO.N,_~{K0}*%
X146050000Y-108331000D03*
X117729000Y-88900000D03*
X117729000Y-108331000D03*
X146050000Y-103124000D03*
%TO.N,_~{K1}*%
X146939000Y-103632000D03*
X146939000Y-109093000D03*
X116713000Y-109093000D03*
X116713000Y-91440000D03*
%TO.N,_~{K2}*%
X115824000Y-93980000D03*
X147955000Y-104140000D03*
X147955000Y-109855000D03*
X115824000Y-109855000D03*
%TO.N,_SID*%
X143764000Y-101600000D03*
X143764000Y-82550000D03*
%TO.N,_BCLKO*%
X141097000Y-99314000D03*
%TO.N,_BCLKI*%
X146177000Y-93980000D03*
X146177000Y-83947000D03*
%TO.N,_SOD*%
X195834000Y-106934000D03*
X195834000Y-90043000D03*
X142621000Y-105537000D03*
%TO.N,_~{IRQ}*%
X143891000Y-104775000D03*
X143002000Y-86360000D03*
X196342000Y-106045000D03*
X196342000Y-85217000D03*
%TO.N,_~{CS0}*%
X142748000Y-82042000D03*
X142748000Y-83820000D03*
%TO.N,_R{slash}W*%
X142748000Y-80645000D03*
X142748000Y-78740000D03*
%TO.N,_A3*%
X143637000Y-72898000D03*
X143637000Y-76200000D03*
%TO.N,_A0*%
X143637000Y-68580000D03*
X143637000Y-70739000D03*
%TO.N,_AUDIO5*%
X150241000Y-66040000D03*
X150241000Y-69850000D03*
%TO.N,_AUDIO4*%
X150876000Y-65024000D03*
X150876000Y-63500000D03*
%TO.N,_AUDIO2*%
X151003000Y-55438000D03*
X151003000Y-58420000D03*
%TO.N,_AUDIO1*%
X149987000Y-50612000D03*
X149987000Y-55880000D03*
%TO.N,_AUDIO0*%
X149098000Y-45786000D03*
X149098000Y-53340000D03*
%TO.N,_D0*%
X142113000Y-48895000D03*
X163576000Y-52197000D03*
X163576000Y-48895000D03*
X142113000Y-50800000D03*
%TO.N,_D1*%
X164338000Y-53086000D03*
X164338000Y-48133000D03*
%TO.N,_D2*%
X165354000Y-53467000D03*
X165354000Y-44450000D03*
%TO.N,_DUMP*%
X194945000Y-112014000D03*
X194945000Y-101473000D03*
X194945000Y-82169000D03*
X194945000Y-96647000D03*
X194945000Y-72517000D03*
X194945000Y-91821000D03*
X194945000Y-77343000D03*
X194945000Y-67691000D03*
X153543000Y-112014000D03*
X194945000Y-86995000D03*
%TO.N,OE*%
X152273000Y-91313000D03*
X152273000Y-106045000D03*
X174244000Y-104648000D03*
X174244000Y-98171000D03*
X152273000Y-80010000D03*
X174244000Y-106680000D03*
X176276000Y-55118000D03*
X176276000Y-64389000D03*
X152273000Y-85725000D03*
X152273000Y-75565000D03*
X152273000Y-83312000D03*
%TO.N,Net-(U8-B3)*%
X167386000Y-84074000D03*
X167386000Y-90678000D03*
%TO.N,Net-(U7-3Y)*%
X173736000Y-91440000D03*
X165608000Y-91440000D03*
X165608000Y-89916000D03*
X173736000Y-89154000D03*
%TO.N,Net-(U7-2Y)*%
X166624000Y-89408000D03*
X166624000Y-87884000D03*
%TO.N,Net-(U10-B3)*%
X168910000Y-76962000D03*
X168910000Y-79248000D03*
%TO.N,Net-(U10-B1)*%
X163576000Y-77724000D03*
X163576000Y-86106000D03*
X172212000Y-86106000D03*
X172212000Y-83566000D03*
%TO.N,Net-(U10-B0)*%
X162306000Y-76962000D03*
X162306000Y-82550000D03*
%TO.N,Net-(U11-3Y)*%
X172974000Y-80772000D03*
X173101000Y-78232000D03*
%TO.N,3V3_B*%
X183007000Y-116332000D03*
%TD*%
D27*
%TO.N,+3.3V*%
X172466000Y-60198000D02*
X171577000Y-60198000D01*
X170053000Y-94234000D02*
X168910000Y-94234000D01*
X169093000Y-101036000D02*
X169037000Y-101092000D01*
X156718000Y-75692000D02*
X155702000Y-75692000D01*
X170869000Y-95050000D02*
X170053000Y-94234000D01*
X157521300Y-82445301D02*
X157521300Y-82337300D01*
X157521300Y-76787299D02*
X157521300Y-76495300D01*
X171577000Y-60198000D02*
X171704000Y-60198000D01*
X156718000Y-87376000D02*
X155702000Y-87376000D01*
X145342000Y-70666000D02*
X144653000Y-69977000D01*
X155575000Y-81534000D02*
X155702000Y-81534000D01*
X170869000Y-95329299D02*
X170869000Y-95050000D01*
X168910000Y-94234000D02*
X169037000Y-94234000D01*
X142748000Y-69977000D02*
X142875000Y-69977000D01*
X157521300Y-88541301D02*
X157521300Y-88179300D01*
X172466000Y-51054000D02*
X171958000Y-51054000D01*
X144526000Y-79756000D02*
X143637000Y-79756000D01*
X173269300Y-52092301D02*
X173269300Y-51857300D01*
X171450000Y-51435000D02*
X171577000Y-51435000D01*
X157521300Y-82337300D02*
X156718000Y-81534000D01*
X173269300Y-61001300D02*
X172466000Y-60198000D01*
X156718000Y-81534000D02*
X155575000Y-81534000D01*
X170053000Y-101036000D02*
X169093000Y-101036000D01*
X144653000Y-69977000D02*
X142748000Y-69977000D01*
X173269300Y-51857300D02*
X172466000Y-51054000D01*
X157521300Y-88179300D02*
X156718000Y-87376000D01*
X145342000Y-71015301D02*
X145342000Y-70666000D01*
X145396000Y-80626000D02*
X144526000Y-79756000D01*
X171958000Y-51054000D02*
X171450000Y-51435000D01*
X155702000Y-75692000D02*
X155829000Y-75692000D01*
X170856300Y-102187299D02*
X170856300Y-101839300D01*
X170856300Y-101839300D02*
X170053000Y-101036000D01*
X173269300Y-61274300D02*
X173269300Y-61001300D01*
X155702000Y-87376000D02*
X155829000Y-87376000D01*
X145396000Y-80746600D02*
X145396000Y-80626000D01*
X144780000Y-79756000D02*
X144526000Y-79756000D01*
X157521300Y-76495300D02*
X156718000Y-75692000D01*
D28*
%TO.N,GND*%
X157734000Y-74732000D02*
X156718000Y-74732000D01*
X157734000Y-74732000D02*
X157734000Y-75311000D01*
D29*
X186944000Y-116332000D02*
X188722000Y-116332000D01*
D28*
X153173000Y-52512000D02*
X151826000Y-52512000D01*
D27*
X193548000Y-66802000D02*
X193537000Y-66664000D01*
X157521300Y-78825700D02*
X156972000Y-79375000D01*
D28*
X193548000Y-71628000D02*
X193537000Y-71617000D01*
X173482000Y-50094000D02*
X172466000Y-50094000D01*
X171069000Y-100076000D02*
X171069000Y-100965000D01*
X153173000Y-62164000D02*
X151826000Y-62164000D01*
D30*
X179680000Y-118632000D02*
X184898000Y-118632000D01*
D28*
X145542000Y-78796000D02*
X145542000Y-79502000D01*
D27*
X193548000Y-86106000D02*
X193537000Y-86095000D01*
D28*
X173482000Y-59238000D02*
X172466000Y-59238000D01*
X172085000Y-93274000D02*
X171069000Y-93274000D01*
D27*
X171704000Y-87884000D02*
X171958000Y-87630000D01*
X173269300Y-62823700D02*
X173269300Y-63331700D01*
X145342000Y-73098000D02*
X144780000Y-73660000D01*
D30*
X184898000Y-118632000D02*
X184912000Y-118618000D01*
D27*
X172085000Y-90551000D02*
X172212000Y-90424000D01*
X153173000Y-66990000D02*
X151826000Y-66990000D01*
X157521300Y-90090701D02*
X157521300Y-90509700D01*
D28*
X157734000Y-86416000D02*
X156718000Y-86416000D01*
D27*
X170307000Y-97917000D02*
X170869000Y-97355000D01*
X197623000Y-91948000D02*
X197623000Y-90943000D01*
D28*
X157734000Y-86416000D02*
X157734000Y-87122000D01*
X151826000Y-57338000D02*
X151765000Y-57277000D01*
X146431000Y-69017000D02*
X145542000Y-69017000D01*
X174498000Y-50094000D02*
X173482000Y-50094000D01*
X148209000Y-114808000D02*
X148209000Y-115824000D01*
X145542000Y-78796000D02*
X146558000Y-78796000D01*
D27*
X173269300Y-54314700D02*
X172847000Y-54737000D01*
X173269300Y-63331700D02*
X172720000Y-63754000D01*
D28*
X157734000Y-75311000D02*
X157734000Y-75184000D01*
D27*
X193548000Y-95758000D02*
X193548000Y-95631000D01*
D28*
X151826000Y-47686000D02*
X151765000Y-47625000D01*
X157734000Y-80574000D02*
X156718000Y-80574000D01*
D27*
X193537000Y-80330000D02*
X193548000Y-81280000D01*
X197623000Y-102042000D02*
X197612000Y-101092000D01*
D28*
X170815000Y-77240000D02*
X170815000Y-75946000D01*
X173482000Y-59238000D02*
X173482000Y-59944000D01*
D27*
X145396000Y-82296000D02*
X145396000Y-82823000D01*
D28*
X173482000Y-50094000D02*
X173482000Y-50800000D01*
X171069000Y-100076000D02*
X170053000Y-100076000D01*
D27*
X172085000Y-79883000D02*
X172212000Y-80010000D01*
X170856300Y-103736699D02*
X170856300Y-104225700D01*
X193537000Y-99634000D02*
X193548000Y-100584000D01*
X157521300Y-84413700D02*
X156972000Y-84963000D01*
X157521300Y-90509700D02*
X156972000Y-91059000D01*
X193537000Y-75504000D02*
X193548000Y-76454000D01*
D28*
X145542000Y-69017000D02*
X145542000Y-69723000D01*
X171069000Y-93274000D02*
X171069000Y-94107000D01*
D27*
X193537000Y-94808000D02*
X193537000Y-95620000D01*
D28*
X109149000Y-104140000D02*
X108077000Y-104140000D01*
X144526000Y-78796000D02*
X145542000Y-78796000D01*
D27*
X193548000Y-81280000D02*
X193537000Y-81269000D01*
X170815000Y-82550000D02*
X171450000Y-82550000D01*
X172720000Y-63754000D02*
X172847000Y-63754000D01*
D28*
X145542000Y-69017000D02*
X144653000Y-69017000D01*
D27*
X172847000Y-85217000D02*
X172974000Y-85344000D01*
D28*
X153173000Y-47686000D02*
X151826000Y-47686000D01*
D27*
X197623000Y-87122000D02*
X197612000Y-86106000D01*
X197612000Y-95758000D02*
X197623000Y-95769000D01*
X170856300Y-104225700D02*
X170307000Y-104775000D01*
X197612000Y-86106000D02*
X197623000Y-86117000D01*
X145342000Y-72564701D02*
X145342000Y-73098000D01*
X193548000Y-100584000D02*
X193537000Y-100573000D01*
X193537000Y-90921000D02*
X193548000Y-90932000D01*
D28*
X174498000Y-59238000D02*
X173482000Y-59238000D01*
X158750000Y-86416000D02*
X157734000Y-86416000D01*
D27*
X171267000Y-90551000D02*
X172085000Y-90551000D01*
X197612000Y-101092000D02*
X197623000Y-101230000D01*
X197623000Y-96708000D02*
X197612000Y-95758000D01*
D28*
X193537000Y-70678000D02*
X193548000Y-71628000D01*
X153173000Y-57338000D02*
X151826000Y-57338000D01*
X151826000Y-62164000D02*
X151765000Y-62103000D01*
D27*
X171267000Y-79883000D02*
X172085000Y-79883000D01*
X170815000Y-87884000D02*
X171704000Y-87884000D01*
X171450000Y-82550000D02*
X171958000Y-82042000D01*
D28*
X158750000Y-74732000D02*
X157734000Y-74732000D01*
X151826000Y-71816000D02*
X151765000Y-71755000D01*
D27*
X145396000Y-82823000D02*
X144907000Y-83312000D01*
D28*
X171069000Y-93274000D02*
X170053000Y-93274000D01*
D27*
X170869000Y-97355000D02*
X170869000Y-96878699D01*
X173269300Y-53641701D02*
X173269300Y-54314700D01*
X157521300Y-78336699D02*
X157521300Y-78825700D01*
X193548000Y-76454000D02*
X193537000Y-76316000D01*
D28*
X151826000Y-52512000D02*
X151765000Y-52451000D01*
D27*
X193537000Y-65852000D02*
X193548000Y-66802000D01*
X170307000Y-97917000D02*
X170434000Y-97790000D01*
X193537000Y-89982000D02*
X193537000Y-90921000D01*
D28*
X157734000Y-80574000D02*
X157734000Y-81153000D01*
D27*
X157521300Y-83994701D02*
X157521300Y-84413700D01*
D28*
X153173000Y-71816000D02*
X151826000Y-71816000D01*
D27*
X193537000Y-95620000D02*
X193548000Y-95758000D01*
D29*
X191234000Y-113792000D02*
X192659000Y-113792000D01*
D28*
X158750000Y-80574000D02*
X157734000Y-80574000D01*
D27*
X151826000Y-66990000D02*
X151765000Y-66929000D01*
X171267000Y-85217000D02*
X172847000Y-85217000D01*
D28*
X172085000Y-100076000D02*
X171069000Y-100076000D01*
D27*
X193537000Y-85156000D02*
X193548000Y-86106000D01*
%TO.N,+5V*%
X157921300Y-76787299D02*
X157921300Y-76520700D01*
X175006000Y-51054000D02*
X175514000Y-51435000D01*
X172085000Y-94234000D02*
X173101000Y-94234000D01*
X173045000Y-101036000D02*
X173101000Y-101092000D01*
D28*
X170315000Y-85209000D02*
X170307000Y-85217000D01*
D27*
X157921300Y-88541301D02*
X157921300Y-88204700D01*
X171256300Y-101864700D02*
X172085000Y-101036000D01*
X145796000Y-80746600D02*
X145796000Y-80518000D01*
X170307000Y-79883000D02*
X169672000Y-79883000D01*
X175387000Y-60198000D02*
X175260000Y-60198000D01*
X171256300Y-102187299D02*
X171256300Y-101864700D01*
X169672000Y-79883000D02*
X169418000Y-80137000D01*
D29*
X190274000Y-113792000D02*
X187960000Y-113792000D01*
D27*
X170307000Y-90551000D02*
X169672000Y-90551000D01*
D28*
X170307000Y-85217000D02*
X169545000Y-85217000D01*
D27*
X170315000Y-89384000D02*
X170315000Y-90543000D01*
X175514000Y-51435000D02*
X175387000Y-51435000D01*
X169418000Y-90424000D02*
X169545000Y-90424000D01*
X174498000Y-51054000D02*
X175006000Y-51054000D01*
D28*
X114300000Y-104140000D02*
X110109000Y-104140000D01*
D27*
X158750000Y-75692000D02*
X159766000Y-75692000D01*
X174498000Y-60198000D02*
X175387000Y-60198000D01*
X158750000Y-81534000D02*
X159766000Y-81534000D01*
X147447000Y-79756000D02*
X147320000Y-79756000D01*
D28*
X169545000Y-85217000D02*
X169291000Y-85090000D01*
D27*
X145796000Y-80518000D02*
X146558000Y-79756000D01*
X171269000Y-95329299D02*
X171269000Y-95050000D01*
X169418000Y-80137000D02*
X169545000Y-80010000D01*
X170315000Y-90543000D02*
X170307000Y-90551000D01*
X170315000Y-79875000D02*
X170307000Y-79883000D01*
X157921300Y-82445301D02*
X157921300Y-82362700D01*
X170315000Y-78740000D02*
X170315000Y-79875000D01*
X157921300Y-88204700D02*
X158750000Y-87376000D01*
D30*
X179680000Y-114032000D02*
X187720000Y-114032000D01*
D27*
X146558000Y-79756000D02*
X147447000Y-79756000D01*
X157921300Y-76520700D02*
X158750000Y-75692000D01*
D28*
X169291000Y-85090000D02*
X169418000Y-85090000D01*
D27*
X146431000Y-69977000D02*
X147447000Y-69977000D01*
X173669300Y-61026700D02*
X174498000Y-60198000D01*
X158750000Y-87376000D02*
X159766000Y-87376000D01*
X145742000Y-71015301D02*
X145742000Y-70666000D01*
X173669300Y-61274300D02*
X173669300Y-61026700D01*
X159766000Y-75692000D02*
X159512000Y-75692000D01*
D28*
X170315000Y-84050000D02*
X170315000Y-85209000D01*
D30*
X187720000Y-114032000D02*
X187960000Y-113792000D01*
D27*
X169672000Y-90551000D02*
X169418000Y-90424000D01*
X171269000Y-95050000D02*
X172085000Y-94234000D01*
X173669300Y-52092301D02*
X173669300Y-51882700D01*
X145742000Y-70666000D02*
X146431000Y-69977000D01*
X157921300Y-82362700D02*
X158750000Y-81534000D01*
X172085000Y-101036000D02*
X173045000Y-101036000D01*
X173669300Y-51882700D02*
X174498000Y-51054000D01*
%TO.N,D3*%
X178689000Y-53467000D02*
X179070000Y-53848000D01*
X174244000Y-53467000D02*
X178689000Y-53467000D01*
D28*
X187960000Y-55880000D02*
X179070000Y-55880000D01*
X179070000Y-55880000D02*
X178435000Y-55880000D01*
%TO.N,D4*%
X179070000Y-58420000D02*
X177546000Y-58420000D01*
X187960000Y-58420000D02*
X179070000Y-58420000D01*
D27*
X176802999Y-61449001D02*
X177546000Y-60706000D01*
X174244000Y-61449001D02*
X176802999Y-61449001D01*
D28*
%TO.N,D5*%
X179070000Y-60960000D02*
X178435000Y-60960000D01*
D27*
X174244000Y-61849000D02*
X178181000Y-61849000D01*
X178181000Y-61849000D02*
X179070000Y-60960000D01*
D28*
X187960000Y-60960000D02*
X179070000Y-60960000D01*
D27*
%TO.N,D6*%
X177819000Y-62249000D02*
X179070000Y-63500000D01*
X174244000Y-62249000D02*
X177819000Y-62249000D01*
D28*
X187960000Y-63500000D02*
X179070000Y-63500000D01*
X179070000Y-63500000D02*
X178435000Y-63500000D01*
%TO.N,D7*%
X179070000Y-66040000D02*
X177546000Y-66040000D01*
X179070000Y-66040000D02*
X187960000Y-66040000D01*
D27*
X174244000Y-62648999D02*
X176948999Y-62648999D01*
X176948999Y-62648999D02*
X177546000Y-63246000D01*
%TO.N,PHI2*%
X161073999Y-83020001D02*
X161290000Y-82804000D01*
D28*
X187960000Y-68580000D02*
X179070000Y-68580000D01*
D27*
X158496000Y-83020001D02*
X161073999Y-83020001D01*
X161290000Y-68580000D02*
X179070000Y-68580000D01*
D28*
X179070000Y-68580000D02*
X178435000Y-68580000D01*
D27*
%TO.N,P6*%
X172466000Y-78740000D02*
X172847000Y-79121000D01*
D28*
X191262000Y-67564000D02*
X191008000Y-67818000D01*
X179070000Y-71120000D02*
X174117000Y-71120000D01*
D27*
X172847000Y-79121000D02*
X174117000Y-79121000D01*
D28*
X191262000Y-66802000D02*
X191262000Y-67564000D01*
D27*
X170815000Y-78740000D02*
X172466000Y-78740000D01*
D28*
X179070000Y-71120000D02*
X187960000Y-71120000D01*
D27*
%TO.N,P7*%
X170815000Y-77740000D02*
X171815000Y-77740000D01*
X171815000Y-77740000D02*
X172085000Y-77470000D01*
D28*
X189992000Y-73660000D02*
X187960000Y-73660000D01*
X172085000Y-73660000D02*
X179070000Y-73660000D01*
X187960000Y-73660000D02*
X179070000Y-73660000D01*
X191262000Y-71628000D02*
X191262000Y-72390000D01*
X191262000Y-72390000D02*
X189992000Y-73660000D01*
%TO.N,P4*%
X188214000Y-76454000D02*
X187960000Y-76200000D01*
D27*
X171712000Y-83050000D02*
X171958000Y-82804000D01*
D28*
X191262000Y-76454000D02*
X188214000Y-76454000D01*
X179070000Y-76200000D02*
X187960000Y-76200000D01*
X179070000Y-76200000D02*
X178435000Y-76200000D01*
D27*
X171958000Y-82804000D02*
X176784000Y-82804000D01*
X170815000Y-83050000D02*
X171712000Y-83050000D01*
X176784000Y-76200000D02*
X179070000Y-76200000D01*
D28*
%TO.N,P5*%
X191262000Y-81280000D02*
X191262000Y-80264000D01*
D27*
X172212000Y-81280000D02*
X168910000Y-81280000D01*
X172466000Y-81534000D02*
X172212000Y-81280000D01*
X170315000Y-83050000D02*
X168918000Y-83050000D01*
D28*
X189738000Y-78740000D02*
X187960000Y-78740000D01*
D27*
X168918000Y-83050000D02*
X168656000Y-83312000D01*
D28*
X191262000Y-80264000D02*
X189738000Y-78740000D01*
X187960000Y-78740000D02*
X179070000Y-78740000D01*
D27*
X175006000Y-81534000D02*
X172466000Y-81534000D01*
X168910000Y-81280000D02*
X168656000Y-81534000D01*
D28*
X179070000Y-78740000D02*
X175006000Y-78740000D01*
D27*
%TO.N,P2*%
X170315000Y-88384000D02*
X169156000Y-88384000D01*
X169156000Y-88384000D02*
X168910000Y-88138000D01*
D28*
X179070000Y-81280000D02*
X187960000Y-81280000D01*
D27*
X171594400Y-86758400D02*
X172356400Y-86758400D01*
D28*
X191262000Y-86106000D02*
X191262000Y-85344000D01*
D27*
X172720000Y-87122000D02*
X177546000Y-87122000D01*
D28*
X179070000Y-81280000D02*
X177546000Y-81280000D01*
D27*
X172356400Y-86758400D02*
X172720000Y-87122000D01*
X168910000Y-86614000D02*
X171450000Y-86614000D01*
D28*
X191262000Y-85344000D02*
X191008000Y-85090000D01*
D27*
X171450000Y-86614000D02*
X171594400Y-86758400D01*
D28*
%TO.N,P3*%
X179070000Y-83820000D02*
X178435000Y-83820000D01*
X187960000Y-83820000D02*
X179070000Y-83820000D01*
D27*
X170815000Y-84050000D02*
X171680000Y-84050000D01*
X171680000Y-84050000D02*
X171958000Y-84328000D01*
D28*
X191262000Y-90170000D02*
X191008000Y-89916000D01*
D27*
X178562000Y-84328000D02*
X179070000Y-83820000D01*
D28*
X191262000Y-90932000D02*
X191262000Y-90170000D01*
D27*
X171958000Y-84328000D02*
X178562000Y-84328000D01*
%TO.N,P0*%
X172696000Y-89384000D02*
X173228000Y-89916000D01*
D28*
X191262000Y-94996000D02*
X191008000Y-94742000D01*
X179070000Y-86360000D02*
X174752000Y-86360000D01*
X187960000Y-86360000D02*
X179070000Y-86360000D01*
D27*
X170815000Y-89384000D02*
X172696000Y-89384000D01*
X174752000Y-89916000D02*
X173228000Y-89916000D01*
D28*
X191262000Y-95758000D02*
X191262000Y-94996000D01*
%TO.N,P1*%
X179070000Y-88900000D02*
X178435000Y-88900000D01*
D27*
X178554000Y-88384000D02*
X179070000Y-88900000D01*
D28*
X187960000Y-88900000D02*
X179070000Y-88900000D01*
D27*
X170815000Y-88384000D02*
X178554000Y-88384000D01*
D28*
X191262000Y-100584000D02*
X189484000Y-100584000D01*
D27*
%TO.N,~{KR2}*%
X177292000Y-91440000D02*
X179070000Y-91440000D01*
X171831000Y-102362000D02*
X177292000Y-102362000D01*
D28*
X187960000Y-91440000D02*
X179070000Y-91440000D01*
%TO.N,~{K5}*%
X179070000Y-96520000D02*
X178435000Y-96520000D01*
D27*
X175297999Y-96303999D02*
X176022000Y-97028000D01*
X176022000Y-97028000D02*
X176530000Y-97028000D01*
X171843700Y-96303999D02*
X175297999Y-96303999D01*
D28*
X187960000Y-96520000D02*
X179070000Y-96520000D01*
D27*
X177038000Y-96520000D02*
X179070000Y-96520000D01*
X176530000Y-97028000D02*
X177038000Y-96520000D01*
%TO.N,~{K4}*%
X175913999Y-95903999D02*
X176276000Y-96266000D01*
D28*
X187960000Y-99060000D02*
X179070000Y-99060000D01*
X179070000Y-99060000D02*
X176276000Y-99060000D01*
D27*
X171843700Y-95903999D02*
X175913999Y-95903999D01*
%TO.N,~{K3}*%
X171843700Y-95504000D02*
X177800000Y-95504000D01*
D28*
X179070000Y-101600000D02*
X178435000Y-101600000D01*
D27*
X178054000Y-95250000D02*
X180594000Y-95250000D01*
X177800000Y-95504000D02*
X178054000Y-95250000D01*
D28*
X187960000Y-101600000D02*
X179070000Y-101600000D01*
D27*
%TO.N,~{K2}*%
X177038000Y-104394000D02*
X177546000Y-104902000D01*
X177546000Y-104902000D02*
X207772000Y-104902000D01*
X171831000Y-103561998D02*
X176205998Y-103561998D01*
D28*
X212090000Y-101600000D02*
X203200000Y-101600000D01*
D27*
X176205998Y-103561998D02*
X177038000Y-104394000D01*
%TO.N,~{K1}*%
X176313999Y-103161999D02*
X177292000Y-104140000D01*
D28*
X212090000Y-99060000D02*
X203200000Y-99060000D01*
D27*
X177292000Y-104140000D02*
X206502000Y-104140000D01*
X171831000Y-103161999D02*
X176313999Y-103161999D01*
%TO.N,~{K0}*%
X177038000Y-103378000D02*
X204724000Y-103378000D01*
X176421999Y-102761999D02*
X177038000Y-103378000D01*
X171831000Y-102761999D02*
X176421999Y-102761999D01*
D28*
X212090000Y-96520000D02*
X203200000Y-96520000D01*
D27*
%TO.N,SID*%
X146370700Y-82121299D02*
X147272299Y-82121299D01*
X147272299Y-82121299D02*
X147574000Y-82423000D01*
D28*
X212090000Y-93980000D02*
X203200000Y-93980000D01*
X190627000Y-92964000D02*
X190119000Y-92583000D01*
X203200000Y-93980000D02*
X202184000Y-92964000D01*
X173159011Y-91821000D02*
X166370000Y-91821000D01*
D27*
X147574000Y-82423000D02*
X147447000Y-82296000D01*
D28*
X173921011Y-92583000D02*
X173159011Y-91821000D01*
X166370000Y-91821000D02*
X165989000Y-92202000D01*
X165989000Y-92202000D02*
X147574000Y-92202000D01*
X190119000Y-92583000D02*
X173921011Y-92583000D01*
X202184000Y-92964000D02*
X190627000Y-92964000D01*
D27*
%TO.N,~{KR1}*%
X174935998Y-96703998D02*
X176022000Y-97790000D01*
X171843700Y-96703998D02*
X174935998Y-96703998D01*
D28*
X212090000Y-91440000D02*
X203200000Y-91440000D01*
D27*
X176022000Y-97790000D02*
X206502000Y-97790000D01*
%TO.N,BCLK*%
X168037000Y-77740000D02*
X168021000Y-77724000D01*
X199898000Y-101092000D02*
X200406000Y-101092000D01*
X188595000Y-72390000D02*
X189992000Y-70993000D01*
X199898000Y-69850000D02*
X202438000Y-72390000D01*
X190500000Y-70485000D02*
X191516000Y-70485000D01*
X202438000Y-72390000D02*
X207137000Y-72390000D01*
X191516000Y-70485000D02*
X192151000Y-69850000D01*
X189992000Y-70993000D02*
X190500000Y-70485000D01*
X178181000Y-72390000D02*
X188595000Y-72390000D01*
X192278000Y-69850000D02*
X199898000Y-69850000D01*
D28*
X212090000Y-88900000D02*
X203200000Y-88900000D01*
D27*
X177673000Y-72898000D02*
X178181000Y-72390000D01*
X200406000Y-101092000D02*
X200406000Y-100203000D01*
X168021000Y-72898000D02*
X177673000Y-72898000D01*
X170315000Y-77740000D02*
X168037000Y-77740000D01*
X192151000Y-69850000D02*
X192278000Y-69850000D01*
%TO.N,OCLK*%
X200406000Y-95758000D02*
X200406000Y-94742000D01*
D28*
X212090000Y-86360000D02*
X203200000Y-86360000D01*
D27*
X199898000Y-95758000D02*
X200406000Y-95758000D01*
%TO.N,SOD*%
X199898000Y-90998000D02*
X200340000Y-90998000D01*
X200340000Y-90998000D02*
X200406000Y-90932000D01*
X200406000Y-90932000D02*
X200406000Y-90043000D01*
D28*
X212090000Y-83820000D02*
X203200000Y-83820000D01*
%TO.N,~{IRQ}*%
X212090000Y-81280000D02*
X203200000Y-81280000D01*
D27*
X199898000Y-86172000D02*
X200340000Y-86172000D01*
X200406000Y-86106000D02*
X200406000Y-85217000D01*
D28*
X203200000Y-81280000D02*
X200406000Y-81280000D01*
D27*
X200340000Y-86172000D02*
X200406000Y-86106000D01*
%TO.N,~{CS0}*%
X146370700Y-81721300D02*
X150942700Y-81721300D01*
X151638000Y-74422000D02*
X151992060Y-74067940D01*
X150942700Y-81721300D02*
X151257000Y-81407000D01*
D28*
X190627000Y-78740000D02*
X203200000Y-78740000D01*
D27*
X161103136Y-74067940D02*
X162600196Y-75565000D01*
D28*
X212090000Y-78740000D02*
X203200000Y-78740000D01*
X189357000Y-77470000D02*
X190627000Y-78740000D01*
X175895000Y-77470000D02*
X189357000Y-77470000D01*
D27*
X165100000Y-75565000D02*
X165481000Y-75946000D01*
X165481000Y-72136000D02*
X175895000Y-72136000D01*
X151992060Y-74067940D02*
X156818060Y-74067940D01*
X162600196Y-75565000D02*
X165100000Y-75565000D01*
X156818060Y-74067940D02*
X161103136Y-74067940D01*
D28*
%TO.N,CS1*%
X150972460Y-73690540D02*
X150368000Y-74295000D01*
X212090000Y-76200000D02*
X203200000Y-76200000D01*
X190986600Y-74062400D02*
X189947200Y-75101800D01*
X164547200Y-75101800D02*
X162670721Y-75101801D01*
X161259460Y-73690540D02*
X150972460Y-73690540D01*
X203200000Y-76200000D02*
X201062400Y-74062400D01*
X201062400Y-74062400D02*
X190986600Y-74062400D01*
D27*
X146370700Y-81321300D02*
X149945700Y-81321300D01*
X149945700Y-81321300D02*
X150368000Y-80899000D01*
D28*
X189947200Y-75101800D02*
X164547200Y-75101800D01*
X162670721Y-75101801D02*
X161259460Y-73690540D01*
%TO.N,R{slash}W*%
X149860000Y-73279000D02*
X149352000Y-73787000D01*
D27*
X149352000Y-80518000D02*
X149352000Y-80645000D01*
D28*
X203200000Y-73660000D02*
X190754000Y-73660000D01*
X190754000Y-73660000D02*
X189714600Y-74699400D01*
X212090000Y-73660000D02*
X203200000Y-73660000D01*
X161417000Y-73279000D02*
X149860000Y-73279000D01*
D27*
X149075699Y-80921301D02*
X149352000Y-80518000D01*
X146370700Y-80921301D02*
X149075699Y-80921301D01*
D28*
X162837400Y-74699400D02*
X161417000Y-73279000D01*
X189714600Y-74699400D02*
X162837400Y-74699400D01*
D27*
%TO.N,A3*%
X191770000Y-69469000D02*
X201549000Y-69469000D01*
D28*
X212090000Y-71120000D02*
X203200000Y-71120000D01*
D27*
X148209000Y-72390000D02*
X148717000Y-72898000D01*
X161671000Y-72898000D02*
X161815400Y-73042400D01*
X163957000Y-70485000D02*
X164366600Y-70075400D01*
X148717000Y-72898000D02*
X161671000Y-72898000D01*
X164366600Y-70075400D02*
X168910000Y-70075400D01*
X168938600Y-70104000D02*
X191135000Y-70104000D01*
X168910000Y-70075400D02*
X168938600Y-70104000D01*
X201549000Y-69469000D02*
X203200000Y-71120000D01*
X161815400Y-73042400D02*
X163304600Y-73042400D01*
X146316700Y-72390000D02*
X148209000Y-72390000D01*
X163304600Y-73042400D02*
X163576000Y-72644000D01*
X163576000Y-72644000D02*
X163576000Y-72771000D01*
X191135000Y-70104000D02*
X191770000Y-69469000D01*
%TO.N,A2*%
X162560000Y-72390000D02*
X162433000Y-72390000D01*
X148317001Y-71990001D02*
X148463000Y-72136000D01*
X190246000Y-69723000D02*
X191389000Y-68580000D01*
X162415600Y-72407400D02*
X162560000Y-72390000D01*
X163195000Y-69723000D02*
X190246000Y-69723000D01*
X146316700Y-71990001D02*
X148317001Y-71990001D01*
X148734400Y-72407400D02*
X162415600Y-72407400D01*
X191389000Y-68580000D02*
X203200000Y-68580000D01*
D28*
X212090000Y-68580000D02*
X203200000Y-68580000D01*
D27*
X148463000Y-72136000D02*
X148734400Y-72407400D01*
%TO.N,A1*%
X157353000Y-67564000D02*
X185928000Y-67564000D01*
X186309000Y-64770000D02*
X201930000Y-64770000D01*
D28*
X212090000Y-66040000D02*
X203200000Y-66040000D01*
D27*
X146316700Y-71590001D02*
X148881999Y-71590001D01*
X148881999Y-71590001D02*
X149098000Y-71374000D01*
X149352000Y-68707000D02*
X156210000Y-68707000D01*
X185928000Y-67564000D02*
X186309000Y-67183000D01*
X201930000Y-64770000D02*
X203200000Y-66040000D01*
X156210000Y-68707000D02*
X157353000Y-67564000D01*
%TO.N,A0*%
X183896000Y-67054400D02*
X184148400Y-66802000D01*
X146316700Y-71190002D02*
X147884998Y-71190002D01*
X148336000Y-67945000D02*
X148353400Y-67927600D01*
X180719400Y-67054400D02*
X180721000Y-67056000D01*
D28*
X212090000Y-63500000D02*
X203200000Y-63500000D01*
D27*
X180721000Y-67056000D02*
X183896000Y-67054400D01*
X157099000Y-67056000D02*
X180719400Y-67054400D01*
X156210000Y-67945000D02*
X157099000Y-67056000D01*
X184148400Y-66802000D02*
X184150000Y-66802000D01*
X147884998Y-71190002D02*
X148336000Y-70739000D01*
X201930000Y-62230000D02*
X203200000Y-63500000D01*
X148353400Y-67927600D02*
X156210000Y-67945000D01*
X184150000Y-62230000D02*
X201930000Y-62230000D01*
%TO.N,AUDIO*%
X158500000Y-61214000D02*
X159512000Y-61214000D01*
X158500000Y-56388000D02*
X159512000Y-56388000D01*
D28*
X212090000Y-60960000D02*
X203200000Y-60960000D01*
D27*
X158500000Y-66040000D02*
X159512000Y-66040000D01*
X158496000Y-46736000D02*
X159512000Y-46736000D01*
D28*
X203200000Y-60960000D02*
X189865000Y-60960000D01*
D27*
X159512000Y-51562000D02*
X158496000Y-51562000D01*
X158500000Y-70866000D02*
X159512000Y-70866000D01*
D28*
X189865000Y-60960000D02*
X188595000Y-59690000D01*
X177292000Y-59690000D02*
X175006000Y-57404000D01*
X188595000Y-59690000D02*
X177292000Y-59690000D01*
X158500000Y-51566000D02*
X158496000Y-51562000D01*
X175006000Y-57404000D02*
X160528000Y-57404000D01*
X160528000Y-57404000D02*
X159512000Y-56388000D01*
%TO.N,D0*%
X203200000Y-58420000D02*
X201676000Y-58420000D01*
D27*
X183698998Y-52267002D02*
X185928000Y-50038000D01*
D28*
X212090000Y-58420000D02*
X203200000Y-58420000D01*
D27*
X185928000Y-50038000D02*
X201676000Y-50038000D01*
X174244000Y-52267002D02*
X183698998Y-52267002D01*
%TO.N,D1*%
X200660000Y-55880000D02*
X203200000Y-55880000D01*
X174244000Y-52667001D02*
X183806999Y-52667001D01*
D28*
X212090000Y-55880000D02*
X203200000Y-55880000D01*
D27*
X183806999Y-52667001D02*
X185928000Y-50546000D01*
X200152000Y-50546000D02*
X200660000Y-51054000D01*
X185928000Y-50546000D02*
X200152000Y-50546000D01*
%TO.N,D2*%
X183905367Y-53067001D02*
X186050184Y-50922184D01*
X199390000Y-53340000D02*
X203200000Y-53340000D01*
X174244000Y-53067001D02*
X183905367Y-53067001D01*
D28*
X212090000Y-53340000D02*
X203200000Y-53340000D01*
D27*
X198980400Y-50898400D02*
X199390000Y-51308000D01*
X186050184Y-50922184D02*
X186073968Y-50898400D01*
X186073968Y-50898400D02*
X198882000Y-50898400D01*
X198882000Y-50898400D02*
X198980400Y-50898400D01*
%TO.N,_D3*%
X172694600Y-53467000D02*
X166497000Y-53467000D01*
X165862000Y-54102000D02*
X165844600Y-54119400D01*
D28*
X114300000Y-45720000D02*
X105410000Y-45720000D01*
D27*
X165609600Y-54354400D02*
X116587600Y-54354400D01*
X166497000Y-53467000D02*
X165862000Y-54102000D01*
X116587600Y-54354400D02*
X116586000Y-54356000D01*
X165844600Y-54119400D02*
X165609600Y-54354400D01*
X116586000Y-45720000D02*
X114300000Y-45720000D01*
%TO.N,_D4*%
X149225000Y-54737000D02*
X118364000Y-54737000D01*
X170542001Y-61449001D02*
X170307000Y-61214000D01*
X172694600Y-61449001D02*
X170542001Y-61449001D01*
X170307000Y-54991000D02*
X170053000Y-54737000D01*
X170053000Y-54737000D02*
X149225000Y-54737000D01*
D28*
X114300000Y-48260000D02*
X105410000Y-48260000D01*
D27*
X117856000Y-48260000D02*
X114300000Y-48260000D01*
X118364000Y-54737000D02*
X117856000Y-55245000D01*
D28*
%TO.N,_D5*%
X114300000Y-50800000D02*
X105410000Y-50800000D01*
D27*
X124968000Y-50800000D02*
X114300000Y-50800000D01*
X170815000Y-61849000D02*
X170561000Y-62103000D01*
X124968000Y-59563000D02*
X139573000Y-59563000D01*
X172694600Y-61849000D02*
X170815000Y-61849000D01*
X140063600Y-59072400D02*
X169527600Y-59072400D01*
X139573000Y-59563000D02*
X140063600Y-59072400D01*
X170561000Y-62103000D02*
X169545000Y-62103000D01*
X169527600Y-59072400D02*
X169545000Y-59055000D01*
%TO.N,_D6*%
X171050000Y-62249000D02*
X170434000Y-62865000D01*
X168529000Y-59817000D02*
X168148000Y-59436000D01*
X167882800Y-59424800D02*
X140219200Y-59424800D01*
X170434000Y-62865000D02*
X168529000Y-62865000D01*
X167894000Y-59436000D02*
X167882800Y-59424800D01*
X172694600Y-62249000D02*
X171050000Y-62249000D01*
X168148000Y-59436000D02*
X167894000Y-59436000D01*
X140219200Y-59424800D02*
X139700000Y-59944000D01*
D28*
X114300000Y-53340000D02*
X105410000Y-53340000D01*
D27*
X168529000Y-62865000D02*
X168656000Y-62865000D01*
X125857000Y-53340000D02*
X114300000Y-53340000D01*
X126238000Y-59944000D02*
X125857000Y-60325000D01*
X139700000Y-59944000D02*
X126238000Y-59944000D01*
%TO.N,_D7*%
X150622000Y-62103000D02*
X152146000Y-63627000D01*
X170434000Y-63627000D02*
X171412001Y-62648999D01*
X171412001Y-62648999D02*
X172694600Y-62648999D01*
X152146000Y-63627000D02*
X170434000Y-63627000D01*
X120632600Y-55897400D02*
X114317400Y-55897400D01*
X114317400Y-55897400D02*
X114300000Y-55880000D01*
X126619000Y-55880000D02*
X120632600Y-55897400D01*
D28*
X114300000Y-55880000D02*
X105410000Y-55880000D01*
D27*
X126619000Y-62103000D02*
X150622000Y-62103000D01*
%TO.N,_PHI2*%
X140335000Y-84709000D02*
X152654000Y-84709000D01*
D28*
X114300000Y-58420000D02*
X105410000Y-58420000D01*
D27*
X152654000Y-84709000D02*
X154342999Y-83020001D01*
X128778000Y-57277000D02*
X140335000Y-57277000D01*
X114300000Y-58420000D02*
X127635000Y-58420000D01*
X154342999Y-83020001D02*
X156946600Y-83020001D01*
X127635000Y-58420000D02*
X128778000Y-57277000D01*
%TO.N,_P6*%
X123825000Y-60960000D02*
X114300000Y-60960000D01*
X128613421Y-76708000D02*
X129121421Y-77216000D01*
X153453999Y-77761999D02*
X156946600Y-77761999D01*
D28*
X114300000Y-60960000D02*
X105410000Y-60960000D01*
D27*
X129121421Y-77216000D02*
X152908000Y-77216000D01*
X123825000Y-76708000D02*
X128613421Y-76708000D01*
X152908000Y-77216000D02*
X153453999Y-77761999D01*
%TO.N,_P7*%
X123063000Y-63500000D02*
X114300000Y-63500000D01*
X153218998Y-78161998D02*
X156946600Y-78161998D01*
X123063000Y-77597000D02*
X152654000Y-77597000D01*
X152654000Y-77597000D02*
X153218998Y-78161998D01*
D28*
X114300000Y-63500000D02*
X105410000Y-63500000D01*
D27*
%TO.N,_P4*%
X125349000Y-66040000D02*
X114300000Y-66040000D01*
X153670000Y-76962000D02*
X156946600Y-76962000D01*
D28*
X114300000Y-66040000D02*
X105410000Y-66040000D01*
D27*
X125349000Y-74676000D02*
X148209000Y-74676000D01*
X148209000Y-74676000D02*
X149987000Y-76454000D01*
X149987000Y-76454000D02*
X153162000Y-76454000D01*
X153162000Y-76454000D02*
X153670000Y-76962000D01*
%TO.N,_P5*%
X128397000Y-75565000D02*
X128905000Y-75057000D01*
X153025368Y-76835000D02*
X153552367Y-77361999D01*
X128905000Y-75057000D02*
X147955000Y-75057000D01*
X153552367Y-77361999D02*
X156946600Y-77361999D01*
X124587000Y-75565000D02*
X128397000Y-75565000D01*
X124587000Y-68580000D02*
X114300000Y-68580000D01*
D28*
X114300000Y-68580000D02*
X105410000Y-68580000D01*
D27*
X147955000Y-75057000D02*
X149733000Y-76835000D01*
X149733000Y-76835000D02*
X153025368Y-76835000D01*
%TO.N,_P2*%
X140734999Y-89516001D02*
X140208000Y-90043000D01*
X140208000Y-90043000D02*
X122682000Y-90043000D01*
X120269000Y-71120000D02*
X114300000Y-71120000D01*
X122682000Y-90043000D02*
X120650000Y-90043000D01*
X156946600Y-89516001D02*
X140734999Y-89516001D01*
X120650000Y-90043000D02*
X120269000Y-89662000D01*
D28*
X114300000Y-71120000D02*
X105410000Y-71120000D01*
D27*
%TO.N,_P3*%
X140462000Y-90424000D02*
X140970000Y-89916000D01*
D28*
X114300000Y-73660000D02*
X105410000Y-73660000D01*
D27*
X119507000Y-90424000D02*
X140462000Y-90424000D01*
X119507000Y-90424000D02*
X119507000Y-90395400D01*
X119507000Y-73660000D02*
X114300000Y-73660000D01*
X140970000Y-89916000D02*
X156946600Y-89916000D01*
D28*
%TO.N,_P0*%
X114300000Y-76200000D02*
X105410000Y-76200000D01*
D27*
X122174000Y-86868000D02*
X122174000Y-86741000D01*
X140913002Y-88716002D02*
X139573000Y-87376000D01*
X122174000Y-76200000D02*
X114300000Y-76200000D01*
X122682000Y-87376000D02*
X122174000Y-86868000D01*
X139573000Y-87376000D02*
X122682000Y-87376000D01*
X156946600Y-88716002D02*
X140913002Y-88716002D01*
%TO.N,_P1*%
X122682000Y-87757000D02*
X121285000Y-87757000D01*
X139319000Y-87757000D02*
X122682000Y-87757000D01*
D28*
X114300000Y-78740000D02*
X105410000Y-78740000D01*
D27*
X140678001Y-89116001D02*
X139319000Y-87757000D01*
X156946600Y-89116001D02*
X140678001Y-89116001D01*
X121285000Y-78740000D02*
X114300000Y-78740000D01*
%TO.N,_~{KR2}*%
X118618000Y-86360000D02*
X114300000Y-86360000D01*
D28*
X114300000Y-86360000D02*
X105410000Y-86360000D01*
D27*
X145034000Y-107569000D02*
X118618000Y-107569000D01*
X170281600Y-102362000D02*
X145034000Y-102362000D01*
%TO.N,_~{K0}*%
X146412001Y-102761999D02*
X146050000Y-103124000D01*
X117729000Y-88900000D02*
X114300000Y-88900000D01*
X170281600Y-102761999D02*
X146412001Y-102761999D01*
D28*
X114300000Y-88900000D02*
X105410000Y-88900000D01*
D27*
X146050000Y-108331000D02*
X117729000Y-108331000D01*
%TO.N,_~{K1}*%
X147409001Y-103161999D02*
X146939000Y-103632000D01*
X146939000Y-109093000D02*
X116713000Y-109093000D01*
D28*
X114300000Y-91440000D02*
X105410000Y-91440000D01*
D27*
X116713000Y-91440000D02*
X114300000Y-91440000D01*
X170281600Y-103161999D02*
X147409001Y-103161999D01*
D28*
%TO.N,_~{K2}*%
X114300000Y-93980000D02*
X105410000Y-93980000D01*
D27*
X147955000Y-109855000D02*
X115824000Y-109855000D01*
X115824000Y-93980000D02*
X114300000Y-93980000D01*
X148533002Y-103561998D02*
X147955000Y-104140000D01*
X170281600Y-103561998D02*
X148533002Y-103561998D01*
D28*
%TO.N,_~{K3}*%
X114300000Y-96520000D02*
X105410000Y-96520000D01*
D27*
X140335000Y-95504000D02*
X139827000Y-94996000D01*
X170294300Y-95504000D02*
X140335000Y-95504000D01*
X139827000Y-94996000D02*
X115824000Y-94996000D01*
X115824000Y-94996000D02*
X114300000Y-96520000D01*
%TO.N,_~{K4}*%
X139446000Y-95504000D02*
X117856000Y-95504000D01*
X139845999Y-95903999D02*
X139446000Y-95504000D01*
X117856000Y-95504000D02*
X114300000Y-99060000D01*
D28*
X114300000Y-99060000D02*
X105410000Y-99060000D01*
D27*
X170294300Y-95903999D02*
X139845999Y-95903999D01*
%TO.N,_~{K5}*%
X170294300Y-96303999D02*
X140932001Y-96303999D01*
D28*
X114300000Y-101600000D02*
X105410000Y-101600000D01*
D27*
X140932001Y-96303999D02*
X139573000Y-97663000D01*
X139573000Y-97663000D02*
X118237000Y-97663000D01*
X118237000Y-97663000D02*
X114300000Y-101600000D01*
%TO.N,_SID*%
X143764000Y-101600000D02*
X138430000Y-101600000D01*
D28*
X138430000Y-101600000D02*
X129540000Y-101600000D01*
D27*
X144192701Y-82121299D02*
X143764000Y-82550000D01*
X144821300Y-82121299D02*
X144192701Y-82121299D01*
%TO.N,_~{KR1}*%
X170294300Y-96703998D02*
X142437002Y-96703998D01*
D28*
X138430000Y-99060000D02*
X129540000Y-99060000D01*
D27*
X140081000Y-99060000D02*
X138430000Y-99060000D01*
X142437002Y-96703998D02*
X140081000Y-99060000D01*
%TO.N,_BCLKO*%
X141097000Y-99314000D02*
X175349421Y-99314000D01*
X178651421Y-102616000D02*
X195961000Y-102616000D01*
X175349421Y-99314000D02*
X178651421Y-102616000D01*
X196342000Y-100457000D02*
X196657000Y-100142000D01*
X196342000Y-102235000D02*
X196342000Y-100457000D01*
X195961000Y-102616000D02*
X196342000Y-102235000D01*
X196657000Y-100142000D02*
X197623000Y-100142000D01*
D28*
X138430000Y-96520000D02*
X129540000Y-96520000D01*
D27*
%TO.N,_BCLKI*%
X154107998Y-82620002D02*
X152527000Y-84201000D01*
X146586600Y-84356600D02*
X146177000Y-83947000D01*
X150876000Y-84356600D02*
X146586600Y-84356600D01*
X146177000Y-93980000D02*
X138430000Y-93980000D01*
X152371400Y-84356600D02*
X150876000Y-84356600D01*
X152527000Y-84201000D02*
X152371400Y-84356600D01*
X156946600Y-82620002D02*
X154107998Y-82620002D01*
D28*
X138430000Y-93980000D02*
X129540000Y-93980000D01*
D27*
X146177000Y-83947000D02*
X146304000Y-84074000D01*
%TO.N,_OCLK*%
X166522724Y-92202000D02*
X172974000Y-92202000D01*
X148209000Y-92583000D02*
X166141724Y-92583000D01*
X145796000Y-91440000D02*
X147320000Y-92964000D01*
X138430000Y-91440000D02*
X145796000Y-91440000D01*
X190379000Y-93345000D02*
X196160000Y-93345000D01*
X189998000Y-92964000D02*
X190379000Y-93345000D01*
X173736000Y-92964000D02*
X189998000Y-92964000D01*
X147828000Y-92964000D02*
X148209000Y-92583000D01*
D28*
X138430000Y-91440000D02*
X129540000Y-91440000D01*
D27*
X166141724Y-92583000D02*
X166522724Y-92202000D01*
X196160000Y-93345000D02*
X197623000Y-94808000D01*
X172974000Y-92202000D02*
X173736000Y-92964000D01*
X147320000Y-92964000D02*
X147828000Y-92964000D01*
%TO.N,_SOD*%
X195839000Y-90048000D02*
X195834000Y-90043000D01*
D28*
X138430000Y-88900000D02*
X129540000Y-88900000D01*
D27*
X168910000Y-105283000D02*
X169545000Y-105918000D01*
X144272000Y-105537000D02*
X144526000Y-105283000D01*
X197623000Y-90048000D02*
X195839000Y-90048000D01*
X169545000Y-105918000D02*
X194818000Y-105918000D01*
X142621000Y-105537000D02*
X144272000Y-105537000D01*
X144526000Y-105283000D02*
X168910000Y-105283000D01*
X194818000Y-105918000D02*
X195834000Y-106934000D01*
%TO.N,_~{IRQ}*%
X143891000Y-104775000D02*
X143908400Y-104792400D01*
X195724400Y-105427400D02*
X196342000Y-106045000D01*
X148844000Y-104775000D02*
X169037000Y-104775000D01*
X196347000Y-85222000D02*
X196342000Y-85217000D01*
X169037000Y-104775000D02*
X169672000Y-105410000D01*
X169672000Y-105410000D02*
X169689400Y-105427400D01*
X197623000Y-85222000D02*
X196347000Y-85222000D01*
X143908400Y-104792400D02*
X148826600Y-104792400D01*
X169689400Y-105427400D02*
X195724400Y-105427400D01*
X138430000Y-86360000D02*
X143002000Y-86360000D01*
D28*
X138430000Y-86360000D02*
X129540000Y-86360000D01*
D27*
X148826600Y-104792400D02*
X148844000Y-104775000D01*
X196342000Y-106045000D02*
X196215000Y-105918000D01*
D28*
%TO.N,_~{CS0}*%
X138430000Y-83820000D02*
X142748000Y-83820000D01*
D27*
X143068700Y-81721300D02*
X142748000Y-82042000D01*
X144821300Y-81721300D02*
X143068700Y-81721300D01*
D28*
X138430000Y-83820000D02*
X129540000Y-83820000D01*
%TO.N,_CS1*%
X138430000Y-81280000D02*
X129540000Y-81280000D01*
D27*
X144821300Y-81321300D02*
X138471300Y-81321300D01*
X138471300Y-81321300D02*
X138430000Y-81280000D01*
%TO.N,_R{slash}W*%
X144821300Y-80921301D02*
X143024301Y-80921301D01*
D28*
X138430000Y-78740000D02*
X142748000Y-78740000D01*
D27*
X143024301Y-80921301D02*
X142748000Y-80645000D01*
D28*
X138430000Y-78740000D02*
X129540000Y-78740000D01*
D27*
%TO.N,_A3*%
X144767300Y-72390000D02*
X144145000Y-72390000D01*
D28*
X143637000Y-76200000D02*
X138430000Y-76200000D01*
D27*
X144145000Y-72390000D02*
X143637000Y-72898000D01*
D28*
X138430000Y-76200000D02*
X129540000Y-76200000D01*
D27*
%TO.N,_A2*%
X144767300Y-71990001D02*
X143274999Y-71990001D01*
D28*
X138430000Y-73660000D02*
X129540000Y-73660000D01*
D27*
X143274999Y-71990001D02*
X141605000Y-73660000D01*
X141605000Y-73660000D02*
X138430000Y-73660000D01*
%TO.N,_A1*%
X142748000Y-71120000D02*
X138430000Y-71120000D01*
D28*
X138430000Y-71120000D02*
X129540000Y-71120000D01*
D27*
X143218001Y-71590001D02*
X142748000Y-71120000D01*
X144767300Y-71590001D02*
X143218001Y-71590001D01*
%TO.N,_A0*%
X144767300Y-71190002D02*
X144088002Y-71190002D01*
D28*
X138430000Y-68580000D02*
X129540000Y-68580000D01*
X143637000Y-68580000D02*
X138430000Y-68580000D01*
D27*
X144088002Y-71190002D02*
X143637000Y-70739000D01*
D28*
%TO.N,_AUDIO5*%
X138430000Y-66040000D02*
X150241000Y-66040000D01*
X150307000Y-69916000D02*
X153173000Y-69916000D01*
X150241000Y-69850000D02*
X150307000Y-69916000D01*
X138430000Y-66040000D02*
X129540000Y-66040000D01*
%TO.N,_AUDIO4*%
X153173000Y-65090000D02*
X150942000Y-65090000D01*
X150942000Y-65090000D02*
X150876000Y-65024000D01*
X138430000Y-63500000D02*
X150876000Y-63500000D01*
X138430000Y-63500000D02*
X129540000Y-63500000D01*
%TO.N,_AUDIO3*%
X150810000Y-60264000D02*
X150114000Y-60960000D01*
X138430000Y-60960000D02*
X150114000Y-60960000D01*
X138430000Y-60960000D02*
X129540000Y-60960000D01*
X153173000Y-60264000D02*
X150810000Y-60264000D01*
%TO.N,_AUDIO2*%
X138430000Y-58420000D02*
X129540000Y-58420000D01*
X138430000Y-58420000D02*
X151003000Y-58420000D01*
X151003000Y-55438000D02*
X153173000Y-55438000D01*
%TO.N,_AUDIO1*%
X138430000Y-55880000D02*
X129540000Y-55880000D01*
X149987000Y-50612000D02*
X153173000Y-50612000D01*
X138430000Y-55880000D02*
X149987000Y-55880000D01*
%TO.N,_AUDIO0*%
X138430000Y-53340000D02*
X149098000Y-53340000D01*
X138430000Y-53340000D02*
X129540000Y-53340000D01*
X153173000Y-45786000D02*
X149098000Y-45786000D01*
D27*
%TO.N,_D0*%
X163576000Y-48895000D02*
X151130000Y-48895000D01*
X142113000Y-50800000D02*
X138430000Y-50800000D01*
X172694600Y-52267002D02*
X163646002Y-52267002D01*
D28*
X138430000Y-50800000D02*
X129540000Y-50800000D01*
D27*
X142113000Y-48895000D02*
X142240000Y-48895000D01*
X151130000Y-48895000D02*
X142113000Y-48895000D01*
X163646002Y-52267002D02*
X163576000Y-52197000D01*
%TO.N,_D1*%
X164338000Y-48133000D02*
X163322000Y-48133000D01*
X143002000Y-48514000D02*
X142730600Y-48242600D01*
X163322000Y-48133000D02*
X162941000Y-48514000D01*
X162941000Y-48514000D02*
X143002000Y-48514000D01*
X138447400Y-48242600D02*
X138430000Y-48260000D01*
D28*
X138430000Y-48260000D02*
X129540000Y-48260000D01*
D27*
X142730600Y-48242600D02*
X138447400Y-48242600D01*
X172694600Y-52667001D02*
X164756999Y-52667001D01*
X164756999Y-52667001D02*
X164338000Y-53086000D01*
%TO.N,_D2*%
X172694600Y-53067001D02*
X165753999Y-53067001D01*
X165354000Y-44450000D02*
X139700000Y-44450000D01*
X139700000Y-44450000D02*
X138430000Y-45720000D01*
X165753999Y-53067001D02*
X165354000Y-53467000D01*
D28*
X138430000Y-45720000D02*
X129540000Y-45720000D01*
%TO.N,_DUMP*%
X194884000Y-91882000D02*
X194945000Y-91821000D01*
X194884000Y-77404000D02*
X194945000Y-77343000D01*
X194945000Y-112014000D02*
X153543000Y-112014000D01*
X194884000Y-101534000D02*
X194945000Y-101473000D01*
X194884000Y-87056000D02*
X194945000Y-86995000D01*
X193537000Y-87056000D02*
X194884000Y-87056000D01*
X193537000Y-91882000D02*
X194884000Y-91882000D01*
X194884000Y-67752000D02*
X194945000Y-67691000D01*
X194884000Y-96708000D02*
X194945000Y-96647000D01*
X193537000Y-96708000D02*
X194884000Y-96708000D01*
X193537000Y-101534000D02*
X194884000Y-101534000D01*
X193537000Y-67752000D02*
X194884000Y-67752000D01*
X194884000Y-82230000D02*
X194945000Y-82169000D01*
X193537000Y-82230000D02*
X194884000Y-82230000D01*
X193537000Y-72578000D02*
X194884000Y-72578000D01*
X193537000Y-77404000D02*
X194884000Y-77404000D01*
X194884000Y-72578000D02*
X194945000Y-72517000D01*
D27*
%TO.N,OE*%
X173990000Y-106426000D02*
X174244000Y-106680000D01*
X157921300Y-78336699D02*
X157921300Y-79348333D01*
X169418000Y-106426000D02*
X173990000Y-106426000D01*
X152273000Y-75565000D02*
X149733000Y-75565000D01*
X157921300Y-79348333D02*
X157242233Y-80027400D01*
X157921300Y-83994701D02*
X157921300Y-84936333D01*
X174244000Y-104648000D02*
X171577000Y-104648000D01*
D28*
X152273000Y-113792000D02*
X148213000Y-113792000D01*
D27*
X145734100Y-73979100D02*
X145734100Y-72564701D01*
X174466697Y-64389000D02*
X173669300Y-63591603D01*
X168783000Y-105791000D02*
X169418000Y-106426000D01*
X176276000Y-64389000D02*
X174466697Y-64389000D01*
X171256300Y-104327300D02*
X171256300Y-103736699D01*
X153416000Y-105791000D02*
X160655000Y-105791000D01*
X173669300Y-53828900D02*
X173669300Y-53641701D01*
X157242233Y-91711400D02*
X152671400Y-91711400D01*
X171577000Y-104648000D02*
X171256300Y-104327300D01*
X145796000Y-82483199D02*
X145796000Y-82296000D01*
X157921300Y-91032333D02*
X157242233Y-91711400D01*
X148336000Y-74168000D02*
X145923000Y-74168000D01*
X157921300Y-90090701D02*
X157921300Y-91032333D01*
X176276000Y-55118000D02*
X174958400Y-55118000D01*
X174958400Y-55118000D02*
X173669300Y-53828900D01*
X152671400Y-91711400D02*
X152273000Y-91313000D01*
X146624801Y-83312000D02*
X145796000Y-82483199D01*
X173669300Y-63591603D02*
X173669300Y-62823700D01*
X171261100Y-97855100D02*
X171261100Y-96878699D01*
X152273000Y-106045000D02*
X152527000Y-105791000D01*
D28*
X148213000Y-113792000D02*
X148209000Y-113788000D01*
D27*
X152273000Y-83312000D02*
X146624801Y-83312000D01*
X149733000Y-75565000D02*
X148336000Y-74168000D01*
X152527000Y-105791000D02*
X153416000Y-105791000D01*
X157132633Y-85725000D02*
X152273000Y-85725000D01*
X152290400Y-80027400D02*
X152273000Y-80010000D01*
X145923000Y-74168000D02*
X145734100Y-73979100D01*
X174244000Y-98171000D02*
X171577000Y-98171000D01*
X171577000Y-98171000D02*
X171261100Y-97855100D01*
X160655000Y-105791000D02*
X168783000Y-105791000D01*
X157242233Y-80027400D02*
X152290400Y-80027400D01*
X157921300Y-84936333D02*
X157132633Y-85725000D01*
D28*
%TO.N,Net-(Q1-D)*%
X157476000Y-46736000D02*
X155448000Y-46736000D01*
X155514000Y-46670000D02*
X155448000Y-46736000D01*
%TO.N,Net-(Q2-D)*%
X155448000Y-51562000D02*
X157476000Y-51562000D01*
%TO.N,Net-(Q3-D)*%
X157480000Y-56388000D02*
X155448000Y-56388000D01*
%TO.N,Net-(Q4-D)*%
X157480000Y-61214000D02*
X155448000Y-61214000D01*
%TO.N,Net-(Q5-D)*%
X157480000Y-66040000D02*
X155448000Y-66040000D01*
%TO.N,Net-(Q6-D)*%
X157480000Y-70866000D02*
X155448000Y-70866000D01*
D27*
%TO.N,Net-(U8-B3)*%
X164338000Y-89916000D02*
X158496000Y-89916000D01*
X169688000Y-83550000D02*
X170315000Y-83550000D01*
X167386000Y-84074000D02*
X169164000Y-84074000D01*
X167386000Y-90678000D02*
X165100000Y-90678000D01*
X165100000Y-90678000D02*
X164338000Y-89916000D01*
X169164000Y-84074000D02*
X169688000Y-83550000D01*
%TO.N,Net-(U7-3Y)*%
X170815000Y-88884000D02*
X173466000Y-88884000D01*
X173466000Y-88884000D02*
X173736000Y-89154000D01*
X165208001Y-89516001D02*
X165608000Y-89916000D01*
X158496000Y-89516001D02*
X165208001Y-89516001D01*
X173736000Y-91440000D02*
X165608000Y-91440000D01*
%TO.N,Net-(U7-2Y)*%
X169418000Y-87376000D02*
X167132000Y-87376000D01*
X158496000Y-89116001D02*
X166332001Y-89116001D01*
X170315000Y-87884000D02*
X169926000Y-87884000D01*
X167132000Y-87376000D02*
X166624000Y-87884000D01*
X169926000Y-87884000D02*
X169418000Y-87376000D01*
X166332001Y-89116001D02*
X166624000Y-89408000D01*
%TO.N,Net-(U7-1Y)*%
X167116000Y-88884000D02*
X166948002Y-88716002D01*
X158496000Y-88716002D02*
X166948002Y-88716002D01*
X170315000Y-88884000D02*
X167116000Y-88884000D01*
%TO.N,Net-(U10-B3)*%
X161642400Y-78838400D02*
X168402000Y-78838400D01*
X160965998Y-78161998D02*
X161642400Y-78838400D01*
X158496000Y-78161998D02*
X160965998Y-78161998D01*
X168402000Y-78838400D02*
X168500400Y-78838400D01*
X169188000Y-77240000D02*
X168910000Y-76962000D01*
X168500400Y-78838400D02*
X168910000Y-79248000D01*
X170315000Y-77240000D02*
X169188000Y-77240000D01*
%TO.N,Net-(U10-B2)*%
X161798000Y-78486000D02*
X168402000Y-78486000D01*
X158496000Y-77761999D02*
X161073999Y-77761999D01*
X168648000Y-78240000D02*
X168402000Y-78486000D01*
X170315000Y-78240000D02*
X168648000Y-78240000D01*
X161073999Y-77761999D02*
X161798000Y-78486000D01*
%TO.N,Net-(U10-B1)*%
X158496000Y-77361999D02*
X161435999Y-77361999D01*
X172196000Y-83550000D02*
X172212000Y-83566000D01*
X161798000Y-77724000D02*
X163576000Y-77724000D01*
X169672000Y-85852000D02*
X168148000Y-85852000D01*
X172212000Y-86106000D02*
X169926000Y-86106000D01*
X167894000Y-86106000D02*
X163576000Y-86106000D01*
X169926000Y-86106000D02*
X169672000Y-85852000D01*
X170815000Y-83550000D02*
X172196000Y-83550000D01*
X161435999Y-77361999D02*
X161798000Y-77724000D01*
X168148000Y-85852000D02*
X167894000Y-86106000D01*
%TO.N,Net-(U10-B0)*%
X162306000Y-82550000D02*
X170315000Y-82550000D01*
X158496000Y-76962000D02*
X162306000Y-76962000D01*
%TO.N,Net-(U11-3Y)*%
X170815000Y-78240000D02*
X173093000Y-78240000D01*
X161290000Y-81788000D02*
X160457998Y-82620002D01*
X160457998Y-82620002D02*
X158496000Y-82620002D01*
X172974000Y-80772000D02*
X172956600Y-80789400D01*
X172956600Y-80789400D02*
X168477967Y-80789400D01*
X168477967Y-80789400D02*
X167479367Y-81788000D01*
X167479367Y-81788000D02*
X161290000Y-81788000D01*
X173093000Y-78240000D02*
X173101000Y-78232000D01*
D29*
%TO.N,3V3_B*%
X183007000Y-116332000D02*
X185044000Y-116332000D01*
D30*
X179680000Y-116332000D02*
X183007000Y-116332000D01*
%TD*%
M02*
