%TF.GenerationSoftware,KiCad,Pcbnew,7.0.9*%
%TF.CreationDate,2024-11-14T04:31:41-07:00*%
%TF.ProjectId,Through_Hole_Single,5468726f-7567-4685-9f48-6f6c655f5369,rev?*%
%TF.SameCoordinates,Original*%
%TF.FileFunction,Legend,Top*%
%TF.FilePolarity,Positive*%
%FSLAX46Y46*%
G04 Gerber Fmt 4.6, Leading zero omitted, Abs format (unit mm)*
G04 Created by KiCad (PCBNEW 7.0.9) date 2024-11-14 04:31:41*
%MOMM*%
%LPD*%
G01*
G04 APERTURE LIST*
%ADD10C,0.254000*%
%ADD11C,0.150000*%
%ADD12C,0.100000*%
%ADD13C,0.120000*%
G04 APERTURE END LIST*
D10*
X172484051Y-46101000D02*
G75*
G03*
X170687999Y-44304949I-1796051J0D01*
G01*
X167404050Y-46101000D02*
X171214050Y-53721000D01*
X163594050Y-44304999D02*
G75*
G03*
X161797999Y-46101000I-50J-1796001D01*
G01*
X163594050Y-53721000D02*
X167404050Y-46101000D01*
X170687999Y-55517051D02*
X163594050Y-55517051D01*
X167404050Y-53721000D02*
X171214050Y-46101000D01*
X170687999Y-55517050D02*
G75*
G03*
X172484050Y-53721000I1J1796050D01*
G01*
X172484050Y-46101000D02*
X172484050Y-53721000D01*
X161797999Y-53721000D02*
X161797999Y-46101000D01*
X165499050Y-49911000D02*
X167404050Y-53721000D01*
X163594050Y-44304949D02*
X170687999Y-44304949D01*
X161797949Y-53721000D02*
G75*
G03*
X163594050Y-55517051I1796151J100D01*
G01*
D11*
X146386779Y-42287819D02*
X146386779Y-41287819D01*
X146386779Y-41287819D02*
X146767731Y-41287819D01*
X146767731Y-41287819D02*
X146862969Y-41335438D01*
X146862969Y-41335438D02*
X146910588Y-41383057D01*
X146910588Y-41383057D02*
X146958207Y-41478295D01*
X146958207Y-41478295D02*
X146958207Y-41621152D01*
X146958207Y-41621152D02*
X146910588Y-41716390D01*
X146910588Y-41716390D02*
X146862969Y-41764009D01*
X146862969Y-41764009D02*
X146767731Y-41811628D01*
X146767731Y-41811628D02*
X146386779Y-41811628D01*
X147577255Y-41287819D02*
X147767731Y-41287819D01*
X147767731Y-41287819D02*
X147862969Y-41335438D01*
X147862969Y-41335438D02*
X147958207Y-41430676D01*
X147958207Y-41430676D02*
X148005826Y-41621152D01*
X148005826Y-41621152D02*
X148005826Y-41954485D01*
X148005826Y-41954485D02*
X147958207Y-42144961D01*
X147958207Y-42144961D02*
X147862969Y-42240200D01*
X147862969Y-42240200D02*
X147767731Y-42287819D01*
X147767731Y-42287819D02*
X147577255Y-42287819D01*
X147577255Y-42287819D02*
X147482017Y-42240200D01*
X147482017Y-42240200D02*
X147386779Y-42144961D01*
X147386779Y-42144961D02*
X147339160Y-41954485D01*
X147339160Y-41954485D02*
X147339160Y-41621152D01*
X147339160Y-41621152D02*
X147386779Y-41430676D01*
X147386779Y-41430676D02*
X147482017Y-41335438D01*
X147482017Y-41335438D02*
X147577255Y-41287819D01*
X148434398Y-42287819D02*
X148434398Y-41287819D01*
X149005826Y-42287819D02*
X148577255Y-41716390D01*
X149005826Y-41287819D02*
X148434398Y-41859247D01*
X149434398Y-41764009D02*
X149767731Y-41764009D01*
X149910588Y-42287819D02*
X149434398Y-42287819D01*
X149434398Y-42287819D02*
X149434398Y-41287819D01*
X149434398Y-41287819D02*
X149910588Y-41287819D01*
X150529636Y-41811628D02*
X150529636Y-42287819D01*
X150196303Y-41287819D02*
X150529636Y-41811628D01*
X150529636Y-41811628D02*
X150862969Y-41287819D01*
X152529636Y-42287819D02*
X152196303Y-41811628D01*
X151958208Y-42287819D02*
X151958208Y-41287819D01*
X151958208Y-41287819D02*
X152339160Y-41287819D01*
X152339160Y-41287819D02*
X152434398Y-41335438D01*
X152434398Y-41335438D02*
X152482017Y-41383057D01*
X152482017Y-41383057D02*
X152529636Y-41478295D01*
X152529636Y-41478295D02*
X152529636Y-41621152D01*
X152529636Y-41621152D02*
X152482017Y-41716390D01*
X152482017Y-41716390D02*
X152434398Y-41764009D01*
X152434398Y-41764009D02*
X152339160Y-41811628D01*
X152339160Y-41811628D02*
X151958208Y-41811628D01*
X153339160Y-42240200D02*
X153243922Y-42287819D01*
X153243922Y-42287819D02*
X153053446Y-42287819D01*
X153053446Y-42287819D02*
X152958208Y-42240200D01*
X152958208Y-42240200D02*
X152910589Y-42144961D01*
X152910589Y-42144961D02*
X152910589Y-41764009D01*
X152910589Y-41764009D02*
X152958208Y-41668771D01*
X152958208Y-41668771D02*
X153053446Y-41621152D01*
X153053446Y-41621152D02*
X153243922Y-41621152D01*
X153243922Y-41621152D02*
X153339160Y-41668771D01*
X153339160Y-41668771D02*
X153386779Y-41764009D01*
X153386779Y-41764009D02*
X153386779Y-41859247D01*
X153386779Y-41859247D02*
X152910589Y-41954485D01*
X153815351Y-41621152D02*
X153815351Y-42621152D01*
X153815351Y-41668771D02*
X153910589Y-41621152D01*
X153910589Y-41621152D02*
X154101065Y-41621152D01*
X154101065Y-41621152D02*
X154196303Y-41668771D01*
X154196303Y-41668771D02*
X154243922Y-41716390D01*
X154243922Y-41716390D02*
X154291541Y-41811628D01*
X154291541Y-41811628D02*
X154291541Y-42097342D01*
X154291541Y-42097342D02*
X154243922Y-42192580D01*
X154243922Y-42192580D02*
X154196303Y-42240200D01*
X154196303Y-42240200D02*
X154101065Y-42287819D01*
X154101065Y-42287819D02*
X153910589Y-42287819D01*
X153910589Y-42287819D02*
X153815351Y-42240200D01*
X154862970Y-42287819D02*
X154767732Y-42240200D01*
X154767732Y-42240200D02*
X154720113Y-42144961D01*
X154720113Y-42144961D02*
X154720113Y-41287819D01*
X155672494Y-42287819D02*
X155672494Y-41764009D01*
X155672494Y-41764009D02*
X155624875Y-41668771D01*
X155624875Y-41668771D02*
X155529637Y-41621152D01*
X155529637Y-41621152D02*
X155339161Y-41621152D01*
X155339161Y-41621152D02*
X155243923Y-41668771D01*
X155672494Y-42240200D02*
X155577256Y-42287819D01*
X155577256Y-42287819D02*
X155339161Y-42287819D01*
X155339161Y-42287819D02*
X155243923Y-42240200D01*
X155243923Y-42240200D02*
X155196304Y-42144961D01*
X155196304Y-42144961D02*
X155196304Y-42049723D01*
X155196304Y-42049723D02*
X155243923Y-41954485D01*
X155243923Y-41954485D02*
X155339161Y-41906866D01*
X155339161Y-41906866D02*
X155577256Y-41906866D01*
X155577256Y-41906866D02*
X155672494Y-41859247D01*
X156577256Y-42240200D02*
X156482018Y-42287819D01*
X156482018Y-42287819D02*
X156291542Y-42287819D01*
X156291542Y-42287819D02*
X156196304Y-42240200D01*
X156196304Y-42240200D02*
X156148685Y-42192580D01*
X156148685Y-42192580D02*
X156101066Y-42097342D01*
X156101066Y-42097342D02*
X156101066Y-41811628D01*
X156101066Y-41811628D02*
X156148685Y-41716390D01*
X156148685Y-41716390D02*
X156196304Y-41668771D01*
X156196304Y-41668771D02*
X156291542Y-41621152D01*
X156291542Y-41621152D02*
X156482018Y-41621152D01*
X156482018Y-41621152D02*
X156577256Y-41668771D01*
X157386780Y-42240200D02*
X157291542Y-42287819D01*
X157291542Y-42287819D02*
X157101066Y-42287819D01*
X157101066Y-42287819D02*
X157005828Y-42240200D01*
X157005828Y-42240200D02*
X156958209Y-42144961D01*
X156958209Y-42144961D02*
X156958209Y-41764009D01*
X156958209Y-41764009D02*
X157005828Y-41668771D01*
X157005828Y-41668771D02*
X157101066Y-41621152D01*
X157101066Y-41621152D02*
X157291542Y-41621152D01*
X157291542Y-41621152D02*
X157386780Y-41668771D01*
X157386780Y-41668771D02*
X157434399Y-41764009D01*
X157434399Y-41764009D02*
X157434399Y-41859247D01*
X157434399Y-41859247D02*
X156958209Y-41954485D01*
X157862971Y-42287819D02*
X157862971Y-41621152D01*
X157862971Y-41716390D02*
X157910590Y-41668771D01*
X157910590Y-41668771D02*
X158005828Y-41621152D01*
X158005828Y-41621152D02*
X158148685Y-41621152D01*
X158148685Y-41621152D02*
X158243923Y-41668771D01*
X158243923Y-41668771D02*
X158291542Y-41764009D01*
X158291542Y-41764009D02*
X158291542Y-42287819D01*
X158291542Y-41764009D02*
X158339161Y-41668771D01*
X158339161Y-41668771D02*
X158434399Y-41621152D01*
X158434399Y-41621152D02*
X158577256Y-41621152D01*
X158577256Y-41621152D02*
X158672495Y-41668771D01*
X158672495Y-41668771D02*
X158720114Y-41764009D01*
X158720114Y-41764009D02*
X158720114Y-42287819D01*
X159577256Y-42240200D02*
X159482018Y-42287819D01*
X159482018Y-42287819D02*
X159291542Y-42287819D01*
X159291542Y-42287819D02*
X159196304Y-42240200D01*
X159196304Y-42240200D02*
X159148685Y-42144961D01*
X159148685Y-42144961D02*
X159148685Y-41764009D01*
X159148685Y-41764009D02*
X159196304Y-41668771D01*
X159196304Y-41668771D02*
X159291542Y-41621152D01*
X159291542Y-41621152D02*
X159482018Y-41621152D01*
X159482018Y-41621152D02*
X159577256Y-41668771D01*
X159577256Y-41668771D02*
X159624875Y-41764009D01*
X159624875Y-41764009D02*
X159624875Y-41859247D01*
X159624875Y-41859247D02*
X159148685Y-41954485D01*
X160053447Y-41621152D02*
X160053447Y-42287819D01*
X160053447Y-41716390D02*
X160101066Y-41668771D01*
X160101066Y-41668771D02*
X160196304Y-41621152D01*
X160196304Y-41621152D02*
X160339161Y-41621152D01*
X160339161Y-41621152D02*
X160434399Y-41668771D01*
X160434399Y-41668771D02*
X160482018Y-41764009D01*
X160482018Y-41764009D02*
X160482018Y-42287819D01*
X160815352Y-41621152D02*
X161196304Y-41621152D01*
X160958209Y-41287819D02*
X160958209Y-42144961D01*
X160958209Y-42144961D02*
X161005828Y-42240200D01*
X161005828Y-42240200D02*
X161101066Y-42287819D01*
X161101066Y-42287819D02*
X161196304Y-42287819D01*
X162148686Y-41287819D02*
X162720114Y-41287819D01*
X162434400Y-42287819D02*
X162434400Y-41287819D01*
X163053448Y-42287819D02*
X163053448Y-41287819D01*
X163482019Y-42287819D02*
X163482019Y-41764009D01*
X163482019Y-41764009D02*
X163434400Y-41668771D01*
X163434400Y-41668771D02*
X163339162Y-41621152D01*
X163339162Y-41621152D02*
X163196305Y-41621152D01*
X163196305Y-41621152D02*
X163101067Y-41668771D01*
X163101067Y-41668771D02*
X163053448Y-41716390D01*
X163958210Y-42287819D02*
X163958210Y-41621152D01*
X163958210Y-41811628D02*
X164005829Y-41716390D01*
X164005829Y-41716390D02*
X164053448Y-41668771D01*
X164053448Y-41668771D02*
X164148686Y-41621152D01*
X164148686Y-41621152D02*
X164243924Y-41621152D01*
X164720115Y-42287819D02*
X164624877Y-42240200D01*
X164624877Y-42240200D02*
X164577258Y-42192580D01*
X164577258Y-42192580D02*
X164529639Y-42097342D01*
X164529639Y-42097342D02*
X164529639Y-41811628D01*
X164529639Y-41811628D02*
X164577258Y-41716390D01*
X164577258Y-41716390D02*
X164624877Y-41668771D01*
X164624877Y-41668771D02*
X164720115Y-41621152D01*
X164720115Y-41621152D02*
X164862972Y-41621152D01*
X164862972Y-41621152D02*
X164958210Y-41668771D01*
X164958210Y-41668771D02*
X165005829Y-41716390D01*
X165005829Y-41716390D02*
X165053448Y-41811628D01*
X165053448Y-41811628D02*
X165053448Y-42097342D01*
X165053448Y-42097342D02*
X165005829Y-42192580D01*
X165005829Y-42192580D02*
X164958210Y-42240200D01*
X164958210Y-42240200D02*
X164862972Y-42287819D01*
X164862972Y-42287819D02*
X164720115Y-42287819D01*
X165910591Y-41621152D02*
X165910591Y-42287819D01*
X165482020Y-41621152D02*
X165482020Y-42144961D01*
X165482020Y-42144961D02*
X165529639Y-42240200D01*
X165529639Y-42240200D02*
X165624877Y-42287819D01*
X165624877Y-42287819D02*
X165767734Y-42287819D01*
X165767734Y-42287819D02*
X165862972Y-42240200D01*
X165862972Y-42240200D02*
X165910591Y-42192580D01*
X166815353Y-41621152D02*
X166815353Y-42430676D01*
X166815353Y-42430676D02*
X166767734Y-42525914D01*
X166767734Y-42525914D02*
X166720115Y-42573533D01*
X166720115Y-42573533D02*
X166624877Y-42621152D01*
X166624877Y-42621152D02*
X166482020Y-42621152D01*
X166482020Y-42621152D02*
X166386782Y-42573533D01*
X166815353Y-42240200D02*
X166720115Y-42287819D01*
X166720115Y-42287819D02*
X166529639Y-42287819D01*
X166529639Y-42287819D02*
X166434401Y-42240200D01*
X166434401Y-42240200D02*
X166386782Y-42192580D01*
X166386782Y-42192580D02*
X166339163Y-42097342D01*
X166339163Y-42097342D02*
X166339163Y-41811628D01*
X166339163Y-41811628D02*
X166386782Y-41716390D01*
X166386782Y-41716390D02*
X166434401Y-41668771D01*
X166434401Y-41668771D02*
X166529639Y-41621152D01*
X166529639Y-41621152D02*
X166720115Y-41621152D01*
X166720115Y-41621152D02*
X166815353Y-41668771D01*
X167291544Y-42287819D02*
X167291544Y-41287819D01*
X167720115Y-42287819D02*
X167720115Y-41764009D01*
X167720115Y-41764009D02*
X167672496Y-41668771D01*
X167672496Y-41668771D02*
X167577258Y-41621152D01*
X167577258Y-41621152D02*
X167434401Y-41621152D01*
X167434401Y-41621152D02*
X167339163Y-41668771D01*
X167339163Y-41668771D02*
X167291544Y-41716390D01*
X168958211Y-42287819D02*
X168958211Y-41287819D01*
X168958211Y-41764009D02*
X169529639Y-41764009D01*
X169529639Y-42287819D02*
X169529639Y-41287819D01*
X170148687Y-42287819D02*
X170053449Y-42240200D01*
X170053449Y-42240200D02*
X170005830Y-42192580D01*
X170005830Y-42192580D02*
X169958211Y-42097342D01*
X169958211Y-42097342D02*
X169958211Y-41811628D01*
X169958211Y-41811628D02*
X170005830Y-41716390D01*
X170005830Y-41716390D02*
X170053449Y-41668771D01*
X170053449Y-41668771D02*
X170148687Y-41621152D01*
X170148687Y-41621152D02*
X170291544Y-41621152D01*
X170291544Y-41621152D02*
X170386782Y-41668771D01*
X170386782Y-41668771D02*
X170434401Y-41716390D01*
X170434401Y-41716390D02*
X170482020Y-41811628D01*
X170482020Y-41811628D02*
X170482020Y-42097342D01*
X170482020Y-42097342D02*
X170434401Y-42192580D01*
X170434401Y-42192580D02*
X170386782Y-42240200D01*
X170386782Y-42240200D02*
X170291544Y-42287819D01*
X170291544Y-42287819D02*
X170148687Y-42287819D01*
X171053449Y-42287819D02*
X170958211Y-42240200D01*
X170958211Y-42240200D02*
X170910592Y-42144961D01*
X170910592Y-42144961D02*
X170910592Y-41287819D01*
X171815354Y-42240200D02*
X171720116Y-42287819D01*
X171720116Y-42287819D02*
X171529640Y-42287819D01*
X171529640Y-42287819D02*
X171434402Y-42240200D01*
X171434402Y-42240200D02*
X171386783Y-42144961D01*
X171386783Y-42144961D02*
X171386783Y-41764009D01*
X171386783Y-41764009D02*
X171434402Y-41668771D01*
X171434402Y-41668771D02*
X171529640Y-41621152D01*
X171529640Y-41621152D02*
X171720116Y-41621152D01*
X171720116Y-41621152D02*
X171815354Y-41668771D01*
X171815354Y-41668771D02*
X171862973Y-41764009D01*
X171862973Y-41764009D02*
X171862973Y-41859247D01*
X171862973Y-41859247D02*
X171386783Y-41954485D01*
X173529640Y-42287819D02*
X173053450Y-42287819D01*
X173053450Y-42287819D02*
X173053450Y-41287819D01*
X174291545Y-42287819D02*
X174291545Y-41764009D01*
X174291545Y-41764009D02*
X174243926Y-41668771D01*
X174243926Y-41668771D02*
X174148688Y-41621152D01*
X174148688Y-41621152D02*
X173958212Y-41621152D01*
X173958212Y-41621152D02*
X173862974Y-41668771D01*
X174291545Y-42240200D02*
X174196307Y-42287819D01*
X174196307Y-42287819D02*
X173958212Y-42287819D01*
X173958212Y-42287819D02*
X173862974Y-42240200D01*
X173862974Y-42240200D02*
X173815355Y-42144961D01*
X173815355Y-42144961D02*
X173815355Y-42049723D01*
X173815355Y-42049723D02*
X173862974Y-41954485D01*
X173862974Y-41954485D02*
X173958212Y-41906866D01*
X173958212Y-41906866D02*
X174196307Y-41906866D01*
X174196307Y-41906866D02*
X174291545Y-41859247D01*
X174624879Y-41621152D02*
X175005831Y-41621152D01*
X174767736Y-41287819D02*
X174767736Y-42144961D01*
X174767736Y-42144961D02*
X174815355Y-42240200D01*
X174815355Y-42240200D02*
X174910593Y-42287819D01*
X174910593Y-42287819D02*
X175005831Y-42287819D01*
X175196308Y-41621152D02*
X175577260Y-41621152D01*
X175339165Y-41287819D02*
X175339165Y-42144961D01*
X175339165Y-42144961D02*
X175386784Y-42240200D01*
X175386784Y-42240200D02*
X175482022Y-42287819D01*
X175482022Y-42287819D02*
X175577260Y-42287819D01*
X175910594Y-42287819D02*
X175910594Y-41621152D01*
X175910594Y-41287819D02*
X175862975Y-41335438D01*
X175862975Y-41335438D02*
X175910594Y-41383057D01*
X175910594Y-41383057D02*
X175958213Y-41335438D01*
X175958213Y-41335438D02*
X175910594Y-41287819D01*
X175910594Y-41287819D02*
X175910594Y-41383057D01*
X176815355Y-42240200D02*
X176720117Y-42287819D01*
X176720117Y-42287819D02*
X176529641Y-42287819D01*
X176529641Y-42287819D02*
X176434403Y-42240200D01*
X176434403Y-42240200D02*
X176386784Y-42192580D01*
X176386784Y-42192580D02*
X176339165Y-42097342D01*
X176339165Y-42097342D02*
X176339165Y-41811628D01*
X176339165Y-41811628D02*
X176386784Y-41716390D01*
X176386784Y-41716390D02*
X176434403Y-41668771D01*
X176434403Y-41668771D02*
X176529641Y-41621152D01*
X176529641Y-41621152D02*
X176720117Y-41621152D01*
X176720117Y-41621152D02*
X176815355Y-41668771D01*
X177624879Y-42240200D02*
X177529641Y-42287819D01*
X177529641Y-42287819D02*
X177339165Y-42287819D01*
X177339165Y-42287819D02*
X177243927Y-42240200D01*
X177243927Y-42240200D02*
X177196308Y-42144961D01*
X177196308Y-42144961D02*
X177196308Y-41764009D01*
X177196308Y-41764009D02*
X177243927Y-41668771D01*
X177243927Y-41668771D02*
X177339165Y-41621152D01*
X177339165Y-41621152D02*
X177529641Y-41621152D01*
X177529641Y-41621152D02*
X177624879Y-41668771D01*
X177624879Y-41668771D02*
X177672498Y-41764009D01*
X177672498Y-41764009D02*
X177672498Y-41859247D01*
X177672498Y-41859247D02*
X177196308Y-41954485D01*
X178720118Y-41287819D02*
X179053451Y-42287819D01*
X179053451Y-42287819D02*
X179386784Y-41287819D01*
X180101070Y-42240200D02*
X180005832Y-42287819D01*
X180005832Y-42287819D02*
X179815356Y-42287819D01*
X179815356Y-42287819D02*
X179720118Y-42240200D01*
X179720118Y-42240200D02*
X179672499Y-42144961D01*
X179672499Y-42144961D02*
X179672499Y-41764009D01*
X179672499Y-41764009D02*
X179720118Y-41668771D01*
X179720118Y-41668771D02*
X179815356Y-41621152D01*
X179815356Y-41621152D02*
X180005832Y-41621152D01*
X180005832Y-41621152D02*
X180101070Y-41668771D01*
X180101070Y-41668771D02*
X180148689Y-41764009D01*
X180148689Y-41764009D02*
X180148689Y-41859247D01*
X180148689Y-41859247D02*
X179672499Y-41954485D01*
X180577261Y-42287819D02*
X180577261Y-41621152D01*
X180577261Y-41811628D02*
X180624880Y-41716390D01*
X180624880Y-41716390D02*
X180672499Y-41668771D01*
X180672499Y-41668771D02*
X180767737Y-41621152D01*
X180767737Y-41621152D02*
X180862975Y-41621152D01*
X181148690Y-42240200D02*
X181243928Y-42287819D01*
X181243928Y-42287819D02*
X181434404Y-42287819D01*
X181434404Y-42287819D02*
X181529642Y-42240200D01*
X181529642Y-42240200D02*
X181577261Y-42144961D01*
X181577261Y-42144961D02*
X181577261Y-42097342D01*
X181577261Y-42097342D02*
X181529642Y-42002104D01*
X181529642Y-42002104D02*
X181434404Y-41954485D01*
X181434404Y-41954485D02*
X181291547Y-41954485D01*
X181291547Y-41954485D02*
X181196309Y-41906866D01*
X181196309Y-41906866D02*
X181148690Y-41811628D01*
X181148690Y-41811628D02*
X181148690Y-41764009D01*
X181148690Y-41764009D02*
X181196309Y-41668771D01*
X181196309Y-41668771D02*
X181291547Y-41621152D01*
X181291547Y-41621152D02*
X181434404Y-41621152D01*
X181434404Y-41621152D02*
X181529642Y-41668771D01*
X182005833Y-42287819D02*
X182005833Y-41621152D01*
X182005833Y-41287819D02*
X181958214Y-41335438D01*
X181958214Y-41335438D02*
X182005833Y-41383057D01*
X182005833Y-41383057D02*
X182053452Y-41335438D01*
X182053452Y-41335438D02*
X182005833Y-41287819D01*
X182005833Y-41287819D02*
X182005833Y-41383057D01*
X182624880Y-42287819D02*
X182529642Y-42240200D01*
X182529642Y-42240200D02*
X182482023Y-42192580D01*
X182482023Y-42192580D02*
X182434404Y-42097342D01*
X182434404Y-42097342D02*
X182434404Y-41811628D01*
X182434404Y-41811628D02*
X182482023Y-41716390D01*
X182482023Y-41716390D02*
X182529642Y-41668771D01*
X182529642Y-41668771D02*
X182624880Y-41621152D01*
X182624880Y-41621152D02*
X182767737Y-41621152D01*
X182767737Y-41621152D02*
X182862975Y-41668771D01*
X182862975Y-41668771D02*
X182910594Y-41716390D01*
X182910594Y-41716390D02*
X182958213Y-41811628D01*
X182958213Y-41811628D02*
X182958213Y-42097342D01*
X182958213Y-42097342D02*
X182910594Y-42192580D01*
X182910594Y-42192580D02*
X182862975Y-42240200D01*
X182862975Y-42240200D02*
X182767737Y-42287819D01*
X182767737Y-42287819D02*
X182624880Y-42287819D01*
X183386785Y-41621152D02*
X183386785Y-42287819D01*
X183386785Y-41716390D02*
X183434404Y-41668771D01*
X183434404Y-41668771D02*
X183529642Y-41621152D01*
X183529642Y-41621152D02*
X183672499Y-41621152D01*
X183672499Y-41621152D02*
X183767737Y-41668771D01*
X183767737Y-41668771D02*
X183815356Y-41764009D01*
X183815356Y-41764009D02*
X183815356Y-42287819D01*
X87035333Y-71733580D02*
X86987714Y-71781200D01*
X86987714Y-71781200D02*
X86844857Y-71828819D01*
X86844857Y-71828819D02*
X86749619Y-71828819D01*
X86749619Y-71828819D02*
X86606762Y-71781200D01*
X86606762Y-71781200D02*
X86511524Y-71685961D01*
X86511524Y-71685961D02*
X86463905Y-71590723D01*
X86463905Y-71590723D02*
X86416286Y-71400247D01*
X86416286Y-71400247D02*
X86416286Y-71257390D01*
X86416286Y-71257390D02*
X86463905Y-71066914D01*
X86463905Y-71066914D02*
X86511524Y-70971676D01*
X86511524Y-70971676D02*
X86606762Y-70876438D01*
X86606762Y-70876438D02*
X86749619Y-70828819D01*
X86749619Y-70828819D02*
X86844857Y-70828819D01*
X86844857Y-70828819D02*
X86987714Y-70876438D01*
X86987714Y-70876438D02*
X87035333Y-70924057D01*
X87368667Y-70828819D02*
X87987714Y-70828819D01*
X87987714Y-70828819D02*
X87654381Y-71209771D01*
X87654381Y-71209771D02*
X87797238Y-71209771D01*
X87797238Y-71209771D02*
X87892476Y-71257390D01*
X87892476Y-71257390D02*
X87940095Y-71305009D01*
X87940095Y-71305009D02*
X87987714Y-71400247D01*
X87987714Y-71400247D02*
X87987714Y-71638342D01*
X87987714Y-71638342D02*
X87940095Y-71733580D01*
X87940095Y-71733580D02*
X87892476Y-71781200D01*
X87892476Y-71781200D02*
X87797238Y-71828819D01*
X87797238Y-71828819D02*
X87511524Y-71828819D01*
X87511524Y-71828819D02*
X87416286Y-71781200D01*
X87416286Y-71781200D02*
X87368667Y-71733580D01*
X86518761Y-105452057D02*
X86423523Y-105404438D01*
X86423523Y-105404438D02*
X86328285Y-105309200D01*
X86328285Y-105309200D02*
X86185428Y-105166342D01*
X86185428Y-105166342D02*
X86090190Y-105118723D01*
X86090190Y-105118723D02*
X85994952Y-105118723D01*
X86042571Y-105356819D02*
X85947333Y-105309200D01*
X85947333Y-105309200D02*
X85852095Y-105213961D01*
X85852095Y-105213961D02*
X85804476Y-105023485D01*
X85804476Y-105023485D02*
X85804476Y-104690152D01*
X85804476Y-104690152D02*
X85852095Y-104499676D01*
X85852095Y-104499676D02*
X85947333Y-104404438D01*
X85947333Y-104404438D02*
X86042571Y-104356819D01*
X86042571Y-104356819D02*
X86233047Y-104356819D01*
X86233047Y-104356819D02*
X86328285Y-104404438D01*
X86328285Y-104404438D02*
X86423523Y-104499676D01*
X86423523Y-104499676D02*
X86471142Y-104690152D01*
X86471142Y-104690152D02*
X86471142Y-105023485D01*
X86471142Y-105023485D02*
X86423523Y-105213961D01*
X86423523Y-105213961D02*
X86328285Y-105309200D01*
X86328285Y-105309200D02*
X86233047Y-105356819D01*
X86233047Y-105356819D02*
X86042571Y-105356819D01*
X86947333Y-105356819D02*
X87137809Y-105356819D01*
X87137809Y-105356819D02*
X87233047Y-105309200D01*
X87233047Y-105309200D02*
X87280666Y-105261580D01*
X87280666Y-105261580D02*
X87375904Y-105118723D01*
X87375904Y-105118723D02*
X87423523Y-104928247D01*
X87423523Y-104928247D02*
X87423523Y-104547295D01*
X87423523Y-104547295D02*
X87375904Y-104452057D01*
X87375904Y-104452057D02*
X87328285Y-104404438D01*
X87328285Y-104404438D02*
X87233047Y-104356819D01*
X87233047Y-104356819D02*
X87042571Y-104356819D01*
X87042571Y-104356819D02*
X86947333Y-104404438D01*
X86947333Y-104404438D02*
X86899714Y-104452057D01*
X86899714Y-104452057D02*
X86852095Y-104547295D01*
X86852095Y-104547295D02*
X86852095Y-104785390D01*
X86852095Y-104785390D02*
X86899714Y-104880628D01*
X86899714Y-104880628D02*
X86947333Y-104928247D01*
X86947333Y-104928247D02*
X87042571Y-104975866D01*
X87042571Y-104975866D02*
X87233047Y-104975866D01*
X87233047Y-104975866D02*
X87328285Y-104928247D01*
X87328285Y-104928247D02*
X87375904Y-104880628D01*
X87375904Y-104880628D02*
X87423523Y-104785390D01*
X132755333Y-89513580D02*
X132707714Y-89561200D01*
X132707714Y-89561200D02*
X132564857Y-89608819D01*
X132564857Y-89608819D02*
X132469619Y-89608819D01*
X132469619Y-89608819D02*
X132326762Y-89561200D01*
X132326762Y-89561200D02*
X132231524Y-89465961D01*
X132231524Y-89465961D02*
X132183905Y-89370723D01*
X132183905Y-89370723D02*
X132136286Y-89180247D01*
X132136286Y-89180247D02*
X132136286Y-89037390D01*
X132136286Y-89037390D02*
X132183905Y-88846914D01*
X132183905Y-88846914D02*
X132231524Y-88751676D01*
X132231524Y-88751676D02*
X132326762Y-88656438D01*
X132326762Y-88656438D02*
X132469619Y-88608819D01*
X132469619Y-88608819D02*
X132564857Y-88608819D01*
X132564857Y-88608819D02*
X132707714Y-88656438D01*
X132707714Y-88656438D02*
X132755333Y-88704057D01*
X133660095Y-88608819D02*
X133183905Y-88608819D01*
X133183905Y-88608819D02*
X133136286Y-89085009D01*
X133136286Y-89085009D02*
X133183905Y-89037390D01*
X133183905Y-89037390D02*
X133279143Y-88989771D01*
X133279143Y-88989771D02*
X133517238Y-88989771D01*
X133517238Y-88989771D02*
X133612476Y-89037390D01*
X133612476Y-89037390D02*
X133660095Y-89085009D01*
X133660095Y-89085009D02*
X133707714Y-89180247D01*
X133707714Y-89180247D02*
X133707714Y-89418342D01*
X133707714Y-89418342D02*
X133660095Y-89513580D01*
X133660095Y-89513580D02*
X133612476Y-89561200D01*
X133612476Y-89561200D02*
X133517238Y-89608819D01*
X133517238Y-89608819D02*
X133279143Y-89608819D01*
X133279143Y-89608819D02*
X133183905Y-89561200D01*
X133183905Y-89561200D02*
X133136286Y-89513580D01*
X86518761Y-113072057D02*
X86423523Y-113024438D01*
X86423523Y-113024438D02*
X86328285Y-112929200D01*
X86328285Y-112929200D02*
X86185428Y-112786342D01*
X86185428Y-112786342D02*
X86090190Y-112738723D01*
X86090190Y-112738723D02*
X85994952Y-112738723D01*
X86042571Y-112976819D02*
X85947333Y-112929200D01*
X85947333Y-112929200D02*
X85852095Y-112833961D01*
X85852095Y-112833961D02*
X85804476Y-112643485D01*
X85804476Y-112643485D02*
X85804476Y-112310152D01*
X85804476Y-112310152D02*
X85852095Y-112119676D01*
X85852095Y-112119676D02*
X85947333Y-112024438D01*
X85947333Y-112024438D02*
X86042571Y-111976819D01*
X86042571Y-111976819D02*
X86233047Y-111976819D01*
X86233047Y-111976819D02*
X86328285Y-112024438D01*
X86328285Y-112024438D02*
X86423523Y-112119676D01*
X86423523Y-112119676D02*
X86471142Y-112310152D01*
X86471142Y-112310152D02*
X86471142Y-112643485D01*
X86471142Y-112643485D02*
X86423523Y-112833961D01*
X86423523Y-112833961D02*
X86328285Y-112929200D01*
X86328285Y-112929200D02*
X86233047Y-112976819D01*
X86233047Y-112976819D02*
X86042571Y-112976819D01*
X87042571Y-112405390D02*
X86947333Y-112357771D01*
X86947333Y-112357771D02*
X86899714Y-112310152D01*
X86899714Y-112310152D02*
X86852095Y-112214914D01*
X86852095Y-112214914D02*
X86852095Y-112167295D01*
X86852095Y-112167295D02*
X86899714Y-112072057D01*
X86899714Y-112072057D02*
X86947333Y-112024438D01*
X86947333Y-112024438D02*
X87042571Y-111976819D01*
X87042571Y-111976819D02*
X87233047Y-111976819D01*
X87233047Y-111976819D02*
X87328285Y-112024438D01*
X87328285Y-112024438D02*
X87375904Y-112072057D01*
X87375904Y-112072057D02*
X87423523Y-112167295D01*
X87423523Y-112167295D02*
X87423523Y-112214914D01*
X87423523Y-112214914D02*
X87375904Y-112310152D01*
X87375904Y-112310152D02*
X87328285Y-112357771D01*
X87328285Y-112357771D02*
X87233047Y-112405390D01*
X87233047Y-112405390D02*
X87042571Y-112405390D01*
X87042571Y-112405390D02*
X86947333Y-112453009D01*
X86947333Y-112453009D02*
X86899714Y-112500628D01*
X86899714Y-112500628D02*
X86852095Y-112595866D01*
X86852095Y-112595866D02*
X86852095Y-112786342D01*
X86852095Y-112786342D02*
X86899714Y-112881580D01*
X86899714Y-112881580D02*
X86947333Y-112929200D01*
X86947333Y-112929200D02*
X87042571Y-112976819D01*
X87042571Y-112976819D02*
X87233047Y-112976819D01*
X87233047Y-112976819D02*
X87328285Y-112929200D01*
X87328285Y-112929200D02*
X87375904Y-112881580D01*
X87375904Y-112881580D02*
X87423523Y-112786342D01*
X87423523Y-112786342D02*
X87423523Y-112595866D01*
X87423523Y-112595866D02*
X87375904Y-112500628D01*
X87375904Y-112500628D02*
X87328285Y-112453009D01*
X87328285Y-112453009D02*
X87233047Y-112405390D01*
D12*
X109982095Y-57115419D02*
X109982095Y-57924942D01*
X109982095Y-57924942D02*
X110029714Y-58020180D01*
X110029714Y-58020180D02*
X110077333Y-58067800D01*
X110077333Y-58067800D02*
X110172571Y-58115419D01*
X110172571Y-58115419D02*
X110363047Y-58115419D01*
X110363047Y-58115419D02*
X110458285Y-58067800D01*
X110458285Y-58067800D02*
X110505904Y-58020180D01*
X110505904Y-58020180D02*
X110553523Y-57924942D01*
X110553523Y-57924942D02*
X110553523Y-57115419D01*
X111505904Y-57115419D02*
X111029714Y-57115419D01*
X111029714Y-57115419D02*
X110982095Y-57591609D01*
X110982095Y-57591609D02*
X111029714Y-57543990D01*
X111029714Y-57543990D02*
X111124952Y-57496371D01*
X111124952Y-57496371D02*
X111363047Y-57496371D01*
X111363047Y-57496371D02*
X111458285Y-57543990D01*
X111458285Y-57543990D02*
X111505904Y-57591609D01*
X111505904Y-57591609D02*
X111553523Y-57686847D01*
X111553523Y-57686847D02*
X111553523Y-57924942D01*
X111553523Y-57924942D02*
X111505904Y-58020180D01*
X111505904Y-58020180D02*
X111458285Y-58067800D01*
X111458285Y-58067800D02*
X111363047Y-58115419D01*
X111363047Y-58115419D02*
X111124952Y-58115419D01*
X111124952Y-58115419D02*
X111029714Y-58067800D01*
X111029714Y-58067800D02*
X110982095Y-58020180D01*
D11*
X102266761Y-105452057D02*
X102171523Y-105404438D01*
X102171523Y-105404438D02*
X102076285Y-105309200D01*
X102076285Y-105309200D02*
X101933428Y-105166342D01*
X101933428Y-105166342D02*
X101838190Y-105118723D01*
X101838190Y-105118723D02*
X101742952Y-105118723D01*
X101790571Y-105356819D02*
X101695333Y-105309200D01*
X101695333Y-105309200D02*
X101600095Y-105213961D01*
X101600095Y-105213961D02*
X101552476Y-105023485D01*
X101552476Y-105023485D02*
X101552476Y-104690152D01*
X101552476Y-104690152D02*
X101600095Y-104499676D01*
X101600095Y-104499676D02*
X101695333Y-104404438D01*
X101695333Y-104404438D02*
X101790571Y-104356819D01*
X101790571Y-104356819D02*
X101981047Y-104356819D01*
X101981047Y-104356819D02*
X102076285Y-104404438D01*
X102076285Y-104404438D02*
X102171523Y-104499676D01*
X102171523Y-104499676D02*
X102219142Y-104690152D01*
X102219142Y-104690152D02*
X102219142Y-105023485D01*
X102219142Y-105023485D02*
X102171523Y-105213961D01*
X102171523Y-105213961D02*
X102076285Y-105309200D01*
X102076285Y-105309200D02*
X101981047Y-105356819D01*
X101981047Y-105356819D02*
X101790571Y-105356819D01*
X102552476Y-104356819D02*
X103219142Y-104356819D01*
X103219142Y-104356819D02*
X102790571Y-105356819D01*
D12*
X87074095Y-75871419D02*
X87074095Y-76680942D01*
X87074095Y-76680942D02*
X87121714Y-76776180D01*
X87121714Y-76776180D02*
X87169333Y-76823800D01*
X87169333Y-76823800D02*
X87264571Y-76871419D01*
X87264571Y-76871419D02*
X87455047Y-76871419D01*
X87455047Y-76871419D02*
X87550285Y-76823800D01*
X87550285Y-76823800D02*
X87597904Y-76776180D01*
X87597904Y-76776180D02*
X87645523Y-76680942D01*
X87645523Y-76680942D02*
X87645523Y-75871419D01*
X88026476Y-75871419D02*
X88645523Y-75871419D01*
X88645523Y-75871419D02*
X88312190Y-76252371D01*
X88312190Y-76252371D02*
X88455047Y-76252371D01*
X88455047Y-76252371D02*
X88550285Y-76299990D01*
X88550285Y-76299990D02*
X88597904Y-76347609D01*
X88597904Y-76347609D02*
X88645523Y-76442847D01*
X88645523Y-76442847D02*
X88645523Y-76680942D01*
X88645523Y-76680942D02*
X88597904Y-76776180D01*
X88597904Y-76776180D02*
X88550285Y-76823800D01*
X88550285Y-76823800D02*
X88455047Y-76871419D01*
X88455047Y-76871419D02*
X88169333Y-76871419D01*
X88169333Y-76871419D02*
X88074095Y-76823800D01*
X88074095Y-76823800D02*
X88026476Y-76776180D01*
D11*
X111847333Y-122628819D02*
X111514000Y-122152628D01*
X111275905Y-122628819D02*
X111275905Y-121628819D01*
X111275905Y-121628819D02*
X111656857Y-121628819D01*
X111656857Y-121628819D02*
X111752095Y-121676438D01*
X111752095Y-121676438D02*
X111799714Y-121724057D01*
X111799714Y-121724057D02*
X111847333Y-121819295D01*
X111847333Y-121819295D02*
X111847333Y-121962152D01*
X111847333Y-121962152D02*
X111799714Y-122057390D01*
X111799714Y-122057390D02*
X111752095Y-122105009D01*
X111752095Y-122105009D02*
X111656857Y-122152628D01*
X111656857Y-122152628D02*
X111275905Y-122152628D01*
X112752095Y-121628819D02*
X112275905Y-121628819D01*
X112275905Y-121628819D02*
X112228286Y-122105009D01*
X112228286Y-122105009D02*
X112275905Y-122057390D01*
X112275905Y-122057390D02*
X112371143Y-122009771D01*
X112371143Y-122009771D02*
X112609238Y-122009771D01*
X112609238Y-122009771D02*
X112704476Y-122057390D01*
X112704476Y-122057390D02*
X112752095Y-122105009D01*
X112752095Y-122105009D02*
X112799714Y-122200247D01*
X112799714Y-122200247D02*
X112799714Y-122438342D01*
X112799714Y-122438342D02*
X112752095Y-122533580D01*
X112752095Y-122533580D02*
X112704476Y-122581200D01*
X112704476Y-122581200D02*
X112609238Y-122628819D01*
X112609238Y-122628819D02*
X112371143Y-122628819D01*
X112371143Y-122628819D02*
X112275905Y-122581200D01*
X112275905Y-122581200D02*
X112228286Y-122533580D01*
X159766095Y-120608819D02*
X159766095Y-121418342D01*
X159766095Y-121418342D02*
X159813714Y-121513580D01*
X159813714Y-121513580D02*
X159861333Y-121561200D01*
X159861333Y-121561200D02*
X159956571Y-121608819D01*
X159956571Y-121608819D02*
X160147047Y-121608819D01*
X160147047Y-121608819D02*
X160242285Y-121561200D01*
X160242285Y-121561200D02*
X160289904Y-121513580D01*
X160289904Y-121513580D02*
X160337523Y-121418342D01*
X160337523Y-121418342D02*
X160337523Y-120608819D01*
X161337523Y-121608819D02*
X160766095Y-121608819D01*
X161051809Y-121608819D02*
X161051809Y-120608819D01*
X161051809Y-120608819D02*
X160956571Y-120751676D01*
X160956571Y-120751676D02*
X160861333Y-120846914D01*
X160861333Y-120846914D02*
X160766095Y-120894533D01*
X102044571Y-113072057D02*
X101949333Y-113024438D01*
X101949333Y-113024438D02*
X101854095Y-112929200D01*
X101854095Y-112929200D02*
X101711238Y-112786342D01*
X101711238Y-112786342D02*
X101616000Y-112738723D01*
X101616000Y-112738723D02*
X101520762Y-112738723D01*
X101568381Y-112976819D02*
X101473143Y-112929200D01*
X101473143Y-112929200D02*
X101377905Y-112833961D01*
X101377905Y-112833961D02*
X101330286Y-112643485D01*
X101330286Y-112643485D02*
X101330286Y-112310152D01*
X101330286Y-112310152D02*
X101377905Y-112119676D01*
X101377905Y-112119676D02*
X101473143Y-112024438D01*
X101473143Y-112024438D02*
X101568381Y-111976819D01*
X101568381Y-111976819D02*
X101758857Y-111976819D01*
X101758857Y-111976819D02*
X101854095Y-112024438D01*
X101854095Y-112024438D02*
X101949333Y-112119676D01*
X101949333Y-112119676D02*
X101996952Y-112310152D01*
X101996952Y-112310152D02*
X101996952Y-112643485D01*
X101996952Y-112643485D02*
X101949333Y-112833961D01*
X101949333Y-112833961D02*
X101854095Y-112929200D01*
X101854095Y-112929200D02*
X101758857Y-112976819D01*
X101758857Y-112976819D02*
X101568381Y-112976819D01*
X102949333Y-112976819D02*
X102377905Y-112976819D01*
X102663619Y-112976819D02*
X102663619Y-111976819D01*
X102663619Y-111976819D02*
X102568381Y-112119676D01*
X102568381Y-112119676D02*
X102473143Y-112214914D01*
X102473143Y-112214914D02*
X102377905Y-112262533D01*
X103568381Y-111976819D02*
X103663619Y-111976819D01*
X103663619Y-111976819D02*
X103758857Y-112024438D01*
X103758857Y-112024438D02*
X103806476Y-112072057D01*
X103806476Y-112072057D02*
X103854095Y-112167295D01*
X103854095Y-112167295D02*
X103901714Y-112357771D01*
X103901714Y-112357771D02*
X103901714Y-112595866D01*
X103901714Y-112595866D02*
X103854095Y-112786342D01*
X103854095Y-112786342D02*
X103806476Y-112881580D01*
X103806476Y-112881580D02*
X103758857Y-112929200D01*
X103758857Y-112929200D02*
X103663619Y-112976819D01*
X103663619Y-112976819D02*
X103568381Y-112976819D01*
X103568381Y-112976819D02*
X103473143Y-112929200D01*
X103473143Y-112929200D02*
X103425524Y-112881580D01*
X103425524Y-112881580D02*
X103377905Y-112786342D01*
X103377905Y-112786342D02*
X103330286Y-112595866D01*
X103330286Y-112595866D02*
X103330286Y-112357771D01*
X103330286Y-112357771D02*
X103377905Y-112167295D01*
X103377905Y-112167295D02*
X103425524Y-112072057D01*
X103425524Y-112072057D02*
X103473143Y-112024438D01*
X103473143Y-112024438D02*
X103568381Y-111976819D01*
X119030761Y-140906057D02*
X118935523Y-140858438D01*
X118935523Y-140858438D02*
X118840285Y-140763200D01*
X118840285Y-140763200D02*
X118697428Y-140620342D01*
X118697428Y-140620342D02*
X118602190Y-140572723D01*
X118602190Y-140572723D02*
X118506952Y-140572723D01*
X118554571Y-140810819D02*
X118459333Y-140763200D01*
X118459333Y-140763200D02*
X118364095Y-140667961D01*
X118364095Y-140667961D02*
X118316476Y-140477485D01*
X118316476Y-140477485D02*
X118316476Y-140144152D01*
X118316476Y-140144152D02*
X118364095Y-139953676D01*
X118364095Y-139953676D02*
X118459333Y-139858438D01*
X118459333Y-139858438D02*
X118554571Y-139810819D01*
X118554571Y-139810819D02*
X118745047Y-139810819D01*
X118745047Y-139810819D02*
X118840285Y-139858438D01*
X118840285Y-139858438D02*
X118935523Y-139953676D01*
X118935523Y-139953676D02*
X118983142Y-140144152D01*
X118983142Y-140144152D02*
X118983142Y-140477485D01*
X118983142Y-140477485D02*
X118935523Y-140667961D01*
X118935523Y-140667961D02*
X118840285Y-140763200D01*
X118840285Y-140763200D02*
X118745047Y-140810819D01*
X118745047Y-140810819D02*
X118554571Y-140810819D01*
X119840285Y-140144152D02*
X119840285Y-140810819D01*
X119602190Y-139763200D02*
X119364095Y-140477485D01*
X119364095Y-140477485D02*
X119983142Y-140477485D01*
X111410761Y-140906057D02*
X111315523Y-140858438D01*
X111315523Y-140858438D02*
X111220285Y-140763200D01*
X111220285Y-140763200D02*
X111077428Y-140620342D01*
X111077428Y-140620342D02*
X110982190Y-140572723D01*
X110982190Y-140572723D02*
X110886952Y-140572723D01*
X110934571Y-140810819D02*
X110839333Y-140763200D01*
X110839333Y-140763200D02*
X110744095Y-140667961D01*
X110744095Y-140667961D02*
X110696476Y-140477485D01*
X110696476Y-140477485D02*
X110696476Y-140144152D01*
X110696476Y-140144152D02*
X110744095Y-139953676D01*
X110744095Y-139953676D02*
X110839333Y-139858438D01*
X110839333Y-139858438D02*
X110934571Y-139810819D01*
X110934571Y-139810819D02*
X111125047Y-139810819D01*
X111125047Y-139810819D02*
X111220285Y-139858438D01*
X111220285Y-139858438D02*
X111315523Y-139953676D01*
X111315523Y-139953676D02*
X111363142Y-140144152D01*
X111363142Y-140144152D02*
X111363142Y-140477485D01*
X111363142Y-140477485D02*
X111315523Y-140667961D01*
X111315523Y-140667961D02*
X111220285Y-140763200D01*
X111220285Y-140763200D02*
X111125047Y-140810819D01*
X111125047Y-140810819D02*
X110934571Y-140810819D01*
X112267904Y-139810819D02*
X111791714Y-139810819D01*
X111791714Y-139810819D02*
X111744095Y-140287009D01*
X111744095Y-140287009D02*
X111791714Y-140239390D01*
X111791714Y-140239390D02*
X111886952Y-140191771D01*
X111886952Y-140191771D02*
X112125047Y-140191771D01*
X112125047Y-140191771D02*
X112220285Y-140239390D01*
X112220285Y-140239390D02*
X112267904Y-140287009D01*
X112267904Y-140287009D02*
X112315523Y-140382247D01*
X112315523Y-140382247D02*
X112315523Y-140620342D01*
X112315523Y-140620342D02*
X112267904Y-140715580D01*
X112267904Y-140715580D02*
X112220285Y-140763200D01*
X112220285Y-140763200D02*
X112125047Y-140810819D01*
X112125047Y-140810819D02*
X111886952Y-140810819D01*
X111886952Y-140810819D02*
X111791714Y-140763200D01*
X111791714Y-140763200D02*
X111744095Y-140715580D01*
D12*
X109982095Y-93651419D02*
X109982095Y-94460942D01*
X109982095Y-94460942D02*
X110029714Y-94556180D01*
X110029714Y-94556180D02*
X110077333Y-94603800D01*
X110077333Y-94603800D02*
X110172571Y-94651419D01*
X110172571Y-94651419D02*
X110363047Y-94651419D01*
X110363047Y-94651419D02*
X110458285Y-94603800D01*
X110458285Y-94603800D02*
X110505904Y-94556180D01*
X110505904Y-94556180D02*
X110553523Y-94460942D01*
X110553523Y-94460942D02*
X110553523Y-93651419D01*
X111458285Y-93651419D02*
X111267809Y-93651419D01*
X111267809Y-93651419D02*
X111172571Y-93699038D01*
X111172571Y-93699038D02*
X111124952Y-93746657D01*
X111124952Y-93746657D02*
X111029714Y-93889514D01*
X111029714Y-93889514D02*
X110982095Y-94079990D01*
X110982095Y-94079990D02*
X110982095Y-94460942D01*
X110982095Y-94460942D02*
X111029714Y-94556180D01*
X111029714Y-94556180D02*
X111077333Y-94603800D01*
X111077333Y-94603800D02*
X111172571Y-94651419D01*
X111172571Y-94651419D02*
X111363047Y-94651419D01*
X111363047Y-94651419D02*
X111458285Y-94603800D01*
X111458285Y-94603800D02*
X111505904Y-94556180D01*
X111505904Y-94556180D02*
X111553523Y-94460942D01*
X111553523Y-94460942D02*
X111553523Y-94222847D01*
X111553523Y-94222847D02*
X111505904Y-94127609D01*
X111505904Y-94127609D02*
X111458285Y-94079990D01*
X111458285Y-94079990D02*
X111363047Y-94032371D01*
X111363047Y-94032371D02*
X111172571Y-94032371D01*
X111172571Y-94032371D02*
X111077333Y-94079990D01*
X111077333Y-94079990D02*
X111029714Y-94127609D01*
X111029714Y-94127609D02*
X110982095Y-94222847D01*
X132524095Y-58131419D02*
X132524095Y-58940942D01*
X132524095Y-58940942D02*
X132571714Y-59036180D01*
X132571714Y-59036180D02*
X132619333Y-59083800D01*
X132619333Y-59083800D02*
X132714571Y-59131419D01*
X132714571Y-59131419D02*
X132905047Y-59131419D01*
X132905047Y-59131419D02*
X133000285Y-59083800D01*
X133000285Y-59083800D02*
X133047904Y-59036180D01*
X133047904Y-59036180D02*
X133095523Y-58940942D01*
X133095523Y-58940942D02*
X133095523Y-58131419D01*
X133524095Y-58226657D02*
X133571714Y-58179038D01*
X133571714Y-58179038D02*
X133666952Y-58131419D01*
X133666952Y-58131419D02*
X133905047Y-58131419D01*
X133905047Y-58131419D02*
X134000285Y-58179038D01*
X134000285Y-58179038D02*
X134047904Y-58226657D01*
X134047904Y-58226657D02*
X134095523Y-58321895D01*
X134095523Y-58321895D02*
X134095523Y-58417133D01*
X134095523Y-58417133D02*
X134047904Y-58559990D01*
X134047904Y-58559990D02*
X133476476Y-59131419D01*
X133476476Y-59131419D02*
X134095523Y-59131419D01*
D11*
X132929333Y-53953580D02*
X132881714Y-54001200D01*
X132881714Y-54001200D02*
X132738857Y-54048819D01*
X132738857Y-54048819D02*
X132643619Y-54048819D01*
X132643619Y-54048819D02*
X132500762Y-54001200D01*
X132500762Y-54001200D02*
X132405524Y-53905961D01*
X132405524Y-53905961D02*
X132357905Y-53810723D01*
X132357905Y-53810723D02*
X132310286Y-53620247D01*
X132310286Y-53620247D02*
X132310286Y-53477390D01*
X132310286Y-53477390D02*
X132357905Y-53286914D01*
X132357905Y-53286914D02*
X132405524Y-53191676D01*
X132405524Y-53191676D02*
X132500762Y-53096438D01*
X132500762Y-53096438D02*
X132643619Y-53048819D01*
X132643619Y-53048819D02*
X132738857Y-53048819D01*
X132738857Y-53048819D02*
X132881714Y-53096438D01*
X132881714Y-53096438D02*
X132929333Y-53144057D01*
X133786476Y-53048819D02*
X133596000Y-53048819D01*
X133596000Y-53048819D02*
X133500762Y-53096438D01*
X133500762Y-53096438D02*
X133453143Y-53144057D01*
X133453143Y-53144057D02*
X133357905Y-53286914D01*
X133357905Y-53286914D02*
X133310286Y-53477390D01*
X133310286Y-53477390D02*
X133310286Y-53858342D01*
X133310286Y-53858342D02*
X133357905Y-53953580D01*
X133357905Y-53953580D02*
X133405524Y-54001200D01*
X133405524Y-54001200D02*
X133500762Y-54048819D01*
X133500762Y-54048819D02*
X133691238Y-54048819D01*
X133691238Y-54048819D02*
X133786476Y-54001200D01*
X133786476Y-54001200D02*
X133834095Y-53953580D01*
X133834095Y-53953580D02*
X133881714Y-53858342D01*
X133881714Y-53858342D02*
X133881714Y-53620247D01*
X133881714Y-53620247D02*
X133834095Y-53525009D01*
X133834095Y-53525009D02*
X133786476Y-53477390D01*
X133786476Y-53477390D02*
X133691238Y-53429771D01*
X133691238Y-53429771D02*
X133500762Y-53429771D01*
X133500762Y-53429771D02*
X133405524Y-53477390D01*
X133405524Y-53477390D02*
X133357905Y-53525009D01*
X133357905Y-53525009D02*
X133310286Y-53620247D01*
X142398761Y-140758057D02*
X142303523Y-140710438D01*
X142303523Y-140710438D02*
X142208285Y-140615200D01*
X142208285Y-140615200D02*
X142065428Y-140472342D01*
X142065428Y-140472342D02*
X141970190Y-140424723D01*
X141970190Y-140424723D02*
X141874952Y-140424723D01*
X141922571Y-140662819D02*
X141827333Y-140615200D01*
X141827333Y-140615200D02*
X141732095Y-140519961D01*
X141732095Y-140519961D02*
X141684476Y-140329485D01*
X141684476Y-140329485D02*
X141684476Y-139996152D01*
X141684476Y-139996152D02*
X141732095Y-139805676D01*
X141732095Y-139805676D02*
X141827333Y-139710438D01*
X141827333Y-139710438D02*
X141922571Y-139662819D01*
X141922571Y-139662819D02*
X142113047Y-139662819D01*
X142113047Y-139662819D02*
X142208285Y-139710438D01*
X142208285Y-139710438D02*
X142303523Y-139805676D01*
X142303523Y-139805676D02*
X142351142Y-139996152D01*
X142351142Y-139996152D02*
X142351142Y-140329485D01*
X142351142Y-140329485D02*
X142303523Y-140519961D01*
X142303523Y-140519961D02*
X142208285Y-140615200D01*
X142208285Y-140615200D02*
X142113047Y-140662819D01*
X142113047Y-140662819D02*
X141922571Y-140662819D01*
X143303523Y-140662819D02*
X142732095Y-140662819D01*
X143017809Y-140662819D02*
X143017809Y-139662819D01*
X143017809Y-139662819D02*
X142922571Y-139805676D01*
X142922571Y-139805676D02*
X142827333Y-139900914D01*
X142827333Y-139900914D02*
X142732095Y-139948533D01*
X104481333Y-123898819D02*
X104148000Y-123422628D01*
X103909905Y-123898819D02*
X103909905Y-122898819D01*
X103909905Y-122898819D02*
X104290857Y-122898819D01*
X104290857Y-122898819D02*
X104386095Y-122946438D01*
X104386095Y-122946438D02*
X104433714Y-122994057D01*
X104433714Y-122994057D02*
X104481333Y-123089295D01*
X104481333Y-123089295D02*
X104481333Y-123232152D01*
X104481333Y-123232152D02*
X104433714Y-123327390D01*
X104433714Y-123327390D02*
X104386095Y-123375009D01*
X104386095Y-123375009D02*
X104290857Y-123422628D01*
X104290857Y-123422628D02*
X103909905Y-123422628D01*
X105338476Y-122898819D02*
X105148000Y-122898819D01*
X105148000Y-122898819D02*
X105052762Y-122946438D01*
X105052762Y-122946438D02*
X105005143Y-122994057D01*
X105005143Y-122994057D02*
X104909905Y-123136914D01*
X104909905Y-123136914D02*
X104862286Y-123327390D01*
X104862286Y-123327390D02*
X104862286Y-123708342D01*
X104862286Y-123708342D02*
X104909905Y-123803580D01*
X104909905Y-123803580D02*
X104957524Y-123851200D01*
X104957524Y-123851200D02*
X105052762Y-123898819D01*
X105052762Y-123898819D02*
X105243238Y-123898819D01*
X105243238Y-123898819D02*
X105338476Y-123851200D01*
X105338476Y-123851200D02*
X105386095Y-123803580D01*
X105386095Y-123803580D02*
X105433714Y-123708342D01*
X105433714Y-123708342D02*
X105433714Y-123470247D01*
X105433714Y-123470247D02*
X105386095Y-123375009D01*
X105386095Y-123375009D02*
X105338476Y-123327390D01*
X105338476Y-123327390D02*
X105243238Y-123279771D01*
X105243238Y-123279771D02*
X105052762Y-123279771D01*
X105052762Y-123279771D02*
X104957524Y-123327390D01*
X104957524Y-123327390D02*
X104909905Y-123375009D01*
X104909905Y-123375009D02*
X104862286Y-123470247D01*
X152653333Y-107975580D02*
X152605714Y-108023200D01*
X152605714Y-108023200D02*
X152462857Y-108070819D01*
X152462857Y-108070819D02*
X152367619Y-108070819D01*
X152367619Y-108070819D02*
X152224762Y-108023200D01*
X152224762Y-108023200D02*
X152129524Y-107927961D01*
X152129524Y-107927961D02*
X152081905Y-107832723D01*
X152081905Y-107832723D02*
X152034286Y-107642247D01*
X152034286Y-107642247D02*
X152034286Y-107499390D01*
X152034286Y-107499390D02*
X152081905Y-107308914D01*
X152081905Y-107308914D02*
X152129524Y-107213676D01*
X152129524Y-107213676D02*
X152224762Y-107118438D01*
X152224762Y-107118438D02*
X152367619Y-107070819D01*
X152367619Y-107070819D02*
X152462857Y-107070819D01*
X152462857Y-107070819D02*
X152605714Y-107118438D01*
X152605714Y-107118438D02*
X152653333Y-107166057D01*
X153224762Y-107499390D02*
X153129524Y-107451771D01*
X153129524Y-107451771D02*
X153081905Y-107404152D01*
X153081905Y-107404152D02*
X153034286Y-107308914D01*
X153034286Y-107308914D02*
X153034286Y-107261295D01*
X153034286Y-107261295D02*
X153081905Y-107166057D01*
X153081905Y-107166057D02*
X153129524Y-107118438D01*
X153129524Y-107118438D02*
X153224762Y-107070819D01*
X153224762Y-107070819D02*
X153415238Y-107070819D01*
X153415238Y-107070819D02*
X153510476Y-107118438D01*
X153510476Y-107118438D02*
X153558095Y-107166057D01*
X153558095Y-107166057D02*
X153605714Y-107261295D01*
X153605714Y-107261295D02*
X153605714Y-107308914D01*
X153605714Y-107308914D02*
X153558095Y-107404152D01*
X153558095Y-107404152D02*
X153510476Y-107451771D01*
X153510476Y-107451771D02*
X153415238Y-107499390D01*
X153415238Y-107499390D02*
X153224762Y-107499390D01*
X153224762Y-107499390D02*
X153129524Y-107547009D01*
X153129524Y-107547009D02*
X153081905Y-107594628D01*
X153081905Y-107594628D02*
X153034286Y-107689866D01*
X153034286Y-107689866D02*
X153034286Y-107880342D01*
X153034286Y-107880342D02*
X153081905Y-107975580D01*
X153081905Y-107975580D02*
X153129524Y-108023200D01*
X153129524Y-108023200D02*
X153224762Y-108070819D01*
X153224762Y-108070819D02*
X153415238Y-108070819D01*
X153415238Y-108070819D02*
X153510476Y-108023200D01*
X153510476Y-108023200D02*
X153558095Y-107975580D01*
X153558095Y-107975580D02*
X153605714Y-107880342D01*
X153605714Y-107880342D02*
X153605714Y-107689866D01*
X153605714Y-107689866D02*
X153558095Y-107594628D01*
X153558095Y-107594628D02*
X153510476Y-107547009D01*
X153510476Y-107547009D02*
X153415238Y-107499390D01*
X119721333Y-122628819D02*
X119388000Y-122152628D01*
X119149905Y-122628819D02*
X119149905Y-121628819D01*
X119149905Y-121628819D02*
X119530857Y-121628819D01*
X119530857Y-121628819D02*
X119626095Y-121676438D01*
X119626095Y-121676438D02*
X119673714Y-121724057D01*
X119673714Y-121724057D02*
X119721333Y-121819295D01*
X119721333Y-121819295D02*
X119721333Y-121962152D01*
X119721333Y-121962152D02*
X119673714Y-122057390D01*
X119673714Y-122057390D02*
X119626095Y-122105009D01*
X119626095Y-122105009D02*
X119530857Y-122152628D01*
X119530857Y-122152628D02*
X119149905Y-122152628D01*
X120578476Y-121962152D02*
X120578476Y-122628819D01*
X120340381Y-121581200D02*
X120102286Y-122295485D01*
X120102286Y-122295485D02*
X120721333Y-122295485D01*
X134524761Y-140906057D02*
X134429523Y-140858438D01*
X134429523Y-140858438D02*
X134334285Y-140763200D01*
X134334285Y-140763200D02*
X134191428Y-140620342D01*
X134191428Y-140620342D02*
X134096190Y-140572723D01*
X134096190Y-140572723D02*
X134000952Y-140572723D01*
X134048571Y-140810819D02*
X133953333Y-140763200D01*
X133953333Y-140763200D02*
X133858095Y-140667961D01*
X133858095Y-140667961D02*
X133810476Y-140477485D01*
X133810476Y-140477485D02*
X133810476Y-140144152D01*
X133810476Y-140144152D02*
X133858095Y-139953676D01*
X133858095Y-139953676D02*
X133953333Y-139858438D01*
X133953333Y-139858438D02*
X134048571Y-139810819D01*
X134048571Y-139810819D02*
X134239047Y-139810819D01*
X134239047Y-139810819D02*
X134334285Y-139858438D01*
X134334285Y-139858438D02*
X134429523Y-139953676D01*
X134429523Y-139953676D02*
X134477142Y-140144152D01*
X134477142Y-140144152D02*
X134477142Y-140477485D01*
X134477142Y-140477485D02*
X134429523Y-140667961D01*
X134429523Y-140667961D02*
X134334285Y-140763200D01*
X134334285Y-140763200D02*
X134239047Y-140810819D01*
X134239047Y-140810819D02*
X134048571Y-140810819D01*
X134858095Y-139906057D02*
X134905714Y-139858438D01*
X134905714Y-139858438D02*
X135000952Y-139810819D01*
X135000952Y-139810819D02*
X135239047Y-139810819D01*
X135239047Y-139810819D02*
X135334285Y-139858438D01*
X135334285Y-139858438D02*
X135381904Y-139906057D01*
X135381904Y-139906057D02*
X135429523Y-140001295D01*
X135429523Y-140001295D02*
X135429523Y-140096533D01*
X135429523Y-140096533D02*
X135381904Y-140239390D01*
X135381904Y-140239390D02*
X134810476Y-140810819D01*
X134810476Y-140810819D02*
X135429523Y-140810819D01*
X152741333Y-129867580D02*
X152693714Y-129915200D01*
X152693714Y-129915200D02*
X152550857Y-129962819D01*
X152550857Y-129962819D02*
X152455619Y-129962819D01*
X152455619Y-129962819D02*
X152312762Y-129915200D01*
X152312762Y-129915200D02*
X152217524Y-129819961D01*
X152217524Y-129819961D02*
X152169905Y-129724723D01*
X152169905Y-129724723D02*
X152122286Y-129534247D01*
X152122286Y-129534247D02*
X152122286Y-129391390D01*
X152122286Y-129391390D02*
X152169905Y-129200914D01*
X152169905Y-129200914D02*
X152217524Y-129105676D01*
X152217524Y-129105676D02*
X152312762Y-129010438D01*
X152312762Y-129010438D02*
X152455619Y-128962819D01*
X152455619Y-128962819D02*
X152550857Y-128962819D01*
X152550857Y-128962819D02*
X152693714Y-129010438D01*
X152693714Y-129010438D02*
X152741333Y-129058057D01*
X153122286Y-129058057D02*
X153169905Y-129010438D01*
X153169905Y-129010438D02*
X153265143Y-128962819D01*
X153265143Y-128962819D02*
X153503238Y-128962819D01*
X153503238Y-128962819D02*
X153598476Y-129010438D01*
X153598476Y-129010438D02*
X153646095Y-129058057D01*
X153646095Y-129058057D02*
X153693714Y-129153295D01*
X153693714Y-129153295D02*
X153693714Y-129248533D01*
X153693714Y-129248533D02*
X153646095Y-129391390D01*
X153646095Y-129391390D02*
X153074667Y-129962819D01*
X153074667Y-129962819D02*
X153693714Y-129962819D01*
X109895333Y-89589580D02*
X109847714Y-89637200D01*
X109847714Y-89637200D02*
X109704857Y-89684819D01*
X109704857Y-89684819D02*
X109609619Y-89684819D01*
X109609619Y-89684819D02*
X109466762Y-89637200D01*
X109466762Y-89637200D02*
X109371524Y-89541961D01*
X109371524Y-89541961D02*
X109323905Y-89446723D01*
X109323905Y-89446723D02*
X109276286Y-89256247D01*
X109276286Y-89256247D02*
X109276286Y-89113390D01*
X109276286Y-89113390D02*
X109323905Y-88922914D01*
X109323905Y-88922914D02*
X109371524Y-88827676D01*
X109371524Y-88827676D02*
X109466762Y-88732438D01*
X109466762Y-88732438D02*
X109609619Y-88684819D01*
X109609619Y-88684819D02*
X109704857Y-88684819D01*
X109704857Y-88684819D02*
X109847714Y-88732438D01*
X109847714Y-88732438D02*
X109895333Y-88780057D01*
X110752476Y-89018152D02*
X110752476Y-89684819D01*
X110514381Y-88637200D02*
X110276286Y-89351485D01*
X110276286Y-89351485D02*
X110895333Y-89351485D01*
X145121333Y-122628819D02*
X144788000Y-122152628D01*
X144549905Y-122628819D02*
X144549905Y-121628819D01*
X144549905Y-121628819D02*
X144930857Y-121628819D01*
X144930857Y-121628819D02*
X145026095Y-121676438D01*
X145026095Y-121676438D02*
X145073714Y-121724057D01*
X145073714Y-121724057D02*
X145121333Y-121819295D01*
X145121333Y-121819295D02*
X145121333Y-121962152D01*
X145121333Y-121962152D02*
X145073714Y-122057390D01*
X145073714Y-122057390D02*
X145026095Y-122105009D01*
X145026095Y-122105009D02*
X144930857Y-122152628D01*
X144930857Y-122152628D02*
X144549905Y-122152628D01*
X146073714Y-122628819D02*
X145502286Y-122628819D01*
X145788000Y-122628819D02*
X145788000Y-121628819D01*
X145788000Y-121628819D02*
X145692762Y-121771676D01*
X145692762Y-121771676D02*
X145597524Y-121866914D01*
X145597524Y-121866914D02*
X145502286Y-121914533D01*
X66635333Y-132693580D02*
X66587714Y-132741200D01*
X66587714Y-132741200D02*
X66444857Y-132788819D01*
X66444857Y-132788819D02*
X66349619Y-132788819D01*
X66349619Y-132788819D02*
X66206762Y-132741200D01*
X66206762Y-132741200D02*
X66111524Y-132645961D01*
X66111524Y-132645961D02*
X66063905Y-132550723D01*
X66063905Y-132550723D02*
X66016286Y-132360247D01*
X66016286Y-132360247D02*
X66016286Y-132217390D01*
X66016286Y-132217390D02*
X66063905Y-132026914D01*
X66063905Y-132026914D02*
X66111524Y-131931676D01*
X66111524Y-131931676D02*
X66206762Y-131836438D01*
X66206762Y-131836438D02*
X66349619Y-131788819D01*
X66349619Y-131788819D02*
X66444857Y-131788819D01*
X66444857Y-131788819D02*
X66587714Y-131836438D01*
X66587714Y-131836438D02*
X66635333Y-131884057D01*
X67111524Y-132788819D02*
X67302000Y-132788819D01*
X67302000Y-132788819D02*
X67397238Y-132741200D01*
X67397238Y-132741200D02*
X67444857Y-132693580D01*
X67444857Y-132693580D02*
X67540095Y-132550723D01*
X67540095Y-132550723D02*
X67587714Y-132360247D01*
X67587714Y-132360247D02*
X67587714Y-131979295D01*
X67587714Y-131979295D02*
X67540095Y-131884057D01*
X67540095Y-131884057D02*
X67492476Y-131836438D01*
X67492476Y-131836438D02*
X67397238Y-131788819D01*
X67397238Y-131788819D02*
X67206762Y-131788819D01*
X67206762Y-131788819D02*
X67111524Y-131836438D01*
X67111524Y-131836438D02*
X67063905Y-131884057D01*
X67063905Y-131884057D02*
X67016286Y-131979295D01*
X67016286Y-131979295D02*
X67016286Y-132217390D01*
X67016286Y-132217390D02*
X67063905Y-132312628D01*
X67063905Y-132312628D02*
X67111524Y-132360247D01*
X67111524Y-132360247D02*
X67206762Y-132407866D01*
X67206762Y-132407866D02*
X67397238Y-132407866D01*
X67397238Y-132407866D02*
X67492476Y-132360247D01*
X67492476Y-132360247D02*
X67540095Y-132312628D01*
X67540095Y-132312628D02*
X67587714Y-132217390D01*
X134961333Y-122628819D02*
X134628000Y-122152628D01*
X134389905Y-122628819D02*
X134389905Y-121628819D01*
X134389905Y-121628819D02*
X134770857Y-121628819D01*
X134770857Y-121628819D02*
X134866095Y-121676438D01*
X134866095Y-121676438D02*
X134913714Y-121724057D01*
X134913714Y-121724057D02*
X134961333Y-121819295D01*
X134961333Y-121819295D02*
X134961333Y-121962152D01*
X134961333Y-121962152D02*
X134913714Y-122057390D01*
X134913714Y-122057390D02*
X134866095Y-122105009D01*
X134866095Y-122105009D02*
X134770857Y-122152628D01*
X134770857Y-122152628D02*
X134389905Y-122152628D01*
X135342286Y-121724057D02*
X135389905Y-121676438D01*
X135389905Y-121676438D02*
X135485143Y-121628819D01*
X135485143Y-121628819D02*
X135723238Y-121628819D01*
X135723238Y-121628819D02*
X135818476Y-121676438D01*
X135818476Y-121676438D02*
X135866095Y-121724057D01*
X135866095Y-121724057D02*
X135913714Y-121819295D01*
X135913714Y-121819295D02*
X135913714Y-121914533D01*
X135913714Y-121914533D02*
X135866095Y-122057390D01*
X135866095Y-122057390D02*
X135294667Y-122628819D01*
X135294667Y-122628819D02*
X135913714Y-122628819D01*
X104044761Y-140906057D02*
X103949523Y-140858438D01*
X103949523Y-140858438D02*
X103854285Y-140763200D01*
X103854285Y-140763200D02*
X103711428Y-140620342D01*
X103711428Y-140620342D02*
X103616190Y-140572723D01*
X103616190Y-140572723D02*
X103520952Y-140572723D01*
X103568571Y-140810819D02*
X103473333Y-140763200D01*
X103473333Y-140763200D02*
X103378095Y-140667961D01*
X103378095Y-140667961D02*
X103330476Y-140477485D01*
X103330476Y-140477485D02*
X103330476Y-140144152D01*
X103330476Y-140144152D02*
X103378095Y-139953676D01*
X103378095Y-139953676D02*
X103473333Y-139858438D01*
X103473333Y-139858438D02*
X103568571Y-139810819D01*
X103568571Y-139810819D02*
X103759047Y-139810819D01*
X103759047Y-139810819D02*
X103854285Y-139858438D01*
X103854285Y-139858438D02*
X103949523Y-139953676D01*
X103949523Y-139953676D02*
X103997142Y-140144152D01*
X103997142Y-140144152D02*
X103997142Y-140477485D01*
X103997142Y-140477485D02*
X103949523Y-140667961D01*
X103949523Y-140667961D02*
X103854285Y-140763200D01*
X103854285Y-140763200D02*
X103759047Y-140810819D01*
X103759047Y-140810819D02*
X103568571Y-140810819D01*
X104854285Y-139810819D02*
X104663809Y-139810819D01*
X104663809Y-139810819D02*
X104568571Y-139858438D01*
X104568571Y-139858438D02*
X104520952Y-139906057D01*
X104520952Y-139906057D02*
X104425714Y-140048914D01*
X104425714Y-140048914D02*
X104378095Y-140239390D01*
X104378095Y-140239390D02*
X104378095Y-140620342D01*
X104378095Y-140620342D02*
X104425714Y-140715580D01*
X104425714Y-140715580D02*
X104473333Y-140763200D01*
X104473333Y-140763200D02*
X104568571Y-140810819D01*
X104568571Y-140810819D02*
X104759047Y-140810819D01*
X104759047Y-140810819D02*
X104854285Y-140763200D01*
X104854285Y-140763200D02*
X104901904Y-140715580D01*
X104901904Y-140715580D02*
X104949523Y-140620342D01*
X104949523Y-140620342D02*
X104949523Y-140382247D01*
X104949523Y-140382247D02*
X104901904Y-140287009D01*
X104901904Y-140287009D02*
X104854285Y-140239390D01*
X104854285Y-140239390D02*
X104759047Y-140191771D01*
X104759047Y-140191771D02*
X104568571Y-140191771D01*
X104568571Y-140191771D02*
X104473333Y-140239390D01*
X104473333Y-140239390D02*
X104425714Y-140287009D01*
X104425714Y-140287009D02*
X104378095Y-140382247D01*
D12*
X132842095Y-93651419D02*
X132842095Y-94460942D01*
X132842095Y-94460942D02*
X132889714Y-94556180D01*
X132889714Y-94556180D02*
X132937333Y-94603800D01*
X132937333Y-94603800D02*
X133032571Y-94651419D01*
X133032571Y-94651419D02*
X133223047Y-94651419D01*
X133223047Y-94651419D02*
X133318285Y-94603800D01*
X133318285Y-94603800D02*
X133365904Y-94556180D01*
X133365904Y-94556180D02*
X133413523Y-94460942D01*
X133413523Y-94460942D02*
X133413523Y-93651419D01*
X134318285Y-93984752D02*
X134318285Y-94651419D01*
X134080190Y-93603800D02*
X133842095Y-94318085D01*
X133842095Y-94318085D02*
X134461142Y-94318085D01*
X158416666Y-64481419D02*
X158416666Y-65195704D01*
X158416666Y-65195704D02*
X158369047Y-65338561D01*
X158369047Y-65338561D02*
X158273809Y-65433800D01*
X158273809Y-65433800D02*
X158130952Y-65481419D01*
X158130952Y-65481419D02*
X158035714Y-65481419D01*
X159416666Y-65481419D02*
X158845238Y-65481419D01*
X159130952Y-65481419D02*
X159130952Y-64481419D01*
X159130952Y-64481419D02*
X159035714Y-64624276D01*
X159035714Y-64624276D02*
X158940476Y-64719514D01*
X158940476Y-64719514D02*
X158845238Y-64767133D01*
D11*
X126904761Y-140906057D02*
X126809523Y-140858438D01*
X126809523Y-140858438D02*
X126714285Y-140763200D01*
X126714285Y-140763200D02*
X126571428Y-140620342D01*
X126571428Y-140620342D02*
X126476190Y-140572723D01*
X126476190Y-140572723D02*
X126380952Y-140572723D01*
X126428571Y-140810819D02*
X126333333Y-140763200D01*
X126333333Y-140763200D02*
X126238095Y-140667961D01*
X126238095Y-140667961D02*
X126190476Y-140477485D01*
X126190476Y-140477485D02*
X126190476Y-140144152D01*
X126190476Y-140144152D02*
X126238095Y-139953676D01*
X126238095Y-139953676D02*
X126333333Y-139858438D01*
X126333333Y-139858438D02*
X126428571Y-139810819D01*
X126428571Y-139810819D02*
X126619047Y-139810819D01*
X126619047Y-139810819D02*
X126714285Y-139858438D01*
X126714285Y-139858438D02*
X126809523Y-139953676D01*
X126809523Y-139953676D02*
X126857142Y-140144152D01*
X126857142Y-140144152D02*
X126857142Y-140477485D01*
X126857142Y-140477485D02*
X126809523Y-140667961D01*
X126809523Y-140667961D02*
X126714285Y-140763200D01*
X126714285Y-140763200D02*
X126619047Y-140810819D01*
X126619047Y-140810819D02*
X126428571Y-140810819D01*
X127190476Y-139810819D02*
X127809523Y-139810819D01*
X127809523Y-139810819D02*
X127476190Y-140191771D01*
X127476190Y-140191771D02*
X127619047Y-140191771D01*
X127619047Y-140191771D02*
X127714285Y-140239390D01*
X127714285Y-140239390D02*
X127761904Y-140287009D01*
X127761904Y-140287009D02*
X127809523Y-140382247D01*
X127809523Y-140382247D02*
X127809523Y-140620342D01*
X127809523Y-140620342D02*
X127761904Y-140715580D01*
X127761904Y-140715580D02*
X127714285Y-140763200D01*
X127714285Y-140763200D02*
X127619047Y-140810819D01*
X127619047Y-140810819D02*
X127333333Y-140810819D01*
X127333333Y-140810819D02*
X127238095Y-140763200D01*
X127238095Y-140763200D02*
X127190476Y-140715580D01*
X127087333Y-122628819D02*
X126754000Y-122152628D01*
X126515905Y-122628819D02*
X126515905Y-121628819D01*
X126515905Y-121628819D02*
X126896857Y-121628819D01*
X126896857Y-121628819D02*
X126992095Y-121676438D01*
X126992095Y-121676438D02*
X127039714Y-121724057D01*
X127039714Y-121724057D02*
X127087333Y-121819295D01*
X127087333Y-121819295D02*
X127087333Y-121962152D01*
X127087333Y-121962152D02*
X127039714Y-122057390D01*
X127039714Y-122057390D02*
X126992095Y-122105009D01*
X126992095Y-122105009D02*
X126896857Y-122152628D01*
X126896857Y-122152628D02*
X126515905Y-122152628D01*
X127420667Y-121628819D02*
X128039714Y-121628819D01*
X128039714Y-121628819D02*
X127706381Y-122009771D01*
X127706381Y-122009771D02*
X127849238Y-122009771D01*
X127849238Y-122009771D02*
X127944476Y-122057390D01*
X127944476Y-122057390D02*
X127992095Y-122105009D01*
X127992095Y-122105009D02*
X128039714Y-122200247D01*
X128039714Y-122200247D02*
X128039714Y-122438342D01*
X128039714Y-122438342D02*
X127992095Y-122533580D01*
X127992095Y-122533580D02*
X127944476Y-122581200D01*
X127944476Y-122581200D02*
X127849238Y-122628819D01*
X127849238Y-122628819D02*
X127563524Y-122628819D01*
X127563524Y-122628819D02*
X127468286Y-122581200D01*
X127468286Y-122581200D02*
X127420667Y-122533580D01*
X165695333Y-127613580D02*
X165647714Y-127661200D01*
X165647714Y-127661200D02*
X165504857Y-127708819D01*
X165504857Y-127708819D02*
X165409619Y-127708819D01*
X165409619Y-127708819D02*
X165266762Y-127661200D01*
X165266762Y-127661200D02*
X165171524Y-127565961D01*
X165171524Y-127565961D02*
X165123905Y-127470723D01*
X165123905Y-127470723D02*
X165076286Y-127280247D01*
X165076286Y-127280247D02*
X165076286Y-127137390D01*
X165076286Y-127137390D02*
X165123905Y-126946914D01*
X165123905Y-126946914D02*
X165171524Y-126851676D01*
X165171524Y-126851676D02*
X165266762Y-126756438D01*
X165266762Y-126756438D02*
X165409619Y-126708819D01*
X165409619Y-126708819D02*
X165504857Y-126708819D01*
X165504857Y-126708819D02*
X165647714Y-126756438D01*
X165647714Y-126756438D02*
X165695333Y-126804057D01*
X166647714Y-127708819D02*
X166076286Y-127708819D01*
X166362000Y-127708819D02*
X166362000Y-126708819D01*
X166362000Y-126708819D02*
X166266762Y-126851676D01*
X166266762Y-126851676D02*
X166171524Y-126946914D01*
X166171524Y-126946914D02*
X166076286Y-126994533D01*
X109721333Y-53953580D02*
X109673714Y-54001200D01*
X109673714Y-54001200D02*
X109530857Y-54048819D01*
X109530857Y-54048819D02*
X109435619Y-54048819D01*
X109435619Y-54048819D02*
X109292762Y-54001200D01*
X109292762Y-54001200D02*
X109197524Y-53905961D01*
X109197524Y-53905961D02*
X109149905Y-53810723D01*
X109149905Y-53810723D02*
X109102286Y-53620247D01*
X109102286Y-53620247D02*
X109102286Y-53477390D01*
X109102286Y-53477390D02*
X109149905Y-53286914D01*
X109149905Y-53286914D02*
X109197524Y-53191676D01*
X109197524Y-53191676D02*
X109292762Y-53096438D01*
X109292762Y-53096438D02*
X109435619Y-53048819D01*
X109435619Y-53048819D02*
X109530857Y-53048819D01*
X109530857Y-53048819D02*
X109673714Y-53096438D01*
X109673714Y-53096438D02*
X109721333Y-53144057D01*
X110054667Y-53048819D02*
X110721333Y-53048819D01*
X110721333Y-53048819D02*
X110292762Y-54048819D01*
D12*
X62404666Y-70069419D02*
X62404666Y-70783704D01*
X62404666Y-70783704D02*
X62357047Y-70926561D01*
X62357047Y-70926561D02*
X62261809Y-71021800D01*
X62261809Y-71021800D02*
X62118952Y-71069419D01*
X62118952Y-71069419D02*
X62023714Y-71069419D01*
X62833238Y-70164657D02*
X62880857Y-70117038D01*
X62880857Y-70117038D02*
X62976095Y-70069419D01*
X62976095Y-70069419D02*
X63214190Y-70069419D01*
X63214190Y-70069419D02*
X63309428Y-70117038D01*
X63309428Y-70117038D02*
X63357047Y-70164657D01*
X63357047Y-70164657D02*
X63404666Y-70259895D01*
X63404666Y-70259895D02*
X63404666Y-70355133D01*
X63404666Y-70355133D02*
X63357047Y-70497990D01*
X63357047Y-70497990D02*
X62785619Y-71069419D01*
X62785619Y-71069419D02*
X63404666Y-71069419D01*
D13*
%TO.C,C3*%
X98528000Y-71374000D02*
X96588000Y-71374000D01*
X96588000Y-72794000D02*
X96588000Y-69954000D01*
X96588000Y-69954000D02*
X92548000Y-69954000D01*
X92548000Y-72794000D02*
X96588000Y-72794000D01*
X92548000Y-69954000D02*
X92548000Y-72794000D01*
X90608000Y-71374000D02*
X92548000Y-71374000D01*
%TO.C,Q9*%
X88878000Y-108784000D02*
X92478000Y-108784000D01*
X90678000Y-104334000D02*
G75*
G03*
X88839522Y-108772478I0J-2600000D01*
G01*
X92516478Y-108772478D02*
G75*
G03*
X90678000Y-104334000I-1838478J1838478D01*
G01*
%TO.C,C5*%
X144248000Y-89154000D02*
X142308000Y-89154000D01*
X142308000Y-90574000D02*
X142308000Y-87734000D01*
X142308000Y-87734000D02*
X138268000Y-87734000D01*
X138268000Y-90574000D02*
X142308000Y-90574000D01*
X138268000Y-87734000D02*
X138268000Y-90574000D01*
X136328000Y-89154000D02*
X138268000Y-89154000D01*
%TO.C,Q8*%
X88878000Y-116404000D02*
X92478000Y-116404000D01*
X90678000Y-111954000D02*
G75*
G03*
X88839522Y-116392478I0J-2600000D01*
G01*
X92516478Y-116392478D02*
G75*
G03*
X90678000Y-111954000I-1838478J1838478D01*
G01*
D10*
%TO.C,U5*%
X112268000Y-56134000D02*
X112268000Y-84074000D01*
X112268000Y-56134000D02*
X117348000Y-56134000D01*
X112268000Y-84074000D02*
X124968000Y-84074000D01*
X124968000Y-56134000D02*
X119888000Y-56134000D01*
X124968000Y-84074000D02*
X124968000Y-56134000D01*
X117348000Y-56134000D02*
G75*
G03*
X119888000Y-56134000I1270000J0D01*
G01*
D13*
%TO.C,Q7*%
X96498000Y-108784000D02*
X100098000Y-108784000D01*
X98298000Y-104334000D02*
G75*
G03*
X96459522Y-108772478I0J-2600000D01*
G01*
X100136478Y-108772478D02*
G75*
G03*
X98298000Y-104334000I-1838478J1838478D01*
G01*
D10*
%TO.C,U3*%
X89408000Y-73874000D02*
X89408000Y-101814000D01*
X89408000Y-73874000D02*
X94488000Y-73874000D01*
X89408000Y-101814000D02*
X102108000Y-101814000D01*
X102108000Y-73874000D02*
X97028000Y-73874000D01*
X102108000Y-101814000D02*
X102108000Y-73874000D01*
X94488000Y-73874000D02*
G75*
G03*
X97028000Y-73874000I1270000J0D01*
G01*
D13*
%TO.C,R5*%
X114808000Y-123214000D02*
X114808000Y-123984000D01*
X116178000Y-123984000D02*
X113438000Y-123984000D01*
X113438000Y-123984000D02*
X113438000Y-130524000D01*
X116178000Y-130524000D02*
X116178000Y-123984000D01*
X113438000Y-130524000D02*
X116178000Y-130524000D01*
X114808000Y-131294000D02*
X114808000Y-130524000D01*
%TO.C,U1*%
X158728000Y-126564000D02*
X162328000Y-126564000D01*
X160528000Y-122114000D02*
G75*
G03*
X158689522Y-126552478I0J-2600000D01*
G01*
X162366478Y-126552478D02*
G75*
G03*
X160528000Y-122114000I-1838478J1838478D01*
G01*
%TO.C,Q10*%
X96498000Y-116404000D02*
X100098000Y-116404000D01*
X98298000Y-111954000D02*
G75*
G03*
X96459522Y-116392478I0J-2600000D01*
G01*
X100136478Y-116392478D02*
G75*
G03*
X98298000Y-111954000I-1838478J1838478D01*
G01*
%TO.C,Q4*%
X119358000Y-139264000D02*
X122958000Y-139264000D01*
X121158000Y-134814000D02*
G75*
G03*
X119319522Y-139252478I0J-2600000D01*
G01*
X122996478Y-139252478D02*
G75*
G03*
X121158000Y-134814000I-1838478J1838478D01*
G01*
%TO.C,Q5*%
X111738000Y-139264000D02*
X115338000Y-139264000D01*
X113538000Y-134814000D02*
G75*
G03*
X111699522Y-139252478I0J-2600000D01*
G01*
X115376478Y-139252478D02*
G75*
G03*
X113538000Y-134814000I-1838478J1838478D01*
G01*
D10*
%TO.C,U6*%
X112268000Y-91654000D02*
X112268000Y-119594000D01*
X112268000Y-91654000D02*
X117348000Y-91654000D01*
X112268000Y-119594000D02*
X124968000Y-119594000D01*
X124968000Y-91654000D02*
X119888000Y-91654000D01*
X124968000Y-119594000D02*
X124968000Y-91654000D01*
X117348000Y-91654000D02*
G75*
G03*
X119888000Y-91654000I1270000J0D01*
G01*
%TO.C,U2*%
X135128000Y-56134000D02*
X135128000Y-84074000D01*
X135128000Y-56134000D02*
X140208000Y-56134000D01*
X135128000Y-84074000D02*
X147828000Y-84074000D01*
X147828000Y-56134000D02*
X142748000Y-56134000D01*
X147828000Y-84074000D02*
X147828000Y-56134000D01*
X140208000Y-56134000D02*
G75*
G03*
X142748000Y-56134000I1270000J0D01*
G01*
D13*
%TO.C,C6*%
X144248000Y-53594000D02*
X142308000Y-53594000D01*
X142308000Y-55014000D02*
X142308000Y-52174000D01*
X142308000Y-52174000D02*
X138268000Y-52174000D01*
X138268000Y-55014000D02*
X142308000Y-55014000D01*
X138268000Y-52174000D02*
X138268000Y-55014000D01*
X136328000Y-53594000D02*
X138268000Y-53594000D01*
%TO.C,Q1*%
X142218000Y-139264000D02*
X145818000Y-139264000D01*
X144018000Y-134814000D02*
G75*
G03*
X142179522Y-139252478I0J-2600000D01*
G01*
X145856478Y-139252478D02*
G75*
G03*
X144018000Y-134814000I-1838478J1838478D01*
G01*
%TO.C,R6*%
X107188000Y-123214000D02*
X107188000Y-123984000D01*
X108558000Y-123984000D02*
X105818000Y-123984000D01*
X105818000Y-123984000D02*
X105818000Y-130524000D01*
X108558000Y-130524000D02*
X108558000Y-123984000D01*
X105818000Y-130524000D02*
X108558000Y-130524000D01*
X107188000Y-131294000D02*
X107188000Y-130524000D01*
%TO.C,C8*%
X152908000Y-110514000D02*
X152908000Y-112454000D01*
X154328000Y-112454000D02*
X151488000Y-112454000D01*
X151488000Y-112454000D02*
X151488000Y-116494000D01*
X154328000Y-116494000D02*
X154328000Y-112454000D01*
X151488000Y-116494000D02*
X154328000Y-116494000D01*
X152908000Y-118434000D02*
X152908000Y-116494000D01*
%TO.C,R4*%
X122428000Y-123214000D02*
X122428000Y-123984000D01*
X123798000Y-123984000D02*
X121058000Y-123984000D01*
X121058000Y-123984000D02*
X121058000Y-130524000D01*
X123798000Y-130524000D02*
X123798000Y-123984000D01*
X121058000Y-130524000D02*
X123798000Y-130524000D01*
X122428000Y-131294000D02*
X122428000Y-130524000D01*
%TO.C,Q2*%
X134598000Y-139264000D02*
X138198000Y-139264000D01*
X136398000Y-134814000D02*
G75*
G03*
X134559522Y-139252478I0J-2600000D01*
G01*
X138236478Y-139252478D02*
G75*
G03*
X136398000Y-134814000I-1838478J1838478D01*
G01*
%TO.C,C2*%
X154383000Y-122909225D02*
X154383000Y-123409225D01*
X154633000Y-123159225D02*
X154133000Y-123159225D01*
X155488000Y-125714000D02*
X153948000Y-125714000D01*
X151868000Y-125714000D02*
X150328000Y-125714000D01*
X155488000Y-125754000D02*
X153948000Y-125754000D01*
X151868000Y-125754000D02*
X150328000Y-125754000D01*
X155487000Y-125794000D02*
X153948000Y-125794000D01*
X151868000Y-125794000D02*
X150329000Y-125794000D01*
X155486000Y-125834000D02*
X153948000Y-125834000D01*
X151868000Y-125834000D02*
X150330000Y-125834000D01*
X155484000Y-125874000D02*
X153948000Y-125874000D01*
X151868000Y-125874000D02*
X150332000Y-125874000D01*
X155481000Y-125914000D02*
X153948000Y-125914000D01*
X151868000Y-125914000D02*
X150335000Y-125914000D01*
X155477000Y-125954000D02*
X153948000Y-125954000D01*
X151868000Y-125954000D02*
X150339000Y-125954000D01*
X155473000Y-125994000D02*
X153948000Y-125994000D01*
X151868000Y-125994000D02*
X150343000Y-125994000D01*
X155469000Y-126034000D02*
X153948000Y-126034000D01*
X151868000Y-126034000D02*
X150347000Y-126034000D01*
X155464000Y-126074000D02*
X153948000Y-126074000D01*
X151868000Y-126074000D02*
X150352000Y-126074000D01*
X155458000Y-126114000D02*
X153948000Y-126114000D01*
X151868000Y-126114000D02*
X150358000Y-126114000D01*
X155451000Y-126154000D02*
X153948000Y-126154000D01*
X151868000Y-126154000D02*
X150365000Y-126154000D01*
X155444000Y-126194000D02*
X153948000Y-126194000D01*
X151868000Y-126194000D02*
X150372000Y-126194000D01*
X155436000Y-126234000D02*
X153948000Y-126234000D01*
X151868000Y-126234000D02*
X150380000Y-126234000D01*
X155428000Y-126274000D02*
X153948000Y-126274000D01*
X151868000Y-126274000D02*
X150388000Y-126274000D01*
X155419000Y-126314000D02*
X153948000Y-126314000D01*
X151868000Y-126314000D02*
X150397000Y-126314000D01*
X155409000Y-126354000D02*
X153948000Y-126354000D01*
X151868000Y-126354000D02*
X150407000Y-126354000D01*
X155399000Y-126394000D02*
X153948000Y-126394000D01*
X151868000Y-126394000D02*
X150417000Y-126394000D01*
X155388000Y-126435000D02*
X153948000Y-126435000D01*
X151868000Y-126435000D02*
X150428000Y-126435000D01*
X155376000Y-126475000D02*
X153948000Y-126475000D01*
X151868000Y-126475000D02*
X150440000Y-126475000D01*
X155363000Y-126515000D02*
X153948000Y-126515000D01*
X151868000Y-126515000D02*
X150453000Y-126515000D01*
X155350000Y-126555000D02*
X153948000Y-126555000D01*
X151868000Y-126555000D02*
X150466000Y-126555000D01*
X155336000Y-126595000D02*
X153948000Y-126595000D01*
X151868000Y-126595000D02*
X150480000Y-126595000D01*
X155322000Y-126635000D02*
X153948000Y-126635000D01*
X151868000Y-126635000D02*
X150494000Y-126635000D01*
X155306000Y-126675000D02*
X153948000Y-126675000D01*
X151868000Y-126675000D02*
X150510000Y-126675000D01*
X155290000Y-126715000D02*
X153948000Y-126715000D01*
X151868000Y-126715000D02*
X150526000Y-126715000D01*
X155273000Y-126755000D02*
X153948000Y-126755000D01*
X151868000Y-126755000D02*
X150543000Y-126755000D01*
X155256000Y-126795000D02*
X153948000Y-126795000D01*
X151868000Y-126795000D02*
X150560000Y-126795000D01*
X155237000Y-126835000D02*
X153948000Y-126835000D01*
X151868000Y-126835000D02*
X150579000Y-126835000D01*
X155218000Y-126875000D02*
X153948000Y-126875000D01*
X151868000Y-126875000D02*
X150598000Y-126875000D01*
X155198000Y-126915000D02*
X153948000Y-126915000D01*
X151868000Y-126915000D02*
X150618000Y-126915000D01*
X155176000Y-126955000D02*
X153948000Y-126955000D01*
X151868000Y-126955000D02*
X150640000Y-126955000D01*
X155155000Y-126995000D02*
X153948000Y-126995000D01*
X151868000Y-126995000D02*
X150661000Y-126995000D01*
X155132000Y-127035000D02*
X153948000Y-127035000D01*
X151868000Y-127035000D02*
X150684000Y-127035000D01*
X155108000Y-127075000D02*
X153948000Y-127075000D01*
X151868000Y-127075000D02*
X150708000Y-127075000D01*
X155083000Y-127115000D02*
X153948000Y-127115000D01*
X151868000Y-127115000D02*
X150733000Y-127115000D01*
X155057000Y-127155000D02*
X153948000Y-127155000D01*
X151868000Y-127155000D02*
X150759000Y-127155000D01*
X155030000Y-127195000D02*
X153948000Y-127195000D01*
X151868000Y-127195000D02*
X150786000Y-127195000D01*
X155003000Y-127235000D02*
X153948000Y-127235000D01*
X151868000Y-127235000D02*
X150813000Y-127235000D01*
X154973000Y-127275000D02*
X153948000Y-127275000D01*
X151868000Y-127275000D02*
X150843000Y-127275000D01*
X154943000Y-127315000D02*
X153948000Y-127315000D01*
X151868000Y-127315000D02*
X150873000Y-127315000D01*
X154912000Y-127355000D02*
X153948000Y-127355000D01*
X151868000Y-127355000D02*
X150904000Y-127355000D01*
X154879000Y-127395000D02*
X153948000Y-127395000D01*
X151868000Y-127395000D02*
X150937000Y-127395000D01*
X154845000Y-127435000D02*
X153948000Y-127435000D01*
X151868000Y-127435000D02*
X150971000Y-127435000D01*
X154809000Y-127475000D02*
X153948000Y-127475000D01*
X151868000Y-127475000D02*
X151007000Y-127475000D01*
X154772000Y-127515000D02*
X153948000Y-127515000D01*
X151868000Y-127515000D02*
X151044000Y-127515000D01*
X154734000Y-127555000D02*
X153948000Y-127555000D01*
X151868000Y-127555000D02*
X151082000Y-127555000D01*
X154693000Y-127595000D02*
X153948000Y-127595000D01*
X151868000Y-127595000D02*
X151123000Y-127595000D01*
X154651000Y-127635000D02*
X153948000Y-127635000D01*
X151868000Y-127635000D02*
X151165000Y-127635000D01*
X154607000Y-127675000D02*
X153948000Y-127675000D01*
X151868000Y-127675000D02*
X151209000Y-127675000D01*
X154561000Y-127715000D02*
X153948000Y-127715000D01*
X151868000Y-127715000D02*
X151255000Y-127715000D01*
X154513000Y-127755000D02*
X151303000Y-127755000D01*
X154462000Y-127795000D02*
X151354000Y-127795000D01*
X154408000Y-127835000D02*
X151408000Y-127835000D01*
X154351000Y-127875000D02*
X151465000Y-127875000D01*
X154291000Y-127915000D02*
X151525000Y-127915000D01*
X154227000Y-127955000D02*
X151589000Y-127955000D01*
X154159000Y-127995000D02*
X151657000Y-127995000D01*
X154086000Y-128035000D02*
X151730000Y-128035000D01*
X154006000Y-128075000D02*
X151810000Y-128075000D01*
X153919000Y-128115000D02*
X151897000Y-128115000D01*
X153823000Y-128155000D02*
X151993000Y-128155000D01*
X153713000Y-128195000D02*
X152103000Y-128195000D01*
X153585000Y-128235000D02*
X152231000Y-128235000D01*
X153426000Y-128275000D02*
X152390000Y-128275000D01*
X153192000Y-128315000D02*
X152624000Y-128315000D01*
X155528000Y-125714000D02*
G75*
G03*
X155528000Y-125714000I-2620000J0D01*
G01*
%TO.C,C4*%
X121388000Y-89154000D02*
X119448000Y-89154000D01*
X119448000Y-90574000D02*
X119448000Y-87734000D01*
X119448000Y-87734000D02*
X115408000Y-87734000D01*
X115408000Y-90574000D02*
X119448000Y-90574000D01*
X115408000Y-87734000D02*
X115408000Y-90574000D01*
X113468000Y-89154000D02*
X115408000Y-89154000D01*
%TO.C,R1*%
X142748000Y-123214000D02*
X142748000Y-123984000D01*
X144118000Y-123984000D02*
X141378000Y-123984000D01*
X141378000Y-123984000D02*
X141378000Y-130524000D01*
X144118000Y-130524000D02*
X144118000Y-123984000D01*
X141378000Y-130524000D02*
X144118000Y-130524000D01*
X142748000Y-131294000D02*
X142748000Y-130524000D01*
%TO.C,C9*%
X64008000Y-128200000D02*
X64008000Y-130140000D01*
X65428000Y-130140000D02*
X62588000Y-130140000D01*
X62588000Y-130140000D02*
X62588000Y-134180000D01*
X65428000Y-134180000D02*
X65428000Y-130140000D01*
X62588000Y-134180000D02*
X65428000Y-134180000D01*
X64008000Y-136120000D02*
X64008000Y-134180000D01*
%TO.C,R2*%
X137668000Y-123214000D02*
X137668000Y-123984000D01*
X139038000Y-123984000D02*
X136298000Y-123984000D01*
X136298000Y-123984000D02*
X136298000Y-130524000D01*
X139038000Y-130524000D02*
X139038000Y-123984000D01*
X136298000Y-130524000D02*
X139038000Y-130524000D01*
X137668000Y-131294000D02*
X137668000Y-130524000D01*
%TO.C,Q6*%
X104118000Y-139264000D02*
X107718000Y-139264000D01*
X105918000Y-134814000D02*
G75*
G03*
X104079522Y-139252478I0J-2600000D01*
G01*
X107756478Y-139252478D02*
G75*
G03*
X105918000Y-134814000I-1838478J1838478D01*
G01*
D10*
%TO.C,U4*%
X135128000Y-91654000D02*
X135128000Y-119594000D01*
X135128000Y-91654000D02*
X140208000Y-91654000D01*
X135128000Y-119594000D02*
X147828000Y-119594000D01*
X147828000Y-91654000D02*
X142748000Y-91654000D01*
X147828000Y-119594000D02*
X147828000Y-91654000D01*
X140208000Y-91654000D02*
G75*
G03*
X142748000Y-91654000I1270000J0D01*
G01*
%TO.C,J1*%
X157988000Y-66294000D02*
X165608000Y-66294000D01*
X157988000Y-68834000D02*
X157988000Y-66294000D01*
X157988000Y-68834000D02*
X157988000Y-119634000D01*
X157988000Y-119634000D02*
X178308000Y-119634000D01*
X178308000Y-66294000D02*
X170688000Y-66294000D01*
X178308000Y-119634000D02*
X178308000Y-66294000D01*
X165608000Y-66294000D02*
G75*
G03*
X170688000Y-66294000I2540000J0D01*
G01*
D13*
%TO.C,Q3*%
X126978000Y-139264000D02*
X130578000Y-139264000D01*
X128778000Y-134814000D02*
G75*
G03*
X126939522Y-139252478I0J-2600000D01*
G01*
X130616478Y-139252478D02*
G75*
G03*
X128778000Y-134814000I-1838478J1838478D01*
G01*
%TO.C,R3*%
X130048000Y-123214000D02*
X130048000Y-123984000D01*
X131418000Y-123984000D02*
X128678000Y-123984000D01*
X128678000Y-123984000D02*
X128678000Y-130524000D01*
X131418000Y-130524000D02*
X131418000Y-123984000D01*
X128678000Y-130524000D02*
X131418000Y-130524000D01*
X130048000Y-131294000D02*
X130048000Y-130524000D01*
%TO.C,C1*%
X166808000Y-124714000D02*
X168748000Y-124714000D01*
X168748000Y-123294000D02*
X168748000Y-126134000D01*
X168748000Y-126134000D02*
X172788000Y-126134000D01*
X172788000Y-123294000D02*
X168748000Y-123294000D01*
X172788000Y-126134000D02*
X172788000Y-123294000D01*
X174728000Y-124714000D02*
X172788000Y-124714000D01*
%TO.C,C7*%
X121388000Y-53594000D02*
X119448000Y-53594000D01*
X119448000Y-55014000D02*
X119448000Y-52174000D01*
X119448000Y-52174000D02*
X115408000Y-52174000D01*
X115408000Y-55014000D02*
X119448000Y-55014000D01*
X115408000Y-52174000D02*
X115408000Y-55014000D01*
X113468000Y-53594000D02*
X115408000Y-53594000D01*
D12*
%TO.C,J2*%
X61468000Y-71882000D02*
X74168000Y-71882000D01*
X74168000Y-71882000D02*
X74168000Y-120142000D01*
X74168000Y-120142000D02*
X61468000Y-120142000D01*
X61468000Y-120142000D02*
X61468000Y-71882000D01*
%TD*%
M02*
