%TF.GenerationSoftware,KiCad,Pcbnew,7.0.9*%
%TF.CreationDate,2024-11-14T04:31:41-07:00*%
%TF.ProjectId,Through_Hole_Single,5468726f-7567-4685-9f48-6f6c655f5369,rev?*%
%TF.SameCoordinates,Original*%
%TF.FileFunction,Soldermask,Bot*%
%TF.FilePolarity,Negative*%
%FSLAX46Y46*%
G04 Gerber Fmt 4.6, Leading zero omitted, Abs format (unit mm)*
G04 Created by KiCad (PCBNEW 7.0.9) date 2024-11-14 04:31:41*
%MOMM*%
%LPD*%
G01*
G04 APERTURE LIST*
%ADD10C,1.600000*%
%ADD11O,1.600000X1.600000*%
%ADD12R,1.050000X1.500000*%
%ADD13O,1.050000X1.500000*%
%ADD14C,1.524000*%
%ADD15R,1.600000X1.600000*%
%ADD16R,1.397000X1.397000*%
%ADD17C,1.397000*%
G04 APERTURE END LIST*
D10*
%TO.C,C3*%
X99568000Y-71374000D03*
D11*
X89568000Y-71374000D03*
%TD*%
D12*
%TO.C,Q9*%
X89408000Y-106934000D03*
D13*
X90678000Y-106934000D03*
X91948000Y-106934000D03*
%TD*%
D10*
%TO.C,C5*%
X145288000Y-89154000D03*
D11*
X135288000Y-89154000D03*
%TD*%
D12*
%TO.C,Q8*%
X89408000Y-114554000D03*
D13*
X90678000Y-114554000D03*
X91948000Y-114554000D03*
%TD*%
D14*
%TO.C,U5*%
X114808000Y-58674000D03*
X114808000Y-61214000D03*
X114808000Y-63754000D03*
X114808000Y-66294000D03*
X114808000Y-68834000D03*
X114808000Y-71374000D03*
X114808000Y-73914000D03*
X114808000Y-76454000D03*
X114808000Y-78994000D03*
X114808000Y-81534000D03*
X122428000Y-81534000D03*
X122428000Y-78994000D03*
X122428000Y-76454000D03*
X122428000Y-73914000D03*
X122428000Y-71374000D03*
X122428000Y-68834000D03*
X122428000Y-66294000D03*
X122428000Y-63754000D03*
X122428000Y-61214000D03*
X122428000Y-58714000D03*
%TD*%
D12*
%TO.C,Q7*%
X97028000Y-106934000D03*
D13*
X98298000Y-106934000D03*
X99568000Y-106934000D03*
%TD*%
D14*
%TO.C,U3*%
X91948000Y-76414000D03*
X91948000Y-78954000D03*
X91948000Y-81494000D03*
X91948000Y-84034000D03*
X91948000Y-86574000D03*
X91948000Y-89114000D03*
X91948000Y-91654000D03*
X91948000Y-94194000D03*
X91948000Y-96734000D03*
X91948000Y-99274000D03*
X99568000Y-99274000D03*
X99568000Y-96734000D03*
X99568000Y-94194000D03*
X99568000Y-91654000D03*
X99568000Y-89114000D03*
X99568000Y-86574000D03*
X99568000Y-84034000D03*
X99568000Y-81494000D03*
X99568000Y-78954000D03*
X99568000Y-76454000D03*
%TD*%
D10*
%TO.C,R5*%
X114808000Y-122174000D03*
D11*
X114808000Y-132334000D03*
%TD*%
D12*
%TO.C,U1*%
X159258000Y-124714000D03*
D13*
X160528000Y-124714000D03*
X161798000Y-124714000D03*
%TD*%
D12*
%TO.C,Q10*%
X97028000Y-114554000D03*
D13*
X98298000Y-114554000D03*
X99568000Y-114554000D03*
%TD*%
D12*
%TO.C,Q4*%
X119888000Y-137414000D03*
D13*
X121158000Y-137414000D03*
X122428000Y-137414000D03*
%TD*%
D12*
%TO.C,Q5*%
X112268000Y-137414000D03*
D13*
X113538000Y-137414000D03*
X114808000Y-137414000D03*
%TD*%
D14*
%TO.C,U6*%
X114808000Y-94194000D03*
X114808000Y-96734000D03*
X114808000Y-99274000D03*
X114808000Y-101814000D03*
X114808000Y-104354000D03*
X114808000Y-106894000D03*
X114808000Y-109434000D03*
X114808000Y-111974000D03*
X114808000Y-114514000D03*
X114808000Y-117054000D03*
X122428000Y-117054000D03*
X122428000Y-114514000D03*
X122428000Y-111974000D03*
X122428000Y-109434000D03*
X122428000Y-106894000D03*
X122428000Y-104354000D03*
X122428000Y-101814000D03*
X122428000Y-99274000D03*
X122428000Y-96734000D03*
X122428000Y-94234000D03*
%TD*%
%TO.C,U2*%
X137668000Y-58674000D03*
X137668000Y-61214000D03*
X137668000Y-63754000D03*
X137668000Y-66294000D03*
X137668000Y-68834000D03*
X137668000Y-71374000D03*
X137668000Y-73914000D03*
X137668000Y-76454000D03*
X137668000Y-78994000D03*
X137668000Y-81534000D03*
X145288000Y-81534000D03*
X145288000Y-78994000D03*
X145288000Y-76454000D03*
X145288000Y-73914000D03*
X145288000Y-71374000D03*
X145288000Y-68834000D03*
X145288000Y-66294000D03*
X145288000Y-63754000D03*
X145288000Y-61214000D03*
X145288000Y-58714000D03*
%TD*%
D10*
%TO.C,C6*%
X145288000Y-53594000D03*
D11*
X135288000Y-53594000D03*
%TD*%
D12*
%TO.C,Q1*%
X142748000Y-137414000D03*
D13*
X144018000Y-137414000D03*
X145288000Y-137414000D03*
%TD*%
D10*
%TO.C,R6*%
X107188000Y-122174000D03*
D11*
X107188000Y-132334000D03*
%TD*%
D10*
%TO.C,C8*%
X152908000Y-109474000D03*
D11*
X152908000Y-119474000D03*
%TD*%
D10*
%TO.C,R4*%
X122428000Y-122174000D03*
D11*
X122428000Y-132334000D03*
%TD*%
D12*
%TO.C,Q2*%
X135128000Y-137414000D03*
D13*
X136398000Y-137414000D03*
X137668000Y-137414000D03*
%TD*%
D15*
%TO.C,C2*%
X152908000Y-124714000D03*
D10*
X152908000Y-126714000D03*
%TD*%
%TO.C,C4*%
X122428000Y-89154000D03*
D11*
X112428000Y-89154000D03*
%TD*%
D10*
%TO.C,R1*%
X142748000Y-122174000D03*
D11*
X142748000Y-132334000D03*
%TD*%
D10*
%TO.C,C9*%
X64008000Y-127160000D03*
D11*
X64008000Y-137160000D03*
%TD*%
D10*
%TO.C,R2*%
X137668000Y-122174000D03*
D11*
X137668000Y-132334000D03*
%TD*%
D12*
%TO.C,Q6*%
X104648000Y-137414000D03*
D13*
X105918000Y-137414000D03*
X107188000Y-137414000D03*
%TD*%
D14*
%TO.C,U4*%
X137668000Y-94194000D03*
X137668000Y-96734000D03*
X137668000Y-99274000D03*
X137668000Y-101814000D03*
X137668000Y-104354000D03*
X137668000Y-106894000D03*
X137668000Y-109434000D03*
X137668000Y-111974000D03*
X137668000Y-114514000D03*
X137668000Y-117054000D03*
X145288000Y-117054000D03*
X145288000Y-114514000D03*
X145288000Y-111974000D03*
X145288000Y-109434000D03*
X145288000Y-106894000D03*
X145288000Y-104354000D03*
X145288000Y-101814000D03*
X145288000Y-99274000D03*
X145288000Y-96734000D03*
X145288000Y-94234000D03*
%TD*%
%TO.C,J1*%
X160528000Y-68834000D03*
X160528000Y-71374000D03*
X160528000Y-73914000D03*
X160528000Y-76454000D03*
X160528000Y-78994000D03*
X160528000Y-81534000D03*
X160528000Y-84074000D03*
X160528000Y-86614000D03*
X160528000Y-89154000D03*
X160528000Y-91694000D03*
X160528000Y-94234000D03*
X160528000Y-96774000D03*
X160528000Y-99314000D03*
X160528000Y-101854000D03*
X160528000Y-104394000D03*
X160528000Y-106934000D03*
X160528000Y-109474000D03*
X160528000Y-112014000D03*
X160528000Y-114554000D03*
X160528000Y-117094000D03*
X175768000Y-117094000D03*
X175768000Y-114554000D03*
X175768000Y-112014000D03*
X175768000Y-109474000D03*
X175768000Y-106934000D03*
X175768000Y-104394000D03*
X175768000Y-101854000D03*
X175768000Y-99314000D03*
X175768000Y-96774000D03*
X175768000Y-94234000D03*
X175768000Y-91694000D03*
X175768000Y-89154000D03*
X175768000Y-86614000D03*
X175768000Y-84074000D03*
X175768000Y-81534000D03*
X175768000Y-78994000D03*
X175768000Y-76454000D03*
X175768000Y-73914000D03*
X175768000Y-71374000D03*
X175768000Y-68834000D03*
%TD*%
D12*
%TO.C,Q3*%
X127508000Y-137414000D03*
D13*
X128778000Y-137414000D03*
X130048000Y-137414000D03*
%TD*%
D10*
%TO.C,R3*%
X130048000Y-122174000D03*
D11*
X130048000Y-132334000D03*
%TD*%
D10*
%TO.C,C1*%
X165768000Y-124714000D03*
D11*
X175768000Y-124714000D03*
%TD*%
D10*
%TO.C,C7*%
X122428000Y-53594000D03*
D11*
X112428000Y-53594000D03*
%TD*%
D16*
%TO.C,J2*%
X64008000Y-74422000D03*
D17*
X66548000Y-74422000D03*
X69088000Y-74422000D03*
X71628000Y-74422000D03*
X64008000Y-76962000D03*
X66548000Y-76962000D03*
X69088000Y-76962000D03*
X71628000Y-76962000D03*
X64008000Y-79502000D03*
X66548000Y-79502000D03*
X69088000Y-79502000D03*
X71628000Y-79502000D03*
X64008000Y-82042000D03*
X66548000Y-82042000D03*
X69088000Y-82042000D03*
X71628000Y-82042000D03*
X64008000Y-84582000D03*
X66548000Y-84582000D03*
X69088000Y-84582000D03*
X71628000Y-84582000D03*
X64008000Y-87122000D03*
X66548000Y-87122000D03*
X69088000Y-87122000D03*
X71628000Y-87122000D03*
X64008000Y-89662000D03*
X66548000Y-89662000D03*
X69088000Y-89662000D03*
X71628000Y-89662000D03*
X64008000Y-92202000D03*
X66548000Y-92202000D03*
X69088000Y-92202000D03*
X71628000Y-92202000D03*
X64008000Y-94742000D03*
X66548000Y-94742000D03*
X69088000Y-94742000D03*
X71628000Y-94742000D03*
X64008000Y-97282000D03*
X66548000Y-97282000D03*
X69088000Y-97282000D03*
X71628000Y-97282000D03*
X64008000Y-99822000D03*
X66548000Y-99822000D03*
X69088000Y-99822000D03*
X71628000Y-99822000D03*
X64008000Y-102362000D03*
X66548000Y-102362000D03*
X69088000Y-102362000D03*
X71628000Y-102362000D03*
X64008000Y-104902000D03*
X66548000Y-104902000D03*
X69088000Y-104902000D03*
X71628000Y-104902000D03*
X64008000Y-107442000D03*
X66548000Y-107442000D03*
X69088000Y-107442000D03*
X71628000Y-107442000D03*
X64008000Y-109982000D03*
X66548000Y-109982000D03*
X69088000Y-109982000D03*
X71628000Y-109982000D03*
X64008000Y-112522000D03*
X66548000Y-112522000D03*
X69088000Y-112522000D03*
X71628000Y-112522000D03*
X64008000Y-115062000D03*
X66548000Y-115062000D03*
X69088000Y-115062000D03*
X71628000Y-115062000D03*
X64008000Y-117602000D03*
X66548000Y-117602000D03*
X69088000Y-117602000D03*
X71628000Y-117602000D03*
%TD*%
M02*
