M48
; DRILL file {KiCad 7.0.9} date Thu Nov 14 04:31:47 2024
; FORMAT={-:-/ absolute / inch / decimal}
; #@! TF.CreationDate,2024-11-14T04:31:47-07:00
; #@! TF.GenerationSoftware,Kicad,Pcbnew,7.0.9
; #@! TF.FileFunction,Plated,1,2,PTH
FMAT,2
INCH
; #@! TA.AperFunction,Plated,PTH,ViaDrill
T1C0.0157
; #@! TA.AperFunction,Plated,PTH,ComponentDrill
T2C0.0295
; #@! TA.AperFunction,Plated,PTH,ComponentDrill
T3C0.0315
; #@! TA.AperFunction,Plated,PTH,ComponentDrill
T4C0.0400
%
G90
G05
T1
X2.82Y-5.49
X2.85Y-5.52
X2.88Y-5.55
X2.91Y-2.0
X2.91Y-5.58
X2.94Y-5.61
X2.97Y-5.64
X3.36Y-3.98
X3.42Y-2.0
X3.42Y-5.41
X3.57Y-4.31
X3.87Y-4.07
X3.87Y-4.38
X3.92Y-4.36
X3.99Y-4.9
X4.02Y-4.93
X4.05Y-4.96
X4.08Y-3.69
X4.08Y-4.01
X4.08Y-4.51
X4.08Y-4.61
X4.11Y-3.21
X4.11Y-4.16
X4.12Y-4.43
X4.12Y-4.76
X4.17Y-5.49
X4.19Y-4.71
X4.3Y-3.57
X4.3Y-3.76
X4.39Y-2.74
X4.39Y-3.37
X4.4Y-3.99
X4.4Y-4.46
X4.42Y-2.81
X4.44Y-4.29
X4.45Y-2.91
X4.45Y-3.06
X4.47Y-5.52
X4.6Y-2.0
X4.6Y-2.41
X4.6Y-2.61
X4.6Y-2.81
X4.61Y-3.81
X4.61Y-4.0
X4.61Y-4.21
X4.61Y-4.41
X4.75Y-3.91
X4.75Y-4.61
X4.76Y-3.01
X4.76Y-3.26
X4.77Y-5.55
X4.96Y-2.46
X4.96Y-2.66
X4.96Y-4.71
X5.02Y-3.96
X5.02Y-4.11
X5.02Y-4.41
X5.02Y-4.56
X5.05Y-2.31
X5.05Y-3.86
X5.05Y-4.31
X5.07Y-5.58
X5.08Y-3.91
X5.09Y-3.66
X5.17Y-3.11
X5.17Y-3.37
X5.2Y-4.01
X5.22Y-3.37
X5.37Y-5.61
X5.51Y-2.0
X5.51Y-3.81
X5.57Y-3.96
X5.57Y-4.21
X5.57Y-4.41
X5.57Y-4.56
X5.62Y-2.56
X5.62Y-2.76
X5.63Y-4.71
X5.66Y-2.76
X5.67Y-5.64
X5.78Y-3.4
X5.81Y-3.57
X5.84Y-3.6
X5.84Y-4.51
X5.87Y-3.66
X5.87Y-4.31
X5.89Y-4.71
X5.89Y-4.91
X5.9Y-3.46
X5.9Y-3.96
X5.93Y-3.66
X5.93Y-4.56
X6.02Y-3.43
X6.02Y-3.91
X6.02Y-4.01
X6.02Y-4.16
X6.05Y-3.31
X6.05Y-4.11
X6.08Y-3.34
X6.08Y-3.81
X6.09Y-2.0
X6.11Y-3.51
X6.11Y-5.06
X6.14Y-3.41
X6.14Y-5.09
X6.17Y-3.71
X6.17Y-5.12
X6.25Y-3.56
X6.25Y-4.41
X6.32Y-4.72
X6.32Y-5.0
X6.39Y-4.06
X6.44Y-4.31
X6.44Y-5.18
X6.49Y-3.71
X6.49Y-3.96
X6.52Y-3.31
X6.52Y-4.56
X6.55Y-3.06
X6.55Y-4.41
X6.58Y-3.16
X6.58Y-4.61
X6.61Y-3.26
X6.61Y-4.51
X6.64Y-3.11
X6.64Y-3.86
X6.67Y-3.21
X6.67Y-3.36
X6.68Y-3.61
X6.68Y-4.16
X6.7Y-3.31
X6.7Y-3.46
X6.72Y-3.76
X6.72Y-4.21
X6.73Y-3.41
X6.73Y-3.66
X6.75Y-3.81
X6.75Y-4.26
X6.82Y-4.72
X6.98Y-2.46
X7.01Y-2.56
X7.05Y-2.51
X7.05Y-2.91
X7.05Y-3.01
X7.05Y-4.81
X7.08Y-4.31
X7.08Y-4.66
X7.11Y-2.96
X7.11Y-4.61
X7.14Y-4.01
X7.14Y-4.78
X7.17Y-4.11
X7.17Y-4.46
X7.2Y-3.91
X7.2Y-4.36
T2
X3.52Y-4.21
X3.52Y-4.51
X3.57Y-4.21
X3.57Y-4.51
X3.62Y-4.21
X3.62Y-4.51
X3.82Y-4.21
X3.82Y-4.51
X3.87Y-4.21
X3.87Y-4.51
X3.92Y-4.21
X3.92Y-4.51
X4.12Y-5.41
X4.17Y-5.41
X4.22Y-5.41
X4.42Y-5.41
X4.47Y-5.41
X4.52Y-5.41
X4.72Y-5.41
X4.77Y-5.41
X4.82Y-5.41
X5.02Y-5.41
X5.07Y-5.41
X5.12Y-5.41
X5.32Y-5.41
X5.37Y-5.41
X5.42Y-5.41
X5.62Y-5.41
X5.67Y-5.41
X5.72Y-5.41
X6.27Y-4.91
X6.32Y-4.91
X6.37Y-4.91
T3
X2.52Y-5.0063
X2.52Y-5.4
X3.5263Y-2.81
X3.92Y-2.81
X4.22Y-4.81
X4.22Y-5.21
X4.4263Y-2.11
X4.4263Y-3.51
X4.52Y-4.81
X4.52Y-5.21
X4.82Y-2.11
X4.82Y-3.51
X4.82Y-4.81
X4.82Y-5.21
X5.12Y-4.81
X5.12Y-5.21
X5.3263Y-2.11
X5.3263Y-3.51
X5.42Y-4.81
X5.42Y-5.21
X5.62Y-4.81
X5.62Y-5.21
X5.72Y-2.11
X5.72Y-3.51
X6.02Y-4.31
X6.02Y-4.7037
X6.02Y-4.91
X6.02Y-4.9887
X6.5263Y-4.91
X6.92Y-4.91
T4
X2.52Y-2.93
X2.52Y-3.03
X2.52Y-3.13
X2.52Y-3.23
X2.52Y-3.33
X2.52Y-3.43
X2.52Y-3.53
X2.52Y-3.63
X2.52Y-3.73
X2.52Y-3.83
X2.52Y-3.93
X2.52Y-4.03
X2.52Y-4.13
X2.52Y-4.23
X2.52Y-4.33
X2.52Y-4.43
X2.52Y-4.53
X2.52Y-4.63
X2.62Y-2.93
X2.62Y-3.03
X2.62Y-3.13
X2.62Y-3.23
X2.62Y-3.33
X2.62Y-3.43
X2.62Y-3.53
X2.62Y-3.63
X2.62Y-3.73
X2.62Y-3.83
X2.62Y-3.93
X2.62Y-4.03
X2.62Y-4.13
X2.62Y-4.23
X2.62Y-4.33
X2.62Y-4.43
X2.62Y-4.53
X2.62Y-4.63
X2.72Y-2.93
X2.72Y-3.03
X2.72Y-3.13
X2.72Y-3.23
X2.72Y-3.33
X2.72Y-3.43
X2.72Y-3.53
X2.72Y-3.63
X2.72Y-3.73
X2.72Y-3.83
X2.72Y-3.93
X2.72Y-4.03
X2.72Y-4.13
X2.72Y-4.23
X2.72Y-4.33
X2.72Y-4.43
X2.72Y-4.53
X2.72Y-4.63
X2.82Y-2.93
X2.82Y-3.03
X2.82Y-3.13
X2.82Y-3.23
X2.82Y-3.33
X2.82Y-3.43
X2.82Y-3.53
X2.82Y-3.63
X2.82Y-3.73
X2.82Y-3.83
X2.82Y-3.93
X2.82Y-4.03
X2.82Y-4.13
X2.82Y-4.23
X2.82Y-4.33
X2.82Y-4.43
X2.82Y-4.53
X2.82Y-4.63
X3.62Y-3.0084
X3.62Y-3.1084
X3.62Y-3.2084
X3.62Y-3.3084
X3.62Y-3.4084
X3.62Y-3.5084
X3.62Y-3.6084
X3.62Y-3.7084
X3.62Y-3.8084
X3.62Y-3.9084
X3.92Y-3.01
X3.92Y-3.1084
X3.92Y-3.2084
X3.92Y-3.3084
X3.92Y-3.4084
X3.92Y-3.5084
X3.92Y-3.6084
X3.92Y-3.7084
X3.92Y-3.8084
X3.92Y-3.9084
X4.52Y-2.31
X4.52Y-2.41
X4.52Y-2.51
X4.52Y-2.61
X4.52Y-2.71
X4.52Y-2.81
X4.52Y-2.91
X4.52Y-3.01
X4.52Y-3.11
X4.52Y-3.21
X4.52Y-3.7084
X4.52Y-3.8084
X4.52Y-3.9084
X4.52Y-4.0084
X4.52Y-4.1084
X4.52Y-4.2084
X4.52Y-4.3084
X4.52Y-4.4084
X4.52Y-4.5084
X4.52Y-4.6084
X4.82Y-2.3116
X4.82Y-2.41
X4.82Y-2.51
X4.82Y-2.61
X4.82Y-2.71
X4.82Y-2.81
X4.82Y-2.91
X4.82Y-3.01
X4.82Y-3.11
X4.82Y-3.21
X4.82Y-3.71
X4.82Y-3.8084
X4.82Y-3.9084
X4.82Y-4.0084
X4.82Y-4.1084
X4.82Y-4.2084
X4.82Y-4.3084
X4.82Y-4.4084
X4.82Y-4.5084
X4.82Y-4.6084
X5.42Y-2.31
X5.42Y-2.41
X5.42Y-2.51
X5.42Y-2.61
X5.42Y-2.71
X5.42Y-2.81
X5.42Y-2.91
X5.42Y-3.01
X5.42Y-3.11
X5.42Y-3.21
X5.42Y-3.7084
X5.42Y-3.8084
X5.42Y-3.9084
X5.42Y-4.0084
X5.42Y-4.1084
X5.42Y-4.2084
X5.42Y-4.3084
X5.42Y-4.4084
X5.42Y-4.5084
X5.42Y-4.6084
X5.72Y-2.3116
X5.72Y-2.41
X5.72Y-2.51
X5.72Y-2.61
X5.72Y-2.71
X5.72Y-2.81
X5.72Y-2.91
X5.72Y-3.01
X5.72Y-3.11
X5.72Y-3.21
X5.72Y-3.71
X5.72Y-3.8084
X5.72Y-3.9084
X5.72Y-4.0084
X5.72Y-4.1084
X5.72Y-4.2084
X5.72Y-4.3084
X5.72Y-4.4084
X5.72Y-4.5084
X5.72Y-4.6084
X6.32Y-2.71
X6.32Y-2.81
X6.32Y-2.91
X6.32Y-3.01
X6.32Y-3.11
X6.32Y-3.21
X6.32Y-3.31
X6.32Y-3.41
X6.32Y-3.51
X6.32Y-3.61
X6.32Y-3.71
X6.32Y-3.81
X6.32Y-3.91
X6.32Y-4.01
X6.32Y-4.11
X6.32Y-4.21
X6.32Y-4.31
X6.32Y-4.41
X6.32Y-4.51
X6.32Y-4.61
X6.92Y-2.71
X6.92Y-2.81
X6.92Y-2.91
X6.92Y-3.01
X6.92Y-3.11
X6.92Y-3.21
X6.92Y-3.31
X6.92Y-3.41
X6.92Y-3.51
X6.92Y-3.61
X6.92Y-3.71
X6.92Y-3.81
X6.92Y-3.91
X6.92Y-4.01
X6.92Y-4.11
X6.92Y-4.21
X6.92Y-4.31
X6.92Y-4.41
X6.92Y-4.51
X6.92Y-4.61
T0
M30
