M48
; DRILL file {KiCad 7.0.9} date Wed Nov  6 00:13:23 2024
; FORMAT={-:-/ absolute / inch / decimal}
; #@! TF.CreationDate,2024-11-06T00:13:23-07:00
; #@! TF.GenerationSoftware,Kicad,Pcbnew,7.0.9
; #@! TF.FileFunction,Plated,1,2,PTH
FMAT,2
INCH
; #@! TA.AperFunction,Plated,PTH,ViaDrill
T1C0.0157
; #@! TA.AperFunction,Plated,PTH,ComponentDrill
T2C0.0295
; #@! TA.AperFunction,Plated,PTH,ComponentDrill
T3C0.0315
; #@! TA.AperFunction,Plated,PTH,ComponentDrill
T4C0.0400
%
G90
G05
T1
X5.17Y-3.75
X5.24Y-3.85
X5.25Y-2.91
X5.35Y-2.85
X5.36Y-3.7
X5.36Y-4.25
X5.39Y-3.8
X5.39Y-4.35
X5.4Y-2.8
X5.42Y-4.0
X5.42Y-4.15
X5.45Y-3.9
X5.45Y-4.05
X5.48Y-3.95
X5.48Y-4.2
X5.51Y-3.65
X5.51Y-4.3
X5.54Y-3.0
X5.54Y-4.8
X5.57Y-3.15
X5.57Y-4.9
X5.6Y-3.4
X5.6Y-6.08
X5.63Y-3.5
X5.63Y-6.11
X5.66Y-3.6
X5.66Y-6.14
X5.69Y-3.7
X5.69Y-6.17
X5.72Y-3.8
X5.72Y-6.2
X5.75Y-3.9
X5.75Y-6.23
X5.9Y-6.0
X5.96Y-2.95
X5.96Y-3.3
X5.97Y-4.7
X5.97Y-4.86
X6.03Y-3.15
X6.03Y-3.55
X6.03Y-3.65
X6.03Y-5.05
X6.06Y-3.75
X6.06Y-5.15
X6.09Y-3.95
X6.09Y-5.25
X6.12Y-3.85
X6.12Y-4.75
X6.16Y-2.85
X6.16Y-3.6
X6.35Y-4.9
X6.5Y-2.59
X6.5Y-3.7
X6.65Y-4.66
X6.65Y-4.97
X6.7Y-4.95
X6.77Y-5.49
X6.8Y-5.52
X6.83Y-5.55
X6.86Y-4.28
X6.86Y-4.6
X6.86Y-5.1
X6.86Y-5.4
X6.9Y-5.02
X6.9Y-5.35
X6.95Y-6.08
X6.97Y-5.3
X7.08Y-4.16
X7.08Y-4.35
X7.1Y-3.25
X7.14Y-3.1
X7.14Y-3.25
X7.17Y-2.91
X7.17Y-3.96
X7.18Y-5.05
X7.2Y-3.4
X7.22Y-4.88
X7.23Y-3.5
X7.23Y-3.65
X7.25Y-6.11
X7.38Y-2.59
X7.38Y-3.0
X7.38Y-3.2
X7.38Y-3.4
X7.39Y-4.4
X7.39Y-4.59
X7.39Y-4.8
X7.39Y-5.0
X7.53Y-4.5
X7.53Y-5.2
X7.54Y-3.6
X7.54Y-3.85
X7.55Y-6.14
X7.74Y-3.05
X7.74Y-3.25
X7.74Y-5.3
X7.8Y-4.55
X7.8Y-4.7
X7.8Y-5.0
X7.8Y-5.15
X7.83Y-2.9
X7.83Y-4.45
X7.83Y-4.9
X7.85Y-6.17
X7.86Y-4.5
X7.87Y-4.25
X7.95Y-3.7
X7.95Y-3.96
X7.98Y-4.6
X8.0Y-3.96
X8.15Y-6.2
X8.29Y-2.59
X8.29Y-4.4
X8.35Y-4.55
X8.35Y-4.8
X8.35Y-5.0
X8.35Y-5.15
X8.4Y-3.15
X8.4Y-3.35
X8.41Y-5.3
X8.44Y-3.35
X8.45Y-6.23
X8.56Y-3.99
X8.59Y-4.16
X8.62Y-4.19
X8.62Y-5.1
X8.65Y-4.25
X8.65Y-4.9
X8.67Y-5.3
X8.67Y-5.5
X8.68Y-4.05
X8.68Y-4.55
X8.71Y-4.25
X8.71Y-5.15
X8.8Y-4.02
X8.8Y-4.5
X8.8Y-4.6
X8.8Y-4.75
X8.83Y-3.9
X8.83Y-4.7
X8.86Y-3.93
X8.86Y-4.4
X8.87Y-2.59
X8.89Y-4.1
X8.89Y-5.65
X8.92Y-4.0
X8.92Y-5.68
X8.95Y-4.3
X8.95Y-5.71
X9.03Y-4.15
X9.03Y-5.0
X9.1Y-5.31
X9.1Y-5.59
X9.17Y-4.65
X9.22Y-4.9
X9.22Y-5.77
X9.27Y-4.3
X9.27Y-4.55
X9.3Y-3.9
X9.3Y-5.15
X9.33Y-3.65
X9.33Y-5.0
X9.36Y-3.75
X9.36Y-5.2
X9.39Y-3.85
X9.39Y-5.1
X9.42Y-3.7
X9.42Y-4.45
X9.45Y-3.8
X9.45Y-3.95
X9.46Y-4.2
X9.46Y-4.75
X9.48Y-3.9
X9.48Y-4.05
X9.5Y-4.35
X9.5Y-4.8
X9.51Y-4.0
X9.51Y-4.25
X9.53Y-4.4
X9.53Y-4.85
X9.6Y-5.31
X9.76Y-3.05
X9.79Y-3.15
X9.83Y-3.1
X9.83Y-3.5
X9.83Y-3.6
X9.83Y-5.4
X9.86Y-4.9
X9.86Y-5.25
X9.89Y-3.55
X9.89Y-5.2
X9.92Y-4.6
X9.92Y-5.37
X9.95Y-4.7
X9.95Y-5.05
X9.98Y-4.5
X9.98Y-4.95
T2
X6.3Y-4.8
X6.3Y-5.1
X6.35Y-4.8
X6.35Y-5.1
X6.4Y-4.8
X6.4Y-5.1
X6.6Y-4.8
X6.6Y-5.1
X6.65Y-4.8
X6.65Y-5.1
X6.7Y-4.8
X6.7Y-5.1
X6.9Y-6.0
X6.95Y-6.0
X7.0Y-6.0
X7.2Y-6.0
X7.25Y-6.0
X7.3Y-6.0
X7.5Y-6.0
X7.55Y-6.0
X7.6Y-6.0
X7.8Y-6.0
X7.85Y-6.0
X7.9Y-6.0
X8.1Y-6.0
X8.15Y-6.0
X8.2Y-6.0
X8.4Y-6.0
X8.45Y-6.0
X8.5Y-6.0
X9.05Y-5.5
X9.1Y-5.5
X9.15Y-5.5
T3
X5.3Y-5.6
X5.3Y-5.9937
X6.3063Y-3.4
X6.7Y-3.4
X7.0Y-5.4
X7.0Y-5.8
X7.2063Y-2.7
X7.2063Y-4.1
X7.3Y-5.4
X7.3Y-5.8
X7.6Y-2.7
X7.6Y-4.1
X7.6Y-5.4
X7.6Y-5.8
X7.9Y-5.4
X7.9Y-5.8
X8.1063Y-2.7
X8.1063Y-4.1
X8.2Y-5.4
X8.2Y-5.8
X8.4Y-5.4
X8.4Y-5.8
X8.5Y-2.7
X8.5Y-4.1
X8.8Y-4.9
X8.8Y-5.2937
X8.8Y-5.5
X8.8Y-5.5787
X9.3031Y-5.5
X9.6969Y-5.5
T4
X5.3Y-3.1
X5.3Y-3.2
X5.3Y-3.3
X5.3Y-3.4
X5.3Y-3.5
X5.3Y-3.6
X5.3Y-3.7
X5.3Y-3.8
X5.3Y-3.9
X5.3Y-4.0
X5.3Y-4.1
X5.3Y-4.2
X5.3Y-4.3
X5.3Y-4.4
X5.3Y-4.5
X5.3Y-4.6
X5.3Y-4.7
X5.3Y-4.8
X5.3Y-4.9
X5.3Y-5.0
X5.3Y-5.1
X5.3Y-5.2
X5.3Y-5.3
X5.3Y-5.4
X5.35Y-2.2976
X5.35Y-2.3976
X5.45Y-2.2976
X5.45Y-2.3976
X5.55Y-2.2976
X5.55Y-2.3976
X5.65Y-2.2976
X5.65Y-2.3976
X5.75Y-2.2976
X5.75Y-2.3976
X5.85Y-2.2976
X5.85Y-2.3976
X5.9Y-3.1
X5.9Y-3.2
X5.9Y-3.3
X5.9Y-3.4
X5.9Y-3.5
X5.9Y-3.6
X5.9Y-3.7
X5.9Y-3.8
X5.9Y-3.9
X5.9Y-4.0
X5.9Y-4.1
X5.9Y-4.2
X5.9Y-4.3
X5.9Y-4.4
X5.9Y-4.5
X5.9Y-4.6
X5.9Y-4.7
X5.9Y-4.8
X5.9Y-4.9
X5.9Y-5.0
X5.9Y-5.1
X5.9Y-5.2
X5.9Y-5.3
X5.9Y-5.4
X6.4Y-3.6
X6.4Y-3.7
X6.4Y-3.8
X6.4Y-3.9
X6.4Y-4.0
X6.4Y-4.1
X6.4Y-4.2
X6.4Y-4.3
X6.4Y-4.4
X6.4Y-4.5
X6.7Y-3.6016
X6.7Y-3.7
X6.7Y-3.8
X6.7Y-3.9
X6.7Y-4.0
X6.7Y-4.1
X6.7Y-4.2
X6.7Y-4.3
X6.7Y-4.4
X6.7Y-4.5
X7.3Y-2.9
X7.3Y-3.0
X7.3Y-3.1
X7.3Y-3.2
X7.3Y-3.3
X7.3Y-3.4
X7.3Y-3.5
X7.3Y-3.6
X7.3Y-3.7
X7.3Y-3.8
X7.3Y-4.3
X7.3Y-4.4
X7.3Y-4.5
X7.3Y-4.6
X7.3Y-4.7
X7.3Y-4.8
X7.3Y-4.9
X7.3Y-5.0
X7.3Y-5.1
X7.3Y-5.2
X7.6Y-2.9016
X7.6Y-3.0
X7.6Y-3.1
X7.6Y-3.2
X7.6Y-3.3
X7.6Y-3.4
X7.6Y-3.5
X7.6Y-3.6
X7.6Y-3.7
X7.6Y-3.8
X7.6Y-4.3016
X7.6Y-4.4
X7.6Y-4.5
X7.6Y-4.6
X7.6Y-4.7
X7.6Y-4.8
X7.6Y-4.9
X7.6Y-5.0
X7.6Y-5.1
X7.6Y-5.2
X8.2Y-2.9
X8.2Y-3.0
X8.2Y-3.1
X8.2Y-3.2
X8.2Y-3.3
X8.2Y-3.4
X8.2Y-3.5
X8.2Y-3.6
X8.2Y-3.7
X8.2Y-3.8
X8.2Y-4.3
X8.2Y-4.4
X8.2Y-4.5
X8.2Y-4.6
X8.2Y-4.7
X8.2Y-4.8
X8.2Y-4.9
X8.2Y-5.0
X8.2Y-5.1
X8.2Y-5.2
X8.5Y-2.9016
X8.5Y-3.0
X8.5Y-3.1
X8.5Y-3.2
X8.5Y-3.3
X8.5Y-3.4
X8.5Y-3.5
X8.5Y-3.6
X8.5Y-3.7
X8.5Y-3.8
X8.5Y-4.3016
X8.5Y-4.4
X8.5Y-4.5
X8.5Y-4.6
X8.5Y-4.7
X8.5Y-4.8
X8.5Y-4.9
X8.5Y-5.0
X8.5Y-5.1
X8.5Y-5.2
X9.1Y-3.3
X9.1Y-3.4
X9.1Y-3.5
X9.1Y-3.6
X9.1Y-3.7
X9.1Y-3.8
X9.1Y-3.9
X9.1Y-4.0
X9.1Y-4.1
X9.1Y-4.2
X9.1Y-4.3
X9.1Y-4.4
X9.1Y-4.5
X9.1Y-4.6
X9.1Y-4.7
X9.1Y-4.8
X9.1Y-4.9
X9.1Y-5.0
X9.1Y-5.1
X9.1Y-5.2
X9.7Y-3.3
X9.7Y-3.4
X9.7Y-3.5
X9.7Y-3.6
X9.7Y-3.7
X9.7Y-3.8
X9.7Y-3.9
X9.7Y-4.0
X9.7Y-4.1
X9.7Y-4.2
X9.7Y-4.3
X9.7Y-4.4
X9.7Y-4.5
X9.7Y-4.6
X9.7Y-4.7
X9.7Y-4.8
X9.7Y-4.9
X9.7Y-5.0
X9.7Y-5.1
X9.7Y-5.2
T0
M30
