%TF.GenerationSoftware,KiCad,Pcbnew,7.0.9*%
%TF.CreationDate,2024-11-06T00:13:14-07:00*%
%TF.ProjectId,Though_Hole_Single_Xilinx,54686f75-6768-45f4-986f-6c655f53696e,rev?*%
%TF.SameCoordinates,Original*%
%TF.FileFunction,Soldermask,Top*%
%TF.FilePolarity,Negative*%
%FSLAX46Y46*%
G04 Gerber Fmt 4.6, Leading zero omitted, Abs format (unit mm)*
G04 Created by KiCad (PCBNEW 7.0.9) date 2024-11-06 00:13:14*
%MOMM*%
%LPD*%
G01*
G04 APERTURE LIST*
%ADD10C,1.600000*%
%ADD11O,1.600000X1.600000*%
%ADD12R,1.600000X1.600000*%
%ADD13C,1.524000*%
%ADD14R,1.050000X1.500000*%
%ADD15O,1.050000X1.500000*%
G04 APERTURE END LIST*
D10*
%TO.C,C9*%
X134620000Y-142240000D03*
D11*
X134620000Y-152240000D03*
%TD*%
D10*
%TO.C,R1*%
X213360000Y-137160000D03*
D11*
X213360000Y-147320000D03*
%TD*%
D10*
%TO.C,R6*%
X177800000Y-137160000D03*
D11*
X177800000Y-147320000D03*
%TD*%
%TO.C,R5*%
X185420000Y-147320000D03*
D10*
X185420000Y-137160000D03*
%TD*%
%TO.C,R4*%
X193040000Y-137160000D03*
D11*
X193040000Y-147320000D03*
%TD*%
%TO.C,R3*%
X200660000Y-147320000D03*
D10*
X200660000Y-137160000D03*
%TD*%
%TO.C,R2*%
X208280000Y-137160000D03*
D11*
X208280000Y-147320000D03*
%TD*%
D12*
%TO.C,C2*%
X223520000Y-139700000D03*
D10*
X223520000Y-141700000D03*
%TD*%
D13*
%TO.C,U6*%
X185420000Y-109220000D03*
X185420000Y-111760000D03*
X185420000Y-114300000D03*
X185420000Y-116840000D03*
X185420000Y-119380000D03*
X185420000Y-121920000D03*
X185420000Y-124460000D03*
X185420000Y-127000000D03*
X185420000Y-129540000D03*
X185420000Y-132080000D03*
X193040000Y-132080000D03*
X193040000Y-129540000D03*
X193040000Y-127000000D03*
X193040000Y-124460000D03*
X193040000Y-121920000D03*
X193040000Y-119380000D03*
X193040000Y-116840000D03*
X193040000Y-114300000D03*
X193040000Y-111760000D03*
X193040000Y-109260000D03*
%TD*%
%TO.C,U5*%
X185420000Y-73660000D03*
X185420000Y-76200000D03*
X185420000Y-78740000D03*
X185420000Y-81280000D03*
X185420000Y-83820000D03*
X185420000Y-86360000D03*
X185420000Y-88900000D03*
X185420000Y-91440000D03*
X185420000Y-93980000D03*
X185420000Y-96520000D03*
X193040000Y-96520000D03*
X193040000Y-93980000D03*
X193040000Y-91440000D03*
X193040000Y-88900000D03*
X193040000Y-86360000D03*
X193040000Y-83820000D03*
X193040000Y-81280000D03*
X193040000Y-78740000D03*
X193040000Y-76200000D03*
X193040000Y-73700000D03*
%TD*%
%TO.C,U4*%
X215900000Y-109260000D03*
X215900000Y-111760000D03*
X215900000Y-114300000D03*
X215900000Y-116840000D03*
X215900000Y-119380000D03*
X215900000Y-121920000D03*
X215900000Y-124460000D03*
X215900000Y-127000000D03*
X215900000Y-129540000D03*
X215900000Y-132080000D03*
X208280000Y-132080000D03*
X208280000Y-129540000D03*
X208280000Y-127000000D03*
X208280000Y-124460000D03*
X208280000Y-121920000D03*
X208280000Y-119380000D03*
X208280000Y-116840000D03*
X208280000Y-114300000D03*
X208280000Y-111760000D03*
X208280000Y-109220000D03*
%TD*%
%TO.C,U3*%
X162560000Y-91440000D03*
X162560000Y-93980000D03*
X162560000Y-96520000D03*
X162560000Y-99060000D03*
X162560000Y-101600000D03*
X162560000Y-104140000D03*
X162560000Y-106680000D03*
X162560000Y-109220000D03*
X162560000Y-111760000D03*
X162560000Y-114300000D03*
X170180000Y-114300000D03*
X170180000Y-111760000D03*
X170180000Y-109220000D03*
X170180000Y-106680000D03*
X170180000Y-104140000D03*
X170180000Y-101600000D03*
X170180000Y-99060000D03*
X170180000Y-96520000D03*
X170180000Y-93980000D03*
X170180000Y-91480000D03*
%TD*%
%TO.C,U2*%
X208280000Y-73660000D03*
X208280000Y-76200000D03*
X208280000Y-78740000D03*
X208280000Y-81280000D03*
X208280000Y-83820000D03*
X208280000Y-86360000D03*
X208280000Y-88900000D03*
X208280000Y-91440000D03*
X208280000Y-93980000D03*
X208280000Y-96520000D03*
X215900000Y-96520000D03*
X215900000Y-93980000D03*
X215900000Y-91440000D03*
X215900000Y-88900000D03*
X215900000Y-86360000D03*
X215900000Y-83820000D03*
X215900000Y-81280000D03*
X215900000Y-78740000D03*
X215900000Y-76200000D03*
X215900000Y-73700000D03*
%TD*%
D14*
%TO.C,U1*%
X229870000Y-139700000D03*
D15*
X231140000Y-139700000D03*
X232410000Y-139700000D03*
%TD*%
D14*
%TO.C,Q10*%
X167640000Y-129540000D03*
D15*
X168910000Y-129540000D03*
X170180000Y-129540000D03*
%TD*%
D14*
%TO.C,Q9*%
X160020000Y-121920000D03*
D15*
X161290000Y-121920000D03*
X162560000Y-121920000D03*
%TD*%
D14*
%TO.C,Q8*%
X160020000Y-129540000D03*
D15*
X161290000Y-129540000D03*
X162560000Y-129540000D03*
%TD*%
D14*
%TO.C,Q7*%
X167640000Y-121920000D03*
D15*
X168910000Y-121920000D03*
X170180000Y-121920000D03*
%TD*%
D14*
%TO.C,Q6*%
X175260000Y-152400000D03*
D15*
X176530000Y-152400000D03*
X177800000Y-152400000D03*
%TD*%
D14*
%TO.C,Q5*%
X182880000Y-152400000D03*
D15*
X184150000Y-152400000D03*
X185420000Y-152400000D03*
%TD*%
D14*
%TO.C,Q4*%
X190500000Y-152400000D03*
D15*
X191770000Y-152400000D03*
X193040000Y-152400000D03*
%TD*%
D14*
%TO.C,Q3*%
X198120000Y-152400000D03*
D15*
X199390000Y-152400000D03*
X200660000Y-152400000D03*
%TD*%
D14*
%TO.C,Q2*%
X205740000Y-152400000D03*
D15*
X207010000Y-152400000D03*
X208280000Y-152400000D03*
%TD*%
D14*
%TO.C,Q1*%
X213360000Y-152400000D03*
D15*
X214630000Y-152400000D03*
X215900000Y-152400000D03*
%TD*%
D13*
%TO.C,J3*%
X148590000Y-58358500D03*
X146050000Y-58358500D03*
X143510000Y-58358500D03*
X140970000Y-58358500D03*
X138430000Y-58358500D03*
X135890000Y-58358500D03*
X148590000Y-60898500D03*
X146050000Y-60898500D03*
X143510000Y-60898500D03*
X140970000Y-60898500D03*
X138430000Y-60898500D03*
X135890000Y-60898500D03*
%TD*%
%TO.C,J2*%
X134620000Y-78740000D03*
X134620000Y-81280000D03*
X134620000Y-83820000D03*
X134620000Y-86360000D03*
X134620000Y-88900000D03*
X134620000Y-91440000D03*
X134620000Y-93980000D03*
X134620000Y-96520000D03*
X134620000Y-99060000D03*
X134620000Y-101600000D03*
X134620000Y-104140000D03*
X134620000Y-106680000D03*
X134620000Y-109220000D03*
X134620000Y-111760000D03*
X134620000Y-114300000D03*
X134620000Y-116840000D03*
X134620000Y-119380000D03*
X134620000Y-121920000D03*
X134620000Y-124460000D03*
X134620000Y-127000000D03*
X134620000Y-129540000D03*
X134620000Y-132080000D03*
X134620000Y-134620000D03*
X134620000Y-137160000D03*
X149860000Y-137160000D03*
X149860000Y-134620000D03*
X149860000Y-132080000D03*
X149860000Y-129540000D03*
X149860000Y-127000000D03*
X149860000Y-124460000D03*
X149860000Y-121920000D03*
X149860000Y-119380000D03*
X149860000Y-116840000D03*
X149860000Y-114300000D03*
X149860000Y-111760000D03*
X149860000Y-109220000D03*
X149860000Y-106680000D03*
X149860000Y-104140000D03*
X149860000Y-101600000D03*
X149860000Y-99060000D03*
X149860000Y-96520000D03*
X149860000Y-93980000D03*
X149860000Y-91440000D03*
X149860000Y-88900000D03*
X149860000Y-86360000D03*
X149860000Y-83820000D03*
X149860000Y-81280000D03*
X149860000Y-78740000D03*
%TD*%
%TO.C,J1*%
X231140000Y-83820000D03*
X231140000Y-86360000D03*
X231140000Y-88900000D03*
X231140000Y-91440000D03*
X231140000Y-93980000D03*
X231140000Y-96520000D03*
X231140000Y-99060000D03*
X231140000Y-101600000D03*
X231140000Y-104140000D03*
X231140000Y-106680000D03*
X231140000Y-109220000D03*
X231140000Y-111760000D03*
X231140000Y-114300000D03*
X231140000Y-116840000D03*
X231140000Y-119380000D03*
X231140000Y-121920000D03*
X231140000Y-124460000D03*
X231140000Y-127000000D03*
X231140000Y-129540000D03*
X231140000Y-132080000D03*
X246380000Y-132080000D03*
X246380000Y-129540000D03*
X246380000Y-127000000D03*
X246380000Y-124460000D03*
X246380000Y-121920000D03*
X246380000Y-119380000D03*
X246380000Y-116840000D03*
X246380000Y-114300000D03*
X246380000Y-111760000D03*
X246380000Y-109220000D03*
X246380000Y-106680000D03*
X246380000Y-104140000D03*
X246380000Y-101600000D03*
X246380000Y-99060000D03*
X246380000Y-96520000D03*
X246380000Y-93980000D03*
X246380000Y-91440000D03*
X246380000Y-88900000D03*
X246380000Y-86360000D03*
X246380000Y-83820000D03*
%TD*%
D10*
%TO.C,C8*%
X223520000Y-124460000D03*
D11*
X223520000Y-134460000D03*
%TD*%
D10*
%TO.C,C7*%
X193040000Y-68580000D03*
D11*
X183040000Y-68580000D03*
%TD*%
D10*
%TO.C,C6*%
X215900000Y-68580000D03*
D11*
X205900000Y-68580000D03*
%TD*%
D10*
%TO.C,C5*%
X215900000Y-104140000D03*
D11*
X205900000Y-104140000D03*
%TD*%
D10*
%TO.C,C4*%
X193040000Y-104140000D03*
D11*
X183040000Y-104140000D03*
%TD*%
D10*
%TO.C,C3*%
X170180000Y-86360000D03*
D11*
X160180000Y-86360000D03*
%TD*%
D10*
%TO.C,C1*%
X236300000Y-139700000D03*
D11*
X246300000Y-139700000D03*
%TD*%
M02*
