M48
; DRILL file {KiCad 7.0.9} date Sat Aug 31 17:16:02 2024
; FORMAT={-:-/ absolute / inch / decimal}
; #@! TF.CreationDate,2024-08-31T17:16:02-06:00
; #@! TF.GenerationSoftware,Kicad,Pcbnew,7.0.9
; #@! TF.FileFunction,Plated,1,4,PTH
FMAT,2
INCH
; #@! TA.AperFunction,Plated,PTH,ViaDrill
T1C0.0157
; #@! TA.AperFunction,Plated,PTH,ComponentDrill
T2C0.0300
; #@! TA.AperFunction,Plated,PTH,ComponentDrill
T3C0.0394
; #@! TA.AperFunction,Plated,PTH,ComponentDrill
T4C0.0400
%
G90
G05
T1
X4.255Y-4.1
X4.56Y-3.7
X4.56Y-4.325
X4.59Y-1.8
X4.59Y-2.14
X4.595Y-3.6
X4.595Y-4.295
X4.635Y-3.5
X4.635Y-4.265
X4.64Y-1.9
X4.64Y-2.175
X4.67Y-3.4
X4.67Y-4.235
X4.705Y-2.9
X4.705Y-3.56
X4.735Y-2.8
X4.735Y-3.53
X4.775Y-3.1
X4.775Y-3.455
X4.81Y-3.0
X4.81Y-3.415
X4.845Y-2.5
X4.845Y-3.055
X4.875Y-2.4
X4.875Y-3.02
X4.905Y-2.7
X4.905Y-2.975
X4.92Y-2.0
X4.92Y-2.345
X4.935Y-2.6
X4.935Y-2.94
X4.955Y-2.1
X4.955Y-2.375
X4.985Y-2.2
X4.985Y-2.445
X5.525Y-2.255
X5.525Y-3.335
X5.555Y-3.91
X5.595Y-1.925
X5.595Y-2.0
X5.615Y-4.155
X5.62Y-2.755
X5.62Y-3.1
X5.62Y-3.175
X5.62Y-3.23
X5.62Y-3.3
X5.63Y-3.4
X5.655Y-2.7
X5.655Y-2.785
X5.655Y-2.87
X5.655Y-3.0
X5.655Y-3.14
X5.66Y-3.25
X5.66Y-4.0
X5.665Y-4.125
X5.7Y-2.9
X5.705Y-3.28
X5.71Y-4.03
X5.71Y-4.235
X5.73Y-2.745
X5.73Y-3.13
X5.75Y-4.06
X5.75Y-4.265
X5.755Y-3.305
X5.755Y-3.7
X5.785Y-4.08
X5.785Y-4.295
X5.805Y-2.755
X5.805Y-3.14
X5.81Y-3.245
X5.81Y-3.63
X5.825Y-4.1
X5.825Y-4.325
X5.835Y-4.56
X5.84Y-2.675
X5.84Y-2.785
X5.87Y-1.8026
X5.87Y-2.1
X5.87Y-2.81
X5.88Y-2.705
X5.88Y-2.905
X5.88Y-3.17
X5.905Y-1.9926
X5.905Y-2.2
X5.915Y-2.6
X5.915Y-2.75
X5.92Y-2.925
X5.92Y-3.185
X5.94Y-2.5
X5.94Y-2.56
X5.945Y-2.1826
X5.945Y-2.3
X5.955Y-3.205
X5.97Y-2.93
X5.975Y-1.875
X5.975Y-2.065
X5.975Y-2.255
X5.975Y-2.445
X5.975Y-2.635
X5.975Y-2.825
X5.995Y-2.975
X5.995Y-3.15
X5.995Y-3.28
X5.995Y-3.375
X5.995Y-3.595
X5.995Y-4.175
X6.045Y-4.41
X6.125Y-3.21
X6.13Y-2.98
X6.13Y-3.44
X6.18Y-3.125
X6.18Y-3.345
X6.18Y-3.585
X6.21Y-2.965
X6.21Y-3.195
X6.21Y-3.43
X6.28Y-1.84
X6.28Y-2.03
X6.28Y-2.22
X6.28Y-2.41
X6.28Y-2.6
X6.28Y-2.79
X6.29Y-2.98
X6.29Y-3.21
X6.29Y-3.44
X6.35Y-2.7
X6.35Y-3.26
X6.39Y-3.03
X6.39Y-3.25
X6.4Y-2.85
X6.425Y-2.745
X6.44Y-1.925
X6.44Y-2.055
X6.44Y-2.86
X6.44Y-3.06
X6.44Y-3.39
X6.455Y-2.775
X6.47Y-1.895
X6.47Y-2.09
X6.5Y-2.38
X6.5Y-2.42
X6.5Y-2.46
X6.51Y-1.75
X6.51Y-2.105
X6.515Y-2.84
X6.515Y-2.99
X6.52Y-3.54
X6.52Y-3.6
X6.56Y-3.46
X6.56Y-3.52
X6.59Y-3.31
X6.59Y-3.57
X6.615Y-2.87
X6.615Y-3.06
X6.635Y-2.355
X6.635Y-2.475
X6.64Y-3.21
X6.64Y-3.28
X6.65Y-3.03
X6.65Y-3.12
X6.65Y-3.41
X6.65Y-3.47
X6.65Y-3.71
X6.655Y-3.98
X6.665Y-3.35
X6.67Y-3.155
X6.67Y-3.56
X6.675Y-2.325
X6.675Y-2.445
X6.705Y-2.165
X6.705Y-2.41
X6.705Y-3.855
X6.705Y-4.125
X6.725Y-2.99
X6.735Y-3.705
X6.735Y-3.975
X6.75Y-2.025
X6.755Y-2.37
X6.77Y-3.23
X6.77Y-3.45
X6.775Y-2.9
X6.775Y-3.05
X6.78Y-3.15
X6.78Y-3.29
X6.78Y-3.39
X6.78Y-3.56
X6.8Y-2.51
X6.805Y-2.155
X6.81Y-3.18
X6.81Y-3.36
X6.815Y-3.08
X6.815Y-3.71
X6.815Y-3.98
X6.83Y-2.0
X6.83Y-2.36
X6.84Y-3.51
X6.84Y-3.6
X6.855Y-2.8
X6.855Y-3.115
X6.86Y-3.865
X6.86Y-4.12
X6.86Y-4.2
X6.88Y-3.4
X6.88Y-3.54
X6.89Y-3.1
X6.89Y-3.21
X6.905Y-2.37
X6.91Y-2.025
X6.925Y-2.84
X6.925Y-3.05
X6.94Y-2.17
X6.94Y-2.535
X6.94Y-3.79
X6.94Y-3.9
X6.96Y-3.0
X6.96Y-3.26
X6.98Y-3.6
X6.98Y-4.03
X6.99Y-2.3
X6.99Y-2.39
X6.99Y-2.49
X6.99Y-2.6
X6.99Y-3.2
X6.99Y-3.43
X7.05Y-2.12
X7.11Y-3.75
X7.11Y-4.0
X7.205Y-4.58
X7.25Y-2.45
X7.25Y-2.63
X7.28Y-4.67
X7.335Y-2.55
X7.335Y-2.645
X7.43Y-4.58
X7.46Y-3.96
X7.52Y-2.67
X7.52Y-3.35
X7.52Y-3.54
X7.52Y-3.73
X7.585Y-4.48
X7.62Y-2.63
X7.62Y-2.82
X7.62Y-3.01
X7.62Y-3.2
X7.62Y-3.39
X7.62Y-3.58
X7.62Y-3.77
X7.62Y-3.96
X7.675Y-2.665
X7.675Y-2.855
X7.675Y-3.045
X7.675Y-3.235
X7.675Y-3.425
X7.675Y-3.615
X7.675Y-3.805
X7.675Y-3.995
X7.675Y-4.41
X7.71Y-3.545
X7.71Y-4.21
X7.73Y-3.355
X7.73Y-4.175
X7.78Y-3.39
X7.78Y-3.77
X7.78Y-3.98
X7.7804Y-3.5804
X7.85Y-2.02
X7.85Y-2.1
X7.89Y-3.2
X7.89Y-3.355
X7.89Y-3.545
X7.89Y-3.73
X7.89Y-3.945
X7.9Y-2.01
X7.9Y-2.2
X7.94Y-1.97
X7.94Y-2.3
X8.06Y-3.8
X8.06Y-4.07
X8.13Y-3.6
X8.13Y-3.85
X8.13Y-3.9
X8.13Y-4.1
X8.155Y-2.85
X8.18Y-4.0
X8.18Y-4.13
T2
X4.5Y-1.8
X4.5Y-1.9
X4.5Y-2.0
X4.5Y-2.1
X4.5Y-2.2
X4.5Y-2.3
X4.5Y-2.4
X4.5Y-2.5
X4.5Y-2.6
X4.5Y-2.7
X4.5Y-2.8
X4.5Y-2.9
X4.5Y-3.0
X4.5Y-3.1
X4.5Y-3.2
X4.5Y-3.3
X4.5Y-3.4
X4.5Y-3.5
X4.5Y-3.6
X4.5Y-3.7
X4.5Y-3.8
X4.5Y-3.9
X4.5Y-4.0
X4.5Y-4.1
X5.1Y-1.8
X5.1Y-1.9
X5.1Y-2.0
X5.1Y-2.1
X5.1Y-2.2
X5.1Y-2.3
X5.1Y-2.4
X5.1Y-2.5
X5.1Y-2.6
X5.1Y-2.7
X5.1Y-2.8
X5.1Y-2.9
X5.1Y-3.0
X5.1Y-3.1
X5.1Y-3.2
X5.1Y-3.3
X5.1Y-3.4
X5.1Y-3.5
X5.1Y-3.6
X5.1Y-3.7
X5.1Y-3.8
X5.1Y-3.9
X5.1Y-4.0
X5.1Y-4.1
X5.995Y-4.48
X5.995Y-4.58
X6.095Y-4.48
X6.095Y-4.58
X6.195Y-4.48
X6.195Y-4.58
X6.295Y-4.48
X6.295Y-4.58
X6.395Y-4.48
X6.395Y-4.58
X6.495Y-4.48
X6.495Y-4.58
X7.4Y-2.1
X7.4Y-2.2
X7.4Y-2.3
X7.4Y-2.4
X7.4Y-2.5
X7.4Y-2.6
X7.4Y-2.7
X7.4Y-2.8
X7.4Y-2.9
X7.4Y-3.0
X7.4Y-3.1
X7.4Y-3.2
X7.4Y-3.3
X7.4Y-3.4
X7.4Y-3.5
X7.4Y-3.6
X7.4Y-3.7
X7.4Y-3.8
X7.4Y-3.9
X7.4Y-4.0
X8.0Y-2.1
X8.0Y-2.2
X8.0Y-2.3
X8.0Y-2.4
X8.0Y-2.5
X8.0Y-2.6
X8.0Y-2.7
X8.0Y-2.8
X8.0Y-2.9
X8.0Y-3.0
X8.0Y-3.1
X8.0Y-3.2
X8.0Y-3.3
X8.0Y-3.4
X8.0Y-3.5
X8.0Y-3.6
X8.0Y-3.7
X8.0Y-3.8
X8.0Y-3.9
X8.0Y-4.0
T3
X6.72Y-4.33
X6.82Y-4.33
X6.92Y-4.33
T4
X4.15Y-1.8
X4.15Y-1.9
X4.15Y-2.0
X4.15Y-2.1
X4.15Y-2.2
X4.15Y-2.3
X4.15Y-2.4
X4.15Y-2.5
X4.15Y-2.6
X4.15Y-2.7
X4.15Y-2.8
X4.15Y-2.9
X4.15Y-3.0
X4.15Y-3.1
X4.15Y-3.4
X4.15Y-3.5
X4.15Y-3.6
X4.15Y-3.7
X4.15Y-3.8
X4.15Y-3.9
X4.15Y-4.0
X5.45Y-1.8
X5.45Y-1.9
X5.45Y-2.0
X5.45Y-2.1
X5.45Y-2.2
X5.45Y-2.3
X5.45Y-2.4
X5.45Y-2.5
X5.45Y-2.6
X5.45Y-2.7
X5.45Y-2.8
X5.45Y-2.9
X5.45Y-3.0
X5.45Y-3.1
X5.45Y-3.2
X5.45Y-3.3
X5.45Y-3.4
X5.45Y-3.5
X5.45Y-3.6
X5.45Y-3.7
X5.45Y-3.8
X5.45Y-3.9
X5.45Y-4.0
X5.45Y-4.1
X5.6561Y-1.8
X5.995Y-4.32
X5.995Y-4.73
X6.095Y-4.32
X6.095Y-4.73
X6.15Y-4.21
X6.195Y-4.32
X6.195Y-4.73
X6.295Y-4.32
X6.295Y-4.73
X6.495Y-4.21
X6.615Y-1.8
X7.01Y-1.8
X7.05Y-2.2
X7.05Y-2.3
X7.05Y-2.4
X7.05Y-2.5
X7.05Y-2.6
X7.05Y-2.7
X7.05Y-2.8
X7.05Y-2.9
X7.05Y-3.0
X7.05Y-3.1
X7.05Y-3.2
X7.05Y-3.3
X7.05Y-3.4
X7.05Y-3.5
X7.05Y-3.6
X7.05Y-3.8
X7.05Y-3.9
X7.05Y-4.0
X7.4Y-4.48
X8.005Y-4.48
X8.35Y-2.1
X8.35Y-2.2
X8.35Y-2.3
X8.35Y-2.4
X8.35Y-2.5
X8.35Y-2.6
X8.35Y-2.7
X8.35Y-2.8
X8.35Y-2.9
X8.35Y-3.0
X8.35Y-3.1
X8.35Y-3.2
X8.35Y-3.3
X8.35Y-3.4
X8.35Y-3.5
X8.35Y-3.6
X8.35Y-3.7
X8.35Y-3.8
X8.35Y-3.9
X8.35Y-4.0
T0
M30
