%TF.GenerationSoftware,KiCad,Pcbnew,7.0.9*%
%TF.CreationDate,2024-08-31T17:15:55-06:00*%
%TF.ProjectId,Prototype1,50726f74-6f74-4797-9065-312e6b696361,rev?*%
%TF.SameCoordinates,Original*%
%TF.FileFunction,Paste,Top*%
%TF.FilePolarity,Positive*%
%FSLAX46Y46*%
G04 Gerber Fmt 4.6, Leading zero omitted, Abs format (unit mm)*
G04 Created by KiCad (PCBNEW 7.0.9) date 2024-08-31 17:15:55*
%MOMM*%
%LPD*%
G01*
G04 APERTURE LIST*
G04 Aperture macros list*
%AMRoundRect*
0 Rectangle with rounded corners*
0 $1 Rounding radius*
0 $2 $3 $4 $5 $6 $7 $8 $9 X,Y pos of 4 corners*
0 Add a 4 corners polygon primitive as box body*
4,1,4,$2,$3,$4,$5,$6,$7,$8,$9,$2,$3,0*
0 Add four circle primitives for the rounded corners*
1,1,$1+$1,$2,$3*
1,1,$1+$1,$4,$5*
1,1,$1+$1,$6,$7*
1,1,$1+$1,$8,$9*
0 Add four rect primitives between the rounded corners*
20,1,$1+$1,$2,$3,$4,$5,0*
20,1,$1+$1,$4,$5,$6,$7,0*
20,1,$1+$1,$6,$7,$8,$9,0*
20,1,$1+$1,$8,$9,$2,$3,0*%
G04 Aperture macros list end*
%ADD10RoundRect,0.140000X0.170000X-0.140000X0.170000X0.140000X-0.170000X0.140000X-0.170000X-0.140000X0*%
%ADD11RoundRect,0.150000X-0.512500X-0.150000X0.512500X-0.150000X0.512500X0.150000X-0.512500X0.150000X0*%
%ADD12RoundRect,0.140000X0.140000X0.170000X-0.140000X0.170000X-0.140000X-0.170000X0.140000X-0.170000X0*%
%ADD13RoundRect,0.135000X0.135000X0.185000X-0.135000X0.185000X-0.135000X-0.185000X0.135000X-0.185000X0*%
%ADD14R,0.203200X0.660400*%
%ADD15R,0.660400X0.203200*%
%ADD16RoundRect,0.150000X0.512500X0.150000X-0.512500X0.150000X-0.512500X-0.150000X0.512500X-0.150000X0*%
%ADD17RoundRect,0.250000X-0.250000X-0.475000X0.250000X-0.475000X0.250000X0.475000X-0.250000X0.475000X0*%
%ADD18C,0.304800*%
%ADD19RoundRect,0.140000X-0.140000X-0.170000X0.140000X-0.170000X0.140000X0.170000X-0.140000X0.170000X0*%
%ADD20RoundRect,0.135000X-0.185000X0.135000X-0.185000X-0.135000X0.185000X-0.135000X0.185000X0.135000X0*%
%ADD21R,2.000000X3.800000*%
%ADD22R,2.000000X1.500000*%
G04 APERTURE END LIST*
D10*
%TO.C,C16*%
X174498000Y-60198000D03*
X174498000Y-59238000D03*
%TD*%
%TO.C,C7*%
X156718000Y-81534000D03*
X156718000Y-80574000D03*
%TD*%
D11*
%TO.C,Q4*%
X153173000Y-60264000D03*
X153173000Y-62164000D03*
X155448000Y-61214000D03*
%TD*%
D12*
%TO.C,C17*%
X110109000Y-104140000D03*
X109149000Y-104140000D03*
%TD*%
D13*
%TO.C,R1*%
X158496000Y-46736000D03*
X157476000Y-46736000D03*
%TD*%
D14*
%TO.C,U10*%
X157921300Y-76787299D03*
X157521300Y-76787299D03*
D15*
X156946600Y-76962000D03*
X156946600Y-77361999D03*
X156946600Y-77761999D03*
X156946600Y-78161998D03*
D14*
X157521300Y-78336699D03*
X157921300Y-78336699D03*
D15*
X158496000Y-78161998D03*
X158496000Y-77761999D03*
X158496000Y-77361999D03*
X158496000Y-76962000D03*
%TD*%
D10*
%TO.C,C11*%
X156718000Y-87376000D03*
X156718000Y-86416000D03*
%TD*%
D16*
%TO.C,Q13*%
X193537000Y-67752000D03*
X193537000Y-65852000D03*
X191262000Y-66802000D03*
%TD*%
D17*
%TO.C,C24*%
X185044000Y-116332000D03*
X186944000Y-116332000D03*
%TD*%
D11*
%TO.C,Q5*%
X153173000Y-65090000D03*
X153173000Y-66990000D03*
X155448000Y-66040000D03*
%TD*%
D13*
%TO.C,R2*%
X158496000Y-51562000D03*
X157476000Y-51562000D03*
%TD*%
D16*
%TO.C,Q14*%
X193537000Y-72578000D03*
X193537000Y-70678000D03*
X191262000Y-71628000D03*
%TD*%
D14*
%TO.C,U2*%
X173669300Y-61274300D03*
X173269300Y-61274300D03*
D15*
X172694600Y-61449001D03*
X172694600Y-61849000D03*
X172694600Y-62249000D03*
X172694600Y-62648999D03*
D14*
X173269300Y-62823700D03*
X173669300Y-62823700D03*
D15*
X174244000Y-62648999D03*
X174244000Y-62249000D03*
X174244000Y-61849000D03*
X174244000Y-61449001D03*
%TD*%
D10*
%TO.C,C22*%
X172466000Y-51054000D03*
X172466000Y-50094000D03*
%TD*%
D16*
%TO.C,Q8*%
X193537000Y-101534000D03*
X193537000Y-99634000D03*
X191262000Y-100584000D03*
%TD*%
%TO.C,Q7*%
X193537000Y-87056000D03*
X193537000Y-85156000D03*
X191262000Y-86106000D03*
%TD*%
D10*
%TO.C,C9*%
X172466000Y-60198000D03*
X172466000Y-59238000D03*
%TD*%
D18*
%TO.C,U11*%
X170315000Y-77240000D03*
X170815000Y-77240000D03*
X170315000Y-77740000D03*
X170815000Y-77740000D03*
X170315000Y-78240000D03*
X170815000Y-78240000D03*
X170315000Y-78740000D03*
X170815000Y-78740000D03*
%TD*%
D19*
%TO.C,C23*%
X190274000Y-113792000D03*
X191234000Y-113792000D03*
%TD*%
D16*
%TO.C,Q10*%
X193537000Y-91882000D03*
X193537000Y-89982000D03*
X191262000Y-90932000D03*
%TD*%
D14*
%TO.C,U12*%
X157921300Y-82445301D03*
X157521300Y-82445301D03*
D15*
X156946600Y-82620002D03*
X156946600Y-83020001D03*
X156946600Y-83420001D03*
X156946600Y-83820000D03*
D14*
X157521300Y-83994701D03*
X157921300Y-83994701D03*
D15*
X158496000Y-83820000D03*
X158496000Y-83420001D03*
X158496000Y-83020001D03*
X158496000Y-82620002D03*
%TD*%
D19*
%TO.C,C20*%
X170307000Y-85217000D03*
X171267000Y-85217000D03*
%TD*%
D10*
%TO.C,C14*%
X158750000Y-81534000D03*
X158750000Y-80574000D03*
%TD*%
D14*
%TO.C,U6*%
X145796000Y-80746600D03*
X145396000Y-80746600D03*
D15*
X144821300Y-80921301D03*
X144821300Y-81321300D03*
X144821300Y-81721300D03*
X144821300Y-82121299D03*
D14*
X145396000Y-82296000D03*
X145796000Y-82296000D03*
D15*
X146370700Y-82121299D03*
X146370700Y-81721300D03*
X146370700Y-81321300D03*
X146370700Y-80921301D03*
%TD*%
D11*
%TO.C,Q16*%
X197623000Y-94808000D03*
X197623000Y-96708000D03*
X199898000Y-95758000D03*
%TD*%
D14*
%TO.C,U1*%
X173669300Y-52092301D03*
X173269300Y-52092301D03*
D15*
X172694600Y-52267002D03*
X172694600Y-52667001D03*
X172694600Y-53067001D03*
X172694600Y-53467000D03*
D14*
X173269300Y-53641701D03*
X173669300Y-53641701D03*
D15*
X174244000Y-53467000D03*
X174244000Y-53067001D03*
X174244000Y-52667001D03*
X174244000Y-52267002D03*
%TD*%
D20*
%TO.C,R7*%
X148209000Y-113788000D03*
X148209000Y-114808000D03*
%TD*%
D13*
%TO.C,R4*%
X158500000Y-61214000D03*
X157480000Y-61214000D03*
%TD*%
%TO.C,R3*%
X158500000Y-56388000D03*
X157480000Y-56388000D03*
%TD*%
D10*
%TO.C,C10*%
X174498000Y-51054000D03*
X174498000Y-50094000D03*
%TD*%
%TO.C,C13*%
X158750000Y-75692000D03*
X158750000Y-74732000D03*
%TD*%
%TO.C,C2*%
X172085000Y-101036000D03*
X172085000Y-100076000D03*
%TD*%
D18*
%TO.C,U9*%
X170315000Y-82550000D03*
X170815000Y-82550000D03*
X170315000Y-83050000D03*
X170815000Y-83050000D03*
X170315000Y-83550000D03*
X170815000Y-83550000D03*
X170315000Y-84050000D03*
X170815000Y-84050000D03*
%TD*%
D10*
%TO.C,C15*%
X144526000Y-79756000D03*
X144526000Y-78796000D03*
%TD*%
%TO.C,C12*%
X158750000Y-87376000D03*
X158750000Y-86416000D03*
%TD*%
%TO.C,C4*%
X172085000Y-94234000D03*
X172085000Y-93274000D03*
%TD*%
%TO.C,C8*%
X146558000Y-79756000D03*
X146558000Y-78796000D03*
%TD*%
%TO.C,C1*%
X170053000Y-101036000D03*
X170053000Y-100076000D03*
%TD*%
D14*
%TO.C,U8*%
X157921300Y-88541301D03*
X157521300Y-88541301D03*
D15*
X156946600Y-88716002D03*
X156946600Y-89116001D03*
X156946600Y-89516001D03*
X156946600Y-89916000D03*
D14*
X157521300Y-90090701D03*
X157921300Y-90090701D03*
D15*
X158496000Y-89916000D03*
X158496000Y-89516001D03*
X158496000Y-89116001D03*
X158496000Y-88716002D03*
%TD*%
D11*
%TO.C,Q3*%
X153173000Y-55438000D03*
X153173000Y-57338000D03*
X155448000Y-56388000D03*
%TD*%
D10*
%TO.C,C19*%
X156718000Y-75692000D03*
X156718000Y-74732000D03*
%TD*%
D13*
%TO.C,R6*%
X158500000Y-70866000D03*
X157480000Y-70866000D03*
%TD*%
D19*
%TO.C,C18*%
X170307000Y-79883000D03*
X171267000Y-79883000D03*
%TD*%
D11*
%TO.C,Q17*%
X197623000Y-85222000D03*
X197623000Y-87122000D03*
X199898000Y-86172000D03*
%TD*%
D16*
%TO.C,Q9*%
X193537000Y-96708000D03*
X193537000Y-94808000D03*
X191262000Y-95758000D03*
%TD*%
D13*
%TO.C,R5*%
X158500000Y-66040000D03*
X157480000Y-66040000D03*
%TD*%
D16*
%TO.C,Q12*%
X193537000Y-82230000D03*
X193537000Y-80330000D03*
X191262000Y-81280000D03*
%TD*%
D14*
%TO.C,U3*%
X171256300Y-102187299D03*
X170856300Y-102187299D03*
D15*
X170281600Y-102362000D03*
X170281600Y-102761999D03*
X170281600Y-103161999D03*
X170281600Y-103561998D03*
D14*
X170856300Y-103736699D03*
X171256300Y-103736699D03*
D15*
X171831000Y-103561998D03*
X171831000Y-103161999D03*
X171831000Y-102761999D03*
X171831000Y-102362000D03*
%TD*%
D11*
%TO.C,Q1*%
X153173000Y-45786000D03*
X153173000Y-47686000D03*
X155448000Y-46736000D03*
%TD*%
%TO.C,Q6*%
X153173000Y-69916000D03*
X153173000Y-71816000D03*
X155448000Y-70866000D03*
%TD*%
%TO.C,Q2*%
X153173000Y-50612000D03*
X153173000Y-52512000D03*
X155448000Y-51562000D03*
%TD*%
D21*
%TO.C,U13*%
X173380000Y-116332000D03*
D22*
X179680000Y-118632000D03*
X179680000Y-116332000D03*
X179680000Y-114032000D03*
%TD*%
D19*
%TO.C,C21*%
X170307000Y-90551000D03*
X171267000Y-90551000D03*
%TD*%
D10*
%TO.C,C5*%
X144653000Y-69977000D03*
X144653000Y-69017000D03*
%TD*%
D16*
%TO.C,Q11*%
X193537000Y-77404000D03*
X193537000Y-75504000D03*
X191262000Y-76454000D03*
%TD*%
D18*
%TO.C,U7*%
X170315000Y-87884000D03*
X170815000Y-87884000D03*
X170315000Y-88384000D03*
X170815000Y-88384000D03*
X170315000Y-88884000D03*
X170815000Y-88884000D03*
X170315000Y-89384000D03*
X170815000Y-89384000D03*
%TD*%
D14*
%TO.C,U4*%
X171269000Y-95329299D03*
X170869000Y-95329299D03*
D15*
X170294300Y-95504000D03*
X170294300Y-95903999D03*
X170294300Y-96303999D03*
X170294300Y-96703998D03*
D14*
X170869000Y-96878699D03*
X171269000Y-96878699D03*
D15*
X171843700Y-96703998D03*
X171843700Y-96303999D03*
X171843700Y-95903999D03*
X171843700Y-95504000D03*
%TD*%
D11*
%TO.C,Q18*%
X197623000Y-90048000D03*
X197623000Y-91948000D03*
X199898000Y-90998000D03*
%TD*%
D10*
%TO.C,C6*%
X146431000Y-69977000D03*
X146431000Y-69017000D03*
%TD*%
D11*
%TO.C,Q15*%
X197623000Y-100142000D03*
X197623000Y-102042000D03*
X199898000Y-101092000D03*
%TD*%
D14*
%TO.C,U5*%
X145742000Y-71015301D03*
X145342000Y-71015301D03*
D15*
X144767300Y-71190002D03*
X144767300Y-71590001D03*
X144767300Y-71990001D03*
X144767300Y-72390000D03*
D14*
X145342000Y-72564701D03*
X145742000Y-72564701D03*
D15*
X146316700Y-72390000D03*
X146316700Y-71990001D03*
X146316700Y-71590001D03*
X146316700Y-71190002D03*
%TD*%
D10*
%TO.C,C3*%
X170053000Y-94234000D03*
X170053000Y-93274000D03*
%TD*%
M02*
