%TF.GenerationSoftware,KiCad,Pcbnew,7.0.9*%
%TF.CreationDate,2024-08-31T17:15:55-06:00*%
%TF.ProjectId,Prototype1,50726f74-6f74-4797-9065-312e6b696361,rev?*%
%TF.SameCoordinates,Original*%
%TF.FileFunction,Soldermask,Bot*%
%TF.FilePolarity,Negative*%
%FSLAX46Y46*%
G04 Gerber Fmt 4.6, Leading zero omitted, Abs format (unit mm)*
G04 Created by KiCad (PCBNEW 7.0.9) date 2024-08-31 17:15:55*
%MOMM*%
%LPD*%
G01*
G04 APERTURE LIST*
%ADD10C,1.524000*%
%ADD11R,1.700000X1.700000*%
%ADD12O,1.700000X1.700000*%
G04 APERTURE END LIST*
D10*
%TO.C,TP71*%
X138430000Y-73660000D03*
%TD*%
%TO.C,TP12*%
X179070000Y-83820000D03*
%TD*%
%TO.C,TP93*%
X154813000Y-109728000D03*
%TD*%
%TO.C,TP65*%
X138430000Y-88900000D03*
%TD*%
%TO.C,TP54*%
X105410000Y-88900000D03*
%TD*%
%TO.C,TP51*%
X105410000Y-76200000D03*
%TD*%
%TO.C,TP68*%
X138430000Y-81280000D03*
%TD*%
%TO.C,TP50*%
X105410000Y-73660000D03*
%TD*%
%TO.C,TP63*%
X138430000Y-93980000D03*
%TD*%
%TO.C,TP84*%
X143665000Y-45720000D03*
%TD*%
%TO.C,TP48*%
X105410000Y-68580000D03*
%TD*%
%TO.C,TP69*%
X138430000Y-78740000D03*
%TD*%
%TO.C,TP7*%
X179070000Y-71120000D03*
%TD*%
%TO.C,TP66*%
X138430000Y-86360000D03*
%TD*%
%TO.C,TP17*%
X179070000Y-99060000D03*
%TD*%
%TO.C,TP42*%
X105410000Y-53340000D03*
%TD*%
D11*
%TO.C,J1*%
X170688000Y-109982000D03*
D12*
X173228000Y-109982000D03*
X175768000Y-109982000D03*
%TD*%
D10*
%TO.C,TP31*%
X212090000Y-83820000D03*
%TD*%
%TO.C,TP82*%
X138430000Y-45720000D03*
%TD*%
%TO.C,TP43*%
X105410000Y-55880000D03*
%TD*%
%TO.C,TP74*%
X138430000Y-66040000D03*
%TD*%
%TO.C,TP5*%
X179070000Y-66040000D03*
%TD*%
%TO.C,TP87*%
X178054000Y-45720000D03*
%TD*%
%TO.C,TP21*%
X212090000Y-58420000D03*
%TD*%
%TO.C,TP11*%
X179070000Y-81280000D03*
%TD*%
%TO.C,TP15*%
X179070000Y-91440000D03*
%TD*%
%TO.C,TP16*%
X179070000Y-96520000D03*
%TD*%
%TO.C,TP10*%
X179070000Y-78740000D03*
%TD*%
%TO.C,TP4*%
X179070000Y-63500000D03*
%TD*%
%TO.C,TP58*%
X105410000Y-99060000D03*
%TD*%
%TO.C,TP1*%
X179070000Y-55880000D03*
%TD*%
%TO.C,TP27*%
X212090000Y-73660000D03*
%TD*%
%TO.C,TP24*%
X212090000Y-66040000D03*
%TD*%
%TO.C,TP70*%
X138430000Y-76200000D03*
%TD*%
%TO.C,TP86*%
X203327000Y-113792000D03*
%TD*%
%TO.C,TP92*%
X157353000Y-109728000D03*
%TD*%
%TO.C,TP9*%
X179070000Y-76200000D03*
%TD*%
%TO.C,TP14*%
X179070000Y-88900000D03*
%TD*%
%TO.C,TP20*%
X212090000Y-55880000D03*
%TD*%
%TO.C,TP40*%
X105410000Y-48260000D03*
%TD*%
%TO.C,TP33*%
X212090000Y-88900000D03*
%TD*%
%TO.C,TP46*%
X105410000Y-63500000D03*
%TD*%
%TO.C,TP36*%
X212090000Y-96520000D03*
%TD*%
%TO.C,TP56*%
X105410000Y-93980000D03*
%TD*%
%TO.C,TP53*%
X105410000Y-86360000D03*
%TD*%
%TO.C,TP59*%
X105410000Y-101600000D03*
%TD*%
%TO.C,TP18*%
X179070000Y-101600000D03*
%TD*%
%TO.C,TP8*%
X179070000Y-73660000D03*
%TD*%
%TO.C,TP28*%
X212090000Y-76200000D03*
%TD*%
%TO.C,TP23*%
X212090000Y-63500000D03*
%TD*%
%TO.C,TP49*%
X105410000Y-71120000D03*
%TD*%
%TO.C,TP19*%
X212090000Y-53340000D03*
%TD*%
%TO.C,TP83*%
X138430000Y-104140000D03*
%TD*%
%TO.C,TP60*%
X138430000Y-101600000D03*
%TD*%
%TO.C,TP41*%
X105410000Y-50800000D03*
%TD*%
%TO.C,TP55*%
X105410000Y-91440000D03*
%TD*%
%TO.C,TP39*%
X105410000Y-45720000D03*
%TD*%
%TO.C,TP61*%
X138430000Y-99060000D03*
%TD*%
%TO.C,TP26*%
X212090000Y-71120000D03*
%TD*%
%TO.C,TP30*%
X212090000Y-81280000D03*
%TD*%
%TO.C,TP90*%
X164973000Y-106934000D03*
%TD*%
%TO.C,TP72*%
X138430000Y-71120000D03*
%TD*%
%TO.C,TP98*%
X152273000Y-109728000D03*
%TD*%
%TO.C,TP95*%
X157353000Y-120142000D03*
%TD*%
%TO.C,TP62*%
X138430000Y-96520000D03*
%TD*%
%TO.C,TP29*%
X212090000Y-78740000D03*
%TD*%
%TO.C,TP3*%
X179070000Y-60960000D03*
%TD*%
%TO.C,TP2*%
X179070000Y-58420000D03*
%TD*%
%TO.C,TP76*%
X138430000Y-60960000D03*
%TD*%
%TO.C,TP94*%
X154813000Y-120142000D03*
%TD*%
%TO.C,TP91*%
X159893000Y-109728000D03*
%TD*%
%TO.C,TP37*%
X212090000Y-99060000D03*
%TD*%
%TO.C,TP47*%
X105410000Y-66040000D03*
%TD*%
%TO.C,J4*%
X187960000Y-53340000D03*
X187960000Y-55880000D03*
X187960000Y-58420000D03*
X187960000Y-60960000D03*
X187960000Y-63500000D03*
X187960000Y-66040000D03*
X187960000Y-68580000D03*
X187960000Y-71120000D03*
X187960000Y-73660000D03*
X187960000Y-76200000D03*
X187960000Y-78740000D03*
X187960000Y-81280000D03*
X187960000Y-83820000D03*
X187960000Y-86360000D03*
X187960000Y-88900000D03*
X187960000Y-91440000D03*
X187960000Y-93980000D03*
X187960000Y-96520000D03*
X187960000Y-99060000D03*
X187960000Y-101600000D03*
X203200000Y-101600000D03*
X203200000Y-99060000D03*
X203200000Y-96520000D03*
X203200000Y-93980000D03*
X203200000Y-91440000D03*
X203200000Y-88900000D03*
X203200000Y-86360000D03*
X203200000Y-83820000D03*
X203200000Y-81280000D03*
X203200000Y-78740000D03*
X203200000Y-76200000D03*
X203200000Y-73660000D03*
X203200000Y-71120000D03*
X203200000Y-68580000D03*
X203200000Y-66040000D03*
X203200000Y-63500000D03*
X203200000Y-60960000D03*
X203200000Y-58420000D03*
X203200000Y-55880000D03*
X203200000Y-53340000D03*
%TD*%
%TO.C,TP38*%
X212090000Y-101600000D03*
%TD*%
%TO.C,TP79*%
X138430000Y-53340000D03*
%TD*%
%TO.C,TP78*%
X138430000Y-55880000D03*
%TD*%
%TO.C,TP80*%
X138430000Y-50800000D03*
%TD*%
%TO.C,J3*%
X152273000Y-116332000D03*
X154813000Y-116332000D03*
X157353000Y-116332000D03*
X159893000Y-116332000D03*
X162433000Y-116332000D03*
X164973000Y-116332000D03*
X152273000Y-113792000D03*
X154813000Y-113792000D03*
X157353000Y-113792000D03*
X159893000Y-113792000D03*
X162433000Y-113792000D03*
X164973000Y-113792000D03*
%TD*%
%TO.C,TP75*%
X138430000Y-63500000D03*
%TD*%
%TO.C,TP57*%
X105410000Y-96520000D03*
%TD*%
%TO.C,TP35*%
X212090000Y-93980000D03*
%TD*%
%TO.C,TP77*%
X138430000Y-58420000D03*
%TD*%
%TO.C,TP25*%
X212090000Y-68580000D03*
%TD*%
%TO.C,TP88*%
X187960000Y-113792000D03*
%TD*%
%TO.C,TP34*%
X212090000Y-91440000D03*
%TD*%
%TO.C,TP73*%
X138430000Y-68580000D03*
%TD*%
%TO.C,TP85*%
X156210000Y-106934000D03*
%TD*%
%TO.C,TP97*%
X152273000Y-120142000D03*
%TD*%
%TO.C,TP22*%
X212090000Y-60960000D03*
%TD*%
%TO.C,J2*%
X114300000Y-45720000D03*
X114300000Y-48260000D03*
X114300000Y-50800000D03*
X114300000Y-53340000D03*
X114300000Y-55880000D03*
X114300000Y-58420000D03*
X114300000Y-60960000D03*
X114300000Y-63500000D03*
X114300000Y-66040000D03*
X114300000Y-68580000D03*
X114300000Y-71120000D03*
X114300000Y-73660000D03*
X114300000Y-76200000D03*
X114300000Y-78740000D03*
X114300000Y-81280000D03*
X114300000Y-83820000D03*
X114300000Y-86360000D03*
X114300000Y-88900000D03*
X114300000Y-91440000D03*
X114300000Y-93980000D03*
X114300000Y-96520000D03*
X114300000Y-99060000D03*
X114300000Y-101600000D03*
X114300000Y-104140000D03*
X129540000Y-104140000D03*
X129540000Y-101600000D03*
X129540000Y-99060000D03*
X129540000Y-96520000D03*
X129540000Y-93980000D03*
X129540000Y-91440000D03*
X129540000Y-88900000D03*
X129540000Y-86360000D03*
X129540000Y-83820000D03*
X129540000Y-81280000D03*
X129540000Y-78740000D03*
X129540000Y-76200000D03*
X129540000Y-73660000D03*
X129540000Y-71120000D03*
X129540000Y-68580000D03*
X129540000Y-66040000D03*
X129540000Y-63500000D03*
X129540000Y-60960000D03*
X129540000Y-58420000D03*
X129540000Y-55880000D03*
X129540000Y-53340000D03*
X129540000Y-50800000D03*
X129540000Y-48260000D03*
X129540000Y-45720000D03*
%TD*%
%TO.C,TP52*%
X105410000Y-78740000D03*
%TD*%
%TO.C,TP64*%
X138430000Y-91440000D03*
%TD*%
%TO.C,TP81*%
X138430000Y-48260000D03*
%TD*%
%TO.C,TP89*%
X168021000Y-45720000D03*
%TD*%
%TO.C,TP96*%
X159893000Y-120142000D03*
%TD*%
%TO.C,TP13*%
X179070000Y-86360000D03*
%TD*%
%TO.C,TP67*%
X138430000Y-83820000D03*
%TD*%
%TO.C,TP6*%
X179070000Y-68580000D03*
%TD*%
%TO.C,TP44*%
X105410000Y-58420000D03*
%TD*%
%TO.C,TP45*%
X105410000Y-60960000D03*
%TD*%
%TO.C,TP32*%
X212090000Y-86360000D03*
%TD*%
M02*
