%TF.GenerationSoftware,KiCad,Pcbnew,7.0.9*%
%TF.CreationDate,2024-08-31T17:15:55-06:00*%
%TF.ProjectId,Prototype1,50726f74-6f74-4797-9065-312e6b696361,rev?*%
%TF.SameCoordinates,Original*%
%TF.FileFunction,Copper,L4,Bot*%
%TF.FilePolarity,Positive*%
%FSLAX46Y46*%
G04 Gerber Fmt 4.6, Leading zero omitted, Abs format (unit mm)*
G04 Created by KiCad (PCBNEW 7.0.9) date 2024-08-31 17:15:55*
%MOMM*%
%LPD*%
G01*
G04 APERTURE LIST*
%TA.AperFunction,ComponentPad*%
%ADD10C,1.524000*%
%TD*%
%TA.AperFunction,ComponentPad*%
%ADD11R,1.700000X1.700000*%
%TD*%
%TA.AperFunction,ComponentPad*%
%ADD12O,1.700000X1.700000*%
%TD*%
%TA.AperFunction,ViaPad*%
%ADD13C,0.800000*%
%TD*%
%TA.AperFunction,Conductor*%
%ADD14C,0.200000*%
%TD*%
%TA.AperFunction,Conductor*%
%ADD15C,0.250000*%
%TD*%
%TA.AperFunction,Conductor*%
%ADD16C,1.270000*%
%TD*%
G04 APERTURE END LIST*
D10*
%TO.P,TP71,1,1*%
%TO.N,_A2*%
X138430000Y-73660000D03*
%TD*%
%TO.P,TP12,1,1*%
%TO.N,P3*%
X179070000Y-83820000D03*
%TD*%
%TO.P,TP93,1,1*%
%TO.N,Net-(J3-JA8)*%
X154813000Y-109728000D03*
%TD*%
%TO.P,TP65,1,1*%
%TO.N,_SOD*%
X138430000Y-88900000D03*
%TD*%
%TO.P,TP54,1,1*%
%TO.N,_~{K0}*%
X105410000Y-88900000D03*
%TD*%
%TO.P,TP51,1,1*%
%TO.N,_P0*%
X105410000Y-76200000D03*
%TD*%
%TO.P,TP68,1,1*%
%TO.N,_CS1*%
X138430000Y-81280000D03*
%TD*%
%TO.P,TP50,1,1*%
%TO.N,_P3*%
X105410000Y-73660000D03*
%TD*%
%TO.P,TP63,1,1*%
%TO.N,_BCLKI*%
X138430000Y-93980000D03*
%TD*%
%TO.P,TP84,1,1*%
%TO.N,GND*%
X143665000Y-45720000D03*
%TD*%
%TO.P,TP48,1,1*%
%TO.N,_P5*%
X105410000Y-68580000D03*
%TD*%
%TO.P,TP69,1,1*%
%TO.N,_R{slash}W*%
X138430000Y-78740000D03*
%TD*%
%TO.P,TP7,1,1*%
%TO.N,P6*%
X179070000Y-71120000D03*
%TD*%
%TO.P,TP66,1,1*%
%TO.N,_~{IRQ}*%
X138430000Y-86360000D03*
%TD*%
%TO.P,TP17,1,1*%
%TO.N,~{K4}*%
X179070000Y-99060000D03*
%TD*%
%TO.P,TP42,1,1*%
%TO.N,_D6*%
X105410000Y-53340000D03*
%TD*%
D11*
%TO.P,J1,1,Pin_1*%
%TO.N,3V3_A*%
X170688000Y-109982000D03*
D12*
%TO.P,J1,2,Pin_2*%
%TO.N,+3.3V*%
X173228000Y-109982000D03*
%TO.P,J1,3,Pin_3*%
%TO.N,3V3_B*%
X175768000Y-109982000D03*
%TD*%
D10*
%TO.P,TP31,1,1*%
%TO.N,SOD*%
X212090000Y-83820000D03*
%TD*%
%TO.P,TP82,1,1*%
%TO.N,_D2*%
X138430000Y-45720000D03*
%TD*%
%TO.P,TP43,1,1*%
%TO.N,_D7*%
X105410000Y-55880000D03*
%TD*%
%TO.P,TP74,1,1*%
%TO.N,_AUDIO5*%
X138430000Y-66040000D03*
%TD*%
%TO.P,TP5,1,1*%
%TO.N,D7*%
X179070000Y-66040000D03*
%TD*%
%TO.P,TP87,1,1*%
%TO.N,+5V*%
X178054000Y-45720000D03*
%TD*%
%TO.P,TP21,1,1*%
%TO.N,D0*%
X212090000Y-58420000D03*
%TD*%
%TO.P,TP11,1,1*%
%TO.N,P2*%
X179070000Y-81280000D03*
%TD*%
%TO.P,TP15,1,1*%
%TO.N,~{KR2}*%
X179070000Y-91440000D03*
%TD*%
%TO.P,TP16,1,1*%
%TO.N,~{K5}*%
X179070000Y-96520000D03*
%TD*%
%TO.P,TP10,1,1*%
%TO.N,P5*%
X179070000Y-78740000D03*
%TD*%
%TO.P,TP4,1,1*%
%TO.N,D6*%
X179070000Y-63500000D03*
%TD*%
%TO.P,TP58,1,1*%
%TO.N,_~{K4}*%
X105410000Y-99060000D03*
%TD*%
%TO.P,TP1,1,1*%
%TO.N,D3*%
X179070000Y-55880000D03*
%TD*%
%TO.P,TP27,1,1*%
%TO.N,R{slash}W*%
X212090000Y-73660000D03*
%TD*%
%TO.P,TP24,1,1*%
%TO.N,A1*%
X212090000Y-66040000D03*
%TD*%
%TO.P,TP70,1,1*%
%TO.N,_A3*%
X138430000Y-76200000D03*
%TD*%
%TO.P,TP86,1,1*%
%TO.N,GND*%
X203327000Y-113792000D03*
%TD*%
%TO.P,TP92,1,1*%
%TO.N,Net-(J3-JA9)*%
X157353000Y-109728000D03*
%TD*%
%TO.P,TP9,1,1*%
%TO.N,P4*%
X179070000Y-76200000D03*
%TD*%
%TO.P,TP14,1,1*%
%TO.N,P1*%
X179070000Y-88900000D03*
%TD*%
%TO.P,TP20,1,1*%
%TO.N,D1*%
X212090000Y-55880000D03*
%TD*%
%TO.P,TP40,1,1*%
%TO.N,_D4*%
X105410000Y-48260000D03*
%TD*%
%TO.P,TP33,1,1*%
%TO.N,BCLK*%
X212090000Y-88900000D03*
%TD*%
%TO.P,TP46,1,1*%
%TO.N,_P7*%
X105410000Y-63500000D03*
%TD*%
%TO.P,TP36,1,1*%
%TO.N,~{K0}*%
X212090000Y-96520000D03*
%TD*%
%TO.P,TP56,1,1*%
%TO.N,_~{K2}*%
X105410000Y-93980000D03*
%TD*%
%TO.P,TP53,1,1*%
%TO.N,_~{KR2}*%
X105410000Y-86360000D03*
%TD*%
%TO.P,TP59,1,1*%
%TO.N,_~{K5}*%
X105410000Y-101600000D03*
%TD*%
%TO.P,TP18,1,1*%
%TO.N,~{K3}*%
X179070000Y-101600000D03*
%TD*%
%TO.P,TP8,1,1*%
%TO.N,P7*%
X179070000Y-73660000D03*
%TD*%
%TO.P,TP28,1,1*%
%TO.N,CS1*%
X212090000Y-76200000D03*
%TD*%
%TO.P,TP23,1,1*%
%TO.N,A0*%
X212090000Y-63500000D03*
%TD*%
%TO.P,TP49,1,1*%
%TO.N,_P2*%
X105410000Y-71120000D03*
%TD*%
%TO.P,TP19,1,1*%
%TO.N,D2*%
X212090000Y-53340000D03*
%TD*%
%TO.P,TP83,1,1*%
%TO.N,GND*%
X138430000Y-104140000D03*
%TD*%
%TO.P,TP60,1,1*%
%TO.N,_SID*%
X138430000Y-101600000D03*
%TD*%
%TO.P,TP41,1,1*%
%TO.N,_D5*%
X105410000Y-50800000D03*
%TD*%
%TO.P,TP55,1,1*%
%TO.N,_~{K1}*%
X105410000Y-91440000D03*
%TD*%
%TO.P,TP39,1,1*%
%TO.N,_D3*%
X105410000Y-45720000D03*
%TD*%
%TO.P,TP61,1,1*%
%TO.N,_~{KR1}*%
X138430000Y-99060000D03*
%TD*%
%TO.P,TP26,1,1*%
%TO.N,A3*%
X212090000Y-71120000D03*
%TD*%
%TO.P,TP30,1,1*%
%TO.N,~{IRQ}*%
X212090000Y-81280000D03*
%TD*%
%TO.P,TP90,1,1*%
%TO.N,+3.3V*%
X164973000Y-106934000D03*
%TD*%
%TO.P,TP72,1,1*%
%TO.N,_A1*%
X138430000Y-71120000D03*
%TD*%
%TO.P,TP98,1,1*%
%TO.N,OE*%
X152273000Y-109728000D03*
%TD*%
%TO.P,TP95,1,1*%
%TO.N,Net-(J3-JA3)*%
X157353000Y-120142000D03*
%TD*%
%TO.P,TP62,1,1*%
%TO.N,_BCLKO*%
X138430000Y-96520000D03*
%TD*%
%TO.P,TP29,1,1*%
%TO.N,~{CS0}*%
X212090000Y-78740000D03*
%TD*%
%TO.P,TP3,1,1*%
%TO.N,D5*%
X179070000Y-60960000D03*
%TD*%
%TO.P,TP2,1,1*%
%TO.N,D4*%
X179070000Y-58420000D03*
%TD*%
%TO.P,TP76,1,1*%
%TO.N,_AUDIO3*%
X138430000Y-60960000D03*
%TD*%
%TO.P,TP94,1,1*%
%TO.N,Net-(J3-JA2)*%
X154813000Y-120142000D03*
%TD*%
%TO.P,TP91,1,1*%
%TO.N,Net-(J3-JA10)*%
X159893000Y-109728000D03*
%TD*%
%TO.P,TP37,1,1*%
%TO.N,~{K1}*%
X212090000Y-99060000D03*
%TD*%
%TO.P,TP47,1,1*%
%TO.N,_P4*%
X105410000Y-66040000D03*
%TD*%
%TO.P,J4,1,GND*%
%TO.N,GND*%
X187960000Y-53340000D03*
%TO.P,J4,2,D3*%
%TO.N,D3*%
X187960000Y-55880000D03*
%TO.P,J4,3,D4*%
%TO.N,D4*%
X187960000Y-58420000D03*
%TO.P,J4,4,D5*%
%TO.N,D5*%
X187960000Y-60960000D03*
%TO.P,J4,5,D6*%
%TO.N,D6*%
X187960000Y-63500000D03*
%TO.P,J4,6,D7*%
%TO.N,D7*%
X187960000Y-66040000D03*
%TO.P,J4,7,PHI2*%
%TO.N,PHI2*%
X187960000Y-68580000D03*
%TO.P,J4,8,P6*%
%TO.N,P6*%
X187960000Y-71120000D03*
%TO.P,J4,9,P7*%
%TO.N,P7*%
X187960000Y-73660000D03*
%TO.P,J4,10,P4*%
%TO.N,P4*%
X187960000Y-76200000D03*
%TO.P,J4,11,P5*%
%TO.N,P5*%
X187960000Y-78740000D03*
%TO.P,J4,12,P2*%
%TO.N,P2*%
X187960000Y-81280000D03*
%TO.P,J4,13,P3*%
%TO.N,P3*%
X187960000Y-83820000D03*
%TO.P,J4,14,P0*%
%TO.N,P0*%
X187960000Y-86360000D03*
%TO.P,J4,15,P1*%
%TO.N,P1*%
X187960000Y-88900000D03*
%TO.P,J4,16,~{KR2}*%
%TO.N,~{KR2}*%
X187960000Y-91440000D03*
%TO.P,J4,17,+5V*%
%TO.N,+5V*%
X187960000Y-93980000D03*
%TO.P,J4,18,~{K5}*%
%TO.N,~{K5}*%
X187960000Y-96520000D03*
%TO.P,J4,19,~{K4}*%
%TO.N,~{K4}*%
X187960000Y-99060000D03*
%TO.P,J4,20,~{K3}*%
%TO.N,~{K3}*%
X187960000Y-101600000D03*
%TO.P,J4,21,~{K2}*%
%TO.N,~{K2}*%
X203200000Y-101600000D03*
%TO.P,J4,22,~{K1}*%
%TO.N,~{K1}*%
X203200000Y-99060000D03*
%TO.P,J4,23,~{K0}*%
%TO.N,~{K0}*%
X203200000Y-96520000D03*
%TO.P,J4,24,SID*%
%TO.N,SID*%
X203200000Y-93980000D03*
%TO.P,J4,25,~{KR1}*%
%TO.N,~{KR1}*%
X203200000Y-91440000D03*
%TO.P,J4,26,BCLK*%
%TO.N,BCLK*%
X203200000Y-88900000D03*
%TO.P,J4,27,OCLK*%
%TO.N,OCLK*%
X203200000Y-86360000D03*
%TO.P,J4,28,SOD*%
%TO.N,SOD*%
X203200000Y-83820000D03*
%TO.P,J4,29,~{IRQ}*%
%TO.N,~{IRQ}*%
X203200000Y-81280000D03*
%TO.P,J4,30,~{CS0}*%
%TO.N,~{CS0}*%
X203200000Y-78740000D03*
%TO.P,J4,31,CS1*%
%TO.N,CS1*%
X203200000Y-76200000D03*
%TO.P,J4,32,R/W*%
%TO.N,R{slash}W*%
X203200000Y-73660000D03*
%TO.P,J4,33,A3*%
%TO.N,A3*%
X203200000Y-71120000D03*
%TO.P,J4,34,A2*%
%TO.N,A2*%
X203200000Y-68580000D03*
%TO.P,J4,35,A1*%
%TO.N,A1*%
X203200000Y-66040000D03*
%TO.P,J4,36,A0*%
%TO.N,A0*%
X203200000Y-63500000D03*
%TO.P,J4,37,AUDIO*%
%TO.N,AUDIO*%
X203200000Y-60960000D03*
%TO.P,J4,38,D0*%
%TO.N,D0*%
X203200000Y-58420000D03*
%TO.P,J4,39,D1*%
%TO.N,D1*%
X203200000Y-55880000D03*
%TO.P,J4,40,D2*%
%TO.N,D2*%
X203200000Y-53340000D03*
%TD*%
%TO.P,TP38,1,1*%
%TO.N,~{K2}*%
X212090000Y-101600000D03*
%TD*%
%TO.P,TP79,1,1*%
%TO.N,_AUDIO0*%
X138430000Y-53340000D03*
%TD*%
%TO.P,TP78,1,1*%
%TO.N,_AUDIO1*%
X138430000Y-55880000D03*
%TD*%
%TO.P,TP80,1,1*%
%TO.N,_D0*%
X138430000Y-50800000D03*
%TD*%
%TO.P,J3,1,JA1*%
%TO.N,_DUMP*%
X152273000Y-116332000D03*
%TO.P,J3,2,JA2*%
%TO.N,Net-(J3-JA2)*%
X154813000Y-116332000D03*
%TO.P,J3,3,JA3*%
%TO.N,Net-(J3-JA3)*%
X157353000Y-116332000D03*
%TO.P,J3,4,JA4*%
%TO.N,Net-(J3-JA4)*%
X159893000Y-116332000D03*
%TO.P,J3,5,G*%
%TO.N,GND*%
X162433000Y-116332000D03*
%TO.P,J3,6,V*%
%TO.N,3V3_A*%
X164973000Y-116332000D03*
%TO.P,J3,7,JA7*%
%TO.N,OE*%
X152273000Y-113792000D03*
%TO.P,J3,8,JA8*%
%TO.N,Net-(J3-JA8)*%
X154813000Y-113792000D03*
%TO.P,J3,9,JA9*%
%TO.N,Net-(J3-JA9)*%
X157353000Y-113792000D03*
%TO.P,J3,10,JA10*%
%TO.N,Net-(J3-JA10)*%
X159893000Y-113792000D03*
%TO.P,J3,11,G*%
%TO.N,GND*%
X162433000Y-113792000D03*
%TO.P,J3,12,V*%
%TO.N,3V3_A*%
X164973000Y-113792000D03*
%TD*%
%TO.P,TP75,1,1*%
%TO.N,_AUDIO4*%
X138430000Y-63500000D03*
%TD*%
%TO.P,TP57,1,1*%
%TO.N,_~{K3}*%
X105410000Y-96520000D03*
%TD*%
%TO.P,TP35,1,1*%
%TO.N,SID*%
X212090000Y-93980000D03*
%TD*%
%TO.P,TP77,1,1*%
%TO.N,_AUDIO2*%
X138430000Y-58420000D03*
%TD*%
%TO.P,TP25,1,1*%
%TO.N,A2*%
X212090000Y-68580000D03*
%TD*%
%TO.P,TP88,1,1*%
%TO.N,+5V*%
X187960000Y-113792000D03*
%TD*%
%TO.P,TP34,1,1*%
%TO.N,~{KR1}*%
X212090000Y-91440000D03*
%TD*%
%TO.P,TP73,1,1*%
%TO.N,_A0*%
X138430000Y-68580000D03*
%TD*%
%TO.P,TP85,1,1*%
%TO.N,GND*%
X156210000Y-106934000D03*
%TD*%
%TO.P,TP97,1,1*%
%TO.N,_DUMP*%
X152273000Y-120142000D03*
%TD*%
%TO.P,TP22,1,1*%
%TO.N,AUDIO*%
X212090000Y-60960000D03*
%TD*%
%TO.P,J2,1,PIO01*%
%TO.N,_D3*%
X114300000Y-45720000D03*
%TO.P,J2,2,PIO02*%
%TO.N,_D4*%
X114300000Y-48260000D03*
%TO.P,J2,3,PIO03*%
%TO.N,_D5*%
X114300000Y-50800000D03*
%TO.P,J2,4,PIO04*%
%TO.N,_D6*%
X114300000Y-53340000D03*
%TO.P,J2,5,PIO05*%
%TO.N,_D7*%
X114300000Y-55880000D03*
%TO.P,J2,6,PIO06*%
%TO.N,_PHI2*%
X114300000Y-58420000D03*
%TO.P,J2,7,PIO07*%
%TO.N,_P6*%
X114300000Y-60960000D03*
%TO.P,J2,8,PIO08*%
%TO.N,_P7*%
X114300000Y-63500000D03*
%TO.P,J2,9,PIO09*%
%TO.N,_P4*%
X114300000Y-66040000D03*
%TO.P,J2,10,PIO10*%
%TO.N,_P5*%
X114300000Y-68580000D03*
%TO.P,J2,11,PIO11*%
%TO.N,_P2*%
X114300000Y-71120000D03*
%TO.P,J2,12,PIO12*%
%TO.N,_P3*%
X114300000Y-73660000D03*
%TO.P,J2,13,PIO13*%
%TO.N,_P0*%
X114300000Y-76200000D03*
%TO.P,J2,14,PIO14*%
%TO.N,_P1*%
X114300000Y-78740000D03*
%TO.P,J2,15,AIN15*%
%TO.N,unconnected-(J2-AIN15-Pad15)*%
X114300000Y-81280000D03*
%TO.P,J2,16,AIN16*%
%TO.N,unconnected-(J2-AIN16-Pad16)*%
X114300000Y-83820000D03*
%TO.P,J2,17,PIO17*%
%TO.N,_~{KR2}*%
X114300000Y-86360000D03*
%TO.P,J2,18,PIO18*%
%TO.N,_~{K0}*%
X114300000Y-88900000D03*
%TO.P,J2,19,PIO19*%
%TO.N,_~{K1}*%
X114300000Y-91440000D03*
%TO.P,J2,20,PIO20*%
%TO.N,_~{K2}*%
X114300000Y-93980000D03*
%TO.P,J2,21,PIO21*%
%TO.N,_~{K3}*%
X114300000Y-96520000D03*
%TO.P,J2,22,PIO22*%
%TO.N,_~{K4}*%
X114300000Y-99060000D03*
%TO.P,J2,23,PIO23*%
%TO.N,_~{K5}*%
X114300000Y-101600000D03*
%TO.P,J2,24,VU*%
%TO.N,+5V*%
X114300000Y-104140000D03*
%TO.P,J2,25,GND*%
%TO.N,GND*%
X129540000Y-104140000D03*
%TO.P,J2,26,PIO26*%
%TO.N,_SID*%
X129540000Y-101600000D03*
%TO.P,J2,27,PIO27*%
%TO.N,_~{KR1}*%
X129540000Y-99060000D03*
%TO.P,J2,28,PIO28*%
%TO.N,_BCLKO*%
X129540000Y-96520000D03*
%TO.P,J2,29,PIO29*%
%TO.N,_BCLKI*%
X129540000Y-93980000D03*
%TO.P,J2,30,PIO30*%
%TO.N,_OCLK*%
X129540000Y-91440000D03*
%TO.P,J2,31,PIO31*%
%TO.N,_SOD*%
X129540000Y-88900000D03*
%TO.P,J2,32,PIO32*%
%TO.N,_~{IRQ}*%
X129540000Y-86360000D03*
%TO.P,J2,33,PIO33*%
%TO.N,_~{CS0}*%
X129540000Y-83820000D03*
%TO.P,J2,34,PIO34*%
%TO.N,_CS1*%
X129540000Y-81280000D03*
%TO.P,J2,35,PIO35*%
%TO.N,_R{slash}W*%
X129540000Y-78740000D03*
%TO.P,J2,36,PIO36*%
%TO.N,_A3*%
X129540000Y-76200000D03*
%TO.P,J2,37,PIO37*%
%TO.N,_A2*%
X129540000Y-73660000D03*
%TO.P,J2,38,PIO38*%
%TO.N,_A1*%
X129540000Y-71120000D03*
%TO.P,J2,39,PIO39*%
%TO.N,_A0*%
X129540000Y-68580000D03*
%TO.P,J2,40,PIO40*%
%TO.N,_AUDIO5*%
X129540000Y-66040000D03*
%TO.P,J2,41,PIO41*%
%TO.N,_AUDIO4*%
X129540000Y-63500000D03*
%TO.P,J2,42,PIO42*%
%TO.N,_AUDIO3*%
X129540000Y-60960000D03*
%TO.P,J2,43,PIO43*%
%TO.N,_AUDIO2*%
X129540000Y-58420000D03*
%TO.P,J2,44,PIO44*%
%TO.N,_AUDIO1*%
X129540000Y-55880000D03*
%TO.P,J2,45,PIO45*%
%TO.N,_AUDIO0*%
X129540000Y-53340000D03*
%TO.P,J2,46,PIO46*%
%TO.N,_D0*%
X129540000Y-50800000D03*
%TO.P,J2,47,PIO47*%
%TO.N,_D1*%
X129540000Y-48260000D03*
%TO.P,J2,48,PIO48*%
%TO.N,_D2*%
X129540000Y-45720000D03*
%TD*%
%TO.P,TP52,1,1*%
%TO.N,_P1*%
X105410000Y-78740000D03*
%TD*%
%TO.P,TP64,1,1*%
%TO.N,_OCLK*%
X138430000Y-91440000D03*
%TD*%
%TO.P,TP81,1,1*%
%TO.N,_D1*%
X138430000Y-48260000D03*
%TD*%
%TO.P,TP89,1,1*%
%TO.N,+3.3V*%
X168021000Y-45720000D03*
%TD*%
%TO.P,TP96,1,1*%
%TO.N,Net-(J3-JA4)*%
X159893000Y-120142000D03*
%TD*%
%TO.P,TP13,1,1*%
%TO.N,P0*%
X179070000Y-86360000D03*
%TD*%
%TO.P,TP67,1,1*%
%TO.N,_~{CS0}*%
X138430000Y-83820000D03*
%TD*%
%TO.P,TP6,1,1*%
%TO.N,PHI2*%
X179070000Y-68580000D03*
%TD*%
%TO.P,TP44,1,1*%
%TO.N,_PHI2*%
X105410000Y-58420000D03*
%TD*%
%TO.P,TP45,1,1*%
%TO.N,_P6*%
X105410000Y-60960000D03*
%TD*%
%TO.P,TP32,1,1*%
%TO.N,OCLK*%
X212090000Y-86360000D03*
%TD*%
D13*
%TO.N,+3.3V*%
X155702000Y-75692000D03*
X165100000Y-61468000D03*
X171577000Y-60198000D03*
X155575000Y-81534000D03*
X165100000Y-60452000D03*
X155702000Y-87376000D03*
X171450000Y-51435000D03*
X165100000Y-62484000D03*
X168910000Y-94234000D03*
X143637000Y-79756000D03*
X142748000Y-69977000D03*
X169037000Y-101092000D03*
%TO.N,GND*%
X172847000Y-54737000D03*
X171958000Y-87630000D03*
X173482000Y-50800000D03*
X197612000Y-86106000D03*
X151765000Y-47625000D03*
X156972000Y-79375000D03*
X172720000Y-63754000D03*
X197623000Y-90943000D03*
X108077000Y-104140000D03*
X188722000Y-116332000D03*
X171069000Y-94107000D03*
X193548000Y-81280000D03*
X193548000Y-90932000D03*
X197612000Y-101092000D03*
X193548000Y-100584000D03*
X157734000Y-75311000D03*
X192659000Y-113792000D03*
X170815000Y-75946000D03*
X148209000Y-115824000D03*
X170307000Y-104775000D03*
X151765000Y-66929000D03*
X157734000Y-87122000D03*
X170307000Y-97917000D03*
X171069000Y-100965000D03*
X151765000Y-57277000D03*
X151765000Y-71755000D03*
X144780000Y-73660000D03*
X145542000Y-79502000D03*
X172974000Y-85344000D03*
X171958000Y-82042000D03*
X151765000Y-62103000D03*
X145542000Y-69723000D03*
X173482000Y-59944000D03*
X193548000Y-86106000D03*
X144907000Y-83312000D03*
X197612000Y-95758000D03*
X156972000Y-91059000D03*
X157734000Y-81153000D03*
X172212000Y-90424000D03*
X193548000Y-71628000D03*
X151765000Y-52451000D03*
X172212000Y-80010000D03*
X184912000Y-118618000D03*
X193548000Y-66802000D03*
X193548000Y-76454000D03*
X156972000Y-84963000D03*
X193548000Y-95758000D03*
%TO.N,+5V*%
X173101000Y-94234000D03*
X175514000Y-51435000D03*
X169418000Y-90424000D03*
X169291000Y-85090000D03*
X173101000Y-101092000D03*
X159766000Y-75692000D03*
X159766000Y-81534000D03*
X159766000Y-87376000D03*
X169418000Y-80137000D03*
X147447000Y-69977000D03*
X175387000Y-60198000D03*
X147447000Y-79756000D03*
%TO.N,D3*%
X179070000Y-53848000D03*
%TO.N,D4*%
X177546000Y-60706000D03*
X177546000Y-58420000D03*
%TO.N,D7*%
X177546000Y-63246000D03*
X177546000Y-66040000D03*
%TO.N,PHI2*%
X161290000Y-82804000D03*
X161290000Y-68580000D03*
%TO.N,P6*%
X174117000Y-79121000D03*
X174117000Y-71120000D03*
X191008000Y-67818000D03*
%TO.N,P7*%
X172085000Y-73660000D03*
X172085000Y-77470000D03*
%TO.N,P4*%
X176784000Y-76200000D03*
X176784000Y-82804000D03*
%TO.N,P5*%
X175006000Y-78740000D03*
X168656000Y-81534000D03*
X175006000Y-81534000D03*
X168656000Y-83312000D03*
%TO.N,P2*%
X168910000Y-86614000D03*
X177546000Y-87122000D03*
X191008000Y-85090000D03*
X177546000Y-81280000D03*
X168910000Y-88138000D03*
%TO.N,P3*%
X191008000Y-89916000D03*
%TO.N,P0*%
X191008000Y-94742000D03*
X174752000Y-89916000D03*
X174752000Y-86360000D03*
%TO.N,P1*%
X189484000Y-100584000D03*
%TO.N,~{KR2}*%
X177292000Y-102362000D03*
X177292000Y-91440000D03*
%TO.N,~{K4}*%
X176276000Y-99060000D03*
X176276000Y-96266000D03*
%TO.N,~{K3}*%
X180594000Y-95250000D03*
X180594000Y-101600000D03*
%TO.N,~{K2}*%
X207772000Y-101600000D03*
X207772000Y-104902000D03*
%TO.N,~{K1}*%
X206502000Y-104140000D03*
X206502000Y-99060000D03*
%TO.N,~{K0}*%
X204724000Y-103378000D03*
X204724000Y-96520000D03*
%TO.N,SID*%
X147574000Y-92202000D03*
X147574000Y-82423000D03*
%TO.N,~{KR1}*%
X206502000Y-91440000D03*
X206502000Y-97790000D03*
%TO.N,BCLK*%
X200406000Y-100203000D03*
X168021000Y-72898000D03*
X207137000Y-72390000D03*
X168021000Y-77724000D03*
%TO.N,OCLK*%
X200406000Y-94742000D03*
%TO.N,SOD*%
X200406000Y-90043000D03*
%TO.N,~{IRQ}*%
X200406000Y-81280000D03*
X200406000Y-85217000D03*
%TO.N,~{CS0}*%
X151638000Y-74422000D03*
X151257000Y-81407000D03*
X175895000Y-72136000D03*
X175895000Y-77470000D03*
X165481000Y-75946000D03*
X165481000Y-72136000D03*
%TO.N,CS1*%
X150368000Y-74295000D03*
X150368000Y-80899000D03*
%TO.N,R{slash}W*%
X149352000Y-80518000D03*
X149352000Y-73787000D03*
%TO.N,A3*%
X163576000Y-72644000D03*
X163957000Y-70485000D03*
%TO.N,A2*%
X162560000Y-72390000D03*
X163195000Y-69723000D03*
%TO.N,A1*%
X149098000Y-71374000D03*
X186309000Y-67183000D03*
X186309000Y-64770000D03*
X149352000Y-68707000D03*
%TO.N,A0*%
X184150000Y-66802000D03*
X184150000Y-62230000D03*
X148336000Y-70739000D03*
X148336000Y-67945000D03*
%TO.N,AUDIO*%
X159512000Y-46736000D03*
X159512000Y-51562000D03*
X159512000Y-66040000D03*
X159512000Y-61214000D03*
X159512000Y-70866000D03*
X159512000Y-56388000D03*
%TO.N,D0*%
X201676000Y-50038000D03*
X201676000Y-58420000D03*
%TO.N,D1*%
X200660000Y-55880000D03*
X200660000Y-51054000D03*
%TO.N,D2*%
X199390000Y-53340000D03*
X199390000Y-51308000D03*
%TO.N,_D3*%
X116586000Y-54356000D03*
X116586000Y-45720000D03*
%TO.N,_D4*%
X117856000Y-48260000D03*
X170307000Y-54991000D03*
X117856000Y-55245000D03*
X170307000Y-61214000D03*
%TO.N,_D5*%
X169545000Y-62103000D03*
X124968000Y-59563000D03*
X124968000Y-50800000D03*
X169545000Y-59055000D03*
%TO.N,_D6*%
X168529000Y-62865000D03*
X125857000Y-53340000D03*
X125857000Y-60325000D03*
X168529000Y-59817000D03*
%TO.N,_D7*%
X126619000Y-62103000D03*
X126619000Y-55880000D03*
%TO.N,_PHI2*%
X140335000Y-84709000D03*
X140335000Y-57277000D03*
%TO.N,_P6*%
X123825000Y-76708000D03*
X123825000Y-60960000D03*
%TO.N,_P7*%
X123063000Y-77597000D03*
X123063000Y-63500000D03*
%TO.N,_P4*%
X125349000Y-66040000D03*
X125349000Y-74676000D03*
%TO.N,_P5*%
X124587000Y-68580000D03*
X124587000Y-75565000D03*
%TO.N,_P2*%
X120269000Y-89662000D03*
X120269000Y-71120000D03*
%TO.N,_P3*%
X119507000Y-73660000D03*
X119507000Y-90424000D03*
%TO.N,_P0*%
X122174000Y-86741000D03*
X122174000Y-76200000D03*
%TO.N,_P1*%
X121285000Y-87757000D03*
X121285000Y-78740000D03*
%TO.N,_~{KR2}*%
X118618000Y-86360000D03*
X145034000Y-107569000D03*
X145034000Y-102362000D03*
X118618000Y-107569000D03*
%TO.N,_~{K0}*%
X146050000Y-108331000D03*
X117729000Y-88900000D03*
X117729000Y-108331000D03*
X146050000Y-103124000D03*
%TO.N,_~{K1}*%
X146939000Y-103632000D03*
X146939000Y-109093000D03*
X116713000Y-109093000D03*
X116713000Y-91440000D03*
%TO.N,_~{K2}*%
X115824000Y-93980000D03*
X147955000Y-104140000D03*
X147955000Y-109855000D03*
X115824000Y-109855000D03*
%TO.N,_SID*%
X143764000Y-101600000D03*
X143764000Y-82550000D03*
%TO.N,_BCLKO*%
X141097000Y-99314000D03*
%TO.N,_BCLKI*%
X146177000Y-93980000D03*
X146177000Y-83947000D03*
%TO.N,_SOD*%
X195834000Y-106934000D03*
X195834000Y-90043000D03*
X142621000Y-105537000D03*
%TO.N,_~{IRQ}*%
X143891000Y-104775000D03*
X143002000Y-86360000D03*
X196342000Y-106045000D03*
X196342000Y-85217000D03*
%TO.N,_~{CS0}*%
X142748000Y-82042000D03*
X142748000Y-83820000D03*
%TO.N,_R{slash}W*%
X142748000Y-80645000D03*
X142748000Y-78740000D03*
%TO.N,_A3*%
X143637000Y-72898000D03*
X143637000Y-76200000D03*
%TO.N,_A0*%
X143637000Y-68580000D03*
X143637000Y-70739000D03*
%TO.N,_AUDIO5*%
X150241000Y-66040000D03*
X150241000Y-69850000D03*
%TO.N,_AUDIO4*%
X150876000Y-65024000D03*
X150876000Y-63500000D03*
%TO.N,_AUDIO2*%
X151003000Y-55438000D03*
X151003000Y-58420000D03*
%TO.N,_AUDIO1*%
X149987000Y-50612000D03*
X149987000Y-55880000D03*
%TO.N,_AUDIO0*%
X149098000Y-45786000D03*
X149098000Y-53340000D03*
%TO.N,_D0*%
X142113000Y-48895000D03*
X163576000Y-52197000D03*
X163576000Y-48895000D03*
X142113000Y-50800000D03*
%TO.N,_D1*%
X164338000Y-53086000D03*
X164338000Y-48133000D03*
%TO.N,_D2*%
X165354000Y-53467000D03*
X165354000Y-44450000D03*
%TO.N,_DUMP*%
X194945000Y-112014000D03*
X194945000Y-101473000D03*
X194945000Y-82169000D03*
X194945000Y-96647000D03*
X194945000Y-72517000D03*
X194945000Y-91821000D03*
X194945000Y-77343000D03*
X194945000Y-67691000D03*
X153543000Y-112014000D03*
X194945000Y-86995000D03*
%TO.N,OE*%
X152273000Y-91313000D03*
X152273000Y-106045000D03*
X174244000Y-104648000D03*
X174244000Y-98171000D03*
X152273000Y-80010000D03*
X174244000Y-106680000D03*
X176276000Y-55118000D03*
X176276000Y-64389000D03*
X152273000Y-85725000D03*
X152273000Y-75565000D03*
X152273000Y-83312000D03*
%TO.N,Net-(U8-B3)*%
X167386000Y-84074000D03*
X167386000Y-90678000D03*
%TO.N,Net-(U7-3Y)*%
X173736000Y-91440000D03*
X165608000Y-91440000D03*
X165608000Y-89916000D03*
X173736000Y-89154000D03*
%TO.N,Net-(U7-2Y)*%
X166624000Y-89408000D03*
X166624000Y-87884000D03*
%TO.N,Net-(U10-B3)*%
X168910000Y-76962000D03*
X168910000Y-79248000D03*
%TO.N,Net-(U10-B1)*%
X163576000Y-77724000D03*
X163576000Y-86106000D03*
X172212000Y-86106000D03*
X172212000Y-83566000D03*
%TO.N,Net-(U10-B0)*%
X162306000Y-76962000D03*
X162306000Y-82550000D03*
%TO.N,Net-(U11-3Y)*%
X172974000Y-80772000D03*
X173101000Y-78232000D03*
%TO.N,3V3_B*%
X183007000Y-116332000D03*
%TD*%
D14*
%TO.N,D3*%
X179070000Y-53848000D02*
X179070000Y-55880000D01*
%TO.N,D4*%
X177546000Y-60706000D02*
X177546000Y-58420000D01*
%TO.N,D7*%
X177546000Y-63246000D02*
X177546000Y-66040000D01*
%TO.N,PHI2*%
X161290000Y-82804000D02*
X161290000Y-68580000D01*
D15*
%TO.N,P6*%
X191008000Y-68072000D02*
X187960000Y-71120000D01*
X174117000Y-79121000D02*
X174117000Y-71120000D01*
D14*
%TO.N,P7*%
X172085000Y-77470000D02*
X172085000Y-73660000D01*
%TO.N,P4*%
X176784000Y-82804000D02*
X176784000Y-76200000D01*
D15*
%TO.N,P5*%
X175006000Y-78740000D02*
X175006000Y-81534000D01*
D14*
X168656000Y-83312000D02*
X168656000Y-81534000D01*
D15*
%TO.N,P2*%
X189230000Y-83312000D02*
X189230000Y-82550000D01*
X189230000Y-82550000D02*
X187960000Y-81280000D01*
D14*
X177546000Y-87122000D02*
X177546000Y-81280000D01*
D15*
X191008000Y-85090000D02*
X189230000Y-83312000D01*
D14*
X168910000Y-88138000D02*
X168910000Y-86614000D01*
D15*
%TO.N,P3*%
X189738000Y-88646000D02*
X189738000Y-87376000D01*
X189738000Y-87376000D02*
X189230000Y-86868000D01*
X189230000Y-86868000D02*
X189230000Y-85090000D01*
X189230000Y-85090000D02*
X187960000Y-83820000D01*
X191008000Y-89916000D02*
X189738000Y-88646000D01*
%TO.N,P0*%
X189230000Y-89408000D02*
X189230000Y-87630000D01*
X191008000Y-94742000D02*
X189992000Y-93726000D01*
X189992000Y-93726000D02*
X189992000Y-90170000D01*
X189230000Y-87630000D02*
X187960000Y-86360000D01*
X174752000Y-86360000D02*
X174752000Y-89916000D01*
X189992000Y-90170000D02*
X189230000Y-89408000D01*
%TO.N,P1*%
X189484000Y-100584000D02*
X189484000Y-90424000D01*
X189484000Y-90424000D02*
X187960000Y-88900000D01*
D14*
%TO.N,~{KR2}*%
X177292000Y-102362000D02*
X177292000Y-91440000D01*
%TO.N,~{K4}*%
X176276000Y-96266000D02*
X176276000Y-99060000D01*
%TO.N,~{K3}*%
X180594000Y-95250000D02*
X180594000Y-101600000D01*
%TO.N,~{K2}*%
X207772000Y-104902000D02*
X207772000Y-101600000D01*
%TO.N,~{K1}*%
X206502000Y-104140000D02*
X206502000Y-99060000D01*
%TO.N,~{K0}*%
X204724000Y-103378000D02*
X204724000Y-96520000D01*
%TO.N,SID*%
X147574000Y-82423000D02*
X147574000Y-92202000D01*
%TO.N,~{KR1}*%
X206502000Y-97790000D02*
X206502000Y-91440000D01*
%TO.N,BCLK*%
X207137000Y-72390000D02*
X207137000Y-84963000D01*
X168021000Y-77724000D02*
X168021000Y-72898000D01*
X200406000Y-95758000D02*
X201058400Y-95105600D01*
X201058400Y-91041600D02*
X203200000Y-88900000D01*
X201058400Y-95105600D02*
X201058400Y-91041600D01*
X207137000Y-84963000D02*
X203200000Y-88900000D01*
X200406000Y-100203000D02*
X200406000Y-95758000D01*
%TO.N,OCLK*%
X200406000Y-90965633D02*
X201295000Y-90076633D01*
X201295000Y-90076633D02*
X201295000Y-88265000D01*
X201295000Y-88265000D02*
X203200000Y-86360000D01*
X200406000Y-94742000D02*
X200406000Y-90965633D01*
%TO.N,SOD*%
X200406000Y-90043000D02*
X200406000Y-86614000D01*
X200406000Y-86614000D02*
X203200000Y-83820000D01*
%TO.N,~{IRQ}*%
X200406000Y-85217000D02*
X200406000Y-81280000D01*
%TO.N,~{CS0}*%
X175895000Y-77470000D02*
X175895000Y-77343000D01*
X151257000Y-74803000D02*
X151638000Y-74422000D01*
X151257000Y-81407000D02*
X151257000Y-74803000D01*
X165481000Y-75946000D02*
X165481000Y-72136000D01*
X175895000Y-77343000D02*
X175895000Y-72136000D01*
D15*
%TO.N,CS1*%
X150368000Y-74295000D02*
X150368000Y-80899000D01*
D14*
%TO.N,R{slash}W*%
X149352000Y-80518000D02*
X149352000Y-73787000D01*
%TO.N,A3*%
X163576000Y-70866000D02*
X163957000Y-70485000D01*
X163576000Y-72644000D02*
X163576000Y-70866000D01*
X163957000Y-70485000D02*
X164084000Y-70358000D01*
%TO.N,A2*%
X162560000Y-70358000D02*
X162560000Y-72390000D01*
X163195000Y-69723000D02*
X162560000Y-70358000D01*
%TO.N,A1*%
X149098000Y-68834000D02*
X149352000Y-68707000D01*
X186309000Y-67183000D02*
X186309000Y-64770000D01*
X149098000Y-71374000D02*
X149098000Y-68834000D01*
X149352000Y-68707000D02*
X149225000Y-68707000D01*
%TO.N,A0*%
X148336000Y-70739000D02*
X148336000Y-67945000D01*
X184150000Y-62230000D02*
X184150000Y-62103000D01*
X184150000Y-66802000D02*
X184150000Y-62230000D01*
%TO.N,AUDIO*%
X159512000Y-46736000D02*
X159512000Y-51562000D01*
X159512000Y-66040000D02*
X159512000Y-70866000D01*
X159512000Y-51562000D02*
X159512000Y-56388000D01*
X159512000Y-61214000D02*
X159512000Y-66040000D01*
X159512000Y-56388000D02*
X159512000Y-61214000D01*
%TO.N,D0*%
X201676000Y-50038000D02*
X201676000Y-58420000D01*
%TO.N,D1*%
X200660000Y-51054000D02*
X200660000Y-55880000D01*
%TO.N,D2*%
X199390000Y-51308000D02*
X199390000Y-53340000D01*
%TO.N,_D3*%
X116586000Y-54356000D02*
X116586000Y-45720000D01*
%TO.N,_D4*%
X170307000Y-61214000D02*
X170307000Y-54991000D01*
X117856000Y-55245000D02*
X117856000Y-48260000D01*
%TO.N,_D5*%
X124968000Y-59563000D02*
X124968000Y-50800000D01*
X169545000Y-62103000D02*
X169545000Y-59055000D01*
%TO.N,_D6*%
X168529000Y-62865000D02*
X168529000Y-59817000D01*
X125857000Y-60325000D02*
X125857000Y-53340000D01*
%TO.N,_D7*%
X126619000Y-62103000D02*
X126619000Y-55880000D01*
%TO.N,_PHI2*%
X140335000Y-57277000D02*
X140335000Y-84709000D01*
%TO.N,_P6*%
X123825000Y-70358000D02*
X123825000Y-76708000D01*
X123825000Y-60960000D02*
X123825000Y-70358000D01*
%TO.N,_P7*%
X123063000Y-77597000D02*
X123063000Y-63500000D01*
%TO.N,_P4*%
X125349000Y-74676000D02*
X125349000Y-66040000D01*
%TO.N,_P5*%
X124587000Y-75565000D02*
X124587000Y-68580000D01*
%TO.N,_P2*%
X120269000Y-80518000D02*
X120269000Y-71120000D01*
X120269000Y-89662000D02*
X120269000Y-80518000D01*
%TO.N,_P3*%
X119507000Y-90424000D02*
X119507000Y-73660000D01*
%TO.N,_P0*%
X122174000Y-86741000D02*
X122174000Y-76200000D01*
%TO.N,_P1*%
X121285000Y-87757000D02*
X121285000Y-78740000D01*
%TO.N,_~{KR2}*%
X118618000Y-107569000D02*
X118618000Y-86360000D01*
X145034000Y-102362000D02*
X145034000Y-107569000D01*
%TO.N,_~{K0}*%
X117729000Y-108331000D02*
X117729000Y-88900000D01*
X146050000Y-103124000D02*
X146050000Y-108331000D01*
%TO.N,_~{K1}*%
X116713000Y-109093000D02*
X116713000Y-91440000D01*
X146939000Y-103632000D02*
X146939000Y-109093000D01*
%TO.N,_~{K2}*%
X147955000Y-104140000D02*
X147955000Y-109855000D01*
X115824000Y-109855000D02*
X115824000Y-93980000D01*
%TO.N,_SID*%
X143764000Y-82550000D02*
X143764000Y-101600000D01*
D15*
%TO.N,_BCLKO*%
X141097000Y-99187000D02*
X141097000Y-99314000D01*
X138430000Y-96520000D02*
X141097000Y-99187000D01*
D14*
%TO.N,_BCLKI*%
X146177000Y-83947000D02*
X146177000Y-93980000D01*
%TO.N,_SOD*%
X195597400Y-101346000D02*
X195597400Y-90152600D01*
X195580000Y-106680000D02*
X195580000Y-106553000D01*
X195597400Y-90152600D02*
X195834000Y-90043000D01*
X142621000Y-105537000D02*
X142621000Y-93091000D01*
X195580000Y-106553000D02*
X195597400Y-106535600D01*
X142621000Y-93091000D02*
X138430000Y-88900000D01*
X195834000Y-90043000D02*
X195707000Y-90043000D01*
X195597400Y-106535600D02*
X195597400Y-101346000D01*
X195834000Y-106934000D02*
X195580000Y-106680000D01*
%TO.N,_~{IRQ}*%
X196723000Y-85598000D02*
X196342000Y-85217000D01*
X143891000Y-104775000D02*
X143002000Y-103886000D01*
X196723000Y-105664000D02*
X196723000Y-85598000D01*
X143002000Y-103886000D02*
X143002000Y-86360000D01*
X196342000Y-106045000D02*
X196723000Y-105664000D01*
%TO.N,_~{CS0}*%
X142748000Y-82042000D02*
X142748000Y-83820000D01*
D15*
%TO.N,_R{slash}W*%
X142748000Y-78740000D02*
X142748000Y-80645000D01*
D14*
%TO.N,_A3*%
X143637000Y-72898000D02*
X143637000Y-76200000D01*
D15*
%TO.N,_A0*%
X143637000Y-68580000D02*
X143637000Y-70739000D01*
%TO.N,_AUDIO5*%
X150241000Y-66040000D02*
X150241000Y-69850000D01*
%TO.N,_AUDIO2*%
X151003000Y-58420000D02*
X151003000Y-55438000D01*
%TO.N,_AUDIO1*%
X149987000Y-55880000D02*
X149987000Y-50612000D01*
%TO.N,_AUDIO0*%
X149098000Y-53340000D02*
X149098000Y-45786000D01*
D14*
%TO.N,_D0*%
X142113000Y-48895000D02*
X142113000Y-50800000D01*
X163576000Y-52197000D02*
X163576000Y-48895000D01*
%TO.N,_D1*%
X164338000Y-53086000D02*
X164338000Y-48133000D01*
%TO.N,_D2*%
X165354000Y-53467000D02*
X165354000Y-44450000D01*
D15*
%TO.N,_DUMP*%
X194945000Y-72517000D02*
X194945000Y-75819000D01*
X153543000Y-115062000D02*
X152273000Y-116332000D01*
X194945000Y-86995000D02*
X194945000Y-91821000D01*
X194945000Y-96647000D02*
X194945000Y-101473000D01*
D14*
X152273000Y-116332000D02*
X152273000Y-120142000D01*
D15*
X194945000Y-91821000D02*
X194945000Y-96520000D01*
X194945000Y-101473000D02*
X194945000Y-112014000D01*
X194945000Y-67691000D02*
X194945000Y-72517000D01*
X194945000Y-82169000D02*
X194945000Y-86995000D01*
X194945000Y-77343000D02*
X194945000Y-82169000D01*
X194945000Y-75819000D02*
X194945000Y-77343000D01*
X153543000Y-112014000D02*
X153543000Y-115062000D01*
D14*
%TO.N,OE*%
X152273000Y-109728000D02*
X152273000Y-106045000D01*
X152273000Y-91313000D02*
X152273000Y-85725000D01*
X175006000Y-66929000D02*
X176276000Y-65659000D01*
X152273000Y-83312000D02*
X152273000Y-80010000D01*
X176276000Y-64389000D02*
X176276000Y-55118000D01*
X174244000Y-98171000D02*
X174244000Y-97409000D01*
X174244000Y-97409000D02*
X174244000Y-92202000D01*
X174244000Y-106680000D02*
X174244000Y-104648000D01*
X174244000Y-92202000D02*
X175768000Y-90678000D01*
X175768000Y-78486000D02*
X175006000Y-77724000D01*
X175768000Y-90678000D02*
X175768000Y-78486000D01*
X152273000Y-109728000D02*
X152273000Y-113792000D01*
X152273000Y-106045000D02*
X152273000Y-91313000D01*
X152273000Y-80010000D02*
X152273000Y-75565000D01*
X175006000Y-70993000D02*
X175006000Y-66929000D01*
X176276000Y-65659000D02*
X176276000Y-64389000D01*
X152273000Y-85725000D02*
X152273000Y-83312000D01*
X175006000Y-77724000D02*
X175006000Y-70993000D01*
X174244000Y-104648000D02*
X174244000Y-98171000D01*
%TO.N,Net-(U8-B3)*%
X167386000Y-90678000D02*
X167386000Y-84074000D01*
%TO.N,Net-(U7-3Y)*%
X165608000Y-89916000D02*
X165608000Y-91440000D01*
X173736000Y-89154000D02*
X173736000Y-91440000D01*
%TO.N,Net-(U7-2Y)*%
X166624000Y-89408000D02*
X166624000Y-87884000D01*
%TO.N,Net-(U10-B3)*%
X168910000Y-79248000D02*
X168910000Y-76962000D01*
%TO.N,Net-(U10-B1)*%
X172212000Y-83566000D02*
X172212000Y-86106000D01*
X163576000Y-86106000D02*
X163576000Y-77724000D01*
%TO.N,Net-(U10-B0)*%
X162306000Y-76962000D02*
X162306000Y-82550000D01*
D15*
%TO.N,Net-(U11-3Y)*%
X173101000Y-78232000D02*
X173101000Y-80645000D01*
D16*
%TO.N,3V3_A*%
X164973000Y-116332000D02*
X164973000Y-113792000D01*
D14*
%TO.N,Net-(J3-JA2)*%
X154813000Y-116332000D02*
X154813000Y-120142000D01*
%TO.N,Net-(J3-JA3)*%
X157353000Y-116332000D02*
X157353000Y-120142000D01*
%TO.N,Net-(J3-JA4)*%
X159893000Y-116332000D02*
X159893000Y-120142000D01*
%TO.N,Net-(J3-JA8)*%
X154813000Y-113792000D02*
X154813000Y-109728000D01*
%TO.N,Net-(J3-JA9)*%
X157353000Y-113792000D02*
X157353000Y-109728000D01*
%TO.N,Net-(J3-JA10)*%
X159893000Y-113792000D02*
X159893000Y-109728000D01*
%TD*%
M02*
